<?xml version="1.0" encoding="UTF-8" standalone="no"?><!DOCTYPE svg PUBLIC "-//W3C//DTD SVG 1.1//EN" "http://www.w3.org/Graphics/SVG/1.1/DTD/svg11.dtd"><svg width="100%" height="100%" viewBox="0 0 982 229" version="1.1" xmlns="http://www.w3.org/2000/svg" xmlns:xlink="http://www.w3.org/1999/xlink" xml:space="preserve" xmlns:serif="http://www.serif.com/" style="fill-rule:evenodd;clip-rule:evenodd;stroke-linejoin:round;stroke-miterlimit:1.41421;"><rect id="Artboard1" x="0" y="0" width="981.622" height="228.032" style="fill:none;"/><g><path d="M258.984,95.078l14.801,0c9.36,0 13.95,-5.184 13.95,-14.712l0,-30.13c0,-9.529 -4.59,-14.713 -13.95,-14.713l-14.801,0l0,59.555Zm14.631,-51.056c2.981,0 4.77,1.532 4.77,5.788l0,30.981c0,4.256 -1.789,5.788 -4.77,5.788l-5.281,0l0,-42.557l5.281,0Z" style="fill:#183d7e;fill-rule:nonzero;"/><rect x="293.702" y="35.523" width="9.35" height="59.555" style="fill:#183d7e;fill-rule:nonzero;"/><path d="M338.961,95.078c-0.936,-2.213 -1.021,-4.34 -1.021,-7.233l0,-9.19c0,-6.212 -1.53,-10.633 -6.205,-12.588l0,-0.17c4.165,-1.955 6.12,-5.868 6.12,-11.998l0,-4.683c0,-9.188 -4.165,-13.693 -13.865,-13.693l-14.12,0l0,59.555l9.349,0l0,-24.252l3.238,0c4.259,0 6.133,2.043 6.133,7.574l0,9.36c0,4.85 0.34,5.786 0.85,7.318l9.521,0Zm-15.227,-51.056c3.323,0 4.771,1.873 4.771,6.13l0,5.875c0,4.768 -2.13,6.301 -5.622,6.301l-3.664,0l0,-18.306l4.515,0Z" style="fill:#183d7e;fill-rule:nonzero;"/><path d="M353.427,44.022l16.168,0l0,-8.499l-25.518,0l0,59.555l25.518,0l0,-8.499l-16.168,0l0,-17.455l12.849,0l0,-8.498l-12.849,0l0,-16.604Z" style="fill:#183d7e;fill-rule:nonzero;"/><path d="M396.739,95.078l9.616,0l-13.019,-33.01l13.019,-26.545l-9.36,0l-12.084,25.779l-0.17,0l0,-25.779l-9.349,0l0,59.555l9.349,0l0,-18.292l2.893,-5.445l9.105,23.737Z" style="fill:#183d7e;fill-rule:nonzero;"/><path d="M407.897,44.022l9.786,0l0,51.056l9.35,0l0,-51.056l9.785,0l0,-8.499l-28.921,0l0,8.499Z" style="fill:#183d7e;fill-rule:nonzero;"/><path d="M449.497,49.214c0,-4.256 1.874,-5.873 4.856,-5.873c2.981,0 4.855,1.617 4.855,5.873l0,32.173c0,4.256 -1.874,5.873 -4.855,5.873c-2.982,0 -4.856,-1.617 -4.856,-5.873l0,-32.173Zm-9.349,31.577c0,9.529 5.014,14.968 14.205,14.968c9.19,0 14.205,-5.439 14.205,-14.968l0,-30.981c0,-9.528 -5.015,-14.967 -14.205,-14.967c-9.191,0 -14.205,5.439 -14.205,14.967l0,30.981Z" style="fill:#183d7e;fill-rule:nonzero;"/><path d="M503.702,95.078c-0.936,-2.213 -1.022,-4.34 -1.022,-7.233l0,-9.19c0,-6.212 -1.529,-10.633 -6.204,-12.588l0,-0.17c4.165,-1.955 6.12,-5.868 6.12,-11.998l0,-4.683c0,-9.188 -4.165,-13.693 -13.865,-13.693l-14.121,0l0,59.555l9.35,0l0,-24.252l3.237,0c4.26,0 6.134,2.043 6.134,7.574l0,9.36c0,4.85 0.34,5.786 0.85,7.318l9.521,0Zm-15.227,-51.056c3.322,0 4.771,1.873 4.771,6.13l0,5.875c0,4.768 -2.13,6.301 -5.623,6.301l-3.663,0l0,-18.306l4.515,0Z" style="fill:#183d7e;fill-rule:nonzero;"/><path d="M529.573,35.523l-13.696,0l-9.527,59.555l8.592,0l1.616,-10.807l11.484,0l1.616,10.807l9.442,0l-9.527,-59.555Zm-7.401,10.552l0.17,0l4.424,30.123l-9.017,0l4.423,-30.123Z" style="fill:#183d7e;fill-rule:nonzero;"/><path d="M537.494,44.022l9.786,0l0,51.056l9.35,0l0,-51.056l9.785,0l0,-8.499l-28.921,0l0,8.499Z" style="fill:#183d7e;fill-rule:nonzero;"/><path d="M582.509,49.81c0,6.809 2.464,11.746 10.286,18.64c6.134,5.362 8.009,8.596 8.009,12.937c0,4.256 -1.875,5.788 -4.857,5.788c-2.981,0 -4.855,-1.532 -4.855,-5.788l0,-4.256l-8.839,0l0,3.66c0,9.528 4.76,14.968 13.951,14.968c9.189,0 13.949,-5.44 13.949,-14.968c0,-6.809 -2.465,-11.745 -10.286,-18.64c-6.135,-5.362 -8.009,-8.596 -8.009,-12.937c0,-4.256 1.704,-5.873 4.686,-5.873c2.981,0 4.685,1.617 4.685,5.873l0,2.468l8.839,0l0,-1.872c0,-9.528 -4.674,-14.967 -13.78,-14.967c-9.105,0 -13.779,5.439 -13.779,14.967Z" style="fill:#183d7e;fill-rule:nonzero;"/><path d="M612.802,44.022l9.785,0l0,51.056l9.35,0l0,-51.056l9.786,0l0,-8.499l-28.921,0l0,8.499Z" style="fill:#183d7e;fill-rule:nonzero;"/><path d="M663.34,35.523l-13.696,0l-9.527,59.555l8.591,0l1.617,-10.807l11.483,0l1.617,10.807l9.442,0l-9.527,-59.555Zm-7.401,10.552l0.17,0l4.423,30.123l-9.017,0l4.424,-30.123Z" style="fill:#183d7e;fill-rule:nonzero;"/><path d="M697.213,95.078l9.606,0l0,-59.555l-8.328,0l0,35.648l-0.171,0l-9.453,-35.648l-11.735,0l0,59.555l8.414,0l0,-43.134l0.17,0l11.497,43.134Z" style="fill:#183d7e;fill-rule:nonzero;"/><path d="M713.552,95.078l14.801,0c9.36,0 13.95,-5.184 13.95,-14.712l0,-30.13c0,-9.529 -4.59,-14.713 -13.95,-14.713l-14.801,0l0,59.555Zm14.631,-51.056c2.981,0 4.77,1.532 4.77,5.788l0,30.981c0,4.256 -1.789,5.788 -4.77,5.788l-5.281,0l0,-42.557l5.281,0Z" style="fill:#183d7e;fill-rule:nonzero;"/><path d="M768.94,35.523l-13.695,0l-9.528,59.555l8.592,0l1.616,-10.807l11.484,0l1.616,10.807l9.443,0l-9.528,-59.555Zm-7.4,10.552l0.17,0l4.423,30.123l-9.017,0l4.424,-30.123Z" style="fill:#183d7e;fill-rule:nonzero;"/><path d="M811.909,95.078c-0.936,-2.213 -1.021,-4.34 -1.021,-7.233l0,-9.19c0,-6.212 -1.53,-10.633 -6.205,-12.588l0,-0.17c4.165,-1.955 6.12,-5.868 6.12,-11.998l0,-4.683c0,-9.188 -4.165,-13.693 -13.865,-13.693l-14.12,0l0,59.555l9.35,0l0,-24.252l3.237,0c4.259,0 6.134,2.043 6.134,7.574l0,9.36c0,4.85 0.34,5.786 0.849,7.318l9.521,0Zm-15.226,-51.056c3.322,0 4.77,1.873 4.77,6.13l0,5.875c0,4.768 -2.129,6.301 -5.622,6.301l-3.663,0l0,-18.306l4.515,0Z" style="fill:#183d7e;fill-rule:nonzero;"/><path d="M817.025,95.078l14.802,0c9.36,0 13.949,-5.184 13.949,-14.712l0,-30.13c0,-9.529 -4.589,-14.713 -13.949,-14.713l-14.802,0l0,59.555Zm14.631,-51.056c2.982,0 4.771,1.532 4.771,5.788l0,30.981c0,4.256 -1.789,5.788 -4.771,5.788l-5.281,0l0,-42.557l5.281,0Z" style="fill:#183d7e;fill-rule:nonzero;"/><rect x="851.744" y="35.523" width="9.35" height="59.555" style="fill:#183d7e;fill-rule:nonzero;"/><path d="M866.72,49.81c0,6.809 2.465,11.746 10.287,18.64c6.134,5.362 8.008,8.596 8.008,12.937c0,4.256 -1.874,5.788 -4.856,5.788c-2.981,0 -4.855,-1.532 -4.855,-5.788l0,-4.256l-8.839,0l0,3.66c0,9.528 4.759,14.968 13.95,14.968c9.19,0 13.95,-5.44 13.95,-14.968c0,-6.809 -2.465,-11.745 -10.287,-18.64c-6.134,-5.362 -8.008,-8.596 -8.008,-12.937c0,-4.256 1.703,-5.873 4.685,-5.873c2.982,0 4.685,1.617 4.685,5.873l0,2.468l8.84,0l0,-1.872c0,-9.528 -4.675,-14.967 -13.781,-14.967c-9.104,0 -13.779,5.439 -13.779,14.967Z" style="fill:#183d7e;fill-rule:nonzero;"/><path d="M920.491,35.523l-13.695,0l-9.528,59.555l8.592,0l1.616,-10.807l11.484,0l1.616,10.807l9.443,0l-9.528,-59.555Zm-7.4,10.552l0.17,0l4.423,30.123l-9.017,0l4.424,-30.123Z" style="fill:#183d7e;fill-rule:nonzero;"/><path d="M933.178,49.81c0,6.809 2.465,11.746 10.287,18.64c6.134,5.362 8.008,8.596 8.008,12.937c0,4.256 -1.874,5.788 -4.856,5.788c-2.981,0 -4.855,-1.532 -4.855,-5.788l0,-4.256l-8.84,0l0,3.66c0,9.528 4.76,14.968 13.951,14.968c9.19,0 13.949,-5.44 13.949,-14.968c0,-6.809 -2.464,-11.745 -10.286,-18.64c-6.134,-5.362 -8.009,-8.596 -8.009,-12.937c0,-4.256 1.704,-5.873 4.686,-5.873c2.981,0 4.685,1.617 4.685,5.873l0,2.468l8.839,0l0,-1.872c0,-9.528 -4.674,-14.967 -13.78,-14.967c-9.104,0 -13.779,5.439 -13.779,14.967Z" style="fill:#183d7e;fill-rule:nonzero;"/><rect x="966.194" y="35.523" width="9.35" height="59.555" style="fill:#183d7e;fill-rule:nonzero;"/><path d="M422.613,130.243l-13.78,0l0,59.555l9.35,0l0,-22.379l4.43,0c9.36,0 13.95,-5.185 13.95,-14.714l0,-7.748c0,-9.529 -4.59,-14.714 -13.95,-14.714Zm0,8.499c2.982,0 4.6,1.362 4.6,5.619l0,8.94c0,4.257 -1.618,5.619 -4.6,5.619l-4.43,0l0,-20.178l4.43,0Z" style="fill:#183d7e;fill-rule:nonzero;"/><path d="M460.562,130.243l-13.695,0l-9.528,59.555l8.592,0l1.616,-10.807l11.484,0l1.617,10.807l9.442,0l-9.528,-59.555Zm-7.4,10.552l0.17,0l4.423,30.123l-9.017,0l4.424,-30.123Z" style="fill:#183d7e;fill-rule:nonzero;"/><path d="M494.436,189.798l9.606,0l0,-59.555l-8.329,0l0,35.648l-0.17,0l-9.453,-35.648l-11.735,0l0,59.555l8.414,0l0,-43.134l0.17,0l11.497,43.134Z" style="fill:#183d7e;fill-rule:nonzero;"/><path d="M524.811,165.121l4.259,0l0,10.984c0,4.257 -1.874,5.79 -4.856,5.79c-2.981,0 -4.855,-1.533 -4.855,-5.79l0,-32.169c0,-4.257 1.874,-5.875 4.855,-5.875c2.982,0 4.856,1.618 4.856,5.875l0,6.386l8.839,0l0,-5.79c0,-9.53 -4.759,-14.969 -13.95,-14.969c-9.19,0 -13.95,5.439 -13.95,14.969l0,30.977c0,9.531 4.76,14.97 13.95,14.97c9.191,0 13.95,-5.439 13.95,-14.97l0,-18.887l-13.098,0l0,8.499Z" style="fill:#183d7e;fill-rule:nonzero;"/><path d="M564.632,130.243l-13.696,0l-9.528,59.555l8.592,0l1.616,-10.807l11.484,0l1.617,10.807l9.442,0l-9.527,-59.555Zm-7.401,10.552l0.17,0l4.423,30.123l-9.017,0l4.424,-30.123Z" style="fill:#183d7e;fill-rule:nonzero;"/><path d="M598.505,189.798l9.606,0l0,-59.555l-8.329,0l0,35.648l-0.17,0l-9.453,-35.648l-11.735,0l0,59.555l8.414,0l0,-43.134l0.17,0l11.497,43.134Z" style="fill:#183d7e;fill-rule:nonzero;"/><path d="M636.617,143.934c0,-4.255 1.874,-5.873 4.856,-5.873c2.981,0 4.855,1.618 4.855,5.873l0,32.173c0,4.256 -1.874,5.873 -4.855,5.873c-2.982,0 -4.856,-1.617 -4.856,-5.873l0,-32.173Zm-9.349,31.578c0,9.528 5.014,14.967 14.205,14.967c9.19,0 14.205,-5.439 14.205,-14.967l0,-30.982c0,-9.528 -5.015,-14.967 -14.205,-14.967c-9.191,0 -14.205,5.439 -14.205,14.967l0,30.982Z" style="fill:#183d7e;fill-rule:nonzero;"/><path d="M661.73,189.798l24.752,0l0,-8.499l-15.402,0l0,-51.056l-9.35,0l0,59.555Z" style="fill:#183d7e;fill-rule:nonzero;"/><path d="M711.332,130.243l-13.695,0l-9.528,59.555l8.592,0l1.616,-10.807l11.484,0l1.616,10.807l9.442,0l-9.527,-59.555Zm-7.4,10.552l0.17,0l4.423,30.123l-9.017,0l4.424,-30.123Z" style="fill:#183d7e;fill-rule:nonzero;"/><path d="M734.56,164.27l10.647,0l0,25.528l9.52,0l0,-59.555l-9.52,0l0,25.528l-10.647,0l0,-25.528l-9.35,0l0,59.555l9.35,0l0,-25.528Z" style="fill:#183d7e;fill-rule:nonzero;"/><path d="M782.3,130.243l-13.696,0l-9.527,59.555l8.592,0l1.616,-10.807l11.484,0l1.616,10.807l9.442,0l-9.527,-59.555Zm-7.401,10.552l0.17,0l4.424,30.123l-9.017,0l4.423,-30.123Z" style="fill:#183d7e;fill-rule:nonzero;"/><path d="M816.174,189.798l9.605,0l0,-59.555l-8.328,0l0,35.648l-0.17,0l-9.453,-35.648l-11.735,0l0,59.555l8.413,0l0,-43.134l0.17,0l11.498,43.134Z" style="fill:#183d7e;fill-rule:nonzero;"/></g><rect x="230.185" y="10.943" width="6.135" height="208.001" style="fill:#183d7e;"/><path d="M69.016,112.664c13.044,11.162 29.65,21.453 48.775,6.151c19.121,-15.303 31.839,-44.886 34.711,-68.108l16.258,-9.665c0,0 1.318,48.772 -15.38,89.197c-16.695,40.424 -38.227,46.136 -38.227,46.136c-21.919,-16.233 -39.239,-40.799 -46.137,-63.711Z" style="fill:#183d7e;"/><path d="M184.182,31.732c-0.355,8.554 -2.921,50.993 -19.585,87.188c-5.41,11.748 -11.087,20.604 -16.421,27.264c3.004,-5.098 5.993,-11.03 8.848,-17.938c14.844,-35.937 16.037,-78.191 16.067,-89.9l11.091,-6.614Z" style="fill:#269f6b;"/><path d="M193.9,25.94c-0.795,11.48 -4.7,52.345 -21.496,87.459c-5.737,11.996 -11.696,21.035 -17.264,27.837c0.586,-0.967 1.173,-1.962 1.759,-2.988c5.26,-7.022 10.741,-16.318 15.811,-28.59c11.984,-29.012 15.337,-62.019 16.24,-80.769l4.95,-2.949Z" style="fill:#183d7e;"/><path d="M3.625,179.177l9.735,0c1.929,0 3.37,0.078 4.315,0.242c0.948,0.158 1.793,0.495 2.543,1.007c0.748,0.508 1.365,1.184 1.865,2.034c0.498,0.846 0.748,1.798 0.748,2.847c0,1.14 -0.306,2.187 -0.917,3.141c-0.62,0.953 -1.454,1.668 -2.502,2.143c1.479,0.431 2.624,1.17 3.419,2.207c0.801,1.042 1.195,2.268 1.195,3.675c0,1.106 -0.253,2.182 -0.769,3.233c-0.518,1.042 -1.221,1.882 -2.11,2.504c-0.89,0.626 -1.991,1.012 -3.3,1.16c-0.817,0.083 -2.797,0.141 -5.932,0.164l-8.29,0l0,-24.357Zm4.921,4.053l0,5.632l3.221,0c1.919,0 3.108,-0.028 3.573,-0.083c0.838,-0.098 1.504,-0.387 1.984,-0.871c0.482,-0.481 0.721,-1.114 0.721,-1.904c0,-0.753 -0.204,-1.367 -0.618,-1.837c-0.42,-0.47 -1.04,-0.753 -1.854,-0.851c-0.489,-0.058 -1.887,-0.086 -4.203,-0.086l-2.824,0Zm0,9.687l0,6.511l4.547,0c1.777,0 2.9,-0.048 3.375,-0.147c0.731,-0.131 1.329,-0.462 1.787,-0.971c0.459,-0.517 0.693,-1.209 0.693,-2.071c0,-0.731 -0.184,-1.348 -0.534,-1.859c-0.359,-0.509 -0.867,-0.884 -1.537,-1.117c-0.67,-0.234 -2.126,-0.346 -4.362,-0.346l-3.969,0Zm41.601,10.617l-5.354,0l-2.125,-5.535l-9.738,0l-2.007,5.535l-5.218,0l9.488,-24.357l5.2,0l9.754,24.357Zm-9.056,-9.635l-3.357,-9.04l-3.289,9.04l6.646,0Zm11.648,-14.722l8.989,0c2.024,0 3.567,0.153 4.631,0.464c1.432,0.42 2.656,1.168 3.669,2.246c1.023,1.073 1.799,2.388 2.333,3.942c0.525,1.56 0.792,3.475 0.792,5.76c0,2.002 -0.248,3.733 -0.748,5.184c-0.605,1.771 -1.473,3.205 -2.607,4.297c-0.851,0.834 -2.005,1.482 -3.456,1.947c-1.081,0.344 -2.534,0.517 -4.355,0.517l-9.248,0l0,-24.357Zm4.917,4.123l0,16.128l3.669,0c1.374,0 2.363,-0.075 2.978,-0.233c0.791,-0.198 1.455,-0.534 1.985,-1.01c0.527,-0.475 0.952,-1.265 1.286,-2.354c0.328,-1.087 0.5,-2.58 0.5,-4.461c0,-1.885 -0.172,-3.325 -0.5,-4.334c-0.334,-1.009 -0.8,-1.799 -1.395,-2.358c-0.602,-0.567 -1.362,-0.948 -2.28,-1.145c-0.686,-0.158 -2.028,-0.233 -4.039,-0.233l-2.204,0Zm41.634,20.234l-5.352,0l-2.127,-5.535l-9.738,0l-2.007,5.535l-5.218,0l9.488,-24.357l5.2,0l9.754,24.357Zm-9.055,-9.635l-3.358,-9.04l-3.288,9.04l6.646,0Zm11.711,9.635l0,-24.357l4.784,0l9.971,16.264l0,-16.264l4.57,0l0,24.357l-4.94,0l-9.815,-15.884l0,15.884l-4.57,0Z" style="fill:#183d7e;"/><path d="M135.923,203.534l0,-24.357l7.889,0c2.988,0 4.94,0.126 5.848,0.37c1.395,0.361 2.569,1.156 3.509,2.379c0.942,1.227 1.411,2.808 1.411,4.743c0,1.495 -0.271,2.754 -0.816,3.769c-0.543,1.021 -1.229,1.821 -2.068,2.405c-0.834,0.577 -1.685,0.964 -2.547,1.15c-1.174,0.234 -2.874,0.353 -5.103,0.353l-3.205,0l0,9.188l-4.918,0Zm4.918,-20.234l0,6.908l2.687,0c1.941,0 3.239,-0.126 3.892,-0.381c0.651,-0.256 1.162,-0.653 1.534,-1.199c0.37,-0.542 0.558,-1.172 0.558,-1.892c0,-0.884 -0.261,-1.616 -0.782,-2.194c-0.519,-0.573 -1.18,-0.937 -1.974,-1.079c-0.59,-0.113 -1.768,-0.163 -3.539,-0.163l-2.376,0Zm16.781,8.206c0,-2.485 0.366,-4.565 1.111,-6.249c0.557,-1.238 1.31,-2.355 2.269,-3.342c0.959,-0.981 2.007,-1.712 3.147,-2.188c1.52,-0.647 3.266,-0.964 5.251,-0.964c3.589,0 6.457,1.112 8.614,3.338c2.154,2.224 3.233,5.321 3.233,9.285c0,3.936 -1.073,7.011 -3.211,9.232c-2.138,2.218 -4.995,3.33 -8.567,3.33c-3.624,0 -6.504,-1.106 -8.642,-3.314c-2.14,-2.209 -3.205,-5.257 -3.205,-9.128Zm5.065,-0.165c0,2.756 0.639,4.848 1.91,6.272c1.275,1.423 2.893,2.132 4.853,2.132c1.957,0 3.569,-0.703 4.828,-2.121c1.251,-1.413 1.882,-3.527 1.882,-6.352c0,-2.791 -0.614,-4.87 -1.832,-6.249c-1.225,-1.373 -2.852,-2.057 -4.878,-2.057c-2.03,0 -3.662,0.695 -4.904,2.085c-1.237,1.39 -1.859,3.483 -1.859,6.29Zm22.329,12.193l0,-24.357l7.361,0l4.418,16.615l4.366,-16.615l7.381,0l0,24.357l-4.567,0l0,-19.175l-4.837,19.175l-4.735,0l-4.819,-19.175l0,19.175l-4.568,0Z" style="fill:#269f6b;"/></svg>