<?xml version="1.0" encoding="iso-8859-1"?>
<!-- Generator: Adobe Illustrator 19.0.0, SVG Export Plug-In . SVG Version: 6.00 Build 0)  -->
<svg version="1.1" id="Capa_1" xmlns="http://www.w3.org/2000/svg" xmlns:xlink="http://www.w3.org/1999/xlink" x="0px" y="0px"
	 viewBox="0 0 512 512" style="enable-background:new 0 0 512 512;" xml:space="preserve">
<path style="fill:#FFE7BD;" d="M256,252c-30.879,0-56,25.121-56,56s25.121,56,56,56s56-25.121,56-56S286.879,252,256,252z"/>
<path style="fill:#FFDFA7;" d="M272,356c-30.879,0-56-25.121-56-56c0-18.721,9.243-35.313,23.396-45.487
	C216.599,261.605,200,282.9,200,308c0,30.879,25.121,56,56,56c12.158,0,23.414-3.907,32.604-10.513
	C283.356,355.12,277.779,356,272,356z"/>
<path style="fill:#B0DB51;" d="M288,364h-64c-17.645,0-32,14.355-32,32v88c0,4.418,3.582,8,8,8h112c4.418,0,8-3.582,8-8v-88
	C320,378.356,305.645,364,288,364z"/>
<path style="fill:#9CC445;" d="M208,484v-88c0-17.645,14.355-32,32-32h-16c-17.645,0-32,14.355-32,32v88c0,4.418,3.582,8,8,8h16
	C211.582,492,208,488.418,208,484z"/>
<path style="fill:#8F807D;" d="M256.46,252.002l-71.576-7.953c-6.612-0.734-11.24,6.839-7.54,12.389L190.385,276l-13.041,19.563
	C173.862,300.785,177.741,308,184,308h83.758l21.326,31.461c1.487,2.194,3.964,3.509,6.614,3.512c0.003,0,0.005,0,0.008,0
	c2.647,0,5.124-1.31,6.613-3.499C308.652,330.17,312,319.286,312,308C312,277.275,287.129,252.249,256.46,252.002z"/>
<g>
	<polygon style="fill:#F3F1F1;" points="240,364 248,388 264,388 272,364 	"/>
	<polygon style="fill:#F3F1F1;" points="264,388 272,444 256,460 240,444 248,388 	"/>
</g>
<polygon style="fill:#E6E3E2;" points="264,388 248,388 246.81,396.334 265.19,396.334 "/>
<path style="fill:#FFC44F;" d="M504,220H360c-4.418,0-8,3.582-8,8v96c0,4.418,3.582,8,8,8h144c4.418,0,8-3.582,8-8v-96
	C512,223.582,508.418,220,504,220z"/>
<path style="fill:#FFB357;" d="M504,220H360c-4.418,0-8,3.582-8,8v24.182l65.262,50.758c4.176,3.25,9.41,5.04,14.738,5.04
	s10.563-1.79,14.734-5.036L512,252.182V228C512,223.582,508.418,220,504,220z"/>
<path style="fill:#FFD791;" d="M511.567,225.404C510.458,222.171,507.418,220,504,220H360c-3.418,0-6.458,2.171-7.567,5.403
	c-1.108,3.233-0.042,6.813,2.656,8.911l72,56c2.855,2.222,6.967,2.222,9.822,0l72-56
	C511.609,232.217,512.676,228.637,511.567,225.404z"/>
<path style="fill:#FF7883;" d="M257,20c-43.561,0-79,35.439-79,79s35.439,79,79,79c4.418,0,8-3.582,8-8s-3.582-8-8-8
	c-34.738,0-63-28.262-63-63s28.262-63,63-63c37.094,0,63,23.821,63,57.929c0,27.038-18.455,34.671-29.643,36.814V63.5
	c0-4.418-3.582-8-8-8s-8,3.582-8,8v2.697c-5.06-3.566-11.003-5.625-17.357-5.625c-18.394,0-33.357,17.239-33.357,38.429
	S238.607,137.43,257,137.43c6.354,0,12.297-2.059,17.357-5.625v7.768c0,4.418,3.582,8,8,8c18.554,0,53.643-11.211,53.643-53.643
	C336,51.092,302.775,20,257,20z M257,121.429c-9.571,0-17.357-10.062-17.357-22.429S247.429,76.572,257,76.572
	c9.571,0,17.357,10.061,17.357,22.428S266.571,121.429,257,121.429z"/>
<path style="fill:#F3F1F1;" d="M112,164H32c-17.645,0-32,14.355-32,32v160c0,17.645,14.355,32,32,32h80c17.645,0,32-14.355,32-32
	V196C144,178.356,129.645,164,112,164z"/>
<g>
	<path style="fill:#E6E3E2;" d="M112,164H32c-17.645,0-32,14.355-32,32v88.667l119.719-119.719C117.246,164.332,114.661,164,112,164
		z"/>
	<path style="fill:#E6E3E2;" d="M1.708,366.292C6.004,378.902,17.956,388,32,388h12l100-100v-64L1.708,366.292z"/>
	<path style="fill:#E6E3E2;" d="M73.333,388H112c17.645,0,32-14.355,32-32v-38.667L73.333,388z"/>
</g>
<g>
	<path style="fill:#9B8E8B;" d="M144,340H0v16c0,17.673,14.327,32,32,32h80c17.673,0,32-14.327,32-32V340z"/>
	<path style="fill:#9B8E8B;" d="M0.976,204h142.049c5.146-21.089-10.773-40-31.024-40H32C11.749,164-4.17,182.911,0.976,204z"/>
</g>
<path style="fill:#82716F;" d="M72.5,368h-1c-4.418,0-8-3.582-8-8s3.582-8,8-8h1c4.418,0,8,3.582,8,8S76.918,368,72.5,368z"/>
<g>
	<path style="fill:#DAD5D4;" d="M303.25,171.489c-0.823,0-1.659-0.128-2.483-0.396c-1.807-0.59-3.638-1.147-5.44-1.658
		c-4.251-1.205-6.72-5.628-5.516-9.879c1.204-4.25,5.624-6.717,9.879-5.516c2.003,0.568,4.035,1.188,6.04,1.842
		c4.2,1.371,6.494,5.887,5.124,10.087C309.752,169.344,306.618,171.489,303.25,171.489z"/>
	<path style="fill:#DAD5D4;" d="M342.058,190.697c-1.563,0-3.143-0.457-4.528-1.41c-3.758-2.586-7.68-5.019-11.657-7.229
		c-3.861-2.147-5.251-7.019-3.104-10.88c2.147-3.86,7.02-5.25,10.88-3.104c3.109,1.729,6.161,3.563,9.148,5.495
		c2.485,1.607,5.361,3.082,6.6,5.926C351.658,184.687,347.739,190.697,342.058,190.697z"/>
	<path style="fill:#DAD5D4;" d="M368.371,213.641c-2.172,0-4.336-0.879-5.914-2.611c-1.268-1.391-2.584-2.778-3.912-4.127
		c-3.102-3.146-3.065-8.212,0.082-11.313c3.145-3.101,8.211-3.066,11.313,0.082c1.475,1.495,2.935,3.036,4.342,4.58
		c2.977,3.265,2.742,8.325-0.523,11.301C372.225,212.951,370.295,213.641,368.371,213.641z"/>
	<path style="fill:#DAD5D4;" d="M160.603,197.661c-2.337,0-4.652-1.019-6.233-2.979c-2.772-3.439-2.232-8.476,1.208-11.249
		c1.658-1.337,3.336-2.638,4.987-3.866c3.545-2.635,8.557-1.901,11.194,1.644s1.901,8.557-1.644,11.194
		c-1.486,1.105-2.999,2.277-4.497,3.485C164.14,197.081,162.365,197.661,160.603,197.661z"/>
	<path style="fill:#DAD5D4;" d="M186.795,180.638c-3.764,0-7.104-2.728-7.851-6.419c-0.702-3.471,1.045-7.087,4.195-8.702
		c1.87-0.959,3.782-1.891,5.682-2.771c4.009-1.857,8.765-0.11,10.621,3.898c1.856,4.01,0.11,8.765-3.898,10.621
		c-1.707,0.79-3.425,1.628-5.105,2.489C189.27,180.354,188.022,180.638,186.795,180.638z"/>
	<path style="fill:#DAD5D4;" d="M175.722,445.101c-1.444,0-2.906-0.391-4.223-1.211c-1.777-1.107-3.558-2.266-5.291-3.442
		c-3.656-2.48-4.608-7.456-2.127-11.111c2.481-3.657,7.457-4.609,11.111-2.127c1.563,1.06,3.166,2.103,4.768,3.101
		c3.75,2.336,4.896,7.271,2.56,11.021C181.003,443.764,178.393,445.101,175.722,445.101z"/>
	<path style="fill:#DAD5D4;" d="M157.064,431.401c-1.844,0-3.696-0.634-5.205-1.929c-2.279-1.955-4.529-3.998-6.688-6.071
		c-3.187-3.062-3.288-8.126-0.228-11.312c3.063-3.188,8.126-3.288,11.312-0.228c1.943,1.867,3.97,3.707,6.021,5.468
		c3.354,2.877,3.739,7.928,0.862,11.28C161.558,430.454,159.317,431.401,157.064,431.401z"/>
	<path style="fill:#DAD5D4;" d="M139.026,413.065c-2.297,0-4.576-0.983-6.158-2.889c-1.343-1.617-2.668-3.277-3.938-4.935
		c-2.688-3.507-2.023-8.528,1.483-11.216c3.51-2.688,8.529-2.023,11.216,1.483c1.144,1.492,2.337,2.987,3.547,4.444
		c2.823,3.399,2.355,8.443-1.043,11.266C142.64,412.46,140.828,413.065,139.026,413.065z"/>
	<path style="fill:#DAD5D4;" d="M397.967,370.422c-5.528,0-9.441-5.721-7.468-10.866c0.673-1.755,1.321-3.553,1.928-5.345
		c1.416-4.186,5.963-6.428,10.143-5.014c4.186,1.417,6.43,5.958,5.014,10.143c-0.675,1.993-1.396,3.992-2.145,5.944
		C404.218,368.468,401.185,370.422,397.967,370.422z"/>
	<path style="fill:#DAD5D4;" d="M359.955,426.898c-7.12,0-10.643-8.987-5.475-13.835c2.628-2.465,5.193-5.058,7.626-7.708
		c2.989-3.256,8.05-3.471,11.304-0.483c3.255,2.988,3.471,8.049,0.483,11.304c-2.701,2.942-5.55,5.821-8.468,8.558
		C363.882,426.181,361.916,426.898,359.955,426.898z M382.151,400.813c-6.309,0-10.13-7.269-6.629-12.47
		c2.01-2.984,3.932-6.083,5.713-9.212c2.185-3.838,7.069-5.181,10.91-2.994c3.84,2.186,5.181,7.07,2.994,10.91
		c-1.978,3.475-4.113,6.918-6.346,10.233C387.249,399.574,384.723,400.813,382.151,400.813z"/>
	<path style="fill:#DAD5D4;" d="M337.148,444.556c-2.651,0-5.245-1.317-6.768-3.724c-2.363-3.733-1.252-8.675,2.482-11.037
		c1.594-1.009,3.189-2.063,4.744-3.135c3.638-2.507,8.619-1.59,11.127,2.049c2.507,3.639,1.59,8.62-2.049,11.127
		c-1.726,1.188-3.498,2.359-5.268,3.479C340.091,444.156,338.611,444.556,337.148,444.556z"/>
</g>
<g>
</g>
<g>
</g>
<g>
</g>
<g>
</g>
<g>
</g>
<g>
</g>
<g>
</g>
<g>
</g>
<g>
</g>
<g>
</g>
<g>
</g>
<g>
</g>
<g>
</g>
<g>
</g>
<g>
</g>
</svg>
