<?xml version="1.0" encoding="UTF-8" standalone="no"?>
<!DOCTYPE svg PUBLIC "-//W3C//DTD SVG 1.1//EN" "http://www.w3.org/Graphics/SVG/1.1/DTD/svg11.dtd">
<svg width="100%" height="100%" viewBox="0 0 1011 605" version="1.1" xmlns="http://www.w3.org/2000/svg" xmlns:xlink="http://www.w3.org/1999/xlink" xml:space="preserve" xmlns:serif="http://www.serif.com/" style="fill-rule:evenodd;clip-rule:evenodd;stroke-linejoin:round;stroke-miterlimit:2;">
    <g transform="matrix(1,0,0,1,-3024.94,-1086.37)">
        <g transform="matrix(1,0,0,1,2113,963)">
            <g transform="matrix(1.80978,0,0,1.80978,374,-197.659)">
                <g transform="matrix(1,0,0,1,-2.86102e-05,-1)">
                    <path d="M581.539,379.232L464.309,311.203L489.32,296.689L581.539,350.204L673.758,296.689L698.77,311.203L581.539,379.232Z" style="fill:rgb(242,248,252);fill-rule:nonzero;"/>
                </g>
                <g transform="matrix(1,0,0,1,-2.86102e-05,-1)">
                    <path d="M581.787,355.755L698.547,288.178L698.547,282.171L581.787,349.748L581.787,355.755Z" style="fill:rgb(71,76,160);fill-rule:nonzero;"/>
                </g>
                <g transform="matrix(1,0,0,1,-2.86102e-05,-1)">
                    <path d="M581.539,214.146L464.309,282.175L581.539,350.204L698.77,282.175L581.539,214.146Z" style="fill:rgb(202,213,237);fill-rule:nonzero;"/>
                </g>
                <g transform="matrix(1,0,0,1,-2.86102e-05,-1)">
                    <path d="M581.824,355.792L464.391,288.215L464.391,282.207L581.824,349.785L581.824,355.792Z" style="fill:rgb(103,102,174);fill-rule:nonzero;"/>
                </g>
                <g transform="matrix(1,0,0,1,-2.86102e-05,-1)">
                    <path d="M636.666,215.331C629.666,211.886 622.666,208.442 615.666,204.997C613.2,203.784 610.228,204.763 609.422,207.537C605.812,219.981 602.2,232.426 598.589,244.871C597.929,247.148 599.37,249.421 601.558,250.099C609.782,252.646 618.006,255.192 626.229,257.74C626.666,257.977 627.147,258.115 627.647,258.166C629.987,258.757 631.689,257.382 632.335,255.568C632.691,254.801 632.826,253.894 632.619,252.871C630.403,241.948 631.363,230.288 638.19,221.146C639.51,219.379 638.58,216.273 636.666,215.331Z" style="fill:rgb(48,47,142);fill-rule:nonzero;"/>
                </g>
                <g transform="matrix(1,0,0,1,-2.86102e-05,-1)">
                    <path d="M578.82,237.383C578.815,236.732 578.493,236.203 578.032,235.812C577.662,234.972 576.863,234.319 575.688,234.399C573.206,234.565 570.751,233.813 568.272,234.275C565.258,234.838 563.631,238.713 566.191,241.21C568.27,243.237 571.74,242.683 573.999,241.957C574.513,241.791 575.021,241.571 575.484,241.312C575.165,241.492 576.549,240.445 575.82,241.026C576.078,240.821 576.348,240.627 576.613,240.432C577.736,239.6 578.831,238.986 578.82,237.383Z" style="fill:rgb(241,167,129);fill-rule:nonzero;"/>
                </g>
                <g transform="matrix(1,0,0,1,-2.86102e-05,-1)">
                    <path d="M596.779,206.679C594.267,220.952 584.206,228.402 571.979,234.6C566.719,237.268 572.441,245.39 577.653,242.751C592.15,235.401 603.339,225.71 606.282,208.977C607.312,203.123 597.81,200.823 596.779,206.679Z" style="fill:rgb(107,106,177);fill-rule:nonzero;"/>
                </g>
                <g transform="matrix(1,0,0,1,-2.86102e-05,-1)">
                    <path d="M617.734,200.661C617.017,198.022 617.6,194.747 617.515,192.027C617.434,189.393 616.588,187.03 615.388,184.722C612.101,178.396 603.81,180.01 603.805,187.27C603.803,191.281 606.485,194.562 604.045,198.267C601.039,202.832 601.505,207.338 603.698,212.028C603.769,212.243 603.861,212.459 604.009,212.679C604.141,212.944 604.304,213.149 604.478,213.327C606.732,216.435 609.53,218.47 613.585,218.42C617.253,218.375 620.68,215.403 621.245,211.868C621.892,207.83 618.735,204.342 617.734,200.661Z" style="fill:rgb(34,34,96);fill-rule:nonzero;"/>
                </g>
                <g transform="matrix(1,0,0,1,-2.86102e-05,-1)">
                    <path d="M616.462,183.209C614.693,179.145 609.268,178.243 605.376,178.4C603.721,178.468 600.861,178.886 599.865,180.38C598.549,182.353 598.717,186.266 601.222,187.114C602.494,187.545 603.91,187.743 605.238,187.93C605.858,188.017 606.675,187.964 607.254,188.233C607.929,188.547 608.139,189.133 608.295,189.836C608.896,192.545 609.377,195.722 609.377,195.722L611.149,192.832C611.149,192.832 612.504,192.98 613.29,193.979C612.981,195.254 611.296,196.436 610.833,197.667C610.833,197.667 614.819,197.819 616.864,192.76C617.644,190.676 618.827,188.647 616.462,183.209Z" style="fill:rgb(34,34,96);fill-rule:nonzero;"/>
                </g>
                <g transform="matrix(1,0,0,1,-2.86102e-05,-1)">
                    <path d="M599.642,209.006C599.325,208.236 598.793,207.42 599.102,206.822C600.026,205.024 601.092,203.109 601.625,201.186C597.824,199.514 597.002,196.702 597.537,192.658C597.884,190.042 598.49,183.523 602.277,183.432C604.093,183.39 606.822,183.978 608.114,185.352C609.357,186.674 609.414,188.839 610.426,190.331C611.377,191.733 612.539,189.735 613.435,189.231C614.827,188.446 616.687,190.262 616.687,191.646C616.687,193.495 615.269,194.482 613.704,195.105C613.704,195.211 613.687,195.319 613.616,195.427C612.675,196.862 611.539,198.319 610.234,199.487C609.966,200.631 609.26,203.125 609.354,204.167C609.574,206.55 610.721,208.703 612.69,209.855C612.702,209.861 610.762,210.608 610.324,210.651C608.481,210.826 606.691,210.216 604.87,210.341C603.646,210.426 602.433,211.325 601.228,210.847C600.594,210.596 599.988,209.845 599.642,209.006Z" style="fill:rgb(241,167,129);fill-rule:nonzero;"/>
                </g>
                <g transform="matrix(1,0,0,1,-2.86102e-05,-1)">
                    <path d="M606.533,181.264C606.036,180.871 605.383,180.698 604.706,180.718C604.437,179.802 603.68,179.083 602.417,179.167C598.368,179.44 596.144,183.907 597.506,187.582C598.395,189.978 601.424,189.932 602.328,187.582C602.476,187.197 602.713,186.89 602.997,186.634C603.132,187.403 603.328,188.164 603.759,188.929C604.902,190.964 607.597,190.249 608.328,188.332C608.797,187.102 609.086,185.783 609.825,184.679C611.338,182.424 608.53,180.313 606.533,181.264Z" style="fill:rgb(34,34,96);fill-rule:nonzero;"/>
                </g>
                <g transform="matrix(1,0,0,1,-2.86102e-05,-1)">
                    <path d="M620.179,240.98C620.815,238.521 620.454,235.639 620.446,233.199C620.438,229.909 620.155,226.277 619.485,222.662L619.437,222.428C618.884,219.681 618.86,216.848 618.23,214.096C617.468,210.758 616.3,207.379 613.267,205.48C609.975,203.419 605.004,202.487 601.163,202.832C597.506,203.16 596.459,206.371 595.332,209.423C595.057,210.169 594.81,210.936 594.619,211.739C592.733,219.733 592.162,228.319 592.212,236.772C592.176,238.543 592.16,240.259 592.156,241.899C596.913,245.228 605.362,246.999 620.179,240.98Z" style="fill:rgb(132,166,215);fill-rule:nonzero;"/>
                </g>
                <g transform="matrix(1,0,0,1,-2.86102e-05,-1)">
                    <clipPath id="_clip1">
                        <path d="M620.179,240.98C620.815,238.521 620.454,235.639 620.446,233.199C620.438,229.909 620.155,226.277 619.485,222.662L619.436,222.428C618.884,219.681 618.86,216.848 618.23,214.096C617.468,210.758 616.3,207.379 613.267,205.48C609.975,203.419 605.004,202.487 601.163,202.832C597.506,203.16 596.459,206.371 595.332,209.423C595.057,210.169 594.81,210.936 594.619,211.739C592.733,219.733 592.162,228.319 592.212,236.772C592.176,238.543 592.16,240.259 592.156,241.899C596.913,245.228 605.362,246.999 620.179,240.98Z"/>
                    </clipPath>
                    <g clip-path="url(#_clip1)">
                        <path d="M602.334,245.834C602.338,244.059 602.333,240.678 602.372,238.76C602.318,229.606 602.938,220.308 604.979,211.651C605.186,210.781 605.453,209.951 605.751,209.143C606.972,205.837 608.105,202.36 612.066,202.004C612.448,201.97 612.85,201.96 613.25,201.949C610.318,201.041 607.056,200.675 604.316,200.921C600.355,201.277 599.222,204.754 598.001,208.06C597.703,208.868 597.436,209.697 597.229,210.567C595.188,219.224 594.568,228.523 594.622,237.677C594.583,239.595 594.566,241.454 594.563,243.229C597.324,245.162 601.251,246.594 606.758,246.517C605.021,245.94 603.569,246.699 602.334,245.834Z" style="fill:white;fill-rule:nonzero;"/>
                        <path d="M609.542,204.542C609.542,206.2 607.36,207.542 604.667,207.542C601.974,207.542 599.792,206.2 599.792,204.542C599.792,202.885 601.974,201.542 604.667,201.542C607.36,201.542 609.542,202.885 609.542,204.542Z" style="fill:rgb(241,167,129);fill-rule:nonzero;"/>
                    </g>
                </g>
                <g transform="matrix(1,0,0,1,-2.86102e-05,-1)">
                    <path d="M574.361,276.713C573.388,277.226 572.57,278.029 571.538,278.937C571.538,278.937 566.499,281.852 566.344,282.243C566.191,282.633 565.959,283.812 566.123,284.035C566.285,284.256 568.025,285.439 570.55,284.535C572.561,283.815 574.488,282.872 576.456,282.189C577.64,281.778 580.464,281.725 581.096,280.399C581.42,279.72 581.488,277.684 581.08,277.022C580.426,275.964 578.189,276.166 577.138,276.126C575.992,276.083 575.129,276.309 574.361,276.713Z" style="fill:rgb(34,34,96);fill-rule:nonzero;"/>
                    <path d="M584.979,280.16C585.348,279.57 585.829,279.596 586.542,279.621C586.86,279.633 587.224,279.644 587.645,279.601C587.979,279.567 588.43,279.693 588.89,279.82C590.111,280.154 591.401,280.489 590.758,277.846C591.22,277.87 590.835,278.039 590.917,278.543C591.056,279.392 591.876,282.794 591.884,283.372C591.917,286.964 581.4,296.588 581.384,288.653C581.384,288.159 584.212,283.233 584.313,282.576C584.509,281.311 584.716,280.58 584.979,280.16Z" style="fill:rgb(34,34,96);fill-rule:nonzero;"/>
                    <path d="M594.5,327.334L516.13,284.029L519.116,282.265L519.116,285.638L553.384,265.696L573.377,277.353C572.787,277.803 572.208,278.348 571.538,278.937C571.538,278.937 566.499,281.852 566.344,282.243C566.191,282.633 565.959,283.812 566.123,284.035C566.241,284.196 567.202,284.87 568.694,284.87C569.245,284.871 569.869,284.779 570.55,284.535C572.561,283.815 574.488,282.872 576.456,282.189C577.298,281.896 578.97,281.785 580.093,281.268L583.926,283.503C583.128,285.144 581.384,288.265 581.384,288.653C581.388,290.857 582.203,291.706 583.377,291.706C585.304,291.706 588.196,289.42 590.062,287.081L594.713,289.792L602.215,285.36L634.937,303.441L594.5,327.334Z" style="fill:rgb(160,177,219);fill-rule:nonzero;"/>
                    <path d="M568.694,284.87C567.202,284.87 566.241,284.196 566.123,284.035C565.959,283.812 566.191,282.633 566.344,282.243C566.499,281.852 571.538,278.937 571.538,278.937C572.208,278.348 572.787,277.803 573.377,277.353L580.093,281.268C578.97,281.785 577.298,281.896 576.456,282.189C574.488,282.872 572.561,283.815 570.55,284.535C569.869,284.779 569.245,284.871 568.694,284.87Z" style="fill:rgb(32,33,93);fill-rule:nonzero;"/>
                    <path d="M583.377,291.706C582.203,291.706 581.388,290.857 581.384,288.653C581.384,288.265 583.128,285.144 583.926,283.503L590.062,287.081C588.196,289.42 585.304,291.706 583.377,291.706Z" style="fill:rgb(32,33,93);fill-rule:nonzero;"/>
                    <path d="M599.097,289.489L591.509,284.722L631.922,260.899L635.104,262.761L599.097,289.489Z" style="fill:rgb(157,199,234);fill-rule:nonzero;"/>
                    <path d="M594.434,327.15L591.509,325.393L591.509,284.676L594.434,286.432L594.434,327.15Z" style="fill:rgb(139,184,227);fill-rule:nonzero;"/>
                    <path d="M635.104,303.409L594.434,327.076L594.434,286.36L635.104,262.69L635.104,303.409Z" style="fill:rgb(112,162,215);fill-rule:nonzero;"/>
                    <path d="M599.097,289.489L591.509,284.722L631.922,260.899L635.104,262.761L599.097,289.489Z" style="fill:rgb(157,199,234);fill-rule:nonzero;"/>
                    <path d="M594.434,327.15L591.509,325.393L591.509,284.676L594.434,286.432L594.434,327.15Z" style="fill:rgb(121,157,210);fill-rule:nonzero;"/>
                    <path d="M523.779,248.051L516.19,243.283L556.603,219.459L559.786,221.321L523.779,248.051Z" style="fill:rgb(157,199,234);fill-rule:nonzero;"/>
                    <path d="M519.116,285.711L516.19,283.954L516.19,243.237L519.116,244.993L519.116,285.711Z" style="fill:rgb(139,184,227);fill-rule:nonzero;"/>
                    <path d="M559.787,261.97L519.116,285.638L519.116,244.921L559.787,221.251L559.787,261.97Z" style="fill:rgb(112,162,215);fill-rule:nonzero;"/>
                    <path d="M523.779,248.051L516.19,243.283L556.603,219.459L559.786,221.321L523.779,248.051Z" style="fill:rgb(157,199,234);fill-rule:nonzero;"/>
                    <path d="M519.116,285.711L516.19,283.954L516.19,243.237L519.116,244.993L519.116,285.711Z" style="fill:rgb(121,157,210);fill-rule:nonzero;"/>
                    <path d="M559.787,261.97L519.116,285.638L519.116,244.921L559.787,221.251L559.787,261.97Z" style="fill:rgb(233,245,252);fill-rule:nonzero;"/>
                    <path d="M635.149,265.899L556.574,220.087L521.581,240.803L519.854,239.36L516.137,239.36L516.137,243.994L516.159,243.994L594.713,289.792L635.149,265.899Z" style="fill:rgb(121,157,210);fill-rule:nonzero;"/>
                    <path d="M594.713,285.172L516.137,239.36L556.574,215.467L635.149,261.279L594.713,285.172Z" style="fill:white;fill-rule:nonzero;"/>
                    <path d="M635.104,303.409L594.434,327.076L594.434,284.92L635.104,261.25L635.104,303.409Z" style="fill:rgb(233,245,252);fill-rule:nonzero;"/>
                    <rect x="555.586" y="235.426" width="1.062" height="0.688" style="fill:rgb(83,82,163);fill-rule:nonzero;"/>
                    <path d="M593.281,242.978L592.297,242.978L592.297,243.14L567.768,228.983L555.566,236.138L581.05,250.846L593.252,243.691L593.233,243.681L593.281,243.681L593.281,242.978Z" style="fill:rgb(83,82,163);fill-rule:nonzero;"/>
                    <path d="M581.05,250.134L555.566,235.425L567.768,228.271L593.252,242.979L581.05,250.134Z" style="fill:rgb(119,117,183);fill-rule:nonzero;"/>
                    <path d="M588.041,243.162L589.011,243.728C589.104,243.782 589.263,243.775 589.368,243.714L590.479,243.07C590.584,243.011 590.595,242.917 590.502,242.863L589.533,242.296C589.439,242.244 589.281,242.25 589.176,242.311L588.065,242.954C587.96,243.016 587.948,243.106 588.041,243.162Z" style="fill:white;fill-rule:nonzero;"/>
                    <path d="M586.355,242.176L587.325,242.744C587.417,242.798 587.576,242.792 587.682,242.731L588.793,242.086C588.898,242.025 588.909,241.933 588.817,241.879L587.847,241.313C587.754,241.259 587.596,241.266 587.49,241.326L586.38,241.97C586.274,242.031 586.264,242.124 586.355,242.176Z" style="fill:white;fill-rule:nonzero;"/>
                    <path d="M584.669,241.192L585.641,241.76C585.73,241.813 585.891,241.808 585.996,241.746L587.107,241.102C587.213,241.042 587.224,240.949 587.132,240.895L586.161,240.329C586.069,240.275 585.909,240.28 585.806,240.342L584.692,240.986C584.588,241.046 584.578,241.139 584.669,241.192Z" style="fill:white;fill-rule:nonzero;"/>
                    <path d="M582.983,240.209L583.954,240.775C584.047,240.829 584.205,240.823 584.311,240.762L585.422,240.118C585.527,240.056 585.537,239.964 585.446,239.911L584.475,239.344C584.384,239.291 584.225,239.296 584.119,239.357L583.007,240.001C582.902,240.063 582.892,240.155 582.983,240.209Z" style="fill:white;fill-rule:nonzero;"/>
                    <path d="M581.299,239.225L582.268,239.791C582.359,239.845 582.52,239.839 582.624,239.778L583.736,239.134C583.841,239.073 583.852,238.98 583.761,238.927L582.789,238.36C582.697,238.306 582.539,238.313 582.434,238.373L581.322,239.017C581.217,239.078 581.206,239.171 581.299,239.225Z" style="fill:white;fill-rule:nonzero;"/>
                    <path d="M579.612,238.239L580.582,238.806C580.674,238.86 580.834,238.854 580.939,238.794L582.05,238.149C582.155,238.088 582.166,237.996 582.074,237.942L581.104,237.376C581.012,237.323 580.853,237.328 580.747,237.389L579.637,238.033C579.531,238.094 579.521,238.186 579.612,238.239Z" style="fill:white;fill-rule:nonzero;"/>
                    <path d="M577.926,237.256L578.896,237.823C578.988,237.875 579.147,237.87 579.253,237.809L580.364,237.165C580.47,237.104 580.48,237.012 580.389,236.958L579.417,236.391C579.326,236.338 579.167,236.343 579.062,236.404L577.95,237.048C577.846,237.11 577.834,237.202 577.926,237.256Z" style="fill:white;fill-rule:nonzero;"/>
                    <path d="M576.24,236.272L577.211,236.838C577.302,236.892 577.462,236.887 577.567,236.825L578.679,236.181C578.784,236.121 578.795,236.027 578.701,235.974L577.731,235.408C577.641,235.353 577.48,235.36 577.376,235.42L576.264,236.065C576.159,236.125 576.149,236.218 576.24,236.272Z" style="fill:white;fill-rule:nonzero;"/>
                    <path d="M574.555,235.288L575.525,235.855C575.616,235.908 575.776,235.901 575.882,235.84L576.993,235.197C577.099,235.136 577.107,235.043 577.017,234.99L576.046,234.422C575.955,234.37 575.796,234.375 575.69,234.437L574.578,235.081C574.474,235.142 574.463,235.235 574.555,235.288Z" style="fill:white;fill-rule:nonzero;"/>
                    <path d="M572.868,234.303L573.839,234.869C573.931,234.923 574.091,234.917 574.196,234.856L575.307,234.212C575.411,234.152 575.422,234.059 575.33,234.005L574.36,233.438C574.269,233.386 574.11,233.392 574.005,233.452L572.892,234.096C572.789,234.156 572.776,234.25 572.868,234.303Z" style="fill:white;fill-rule:nonzero;"/>
                    <path d="M571.184,233.32L572.153,233.886C572.246,233.939 572.404,233.934 572.51,233.873L573.621,233.229C573.726,233.168 573.736,233.075 573.646,233.021L572.675,232.455C572.583,232.401 572.423,232.407 572.317,232.468L571.207,233.112C571.102,233.172 571.092,233.265 571.184,233.32Z" style="fill:white;fill-rule:nonzero;"/>
                    <path d="M569.497,232.335L570.468,232.901C570.56,232.955 570.719,232.95 570.823,232.888L571.935,232.245C572.04,232.184 572.051,232.091 571.959,232.037L570.989,231.471C570.897,231.417 570.736,231.423 570.632,231.483L569.521,232.127C569.416,232.188 569.405,232.281 569.497,232.335Z" style="fill:white;fill-rule:nonzero;"/>
                    <path d="M567.811,231.351L568.783,231.917C568.874,231.971 569.033,231.964 569.138,231.904L570.249,231.26C570.354,231.199 570.366,231.106 570.273,231.053L569.304,230.486C569.211,230.433 569.052,230.438 568.946,230.499L567.835,231.143C567.729,231.204 567.72,231.297 567.811,231.351Z" style="fill:white;fill-rule:nonzero;"/>
                    <path d="M566.042,230.317L567.091,230.929C567.185,230.986 567.351,230.979 567.459,230.916L568.558,230.279C568.665,230.217 568.678,230.121 568.583,230.065L567.533,229.453C567.438,229.397 567.273,229.404 567.167,229.466L566.067,230.103C565.958,230.166 565.946,230.261 566.042,230.317Z" style="fill:white;fill-rule:nonzero;"/>
                    <path d="M585.378,243.75L587.121,244.767C587.24,244.837 587.444,244.829 587.58,244.75L588.581,244.17C588.718,244.092 588.731,243.973 588.612,243.903L586.87,242.886C586.752,242.817 586.547,242.825 586.411,242.903L585.408,243.482C585.273,243.562 585.26,243.682 585.378,243.75Z" style="fill:white;fill-rule:nonzero;"/>
                    <path d="M583.11,244.569L585.295,245.845C585.404,245.908 585.594,245.902 585.719,245.829L586.758,245.228C586.882,245.155 586.896,245.044 586.786,244.98L584.603,243.706C584.493,243.642 584.302,243.648 584.177,243.721L583.139,244.323C583.014,244.394 583.001,244.506 583.11,244.569Z" style="fill:white;fill-rule:nonzero;"/>
                    <path d="M580.489,245.183L583.439,246.904C583.556,246.972 583.758,246.964 583.891,246.889L584.9,246.304C585.033,246.226 585.047,246.108 584.931,246.04L581.979,244.318C581.863,244.25 581.661,244.257 581.528,244.335L580.519,244.918C580.387,244.996 580.372,245.114 580.489,245.183Z" style="fill:white;fill-rule:nonzero;"/>
                    <path d="M579.633,247.098L581.342,248.096C581.47,248.171 581.691,248.163 581.837,248.078L583.034,247.384C583.181,247.301 583.196,247.171 583.068,247.097L581.357,246.098C581.231,246.024 581.01,246.032 580.863,246.116L579.665,246.811C579.519,246.895 579.505,247.023 579.633,247.098Z" style="fill:white;fill-rule:nonzero;"/>
                    <path d="M575.009,244.399L576.721,245.398C576.847,245.471 577.068,245.463 577.214,245.379L578.411,244.685C578.558,244.6 578.573,244.472 578.445,244.398L576.734,243.399C576.607,243.324 576.387,243.333 576.24,243.417L575.042,244.111C574.896,244.196 574.882,244.324 575.009,244.399Z" style="fill:white;fill-rule:nonzero;"/>
                    <path d="M565.141,238.637L574.214,243.934C574.35,244.014 574.585,244.004 574.741,243.915L575.903,243.242C576.06,243.15 576.075,243.014 575.939,242.934L566.866,237.637C566.729,237.558 566.493,237.566 566.338,237.656L565.176,238.33C565.02,238.419 565.004,238.557 565.141,238.637Z" style="fill:white;fill-rule:nonzero;"/>
                    <path d="M577.469,245.834L578.884,246.661C579,246.729 579.206,246.722 579.34,246.644L580.578,245.925C580.712,245.847 580.727,245.729 580.608,245.66L579.195,244.834C579.077,244.767 578.874,244.774 578.74,244.851L577.499,245.57C577.365,245.646 577.352,245.766 577.469,245.834Z" style="fill:white;fill-rule:nonzero;"/>
                    <path d="M583.695,242.767L584.666,243.334C584.757,243.387 584.917,243.382 585.022,243.321L586.134,242.676C586.239,242.616 586.249,242.524 586.158,242.469L585.188,241.903C585.095,241.85 584.936,241.856 584.831,241.916L583.718,242.56C583.613,242.622 583.603,242.713 583.695,242.767Z" style="fill:white;fill-rule:nonzero;"/>
                    <path d="M581.983,241.769L582.954,242.334C583.046,242.387 583.206,242.382 583.312,242.322L584.421,241.678C584.526,241.617 584.537,241.524 584.446,241.471L583.476,240.904C583.384,240.85 583.225,240.856 583.119,240.917L582.008,241.562C581.902,241.622 581.892,241.715 581.983,241.769Z" style="fill:white;fill-rule:nonzero;"/>
                    <path d="M580.272,240.769L581.242,241.335C581.335,241.39 581.494,241.383 581.599,241.322L582.711,240.679C582.815,240.618 582.827,240.525 582.733,240.472L581.764,239.905C581.672,239.851 581.513,239.858 581.406,239.918L580.297,240.562C580.192,240.623 580.181,240.716 580.272,240.769Z" style="fill:white;fill-rule:nonzero;"/>
                    <path d="M578.561,239.769L579.531,240.337C579.623,240.39 579.783,240.385 579.888,240.322L581,239.68C581.105,239.618 581.115,239.526 581.023,239.472L580.053,238.906C579.962,238.852 579.802,238.858 579.696,238.918L578.585,239.563C578.479,239.625 578.47,239.716 578.561,239.769Z" style="fill:white;fill-rule:nonzero;"/>
                    <path d="M576.851,238.771L577.82,239.336C577.911,239.391 578.07,239.384 578.177,239.325L579.287,238.681C579.393,238.62 579.402,238.527 579.313,238.474L578.341,237.906C578.25,237.853 578.091,237.859 577.985,237.92L576.874,238.563C576.77,238.625 576.757,238.717 576.851,238.771Z" style="fill:white;fill-rule:nonzero;"/>
                    <path d="M575.139,237.771L576.108,238.339C576.201,238.393 576.36,238.385 576.466,238.325L577.576,237.681C577.682,237.62 577.692,237.528 577.6,237.474L576.63,236.907C576.539,236.854 576.379,236.86 576.274,236.92L575.163,237.564C575.058,237.625 575.047,237.718 575.139,237.771Z" style="fill:white;fill-rule:nonzero;"/>
                    <path d="M573.427,236.773L574.398,237.34C574.489,237.393 574.647,237.387 574.753,237.327L575.866,236.683C575.97,236.621 575.98,236.528 575.89,236.475L574.919,235.908C574.827,235.854 574.667,235.861 574.562,235.921L573.452,236.566C573.347,236.626 573.336,236.718 573.427,236.773Z" style="fill:white;fill-rule:nonzero;"/>
                    <path d="M571.716,235.774L572.687,236.34C572.778,236.393 572.938,236.387 573.043,236.327L574.154,235.684C574.26,235.622 574.27,235.529 574.179,235.476L573.207,234.909C573.115,234.855 572.956,234.862 572.852,234.922L571.74,235.567C571.634,235.627 571.624,235.721 571.716,235.774Z" style="fill:white;fill-rule:nonzero;"/>
                    <path d="M570.005,234.774L570.975,235.341C571.066,235.395 571.227,235.388 571.332,235.327L572.442,234.684C572.548,234.623 572.557,234.529 572.468,234.477L571.497,233.909C571.404,233.856 571.245,233.863 571.14,233.924L570.029,234.568C569.924,234.628 569.913,234.721 570.005,234.774Z" style="fill:white;fill-rule:nonzero;"/>
                    <path d="M568.293,233.775L569.264,234.342C569.356,234.396 569.516,234.389 569.62,234.329L570.732,233.685C570.836,233.624 570.848,233.531 570.755,233.478L569.785,232.911C569.693,232.858 569.533,232.863 569.428,232.925L568.317,233.568C568.213,233.629 568.201,233.721 568.293,233.775Z" style="fill:white;fill-rule:nonzero;"/>
                    <path d="M566.582,232.776L567.553,233.342C567.644,233.396 567.804,233.39 567.908,233.33L569.019,232.686C569.125,232.625 569.136,232.532 569.044,232.478L568.073,231.911C567.981,231.858 567.822,231.864 567.718,231.924L566.604,232.568C566.5,232.63 566.49,232.722 566.582,232.776Z" style="fill:white;fill-rule:nonzero;"/>
                    <path d="M564.232,231.403L565.804,232.322C565.916,232.387 566.112,232.379 566.242,232.305L567.265,231.711C567.395,231.637 567.407,231.522 567.294,231.457L565.725,230.541C565.612,230.474 565.415,230.481 565.285,230.556L564.262,231.149C564.133,231.225 564.119,231.338 564.232,231.403Z" style="fill:white;fill-rule:nonzero;"/>
                    <path d="M581.443,243.597L582.414,244.163C582.506,244.217 582.665,244.211 582.771,244.15L583.882,243.506C583.987,243.446 583.998,243.353 583.906,243.299L582.936,242.732C582.845,242.679 582.685,242.684 582.579,242.746L581.468,243.389C581.363,243.451 581.353,243.543 581.443,243.597Z" style="fill:white;fill-rule:nonzero;"/>
                    <path d="M579.732,242.597L580.703,243.163C580.795,243.218 580.953,243.211 581.059,243.15L582.171,242.507C582.275,242.446 582.287,242.354 582.195,242.3L581.224,241.733C581.133,241.68 580.974,241.685 580.868,241.746L579.757,242.39C579.65,242.451 579.641,242.543 579.732,242.597Z" style="fill:white;fill-rule:nonzero;"/>
                    <path d="M578.021,241.599L578.991,242.165C579.083,242.218 579.243,242.212 579.349,242.152L580.459,241.508C580.564,241.447 580.575,241.354 580.482,241.3L579.514,240.734C579.421,240.68 579.262,240.686 579.156,240.747L578.046,241.391C577.94,241.452 577.93,241.544 578.021,241.599Z" style="fill:white;fill-rule:nonzero;"/>
                    <path d="M576.31,240.6L577.281,241.166C577.372,241.218 577.531,241.214 577.636,241.152L578.748,240.508C578.853,240.448 578.864,240.355 578.771,240.302L577.802,239.735C577.71,239.681 577.55,239.687 577.444,239.748L576.334,240.392C576.229,240.453 576.218,240.546 576.31,240.6Z" style="fill:white;fill-rule:nonzero;"/>
                    <path d="M574.599,239.6L575.569,240.167C575.661,240.22 575.819,240.214 575.926,240.153L577.037,239.509C577.143,239.449 577.152,239.357 577.062,239.303L576.091,238.736C575.998,238.682 575.84,238.688 575.733,238.749L574.623,239.393C574.518,239.454 574.507,239.547 574.599,239.6Z" style="fill:white;fill-rule:nonzero;"/>
                    <path d="M572.888,238.6L573.856,239.167C573.949,239.221 574.11,239.215 574.214,239.154L575.324,238.509C575.431,238.448 575.441,238.357 575.35,238.303L574.379,237.736C574.287,237.683 574.128,237.688 574.022,237.75L572.911,238.394C572.807,238.456 572.795,238.548 572.888,238.6Z" style="fill:white;fill-rule:nonzero;"/>
                    <path d="M571.176,237.602L572.146,238.168C572.238,238.223 572.397,238.216 572.503,238.155L573.615,237.511C573.719,237.45 573.729,237.358 573.638,237.303L572.668,236.737C572.576,236.685 572.416,236.689 572.311,236.751L571.2,237.395C571.095,237.456 571.084,237.548 571.176,237.602Z" style="fill:white;fill-rule:nonzero;"/>
                    <path d="M569.465,236.603L570.436,237.169C570.526,237.222 570.685,237.217 570.79,237.156L571.903,236.512C572.007,236.452 572.018,236.358 571.928,236.305L570.956,235.738C570.864,235.685 570.704,235.69 570.6,235.751L569.489,236.396C569.383,236.456 569.374,236.549 569.465,236.603Z" style="fill:white;fill-rule:nonzero;"/>
                    <path d="M567.753,235.604L568.724,236.17C568.816,236.223 568.976,236.217 569.08,236.156L570.19,235.512C570.297,235.453 570.307,235.359 570.216,235.306L569.244,234.739C569.153,234.685 568.994,234.691 568.889,234.752L567.777,235.396C567.672,235.457 567.661,235.551 567.753,235.604Z" style="fill:white;fill-rule:nonzero;"/>
                    <path d="M566.042,234.604L567.013,235.17C567.104,235.224 567.264,235.218 567.368,235.157L568.479,234.513C568.584,234.454 568.596,234.36 568.505,234.307L567.533,233.74C567.441,233.686 567.282,233.692 567.177,233.752L566.065,234.396C565.96,234.458 565.95,234.551 566.042,234.604Z" style="fill:white;fill-rule:nonzero;"/>
                    <path d="M564.33,233.605L565.302,234.171C565.392,234.225 565.552,234.219 565.657,234.158L566.769,233.514C566.873,233.454 566.885,233.361 566.793,233.308L565.823,232.741C565.729,232.688 565.571,232.694 565.466,232.754L564.354,233.399C564.249,233.459 564.239,233.552 564.33,233.605Z" style="fill:white;fill-rule:nonzero;"/>
                    <path d="M562.367,232.459L563.573,233.163C563.674,233.223 563.849,233.216 563.965,233.148L565.039,232.526C565.155,232.459 565.165,232.357 565.065,232.298L563.859,231.595C563.757,231.536 563.583,231.542 563.468,231.609L562.394,232.231C562.278,232.297 562.267,232.4 562.367,232.459Z" style="fill:white;fill-rule:nonzero;"/>
                    <path d="M578.86,244.231L579.832,244.799C579.923,244.851 580.083,244.846 580.188,244.785L581.3,244.141C581.403,244.081 581.414,243.987 581.322,243.934L580.352,243.367C580.261,243.313 580.101,243.32 579.997,243.38L578.885,244.024C578.78,244.086 578.769,244.178 578.86,244.231Z" style="fill:white;fill-rule:nonzero;"/>
                    <path d="M577.252,243.292L578.222,243.858C578.313,243.913 578.473,243.906 578.578,243.845L579.69,243.201C579.795,243.141 579.806,243.047 579.714,242.994L578.743,242.427C578.652,242.374 578.492,242.381 578.387,242.441L577.275,243.084C577.17,243.146 577.16,243.238 577.252,243.292Z" style="fill:white;fill-rule:nonzero;"/>
                    <path d="M575.642,242.352L576.613,242.919C576.704,242.973 576.864,242.967 576.968,242.906L578.08,242.263C578.185,242.201 578.195,242.108 578.104,242.056L577.134,241.488C577.042,241.435 576.883,241.44 576.777,241.501L575.667,242.146C575.562,242.206 575.551,242.298 575.642,242.352Z" style="fill:white;fill-rule:nonzero;"/>
                    <path d="M574.033,241.413L575.003,241.979C575.095,242.033 575.255,242.027 575.359,241.966L576.471,241.322C576.576,241.262 576.588,241.168 576.496,241.116L575.525,240.549C575.434,240.496 575.273,240.501 575.169,240.562L574.058,241.205C573.952,241.268 573.941,241.359 574.033,241.413Z" style="fill:white;fill-rule:nonzero;"/>
                    <path d="M572.423,240.474L573.394,241.041C573.486,241.093 573.646,241.088 573.751,241.027L574.862,240.384C574.967,240.322 574.979,240.229 574.886,240.176L573.917,239.609C573.823,239.556 573.664,239.562 573.559,239.623L572.448,240.267C572.343,240.327 572.332,240.42 572.423,240.474Z" style="fill:white;fill-rule:nonzero;"/>
                    <path d="M570.815,239.534L571.785,240.1C571.877,240.155 572.036,240.149 572.142,240.087L573.253,239.445C573.358,239.383 573.369,239.29 573.277,239.237L572.307,238.67C572.214,238.616 572.055,238.624 571.949,238.684L570.84,239.327C570.734,239.388 570.724,239.48 570.815,239.534Z" style="fill:white;fill-rule:nonzero;"/>
                    <path d="M569.206,238.595L570.175,239.162C570.269,239.214 570.427,239.208 570.532,239.148L571.645,238.504C571.748,238.443 571.759,238.351 571.667,238.297L570.697,237.73C570.605,237.676 570.446,237.683 570.341,237.744L569.229,238.388C569.125,238.448 569.114,238.541 569.206,238.595Z" style="fill:white;fill-rule:nonzero;"/>
                    <path d="M567.597,237.655L568.566,238.222C568.659,238.275 568.818,238.27 568.923,238.208L570.034,237.564C570.14,237.504 570.15,237.411 570.059,237.358L569.087,236.791C568.997,236.738 568.837,236.743 568.731,236.804L567.621,237.448C567.516,237.509 567.505,237.602 567.597,237.655Z" style="fill:white;fill-rule:nonzero;"/>
                    <path d="M565.986,236.716L566.958,237.283C567.05,237.336 567.209,237.33 567.313,237.27L568.425,236.625C568.53,236.564 568.541,236.47 568.45,236.417L567.479,235.852C567.387,235.797 567.229,235.803 567.123,235.865L566.011,236.509C565.907,236.569 565.895,236.662 565.986,236.716Z" style="fill:white;fill-rule:nonzero;"/>
                    <path d="M562.652,237.185L564.364,238.184C564.488,238.255 564.701,238.248 564.844,238.166L566.058,237.462C566.199,237.38 566.213,237.255 566.09,237.183L564.378,236.184C564.255,236.112 564.04,236.121 563.899,236.203L562.686,236.905C562.545,236.987 562.529,237.112 562.652,237.185Z" style="fill:white;fill-rule:nonzero;"/>
                    <path d="M558.479,234.748L559.917,235.587C560.035,235.656 560.239,235.648 560.374,235.57L561.611,234.854C561.746,234.775 561.761,234.656 561.643,234.587L560.205,233.748C560.087,233.68 559.882,233.687 559.747,233.765L558.511,234.481C558.375,234.56 558.361,234.679 558.479,234.748Z" style="fill:white;fill-rule:nonzero;"/>
                    <path d="M560.683,236.034L561.929,236.76C562.038,236.826 562.231,236.819 562.359,236.745L563.624,236.012C563.751,235.939 563.766,235.827 563.653,235.761L562.407,235.033C562.297,234.969 562.105,234.978 561.977,235.05L560.711,235.784C560.585,235.856 560.571,235.969 560.683,236.034Z" style="fill:white;fill-rule:nonzero;"/>
                    <path d="M564.378,235.775L565.349,236.343C565.44,236.396 565.6,236.391 565.705,236.33L566.815,235.685C566.921,235.624 566.932,235.532 566.841,235.479L565.87,234.913C565.778,234.858 565.619,234.864 565.514,234.925L564.401,235.569C564.297,235.631 564.286,235.723 564.378,235.775Z" style="fill:white;fill-rule:nonzero;"/>
                    <path d="M560.518,233.522L563.729,235.397C563.826,235.455 563.995,235.449 564.107,235.384L565.196,234.753C565.307,234.689 565.317,234.59 565.222,234.533L562.009,232.659C561.913,232.602 561.745,232.607 561.633,232.673L560.544,233.303C560.432,233.368 560.421,233.465 560.518,233.522Z" style="fill:white;fill-rule:nonzero;"/>
                    <rect x="546.289" y="242.716" width="0.409" height="0.265" style="fill:rgb(83,82,163);fill-rule:nonzero;"/>
                    <path d="M560.816,245.626L560.438,245.626L560.438,245.689L550.983,240.232L546.281,242.99L556.103,248.659L560.805,245.901L560.798,245.897L560.816,245.897L560.816,245.626Z" style="fill:rgb(83,82,163);fill-rule:nonzero;"/>
                    <path d="M556.103,248.384L546.281,242.715L550.983,239.958L560.805,245.626L556.103,248.384Z" style="fill:rgb(119,117,183);fill-rule:nonzero;"/>
                    <path d="M535.098,198.947L536.698,197.934L539.345,201.772L538.463,206.084L535.098,198.947Z" style="fill:rgb(175,172,213);fill-rule:nonzero;"/>
                    <path d="M572.504,241.707L540.357,223.153L536.698,197.934L568.842,216.489L572.504,241.707Z" style="fill:rgb(175,172,213);fill-rule:nonzero;"/>
                    <path d="M568.842,216.489L567.243,217.501L569.92,240.532L570.901,242.721L572.504,241.707L568.842,216.489Z" style="fill:rgb(119,117,183);fill-rule:nonzero;"/>
                    <path d="M570.901,242.721L538.757,224.166L535.098,198.947L567.243,217.501L570.901,242.721Z" style="fill:rgb(83,82,163);fill-rule:nonzero;"/>
                </g>
                <g transform="matrix(1,0,0,1,-2.86102e-05,-1)">
                    <path d="M548.75,223.959L535.098,198.947L567.243,217.501L548.75,223.959Z" style="fill:rgb(122,120,184);"/>
                </g>
                <g transform="matrix(1,0,0,1,-2.86102e-05,-1)">
                    <path d="M545.598,217.697L547.198,216.684L549.845,220.522L548.963,224.834L545.598,217.697Z" style="fill:rgb(175,172,213);fill-rule:nonzero;"/>
                    <path d="M557.011,245.54L550.857,241.903L547.198,216.684L553.349,220.321L557.011,245.54Z" style="fill:rgb(175,172,213);fill-rule:nonzero;"/>
                    <path d="M553.349,220.321L551.75,221.334L554.427,244.364L555.408,246.553L557.011,245.54L553.349,220.321Z" style="fill:rgb(119,117,183);fill-rule:nonzero;"/>
                    <path d="M555.408,246.553L549.257,242.916L545.598,217.697L551.75,221.334L555.408,246.553Z" style="fill:rgb(83,82,163);fill-rule:nonzero;"/>
                    <path d="M599.668,264.781L587.299,257.99L599.5,250.834L611.87,257.626L599.668,264.781Z" style="fill:rgb(119,117,183);fill-rule:nonzero;"/>
                    <path d="M604.5,257.167C604.5,258.886 602.411,260.279 599.834,260.279C597.257,260.279 595.168,258.886 595.168,257.167C595.168,255.449 597.257,254.057 599.834,254.057C602.411,254.057 604.5,255.449 604.5,257.167Z" style="fill:white;fill-rule:nonzero;"/>
                    <path d="M599.834,260.341C597.257,260.341 595.168,258.948 595.168,257.231L595.168,257.21C595.175,257.535 595.256,257.847 595.401,258.141C595.496,258.333 595.618,258.518 595.765,258.692C596.565,259.639 598.087,260.279 599.834,260.279C600.079,260.279 600.32,260.266 600.555,260.241C600.728,260.224 600.898,260.199 601.064,260.169C603.029,259.813 604.478,258.621 604.5,257.201L604.5,257.231C604.5,258.948 602.411,260.341 599.834,260.341Z" style="fill:rgb(119,117,183);fill-rule:nonzero;"/>
                    <path d="M599.834,260.279C598.087,260.279 596.565,259.639 595.765,258.692C595.82,258.462 595.895,258.212 595.998,257.964C596.846,258.688 598.16,259.154 599.647,259.154C599.787,259.154 599.926,259.149 600.063,259.141C600.232,259.477 600.397,259.843 600.555,260.241C600.32,260.266 600.079,260.279 599.834,260.279ZM601.064,260.169C600.914,259.781 600.757,259.421 600.595,259.089C602.58,258.813 604.089,257.692 604.271,256.315C604.402,256.597 604.494,256.891 604.5,257.201C604.478,258.621 603.029,259.813 601.064,260.169ZM595.401,258.141C595.256,257.847 595.175,257.535 595.168,257.21C595.172,257.124 595.198,257.042 595.209,256.957C595.311,257.179 595.449,257.388 595.617,257.585C595.568,257.692 595.524,257.797 595.485,257.903C595.454,257.982 595.426,258.063 595.401,258.141Z" style="fill:rgb(207,200,228);fill-rule:nonzero;"/>
                </g>
                <g transform="matrix(1,0,0,1,-2.86102e-05,-1)">
                    <clipPath id="_clip2">
                        <path d="M604.5,257.167C604.5,258.886 602.411,260.279 599.834,260.279C597.257,260.279 595.168,258.886 595.168,257.167C595.168,255.449 597.257,254.057 599.834,254.057C602.411,254.057 604.5,255.449 604.5,257.167Z"/>
                    </clipPath>
                    <g clip-path="url(#_clip2)">
                        <path d="M600.063,259.141C599.331,257.692 598.518,256.822 597.781,256.298C597.827,256.287 597.874,256.276 597.922,256.267L597.828,255.776C597.61,255.818 597.409,255.879 597.224,255.957C596.681,255.673 596.205,255.565 595.868,255.527C596.009,255.376 596.169,255.234 596.345,255.102C596.809,255.206 597.387,255.419 598.004,255.844C598.863,256.435 599.791,257.432 600.595,259.089C600.421,259.113 600.244,259.13 600.063,259.141Z" style="fill:rgb(207,200,228);fill-rule:nonzero;"/>
                        <path d="M600.555,260.241C600.397,259.843 600.232,259.477 600.063,259.141C600.244,259.13 600.421,259.113 600.595,259.089C600.757,259.421 600.914,259.781 601.064,260.169C600.898,260.199 600.728,260.224 600.555,260.241Z" style="fill:rgb(175,167,211);fill-rule:nonzero;"/>
                        <path d="M595.998,257.964C595.858,257.844 595.731,257.718 595.617,257.585C595.917,256.942 596.417,256.296 597.224,255.957C597.409,255.879 597.61,255.818 597.828,255.776L597.922,256.267C597.874,256.276 597.827,256.287 597.781,256.298C596.926,256.512 596.43,257.08 596.111,257.715C596.07,257.797 596.032,257.88 595.998,257.964Z" style="fill:rgb(207,200,228);fill-rule:nonzero;"/>
                        <path d="M595.765,258.692C595.618,258.518 595.496,258.333 595.401,258.141C595.426,258.063 595.454,257.982 595.485,257.903C595.524,257.797 595.568,257.692 595.617,257.585C595.731,257.718 595.858,257.844 595.998,257.964C595.895,258.212 595.82,258.462 595.765,258.692Z" style="fill:rgb(175,167,211);fill-rule:nonzero;"/>
                    </g>
                </g>
                <g transform="matrix(1,0,0,1,-2.86102e-05,-1)">
                    <path d="M573.668,268.75L564.799,263.905L577,256.75L585.87,261.595L573.668,268.75Z" style="fill:rgb(132,166,215);fill-rule:nonzero;"/>
                    <path d="M570.168,265L561.299,260.155L573.5,253L582.37,257.845L570.168,265Z" style="fill:rgb(187,212,238);fill-rule:nonzero;"/>
                    <path d="M612.447,248.393C612.101,247.842 611.548,247.562 610.95,247.473C610.193,246.954 609.17,246.82 608.214,247.506C606.191,248.955 603.708,249.609 601.845,251.307C599.579,253.374 600.237,257.525 603.729,258.3C606.563,258.927 609.222,256.627 610.759,254.82C611.108,254.408 611.425,253.954 611.682,253.489C611.505,253.811 612.13,252.192 611.816,253.07C611.928,252.76 612.055,252.453 612.178,252.147C612.694,250.848 613.301,249.75 612.447,248.393Z" style="fill:rgb(241,167,129);fill-rule:nonzero;"/>
                    <path d="M611.538,212.834C616.921,226.29 612.294,237.922 605.166,249.631C602.101,254.67 611.244,258.559 614.283,253.57C622.734,239.686 627.139,225.555 620.826,209.781C618.617,204.263 609.329,207.314 611.538,212.834Z" style="fill:rgb(187,212,238);fill-rule:nonzero;"/>
                </g>
            </g>
            <g transform="matrix(1.80978,0,0,1.80978,843.337,-33.0422)">
                <path d="M109.78,101.692L37.91,321.601L109.78,420.516L372.205,271.049C278.273,175.857 189.959,114.368 109.78,101.692Z" style="fill:white;fill-opacity:0;"/>
                <clipPath id="_clip3">
                    <path d="M109.78,101.692L37.91,321.601L109.78,420.516L372.205,271.049C278.273,175.857 189.959,114.368 109.78,101.692Z"/>
                </clipPath>
                <g clip-path="url(#_clip3)">
                    <path d="M157.75,130.335C156.393,134.007 157.962,137.98 161.597,139.506C165.237,141.034 170.329,137.826 171.962,134.654L172.067,134.39L172.113,134.296C175.375,125.626 160.659,122.467 157.75,130.335Z" style="fill:rgb(34,34,96);fill-rule:nonzero;"/>
                    <path d="M168.461,378.732L51.23,310.703L75.81,296.439L168.461,350.204L261.112,296.439L285.692,310.703L168.461,378.732Z" style="fill:rgb(242,248,252);fill-rule:nonzero;"/>
                    <path d="M168.71,355.755L285.468,288.178L285.468,282.171L168.71,349.748L168.71,355.755Z" style="fill:rgb(71,76,160);fill-rule:nonzero;"/>
                    <path d="M168.461,214.146L51.23,282.175L168.461,350.204L285.692,282.175L168.461,214.146Z" style="fill:rgb(202,213,237);fill-rule:nonzero;"/>
                    <path d="M168.748,355.792L51.313,288.215L51.313,282.207L168.748,349.785L168.748,355.792Z" style="fill:rgb(103,102,174);fill-rule:nonzero;"/>
                    <path d="M162.164,264.862C159.698,264.862 157.182,264.641 154.699,264.179C143.17,262.03 136.464,255.317 138.616,248.983C140.613,243.107 149.83,238.739 160.729,238.739C161.574,238.739 162.428,238.765 163.291,238.819C176.768,239.66 186.839,246.764 184.196,254.593C182.058,260.926 172.568,264.862 162.164,264.862Z" style="fill:rgb(160,177,219);fill-rule:nonzero;"/>
                    <path d="M146.302,248.311C146.427,249.748 146.302,249.752 146.302,249.752C146.302,249.752 146.235,251.128 147.284,251.587C148.333,252.046 150.429,252.505 151.741,251.259C153.05,250.015 153.182,249.163 155.212,247.788C157.242,246.412 156.325,242.94 155.998,242.088C155.671,241.236 150.954,242.35 150.561,242.677C150.167,243.004 146.082,245.802 146.302,248.311Z" style="fill:rgb(50,47,143);fill-rule:nonzero;"/>
                    <path d="M165.546,251.88L170.566,253.506C170.566,253.506 175.778,254.399 176.744,255.039C177.713,255.678 177.956,256.767 177.177,257.69C176.396,258.613 172.739,259.805 167.99,259.979C163.239,260.154 161.037,261.307 159.372,260.451C157.706,259.593 158.3,256.31 158.3,256.31C158.3,256.31 157.885,255.382 159,254.073C160.113,252.763 165.546,251.88 165.546,251.88Z" style="fill:rgb(50,47,143);fill-rule:nonzero;"/>
                    <path d="M164.486,190.935L165.725,193.869C167.543,198.179 168.299,202.863 167.93,207.526L165.174,255.75C162.689,257.059 158.54,256.451 157.85,255.75C157.85,255.75 156.409,217.868 155.479,211.667L151.145,203L157.057,192.419L164.486,190.935Z" style="fill:rgb(103,102,174);fill-rule:nonzero;"/>
                    <path d="M153.153,183.601L154.392,186.536C156.21,190.845 156.966,195.529 156.597,200.192L153.841,248.417C151.356,249.726 147.207,249.118 146.517,248.417C146.517,248.417 147.514,210.532 146.583,204.332L145.724,204.428L145.724,185.085L153.153,183.601Z" style="fill:rgb(103,102,174);fill-rule:nonzero;"/>
                    <path d="M171.723,204.714L171.462,182.477C171.446,182.376 171.424,182.274 171.407,182.173C170.455,168.978 167.777,158.908 161.71,159.892L161.557,159.697C160.278,158.139 160.011,160.763 158.508,161.033C157.727,161.173 156.829,161.256 155.957,161.17L155.957,159.405L151.346,156.794C148.061,155.968 145.75,159.494 144.133,165.325C143.822,166.292 143.542,167.284 143.327,168.325C141.193,178.682 140.547,189.806 140.603,200.758C140.585,201.779 140.572,202.786 140.561,203.778C144.72,208.088 153.911,213.114 171.723,204.714Z" style="fill:rgb(132,166,215);fill-rule:nonzero;"/>
                    <path d="M167.336,207.835C167.722,207.258 168.294,207 168.897,206.959C169.69,206.456 170.72,206.406 171.625,207.259C173.539,209.059 175.969,210.023 177.706,212.083C179.817,214.592 178.861,219.131 175.319,219.654C172.446,220.078 169.96,217.274 168.557,215.123C168.238,214.633 167.954,214.098 167.73,213.559C167.884,213.933 167.378,212.078 167.626,213.08C167.539,212.726 167.434,212.374 167.334,212.023C166.911,210.534 166.387,209.257 167.336,207.835Z" style="fill:rgb(241,167,129);fill-rule:nonzero;"/>
                    <path d="M170.815,168.5C164.471,182.901 168.247,196.242 174.511,209.907C177.208,215.787 167.802,219.221 165.131,213.399C157.701,197.195 154.328,181.106 161.768,164.224C164.37,158.319 173.419,162.592 170.815,168.5Z" style="fill:rgb(187,212,238);fill-rule:nonzero;"/>
                    <path d="M165.854,152.542C167.217,151.972 168.384,150.849 169.238,148.92C170.965,145.021 170.372,141.446 169.583,137.434C168.852,133.71 167.944,131.622 163.868,133.794C163.236,134.131 162.739,134.574 162.173,134.996C161.671,135.372 161.138,135.482 160.667,135.946C160.049,136.554 159.412,137.124 158.977,137.883C158.277,139.105 158.057,140.58 157.26,141.753C156.027,143.57 154.521,140.982 153.364,140.329C151.558,139.312 149.147,141.666 149.148,143.458C149.148,146.699 155.053,150.97 157.808,151.91C160.672,152.887 163.543,153.509 165.854,152.542Z" style="fill:rgb(241,167,129);fill-rule:nonzero;"/>
                    <path d="M161.3,149.127C161.266,148.64 160.937,148.308 160.448,148.276C159.2,148.195 157.973,147.958 156.731,147.819C155.68,147.702 154.72,148.197 153.669,148.047C153.579,148.034 153.499,148.046 153.417,148.056C153.286,147.617 153.123,147.184 152.885,146.761C152.718,146.463 152.195,146.581 152.221,146.941C152.394,149.417 152.453,151.636 151.874,154.081C151.54,155.486 150.942,157.333 151.483,158.711C152.818,162.105 159.248,160.663 161.84,160.15C162.214,160.076 162.456,159.688 162.464,159.331C162.547,155.859 161.542,152.569 161.3,149.127Z" style="fill:rgb(241,167,129);fill-rule:nonzero;"/>
                    <path d="M169.225,137.853C167.975,138.896 166.436,139.884 166.299,141.451C166.199,142.599 166.669,144.712 164.138,142.167C161.61,139.622 162.112,149.188 159.178,150.215C156.242,151.244 152.239,149.583 151.655,148.942C151.071,148.303 146.513,143.974 147.212,135.925C147.565,131.867 153.645,128.134 157.625,127.451C160.412,126.971 163.598,127.979 166.007,129.34C167.726,130.312 171.761,133.908 170.625,136.267C170.342,136.853 169.816,137.359 169.225,137.853Z" style="fill:rgb(34,34,96);fill-rule:nonzero;"/>
                    <path d="M166.668,142.578C165.563,143.116 164.329,141.175 163.345,140.62C161.54,139.603 159.13,141.957 159.131,143.749C159.131,146.145 160.969,147.424 162.996,148.231C162.995,148.368 163.018,148.509 163.11,148.648C164.328,150.508 165.949,146.642 167.64,148.155L167.736,147.184L166.668,142.578Z" style="fill:rgb(241,167,129);fill-rule:nonzero;"/>
                    <path d="M151.558,155.759C151.558,155.759 150.943,156.949 153.891,157.63C156.838,158.311 158.896,157.63 162.973,156.708L164.166,159.877C164.166,159.877 152.286,164.213 150.099,158.602L151.083,155.905L151.558,155.759Z" style="fill:white;fill-rule:nonzero;"/>
                    <path d="M158.664,325.362C156.198,325.362 153.682,325.141 151.199,324.679C139.67,322.53 132.964,315.817 135.116,309.483C137.113,303.607 146.331,299.239 157.229,299.239C158.075,299.239 158.928,299.265 159.791,299.319C173.268,300.16 183.339,307.264 180.696,315.093C178.558,321.426 169.068,325.362 158.664,325.362Z" style="fill:rgb(160,177,219);fill-rule:nonzero;"/>
                    <path d="M142.802,308.811C142.927,310.248 142.802,310.252 142.802,310.252C142.802,310.252 142.735,311.628 143.784,312.087C144.833,312.546 146.929,313.005 148.241,311.759C149.55,310.515 149.682,309.663 151.712,308.288C153.742,306.912 152.825,303.44 152.498,302.588C152.171,301.736 147.454,302.85 147.061,303.177C146.667,303.504 142.582,306.302 142.802,308.811Z" style="fill:rgb(50,47,143);fill-rule:nonzero;"/>
                    <path d="M162.046,312.38L167.066,314.006C167.066,314.006 172.278,314.899 173.244,315.539C174.213,316.178 174.456,317.267 173.677,318.19C172.896,319.113 169.239,320.305 164.49,320.479C159.739,320.654 157.537,321.807 155.872,320.95C154.206,320.093 154.8,316.81 154.8,316.81C154.8,316.81 154.385,315.882 155.5,314.573C156.613,313.263 162.046,312.38 162.046,312.38Z" style="fill:rgb(50,47,143);fill-rule:nonzero;"/>
                    <path d="M160.986,251.435L162.225,254.369C164.043,258.679 164.799,263.363 164.43,268.026C164.308,270.155 164.227,272.302 164.085,274.435C163.484,283.444 162.773,292.503 162.433,301.522C162.293,305.24 161.946,308.968 161.945,312.651C161.944,314.291 162.217,315.126 160.641,316.207C159.958,316.675 154.398,317.52 154.35,316.249C154.339,315.976 152.906,278.345 151.979,272.167L147.645,263.5L153.557,252.919L160.986,251.435Z" style="fill:rgb(241,167,129);fill-rule:nonzero;"/>
                    <path d="M149.653,244.101L150.892,247.036C152.71,251.345 153.466,256.029 153.097,260.692C152.968,262.936 152.924,265.243 152.752,267.502C152.044,276.76 151.08,286.259 150.966,295.525C150.921,299.146 150.905,302.896 150.738,306.369C150.546,310.37 142.741,311.162 143.256,306.377C143.652,302.691 142.881,264.854 143.083,264.832L142.224,264.928L142.224,245.585L149.653,244.101Z" style="fill:rgb(241,167,129);fill-rule:nonzero;"/>
                    <path d="M165.155,281.212C163.618,286.232 155.715,288.958 148.372,287.472C141.839,286.151 138.063,281.89 139.313,277.83C140.563,273.773 146.562,270.797 153.362,271.221C161.006,271.698 166.69,276.195 165.155,281.212Z" style="fill:rgb(48,47,142);fill-rule:nonzero;"/>
                    <path d="M139.073,260.141L139.073,279.141L165.417,279.875L165.417,256.124L139.073,260.141Z" style="fill:rgb(48,47,142);fill-rule:nonzero;"/>
                    <path d="M168.223,259.074L167.962,239.679L167.907,239.414C166.955,227.905 164.277,219.123 158.21,219.98L158.057,219.811C156.778,218.452 156.511,220.74 155.008,220.976C154.227,221.098 153.329,221.171 152.457,221.095L152.457,219.556L147.846,217.279C144.561,216.558 142.25,219.634 140.633,224.719C140.322,225.563 140.042,226.428 139.827,227.336C137.693,236.369 137.047,246.071 137.103,255.624C137.085,256.514 137.072,257.392 137.061,258.258C141.22,262.016 150.411,266.4 168.223,259.074Z" style="fill:rgb(231,109,169);fill-rule:nonzero;"/>
                    <path d="M162.354,213.042C163.717,212.472 164.884,211.349 165.738,209.42C167.465,205.521 166.872,201.946 166.083,197.934C165.352,194.21 164.444,192.122 160.368,194.294C159.736,194.631 159.239,195.074 158.673,195.496C158.171,195.872 157.638,195.982 157.167,196.446C156.549,197.054 155.912,197.624 155.477,198.383C154.777,199.605 154.557,201.08 153.76,202.253C152.527,204.07 151.021,201.482 149.864,200.829C148.058,199.812 145.647,202.166 145.648,203.958C145.648,207.199 151.553,211.47 154.308,212.41C157.172,213.387 160.043,214.009 162.354,213.042Z" style="fill:rgb(241,167,129);fill-rule:nonzero;"/>
                    <path d="M157.8,209.627C157.766,209.14 157.437,208.808 156.948,208.776C155.7,208.695 154.473,208.458 153.231,208.319C152.18,208.202 151.22,208.697 150.169,208.547C150.079,208.534 149.999,208.546 149.917,208.556C149.786,208.117 149.623,207.684 149.385,207.261C149.218,206.963 148.695,207.081 148.721,207.441C148.894,209.917 148.953,212.136 148.374,214.581C148.04,215.986 147.442,217.833 147.983,219.211C149.318,222.605 155.748,221.163 158.34,220.65C158.714,220.576 158.956,220.188 158.964,219.831C159.047,216.359 158.042,213.069 157.8,209.627Z" style="fill:rgb(241,167,129);fill-rule:nonzero;"/>
                    <path d="M165.701,198.324C165.701,198.324 162.903,200.802 162.799,201.951C162.699,203.099 163.169,205.212 160.638,202.667C158.11,200.122 158.612,209.688 155.678,210.715C152.742,211.744 148.739,210.083 148.155,209.442C147.571,208.803 143.013,204.474 143.712,196.425C144.065,192.367 150.145,188.634 154.125,187.951C158.103,187.267 165.402,190.164 165.914,193.774C166.425,197.387 165.701,198.324 165.701,198.324Z" style="fill:rgb(34,34,96);fill-rule:nonzero;"/>
                    <path d="M163.168,203.078C162.063,203.616 160.829,201.675 159.845,201.12C158.04,200.103 155.63,202.457 155.631,204.249C155.631,206.645 157.469,207.924 159.496,208.731C159.495,208.868 159.518,209.009 159.61,209.148C160.828,211.008 162.449,207.142 164.14,208.655L164.236,207.684L163.168,203.078Z" style="fill:rgb(241,167,129);fill-rule:nonzero;"/>
                    <path d="M148.058,216.259C148.058,216.259 147.443,217.449 150.391,218.13C153.338,218.811 155.396,218.13 159.473,217.208L160.666,220.377C160.666,220.377 148.786,224.713 146.599,219.102L147.583,216.405L148.058,216.259Z" style="fill:white;fill-rule:nonzero;"/>
                    <path d="M149.221,210.898C149.106,209.11 148.384,207.129 148.256,205.359C149.444,203.82 148.088,200.826 145.564,201.34C141.864,202.093 140.891,205.275 140.928,208.689C140.951,210.819 141.455,212.999 141.658,215.115C142.075,219.46 140.871,223.853 140.068,228.086C139.589,230.612 142.292,232.153 144.247,230.518C147.45,227.838 148.584,223.458 149.037,219.466C149.361,216.604 149.407,213.773 149.221,210.898Z" style="fill:rgb(34,34,96);fill-rule:nonzero;"/>
                    <path d="M177.052,269.086L151.388,285.875L148.574,265.581L174.237,248.792L177.052,269.086Z" style="fill:rgb(102,102,174);fill-rule:nonzero;"/>
                    <path d="M159.62,267.867C160.049,267.321 160.639,267.107 161.243,267.112C162.072,266.671 163.103,266.7 163.94,267.62C165.711,269.561 168.061,270.707 169.635,272.895C171.548,275.557 170.249,280.009 166.678,280.261C163.78,280.464 161.516,277.478 160.28,275.226C160,274.713 159.758,274.159 159.576,273.604C159.701,273.988 159.338,272.101 159.509,273.119C159.449,272.759 159.37,272.4 159.298,272.043C158.99,270.525 158.564,269.212 159.62,267.867Z" style="fill:rgb(241,167,129);fill-rule:nonzero;"/>
                    <path d="M166.091,228.912C158.666,242.787 161.413,256.377 166.616,270.48C168.856,276.549 159.215,279.255 156.996,273.247C150.825,256.522 148.689,240.223 157.396,223.958C160.441,218.269 169.138,223.22 166.091,228.912Z" style="fill:rgb(208,93,163);fill-rule:nonzero;"/>
                    <path d="M214.164,292.862C211.698,292.862 209.182,292.641 206.699,292.179C195.17,290.03 188.464,283.317 190.616,276.983C192.613,271.108 201.83,266.739 212.729,266.739C213.574,266.739 214.428,266.765 215.291,266.819C228.768,267.66 238.839,274.764 236.196,282.593C234.058,288.926 224.568,292.862 214.164,292.862Z" style="fill:rgb(160,177,219);fill-rule:nonzero;"/>
                    <path d="M198.302,276.311C198.427,277.748 198.302,277.752 198.302,277.752C198.302,277.752 198.235,279.128 199.284,279.587C200.333,280.046 202.429,280.505 203.741,279.259C205.05,278.015 205.182,277.163 207.212,275.788C209.242,274.412 208.325,270.94 207.998,270.088C207.671,269.236 202.954,270.35 202.561,270.677C202.167,271.004 198.082,273.802 198.302,276.311Z" style="fill:rgb(50,47,143);fill-rule:nonzero;"/>
                    <path d="M217.546,279.88L222.566,281.506C222.566,281.506 227.778,282.399 228.744,283.039C229.713,283.678 229.956,284.767 229.177,285.69C228.396,286.613 224.739,287.805 219.99,287.979C215.239,288.154 213.037,289.307 211.372,288.45C209.706,287.593 210.3,284.31 210.3,284.31C210.3,284.31 209.885,283.382 211,282.073C212.113,280.763 217.546,279.88 217.546,279.88Z" style="fill:rgb(50,47,143);fill-rule:nonzero;"/>
                    <path d="M216.486,218.935L217.725,221.869C219.543,226.179 220.299,230.863 219.93,235.526C219.808,237.655 219.727,239.802 219.585,241.935C218.984,250.944 218.273,260.003 217.933,269.022C217.793,272.74 217.446,276.468 217.445,280.151C217.444,281.791 217.717,282.626 216.141,283.707C215.458,284.175 209.898,285.02 209.85,283.749C209.839,283.476 208.406,245.845 207.479,239.667L203.145,231L209.057,220.419L216.486,218.935Z" style="fill:rgb(241,167,129);fill-rule:nonzero;"/>
                    <path d="M205.153,211.601L206.392,214.536C208.21,218.845 208.966,223.529 208.597,228.192C208.468,230.436 208.424,232.743 208.252,235.002C207.544,244.26 206.58,253.759 206.466,263.025C206.421,266.646 206.405,270.396 206.238,273.869C206.046,277.87 198.241,278.662 198.756,273.877C199.152,270.191 198.381,232.354 198.583,232.332L197.724,232.428L197.724,213.085L205.153,211.601Z" style="fill:rgb(241,167,129);fill-rule:nonzero;"/>
                    <path d="M220.655,248.712C219.118,253.732 211.215,256.458 203.872,254.972C197.339,253.651 193.563,249.39 194.813,245.33C196.063,241.273 202.062,238.297 208.862,238.721C216.506,239.198 222.19,243.695 220.655,248.712Z" style="fill:rgb(83,82,163);fill-rule:nonzero;"/>
                    <path d="M194.573,227.641L194.573,246.641L220.917,247.375L220.917,223.624L194.573,227.641Z" style="fill:rgb(83,82,163);fill-rule:nonzero;"/>
                    <path d="M223.723,226.574L223.462,207.179L223.407,206.914C222.455,195.405 219.777,186.623 213.71,187.48L213.557,187.311C212.278,185.952 212.011,188.24 210.508,188.476C209.727,188.598 208.829,188.671 207.957,188.595L207.957,187.056L203.346,184.779C200.061,184.058 197.75,187.134 196.133,192.219C195.822,193.063 195.542,193.928 195.327,194.836C193.193,203.869 192.547,213.571 192.603,223.124C192.585,224.014 192.572,224.892 192.561,225.758C196.72,229.516 205.911,233.9 223.723,226.574Z" style="fill:rgb(102,102,174);fill-rule:nonzero;"/>
                    <path d="M217.854,180.542C219.217,179.972 220.384,178.849 221.238,176.92C222.965,173.021 222.372,169.446 221.583,165.434C220.852,161.71 219.944,159.622 215.868,161.794C215.236,162.131 214.739,162.574 214.173,162.996C213.671,163.372 213.138,163.482 212.667,163.946C212.049,164.554 211.412,165.124 210.977,165.883C210.277,167.105 210.057,168.58 209.26,169.753C208.027,171.57 206.521,168.982 205.364,168.329C203.558,167.312 201.147,169.666 201.148,171.458C201.148,174.699 207.053,178.97 209.808,179.91C212.672,180.887 215.543,181.509 217.854,180.542Z" style="fill:rgb(241,167,129);fill-rule:nonzero;"/>
                    <path d="M213.3,177.127C213.266,176.64 212.937,176.308 212.448,176.276C211.2,176.195 209.973,175.958 208.731,175.819C207.68,175.702 206.72,176.197 205.669,176.047C205.579,176.034 205.499,176.046 205.417,176.056C205.286,175.617 205.123,175.184 204.885,174.761C204.718,174.463 204.195,174.581 204.221,174.941C204.394,177.417 204.453,179.636 203.874,182.081C203.54,183.486 202.942,185.333 203.483,186.711C204.818,190.105 211.248,188.663 213.84,188.15C214.214,188.076 214.456,187.688 214.464,187.331C214.547,183.859 213.542,180.569 213.3,177.127Z" style="fill:rgb(241,167,129);fill-rule:nonzero;"/>
                    <path d="M221.201,165.824C221.201,165.824 218.403,168.302 218.299,169.451C218.199,170.599 218.669,172.712 216.138,170.167C213.61,167.622 214.112,177.188 211.178,178.215C208.242,179.244 204.239,177.583 203.655,176.942C203.071,176.303 198.513,171.974 199.212,163.925C199.565,159.867 205.645,156.134 209.625,155.451C213.603,154.767 220.902,157.664 221.414,161.274C221.925,164.887 221.201,165.824 221.201,165.824Z" style="fill:rgb(34,34,96);fill-rule:nonzero;"/>
                    <path d="M203.558,183.759C203.558,183.759 202.943,184.949 205.891,185.63C208.838,186.311 210.896,185.63 214.973,184.708L216.166,187.877C216.166,187.877 204.286,192.213 202.099,186.602L203.083,183.905L203.558,183.759Z" style="fill:white;fill-rule:nonzero;"/>
                    <path d="M215.12,235.367C215.549,234.821 216.139,234.607 216.743,234.612C217.572,234.171 218.603,234.2 219.44,235.12C221.211,237.061 223.561,238.207 225.135,240.395C227.048,243.057 225.749,247.509 222.178,247.761C219.28,247.964 217.016,244.978 215.78,242.726C215.5,242.213 215.258,241.659 215.076,241.104C215.201,241.488 214.838,239.601 215.009,240.619C214.949,240.259 214.87,239.9 214.798,239.543C214.49,238.025 214.064,236.712 215.12,235.367Z" style="fill:rgb(241,167,129);fill-rule:nonzero;"/>
                    <path d="M221.591,196.412C214.166,210.287 216.913,223.877 222.116,237.98C224.356,244.049 214.715,246.755 212.496,240.747C206.325,224.022 204.189,207.723 212.896,191.458C215.941,185.769 224.638,190.72 221.591,196.412Z" style="fill:rgb(72,76,160);fill-rule:nonzero;"/>
                    <path d="M212.349,169.215C211.113,167.81 209.528,168.274 208.269,167.312C207.384,166.636 207.017,164.82 206.427,163.86C205.332,162.075 203.167,158.737 200.812,160.904C196.195,165.153 202.092,172.967 199.5,177.884C198.203,180.342 196.086,182.164 195.183,184.871C193.292,190.537 196.768,196.116 203.031,195.539C214.617,194.471 219.635,177.507 212.349,169.215Z" style="fill:rgb(34,34,96);fill-rule:nonzero;"/>
                    <path d="M218.668,170.578C217.563,171.116 216.329,169.175 215.345,168.62C213.54,167.603 211.13,169.957 211.131,171.749C211.131,174.145 212.969,175.424 214.996,176.231C214.995,176.368 216.471,176.945 216.563,177.084C217.78,178.944 217.949,174.642 219.64,176.155L219.736,175.184L218.668,170.578Z" style="fill:rgb(241,167,129);fill-rule:nonzero;"/>
                    <path d="M105.875,297.355C103.663,297.313 101.418,297.092 99.199,296.679C87.67,294.53 80.963,287.817 83.116,281.483C84.889,276.264 92.359,272.235 101.644,271.399C102.054,280.478 102.35,288.25 102.35,288.25C102.431,288.333 102.561,288.414 102.731,288.492C102.749,288.696 102.8,288.81 102.8,288.81C102.8,288.81 102.206,292.093 103.872,292.95C104.314,293.178 104.794,293.264 105.35,293.264C105.518,293.264 105.693,293.256 105.875,293.242L105.875,297.355ZM110.069,281.343L110.626,271.593C113.74,272.004 116.616,272.754 119.129,273.767L115.884,275.656C115.575,275.836 115.387,276.163 115.387,276.521L115.387,278.248L110.069,281.343Z" style="fill:rgb(160,177,219);fill-rule:nonzero;"/>
                    <path d="M90.802,280.811C90.927,282.248 90.802,282.252 90.802,282.252C90.802,282.252 90.735,283.628 91.784,284.087C92.832,284.546 94.929,285.005 96.24,283.759C97.55,282.515 97.681,281.663 99.711,280.288C101.742,278.912 100.825,275.44 100.498,274.588C100.171,273.736 95.453,274.85 95.06,275.177C94.666,275.504 90.582,278.302 90.802,280.811Z" style="fill:rgb(50,47,143);fill-rule:nonzero;"/>
                    <path d="M110.046,284.38L115.066,286.006C115.066,286.006 120.278,286.899 121.244,287.539C122.213,288.178 122.456,289.266 121.677,290.19C120.897,291.113 117.239,292.305 112.49,292.479C107.739,292.654 105.537,293.807 103.872,292.95C102.206,292.093 102.8,288.81 102.8,288.81C102.8,288.81 102.385,287.882 103.5,286.573C104.613,285.263 110.046,284.38 110.046,284.38Z" style="fill:rgb(50,47,143);fill-rule:nonzero;"/>
                    <path d="M108.986,223.435L110.225,226.369C112.043,230.679 112.799,235.363 112.43,240.026L109.674,288.25C107.19,289.559 103.04,288.951 102.35,288.25C102.35,288.25 100.909,250.368 99.978,244.167L95.645,235.501L101.557,224.919L108.986,223.435Z" style="fill:rgb(103,102,174);fill-rule:nonzero;"/>
                    <path d="M97.653,216.101L98.891,219.036C100.71,223.345 101.466,228.029 101.097,232.692L98.34,280.917C95.856,282.226 91.707,281.618 91.016,280.917C91.016,280.917 92.013,243.032 91.083,236.832L90.223,236.928L90.223,217.585L97.653,216.101Z" style="fill:rgb(103,102,174);fill-rule:nonzero;"/>
                    <path d="M116.223,237.214L115.962,214.977C115.946,214.876 115.924,214.774 115.907,214.673C114.955,201.478 112.277,191.408 106.21,192.392L106.057,192.197C104.778,190.639 104.511,193.263 103.008,193.533C102.227,193.673 101.329,193.756 100.457,193.67L100.457,191.905L95.845,189.294C92.56,188.468 90.25,191.994 88.632,197.825C88.322,198.792 88.042,199.784 87.827,200.825C85.692,211.182 85.046,222.306 85.102,233.258C85.085,234.279 85.071,235.286 85.061,236.278C89.22,240.588 98.41,245.614 116.223,237.214Z" style="fill:rgb(83,82,163);fill-rule:nonzero;"/>
                    <path d="M111.836,240.335C112.222,239.758 112.794,239.5 113.397,239.459C114.19,238.956 115.22,238.906 116.125,239.759C118.039,241.559 120.469,242.523 122.206,244.583C124.317,247.092 123.361,251.631 119.819,252.154C116.946,252.578 114.46,249.774 113.057,247.623C112.738,247.133 112.454,246.598 112.23,246.059C112.384,246.433 111.878,244.578 112.126,245.58C112.039,245.226 111.934,244.874 111.834,244.523C111.411,243.034 110.887,241.757 111.836,240.335Z" style="fill:rgb(241,167,129);fill-rule:nonzero;"/>
                    <path d="M115.315,201C108.971,215.401 112.747,228.742 119.011,242.407C121.708,248.287 112.302,251.721 109.631,245.899C102.201,229.695 98.828,213.606 106.268,196.724C108.87,190.819 117.919,195.092 115.315,201Z" style="fill:rgb(48,47,142);fill-rule:nonzero;"/>
                    <path d="M110.354,185.042C111.717,184.472 112.884,183.349 113.738,181.42C115.465,177.521 114.872,173.946 114.083,169.934C113.352,166.21 112.444,164.122 108.368,166.294C107.736,166.631 107.239,167.074 106.673,167.496C106.171,167.872 105.638,167.982 105.167,168.446C104.549,169.054 103.912,169.624 103.477,170.383C102.777,171.605 102.557,173.08 101.76,174.253C100.527,176.07 99.021,173.482 97.863,172.829C96.057,171.812 93.647,174.166 93.648,175.958C93.648,179.199 99.552,183.47 102.308,184.41C105.172,185.387 108.043,186.009 110.354,185.042Z" style="fill:rgb(241,167,129);fill-rule:nonzero;"/>
                    <path d="M105.8,181.627C105.766,181.14 105.437,180.808 104.948,180.776C103.7,180.695 102.473,180.458 101.231,180.319C100.18,180.202 99.219,180.697 98.169,180.547C98.079,180.534 97.999,180.546 97.917,180.556C97.786,180.117 97.622,179.684 97.385,179.261C97.217,178.963 96.695,179.081 96.721,179.441C96.894,181.917 96.953,184.136 96.374,186.581C96.04,187.986 95.442,189.833 95.983,191.211C97.317,194.605 103.748,193.163 106.34,192.65C106.714,192.576 106.956,192.188 106.964,191.831C107.047,188.359 106.042,185.069 105.8,181.627Z" style="fill:rgb(241,167,129);fill-rule:nonzero;"/>
                    <path d="M113.701,170.324C113.701,170.324 110.903,172.802 110.799,173.951C110.699,175.099 111.169,177.212 108.638,174.667C106.11,172.122 106.612,181.688 103.678,182.715C100.742,183.744 96.738,182.083 96.154,181.442C95.571,180.803 91.013,176.474 91.711,168.425C92.065,164.367 98.145,160.634 102.125,159.951C106.103,159.267 113.402,162.164 113.914,165.774C114.425,169.387 113.701,170.324 113.701,170.324Z" style="fill:rgb(34,34,96);fill-rule:nonzero;"/>
                    <path d="M111.168,175.078C110.063,175.616 108.829,173.675 107.845,173.12C106.04,172.103 103.63,174.457 103.631,176.249C103.631,178.645 105.469,179.924 107.496,180.731C107.495,180.868 107.518,181.009 107.61,181.148C108.828,183.008 110.449,179.142 112.14,180.655L112.236,179.684L111.168,175.078Z" style="fill:rgb(241,167,129);fill-rule:nonzero;"/>
                    <path d="M96.057,188.259C96.057,188.259 95.442,189.449 98.391,190.13C101.338,190.811 103.396,190.13 107.473,189.208L108.666,192.377C108.666,192.377 96.786,196.713 94.599,191.102L95.583,188.405L96.057,188.259Z" style="fill:white;fill-rule:nonzero;"/>
                    <path d="M135.813,271.049L131.973,268.595L129.373,272.304L129.132,277.185L135.813,271.049Z" style="fill:rgb(103,102,174);fill-rule:nonzero;"/>
                    <path d="M131.973,287.378L105.939,302.527L105.939,283.746L131.973,268.595L131.973,287.378Z" style="fill:rgb(103,102,174);fill-rule:nonzero;"/>
                    <path d="M109.78,305.028L105.875,302.629L105.875,283.848L109.78,286.246L109.78,305.028Z" style="fill:rgb(83,82,163);fill-rule:nonzero;"/>
                    <path d="M135.813,289.831L109.78,304.981L109.78,286.2L135.813,271.049L135.813,289.831Z" style="fill:rgb(48,47,142);fill-rule:nonzero;"/>
                    <path d="M117.387,280.03L117.387,277.095L124.872,272.739L124.872,274.51C124.872,275.062 125.32,275.51 125.872,275.51C126.424,275.51 126.872,275.062 126.872,274.51L126.872,271C126.872,270.643 126.68,270.312 126.371,270.134C126.061,269.956 125.678,269.956 125.369,270.136L115.884,275.656C115.575,275.836 115.387,276.163 115.387,276.521L115.387,280.03C115.387,280.582 115.834,281.03 116.387,281.03C116.939,281.03 117.387,280.582 117.387,280.03Z" style="fill:rgb(48,47,142);fill-rule:nonzero;"/>
                </g>
            </g>
            <g transform="matrix(1.80978,0,0,1.80978,1031,135.19)">
                <path d="M375.499,289.244L258.268,221.215L283.279,206.701L375.499,260.215L467.718,206.701L492.729,221.215L375.499,289.244Z" style="fill:rgb(242,248,252);fill-rule:nonzero;"/>
                <path d="M375.912,265.884L492.67,198.307L492.67,192.299L375.912,259.876L375.912,265.884Z" style="fill:rgb(71,76,160);fill-rule:nonzero;"/>
                <path d="M375.499,124.158L258.268,192.186L375.499,260.215L492.729,192.186L375.499,124.158Z" style="fill:rgb(202,213,237);fill-rule:nonzero;"/>
                <path d="M375.949,265.921L258.515,198.343L258.515,192.336L375.949,259.913L375.949,265.921Z" style="fill:rgb(103,102,174);fill-rule:nonzero;"/>
                <path d="M390.071,83.248C389.642,85.962 390.169,89.127 390.173,91.417C390.187,101.907 383.882,110.763 377.257,118.422C373.4,122.884 381.774,128.232 385.597,123.815C396.229,111.521 402.911,98.314 399.296,81.714C398.589,78.466 394.788,77.16 392.302,79.058C390.964,80.077 390.337,81.577 390.071,83.248Z" style="fill:rgb(83,82,163);fill-rule:nonzero;"/>
                <path d="M401.66,58.077C400.887,57.123 399.278,57.277 398.479,58.077L398.371,58.208C397.233,57.709 395.726,58.132 395.515,59.537C395.11,58.765 393.864,58.639 393.507,59.708C393.277,60.397 393.032,60.851 393.05,61.613C393.067,62.36 393.375,63.142 393.694,63.805C394.409,65.291 395.491,66.521 396.89,67.401C398.011,68.105 399.478,67.41 399.838,66.202L399.891,65.963C400.478,66.195 401.097,66.348 401.735,66.406C402.673,66.491 403.702,65.665 403.895,64.763C404.448,62.158 403.255,60.042 401.66,58.077Z" style="fill:rgb(34,34,96);fill-rule:nonzero;"/>
                <path d="M401.418,190.065C398.952,190.065 396.436,189.844 393.953,189.381C386.949,188.076 381.725,185.086 379.186,181.52L379.186,181.307L378.954,181.181C377.498,178.968 377.067,176.55 377.87,174.185C379.867,168.31 389.084,163.941 399.983,163.941C400.828,163.941 401.682,163.968 402.545,164.022C416.022,164.862 426.093,171.967 423.45,179.795C421.312,186.129 411.822,190.065 401.418,190.065Z" style="fill:rgb(160,177,219);fill-rule:nonzero;"/>
                <path d="M393.013,109.804L391.774,112.738C389.956,117.048 389.2,121.732 389.569,126.395L392.325,174.619C394.81,175.928 398.959,175.32 399.649,174.619C399.364,162.128 399.346,149.646 399.388,137.154C399.405,131.873 400.815,126.712 401.215,121.477C401.271,120.745 400.981,111.396 400.442,111.288L393.013,109.804Z" style="fill:rgb(34,35,97);fill-rule:nonzero;"/>
                <path d="M412.364,58.043C410.596,53.978 405.17,53.076 401.278,53.234C399.623,53.301 396.764,53.72 395.768,55.213C394.451,57.186 394.619,61.099 397.124,61.947C398.396,62.378 399.813,62.576 401.141,62.763C401.761,62.851 402.577,62.798 403.156,63.066C403.831,63.38 404.041,63.967 404.197,64.669C404.799,67.379 405.279,70.556 405.279,70.556L407.052,67.665C407.052,67.665 408.406,67.813 409.192,68.813C408.884,70.088 407.198,71.269 406.735,72.501C406.735,72.501 410.722,72.652 412.767,67.593C413.546,65.509 414.729,63.481 412.364,58.043Z" style="fill:rgb(34,34,96);fill-rule:nonzero;"/>
                <path d="M395.544,83.84C395.228,83.07 394.695,82.254 395.004,81.655C395.929,79.857 396.994,77.942 397.527,76.019C393.727,74.348 392.904,71.535 393.439,67.491C393.786,64.875 394.393,58.356 398.18,58.266C399.995,58.224 402.725,58.811 404.017,60.186C405.26,61.507 405.316,63.673 406.328,65.164C407.279,66.566 408.441,64.568 409.337,64.064C410.729,63.279 412.589,65.096 412.589,66.479C412.589,68.329 411.171,69.315 409.606,69.938C409.606,70.044 409.589,70.153 409.519,70.261C408.577,71.696 407.441,73.153 406.137,74.321C405.868,75.465 405.495,76.624 405.59,77.666C405.81,80.048 406.623,83.536 408.593,84.688C408.604,84.694 406.664,85.441 406.227,85.484C404.384,85.66 402.594,85.05 400.772,85.175C399.548,85.26 398.335,86.159 397.13,85.681C396.496,85.429 395.891,84.678 395.544,83.84Z" style="fill:rgb(241,167,129);fill-rule:nonzero;"/>
                <path d="M416.081,115.813C416.718,113.354 416.356,110.472 416.349,108.032C416.341,104.742 416.058,101.11 415.388,97.495L415.339,97.261C414.497,87.076 412.132,79.304 406.769,80.063L406.633,79.913C405.503,78.711 405.267,80.736 403.938,80.944C403.247,81.053 402.454,81.117 401.684,81.05L401.684,79.688L397.608,77.673C394.705,77.035 392.664,79.757 391.234,84.257C390.959,85.003 390.712,85.769 390.521,86.573C388.636,94.566 388.064,103.152 388.114,111.605C388.078,113.376 388.063,115.092 388.059,116.732C392.815,120.061 401.265,121.832 416.081,115.813Z" style="fill:rgb(34,35,97);fill-rule:nonzero;"/>
                <path d="M392.93,172.712C391.956,173.226 391.139,174.028 390.106,174.937C390.106,174.937 385.067,177.852 384.912,178.243C384.76,178.632 384.527,179.812 384.691,180.034C384.854,180.255 386.594,181.438 389.118,180.534C391.13,179.815 393.057,178.872 395.024,178.188C396.208,177.777 399.032,177.724 399.664,176.399C399.988,175.719 400.057,173.683 399.648,173.021C398.994,171.964 396.758,172.165 395.706,172.125C394.561,172.083 393.697,172.309 392.93,172.712Z" style="fill:rgb(34,34,96);fill-rule:nonzero;"/>
                <clipPath id="_clip4">
                    <path d="M416.081,115.813C416.718,113.354 416.356,110.472 416.349,108.032C416.341,104.742 416.058,101.11 415.388,97.495L415.339,97.261C414.497,87.076 412.132,79.304 406.769,80.063L406.633,79.913C405.503,78.711 405.267,80.736 403.938,80.944C403.247,81.053 402.454,81.117 401.684,81.05L401.684,79.688L397.608,77.673C394.705,77.035 392.664,79.757 391.234,84.257C390.959,85.003 390.712,85.769 390.521,86.573C388.636,94.566 388.064,103.152 388.114,111.605C388.078,113.376 388.062,115.092 388.059,116.732C392.815,120.06 401.265,121.832 416.081,115.813Z"/>
                </clipPath>
                <g clip-path="url(#_clip4)">
                    <path d="M404.507,80.251L392.069,108.167C392.069,108.167 391.882,87.626 395.944,78.626C400.007,69.626 406.257,75.001 406.257,75.001L404.507,80.251Z" style="fill:rgb(119,117,183);fill-rule:nonzero;"/>
                </g>
                <g>
                    <path d="M396.973,77.512L396.561,78.581L397.029,79.931L397.985,79.593L398.355,79.553L399.973,80.643C399.973,80.643 401.772,80.736 401.923,80.68C402.073,80.624 403.966,79.405 403.966,79.349C403.966,79.293 402.504,76.274 402.335,76.18C402.166,76.086 400.441,75.28 400.16,75.336C399.879,75.393 396.973,77.512 396.973,77.512Z" style="fill:rgb(241,167,129);fill-rule:nonzero;"/>
                    <path d="M397.23,77.025C397.23,77.025 395.966,79.131 398.354,79.555L394.6,80.919L397.23,77.025Z" style="fill:white;fill-rule:nonzero;"/>
                    <path d="M405.587,77.662C405.587,77.662 401.759,80.735 398.354,79.555L400.426,84.162L407.308,79.843L405.587,77.662Z" style="fill:white;fill-rule:nonzero;"/>
                    <path d="M403.547,176.16C404.082,175.307 404.849,175.741 406.214,175.601C407.429,175.476 410.212,177.487 409.326,173.846C409.788,173.869 409.403,174.038 409.485,174.542C409.624,175.392 410.444,178.794 410.452,179.372C410.485,182.964 399.969,192.587 399.952,184.652C399.952,184.159 402.78,179.233 402.882,178.575C403.077,177.311 403.284,176.579 403.547,176.16Z" style="fill:rgb(34,34,96);fill-rule:nonzero;"/>
                    <path d="M398.663,114.889C398.805,119.132 398.952,123.375 399.093,127.618C399.2,130.859 399.33,134.101 399.419,137.342C399.744,149.36 401.651,161.429 403.101,173.341C403.262,174.672 403.43,176.003 403.591,177.334L409.93,176.667C409.919,175.431 409.909,174.194 409.897,172.958C409.778,161.272 408.839,149.044 409.956,137.412C410.666,130.017 410.916,122.515 411.413,115.093L398.663,114.889Z" style="fill:rgb(34,35,97);fill-rule:nonzero;"/>
                    <path d="M403.493,55.744C402.72,54.79 401.111,54.944 400.312,55.744L400.204,55.875C399.067,55.376 397.56,55.798 397.348,57.204C396.944,56.431 395.698,56.305 395.341,57.375C395.11,58.063 394.865,58.518 394.883,59.28C394.9,60.026 395.208,60.809 395.527,61.472C396.243,62.957 397.324,64.188 398.724,65.067C399.845,65.771 401.312,65.077 401.671,63.868L401.724,63.63C402.311,63.861 402.931,64.015 403.569,64.073C404.507,64.158 405.536,63.332 405.728,62.43C406.282,59.824 405.088,57.708 403.493,55.744Z" style="fill:rgb(34,34,96);fill-rule:nonzero;"/>
                    <path d="M379.402,108.541L387.288,103.43L405.591,131.668L397.706,136.78L379.402,108.541Z" style="fill:rgb(132,166,215);fill-rule:nonzero;"/>
                    <path d="M405.546,131.552C406.478,132.988 405.458,135.303 403.269,136.722C401.079,138.141 398.55,138.126 397.618,136.69C396.687,135.253 397.708,132.938 399.896,131.52C402.085,130.101 404.614,130.115 405.546,131.552Z" style="fill:rgb(187,212,238);fill-rule:nonzero;"/>
                    <path d="M393.725,80.157C390.325,64.859 378.391,54.499 367.068,57.012C356.997,59.251 347.417,70.954 348.563,84.274L350.767,94.187C355.369,106.74 369.309,114.656 379.382,112.42C390.704,109.903 397.128,95.461 393.725,80.163L393.725,80.157ZM355.958,88.558L355.957,88.551C353.092,75.667 358.501,63.502 368.04,61.382C377.576,59.264 383.377,67.96 386.241,80.848L386.901,81.011C389.765,93.896 387.948,105.93 378.411,108.05C368.874,110.168 358.822,101.443 355.958,88.558Z" style="fill:rgb(132,166,215);fill-rule:nonzero;"/>
                    <path d="M375.413,108.366C366.851,108.299 358.523,100.097 355.958,88.558L355.957,88.551C354.415,81.617 355.269,74.891 357.875,69.827L375.413,108.366ZM378.504,108.029L359.761,66.845C360.643,65.704 361.639,64.702 362.737,63.866L382.137,106.494C381.08,107.193 379.872,107.714 378.504,108.029ZM386.364,98.435L369.396,61.15C369.511,61.136 369.626,61.124 369.74,61.114L375.232,62.702L383.304,71.547C383.899,72.898 384.439,74.353 384.926,75.897L388.119,90.216C388.138,90.795 388.143,91.367 388.136,91.931L386.364,98.435Z" style="fill:rgb(228,238,249);fill-rule:nonzero;"/>
                    <path d="M375.31,109.208C372.052,109.208 368.392,108.007 365.575,106.47C353.666,99.972 348.355,81.853 355.88,70.092C357.373,67.76 359.162,65.592 361.38,63.916C362.402,63.143 365.946,60.547 367.6,60.547C367.718,60.547 367.827,60.561 367.924,60.589L369.74,61.114C369.626,61.124 369.511,61.136 369.396,61.15L369.325,60.994L367.924,60.589C367.827,60.561 367.718,60.547 367.6,60.547C366.321,60.547 363.915,62.098 362.415,63.159L362.737,63.866C361.639,64.702 360.643,65.704 359.761,66.845L359.273,65.771C358.511,66.544 357.807,67.376 357.155,68.247L357.875,69.827C355.269,74.891 354.415,81.617 355.957,88.551L355.958,88.558C358.523,100.097 366.851,108.299 375.413,108.366L375.747,109.1L375.38,109.208L375.31,109.208ZM378.608,108.258L378.504,108.029C379.872,107.714 381.08,107.193 382.137,106.494L382.427,107.132L378.608,108.258ZM388.136,91.931C388.143,91.367 388.138,90.795 388.119,90.216L388.337,91.193L388.136,91.931ZM384.926,75.897C384.439,74.353 383.899,72.898 383.304,71.547L384.167,72.493L384.926,75.897Z" style="fill:rgb(155,185,225);fill-rule:nonzero;"/>
                </g>
                <g>
                    <clipPath id="_clip5">
                        <path d="M375.38,109.208L384.132,106.63L388.337,91.193L384.167,72.493L375.232,62.702L367.924,60.589C366.466,60.166 362.475,63.088 361.38,63.916C359.162,65.592 357.373,67.76 355.88,70.092C348.355,81.853 353.666,99.972 365.575,106.47C368.413,108.018 372.105,109.226 375.38,109.208Z"/>
                    </clipPath>
                    <g clip-path="url(#_clip5)">
                        <path d="M375.52,108.367C375.484,108.367 375.449,108.367 375.413,108.366L357.875,69.827C358.427,68.754 359.058,67.755 359.761,66.845L378.504,108.029C378.473,108.036 378.442,108.043 378.411,108.05C377.45,108.264 376.484,108.367 375.52,108.367Z" style="fill:rgb(245,249,253);fill-rule:nonzero;"/>
                        <path d="M375.747,109.1L375.413,108.366C375.449,108.367 375.484,108.367 375.52,108.367C376.484,108.367 377.45,108.264 378.411,108.05C378.442,108.043 378.473,108.036 378.504,108.029L378.608,108.258L375.747,109.1ZM357.875,69.827L357.155,68.247C357.807,67.376 358.511,66.544 359.273,65.771L359.761,66.845C359.058,67.755 358.427,68.754 357.875,69.827Z" style="fill:rgb(214,227,244);fill-rule:nonzero;"/>
                        <path d="M382.137,106.494L362.737,63.866C364.308,62.671 366.087,61.816 368.04,61.382C368.5,61.28 368.953,61.202 369.396,61.15L386.364,98.435L384.888,103.853C384.12,104.897 383.206,105.787 382.137,106.494Z" style="fill:rgb(254,255,255);fill-rule:nonzero;"/>
                        <path d="M382.427,107.132L382.137,106.494C383.206,105.787 384.12,104.897 384.888,103.853L384.132,106.63L382.427,107.132ZM362.737,63.866L362.415,63.159C363.915,62.098 366.321,60.547 367.6,60.547C367.718,60.547 367.827,60.561 367.924,60.589L369.325,60.994L369.396,61.15C368.953,61.202 368.5,61.28 368.04,61.382C366.087,61.816 364.308,62.671 362.737,63.866Z" style="fill:rgb(245,249,253);fill-rule:nonzero;"/>
                    </g>
                </g>
                <g>
                    <path d="M363.096,62.752C372.633,60.635 382.685,69.36 385.55,82.248L385.55,82.251C388.415,95.136 383.005,107.301 373.467,109.421C363.931,111.539 353.878,102.813 351.015,89.928L351.013,89.922C348.148,77.038 353.558,64.873 363.096,62.752ZM346.895,83.687L346.89,83.689C346.893,83.788 346.901,83.888 346.906,83.988C346.918,84.298 346.936,84.608 346.958,84.921C346.972,85.135 346.983,85.349 347.002,85.565L347.005,85.613L347.007,85.613C347.146,87.234 347.39,88.879 347.759,90.536L347.76,90.541C348.145,92.272 348.651,93.929 349.247,95.517L349.209,95.526C353.811,108.08 364.365,116.026 374.439,113.79C385.761,111.273 392.185,96.832 388.784,81.531L388.782,81.528C385.382,66.229 373.447,55.869 362.125,58.383C352.542,60.513 346.474,71.184 346.895,83.687Z" style="fill:rgb(187,212,238);fill-rule:nonzero;"/>
                    <path d="M408.35,123.226C408.003,122.675 407.45,122.395 406.853,122.306C406.096,121.787 405.072,121.653 404.116,122.339C402.094,123.788 399.61,124.442 397.747,126.14C395.481,128.207 396.14,132.358 399.632,133.132C402.466,133.76 405.124,131.46 406.661,129.653C407.011,129.241 407.327,128.787 407.584,128.322C407.407,128.644 408.032,127.025 407.719,127.903C407.83,127.593 407.957,127.286 408.08,126.98C408.597,125.681 409.203,124.583 408.35,123.226Z" style="fill:rgb(241,167,129);fill-rule:nonzero;"/>
                    <path d="M407.44,87.667C412.823,101.123 408.196,112.755 401.068,124.464C398.003,129.503 407.146,133.392 410.186,128.403C418.637,114.519 423.041,100.388 416.729,84.614C414.52,79.097 405.231,82.147 407.44,87.667Z" style="fill:rgb(83,82,163);fill-rule:nonzero;"/>
                    <path d="M379.57,122.827C380.904,124.454 383.583,124.263 386.294,122.887C389.583,121.216 392.291,115.578 386.89,114.291C383.751,113.542 379.524,116.664 378.631,119.639L378.708,119.422C378.636,120.972 378.964,122.087 379.57,122.827Z" style="fill:rgb(241,167,129);fill-rule:nonzero;"/>
                    <path d="M363.093,226.768L317.93,202.375L317.93,113.729L363.093,138.123L363.093,226.768Z" style="fill:rgb(233,245,252);fill-rule:nonzero;"/>
                </g>
                <g>
                    <clipPath id="_clip6">
                        <path d="M353.933,159.096C353.933,170.489 347.924,176.479 340.512,172.476C333.099,168.472 327.089,155.99 327.089,144.597C327.089,133.203 333.099,127.213 340.512,131.217C347.924,135.221 353.933,147.702 353.933,159.096Z"/>
                    </clipPath>
                    <g clip-path="url(#_clip6)">
                        <path d="M344.962,173.719C343.569,173.719 342.072,173.319 340.512,172.476C333.099,168.472 327.089,155.99 327.089,144.597C327.089,135.602 330.836,129.974 336.06,129.974C337.453,129.974 338.951,130.374 340.512,131.217C347.924,135.221 353.933,147.702 353.933,159.096C353.933,162.154 353.5,164.823 352.723,167.014L346.567,163.689L346.567,173.533C346.051,173.656 345.514,173.719 344.962,173.719Z" style="fill:rgb(199,200,229);fill-rule:nonzero;"/>
                        <path d="M345.228,149.933C345.228,153.937 343.116,156.041 340.512,154.634C337.907,153.228 335.796,148.842 335.796,144.839C335.796,140.836 337.907,138.731 340.512,140.138C343.116,141.544 345.228,145.93 345.228,149.933Z" style="fill:rgb(103,102,174);fill-rule:nonzero;"/>
                        <path d="M353.933,172.477C353.933,176.48 347.924,176.48 340.511,172.476C333.098,168.472 327.089,161.982 327.089,157.979C327.089,153.976 333.098,153.976 340.511,157.979C347.924,161.984 353.933,168.474 353.933,172.477Z" style="fill:rgb(103,102,174);fill-rule:nonzero;"/>
                    </g>
                </g>
                <g>
                    <path d="M346.567,202.788L328.722,193.15L328.722,189.804L346.567,199.443L346.567,202.788Z" style="fill:rgb(199,200,229);fill-rule:nonzero;"/>
                    <path d="M346.567,195.819L328.722,186.181L328.722,182.835L346.567,192.473L346.567,195.819Z" style="fill:rgb(199,200,229);fill-rule:nonzero;"/>
                    <path d="M346.567,209.758L331.624,201.686L331.624,198.341L346.567,206.413L346.567,209.758Z" style="fill:rgb(199,200,229);fill-rule:nonzero;"/>
                    <path d="M324.867,166.044L325.543,168.794L327.229,169.956L325.962,170.998L326.327,173.734L324.867,171.628L323.409,172.158L323.773,169.815L322.507,167.405L324.192,168.064L324.867,166.044Z" style="fill:rgb(103,102,174);fill-rule:nonzero;"/>
                    <path d="M332.689,170.269L333.365,173.02L335.05,174.18L333.784,175.223L334.148,177.959L332.689,175.853L331.23,176.383L331.595,174.04L330.329,171.63L332.014,172.289L332.689,170.269Z" style="fill:rgb(103,102,174);fill-rule:nonzero;"/>
                    <path d="M340.511,174.494L341.188,177.244L342.872,178.405L341.606,179.447L341.971,182.184L340.511,180.078L339.052,180.607L339.417,178.264L338.15,175.855L339.836,176.514L340.511,174.494Z" style="fill:rgb(103,102,174);fill-rule:nonzero;"/>
                    <path d="M348.333,178.718L349.009,181.468L350.694,182.63L349.428,183.671L349.792,186.409L348.333,184.302L346.874,184.833L347.238,182.489L345.973,180.079L347.657,180.739L348.333,178.718Z" style="fill:rgb(103,102,174);fill-rule:nonzero;"/>
                    <path d="M356.155,182.943L356.831,185.693L358.516,186.854L357.25,187.896L357.614,190.633L356.155,188.527L354.696,189.057L355.06,186.714L353.794,184.304L355.479,184.963L356.155,182.943Z" style="fill:rgb(103,102,174);fill-rule:nonzero;"/>
                    <path d="M311.442,209.809L278.824,192.191L278.824,128.169L311.442,145.787L311.442,209.809Z" style="fill:rgb(83,82,163);fill-rule:nonzero;"/>
                </g>
                <path d="M298.348,171.495C297.342,171.495 296.26,171.206 295.133,170.597C289.779,167.705 285.439,158.691 285.439,150.462C285.439,143.966 288.144,139.902 291.918,139.902C292.924,139.902 294.006,140.19 295.133,140.799C300.487,143.69 304.826,152.705 304.826,160.934C304.826,167.43 302.121,171.495 298.348,171.495Z" style="fill:rgb(138,134,192);fill-rule:nonzero;"/>
                <path d="M298.539,154.316C298.539,157.208 297.014,158.727 295.133,157.711C293.251,156.696 291.728,153.528 291.728,150.637C291.728,147.746 293.251,146.226 295.133,147.242C297.014,148.258 298.539,151.425 298.539,154.316Z" style="fill:rgb(187,212,238);fill-rule:nonzero;"/>
                <path d="M304.826,170.598C304.826,173.489 300.487,173.489 295.132,170.597C289.779,167.706 285.439,163.018 285.439,160.127C285.439,157.235 289.779,157.236 295.132,160.127C300.487,163.02 304.826,167.707 304.826,170.598Z" style="fill:rgb(187,212,238);fill-rule:nonzero;"/>
                <g>
                    <path d="M303.647,194.727L286.618,185.528L286.618,183.112L303.647,192.31L303.647,194.727Z" style="fill:rgb(119,115,182);fill-rule:nonzero;"/>
                    <path d="M303.647,189.693L286.618,180.495L286.618,178.079L303.647,187.277L303.647,189.693Z" style="fill:rgb(119,115,182);fill-rule:nonzero;"/>
                    <path d="M301.552,198.628L288.713,191.694L288.713,189.278L301.552,196.212L301.552,198.628Z" style="fill:rgb(119,115,182);fill-rule:nonzero;"/>
                    <path d="M283.834,165.952L284.323,167.938L285.54,168.777L284.625,169.529L284.888,171.506L283.834,169.985L282.781,170.367L283.044,168.675L282.129,166.935L283.346,167.411L283.834,165.952Z" style="fill:rgb(233,245,252);fill-rule:nonzero;"/>
                    <path d="M289.484,169.003L289.972,170.989L291.188,171.828L290.274,172.581L290.537,174.557L289.484,173.036L288.43,173.418L288.693,171.726L287.778,169.987L288.996,170.462L289.484,169.003Z" style="fill:rgb(233,245,252);fill-rule:nonzero;"/>
                    <path d="M295.133,172.054L295.621,174.041L296.838,174.879L295.923,175.632L296.187,177.608L295.133,176.087L294.079,176.47L294.342,174.778L293.428,173.038L294.645,173.513L295.133,172.054Z" style="fill:rgb(233,245,252);fill-rule:nonzero;"/>
                    <path d="M300.782,175.105L301.27,177.092L302.486,177.93L301.572,178.683L301.836,180.66L300.782,179.138L299.729,179.521L299.991,177.829L299.077,176.088L300.294,176.564L300.782,175.105Z" style="fill:rgb(233,245,252);fill-rule:nonzero;"/>
                    <path d="M306.432,178.157L306.918,180.143L308.136,180.981L307.222,181.734L307.485,183.711L306.432,182.189L305.377,182.573L305.641,180.88L304.727,179.14L305.943,179.616L306.432,178.157Z" style="fill:rgb(233,245,252);fill-rule:nonzero;"/>
                    <path d="M379.186,245.329L346.567,227.712L346.567,163.689L379.186,181.307L379.186,245.329Z" style="fill:rgb(83,82,163);fill-rule:nonzero;"/>
                </g>
                <g>
                    <clipPath id="_clip7">
                        <path d="M372.569,196.454C372.569,204.683 368.23,209.009 362.876,206.118C357.523,203.226 353.183,194.211 353.183,185.982C353.183,177.753 357.523,173.427 362.876,176.319C368.23,179.211 372.569,188.225 372.569,196.454Z"/>
                    </clipPath>
                    <g clip-path="url(#_clip7)">
                        <path d="M366.091,207.015C365.085,207.015 364.003,206.726 362.876,206.118C357.523,203.226 353.183,194.211 353.183,185.982C353.183,179.486 355.888,175.422 359.661,175.422C360.667,175.422 361.749,175.711 362.876,176.319C368.23,179.211 372.569,188.225 372.569,196.454C372.569,202.95 369.864,207.015 366.091,207.015Z" style="fill:rgb(138,134,192);fill-rule:nonzero;"/>
                        <path d="M366.282,189.837C366.282,192.728 364.757,194.248 362.876,193.232C360.995,192.216 359.471,189.048 359.471,186.157C359.471,183.266 360.995,181.746 362.876,182.762C364.757,183.778 366.282,186.945 366.282,189.837Z" style="fill:rgb(187,212,238);fill-rule:nonzero;"/>
                        <path d="M372.569,206.118C372.569,209.01 368.23,209.009 362.875,206.117C357.522,203.226 353.183,198.538 353.183,195.647C353.183,192.756 357.522,192.756 362.875,195.648C368.23,198.54 372.569,203.227 372.569,206.118Z" style="fill:rgb(187,212,238);fill-rule:nonzero;"/>
                    </g>
                </g>
                <path d="M371.391,230.247L354.361,221.049L354.361,218.632L371.391,227.831L371.391,230.247Z" style="fill:rgb(119,115,182);fill-rule:nonzero;"/>
                <path d="M371.391,225.213L354.361,216.015L354.361,213.599L371.391,222.797L371.391,225.213Z" style="fill:rgb(119,115,182);fill-rule:nonzero;"/>
                <path d="M369.295,234.148L356.457,227.214L356.457,224.798L369.295,231.732L369.295,234.148Z" style="fill:rgb(119,115,182);fill-rule:nonzero;"/>
                <path d="M351.578,201.472L352.066,203.458L353.283,204.297L352.368,205.05L352.631,207.026L351.578,205.505L350.524,205.888L350.787,204.195L349.873,202.455L351.089,202.931L351.578,201.472Z" style="fill:rgb(233,245,252);fill-rule:nonzero;"/>
                <path d="M357.227,204.523L357.715,206.509L358.932,207.348L358.018,208.101L358.281,210.078L357.227,208.556L356.173,208.939L356.437,207.247L355.521,205.506L356.739,205.982L357.227,204.523Z" style="fill:rgb(233,245,252);fill-rule:nonzero;"/>
                <path d="M362.876,207.575L363.364,209.561L364.581,210.399L363.666,211.152L363.93,213.128L362.876,211.607L361.822,211.99L362.086,210.298L361.171,208.558L362.388,209.034L362.876,207.575Z" style="fill:rgb(233,245,252);fill-rule:nonzero;"/>
                <path d="M368.526,210.625L369.013,212.612L370.229,213.451L369.315,214.203L369.58,216.18L368.526,214.659L367.471,215.042L367.735,213.349L366.821,211.609L368.038,212.084L368.526,210.625Z" style="fill:rgb(233,245,252);fill-rule:nonzero;"/>
                <path d="M374.175,213.677L374.662,215.664L375.878,216.502L374.964,217.254L375.229,219.231L374.175,217.71L373.121,218.093L373.384,216.4L372.47,214.66L373.687,215.136L374.175,213.677Z" style="fill:rgb(233,245,252);fill-rule:nonzero;"/>
            </g>
        </g>
    </g>
</svg>
