<?xml version="1.0" encoding="UTF-8" standalone="no"?>
<!DOCTYPE svg PUBLIC "-//W3C//DTD SVG 1.1//EN" "http://www.w3.org/Graphics/SVG/1.1/DTD/svg11.dtd">
<svg width="100%" height="100%" viewBox="0 0 120 146" version="1.1" xmlns="http://www.w3.org/2000/svg" xmlns:xlink="http://www.w3.org/1999/xlink" xml:space="preserve" xmlns:serif="http://www.serif.com/" style="fill-rule:evenodd;clip-rule:evenodd;stroke-linecap:round;stroke-linejoin:round;stroke-miterlimit:1.5;">
    <g transform="matrix(1,0,0,1,-2864.26,-3144.77)">
        <g transform="matrix(1,0,0,1,2385,2443)">
            <g transform="matrix(1.78481,0,0,1.78481,-3320.3,-993.384)">
                <g transform="matrix(1,0,0,1,-4.54747e-13,-2929.07)">
                    <path d="M2187,3893.21C2187,3889.78 2184.22,3887 2180.79,3887L2136.21,3887C2132.78,3887 2130,3889.78 2130,3893.21L2130,3952.79C2130,3956.22 2132.78,3959 2136.21,3959L2180.79,3959C2184.22,3959 2187,3956.22 2187,3952.79L2187,3893.21Z" style="fill:none;stroke:rgb(2,3,129);stroke-width:2.33px;"/>
                </g>
                <g transform="matrix(1.20833,0,0,0.785714,-452.5,-2097.64)">
                    <path d="M2172,3880.68C2172,3880.3 2171.8,3880 2171.56,3880L2148.44,3880C2148.2,3880 2148,3880.3 2148,3880.68L2148,3893.32C2148,3893.7 2148.2,3894 2148.44,3894L2171.56,3894C2171.8,3894 2172,3893.7 2172,3893.32L2172,3880.68Z" style="fill:rgb(2,3,129);stroke:rgb(2,3,129);stroke-width:2.29px;"/>
                </g>
                <g transform="matrix(1,0,0,1.07373,-7.5,-3217.23)">
                    <ellipse cx="2178" cy="3922" rx="12" ry="11" style="fill:none;stroke:rgb(2,3,129);stroke-width:2.25px;"/>
                </g>
                <g transform="matrix(0.591269,0.47069,-0.179579,0.225583,1587.93,-916.446)">
                    <path d="M2219.11,3922.95C2219.11,3921.32 2218.61,3920 2217.98,3920L2193.13,3920C2192.51,3920 2192,3921.32 2192,3922.95L2192,3928.86C2192,3930.49 2192.51,3931.81 2193.13,3931.81L2217.98,3931.81C2218.61,3931.81 2219.11,3930.49 2219.11,3928.86L2219.11,3922.95Z" style="fill:rgb(2,3,129);"/>
                </g>
                <g transform="matrix(1,0,0,1,-4.54747e-13,-2926.07)">
                    <path d="M2170.5,3912C2175,3911.86 2178.82,3914 2179,3920" style="fill:none;stroke:rgb(2,3,129);stroke-width:2.33px;"/>
                </g>
                <g transform="matrix(1,0,0,1,-4.54747e-13,-2926.07)">
                    <path d="M2179,3896.5C2179,3896.22 2178.78,3896 2178.5,3896L2138.5,3896C2138.22,3896 2138,3896.22 2138,3896.5L2138,3897.5C2138,3897.78 2138.22,3898 2138.5,3898L2178.5,3898C2178.78,3898 2179,3897.78 2179,3897.5L2179,3896.5Z" style="fill:rgb(2,3,129);stroke:rgb(2,3,129);stroke-width:1.17px;"/>
                </g>
                <g transform="matrix(1,0,0,1,-4.54747e-13,-2920.36)">
                    <path d="M2179,3896.5C2179,3896.22 2178.78,3896 2178.5,3896L2138.5,3896C2138.22,3896 2138,3896.22 2138,3896.5L2138,3897.5C2138,3897.78 2138.22,3898 2138.5,3898L2178.5,3898C2178.78,3898 2179,3897.78 2179,3897.5L2179,3896.5Z" style="fill:rgb(2,3,129);stroke:rgb(2,3,129);stroke-width:1.17px;"/>
                </g>
                <g transform="matrix(1,0,0,1,-4.54747e-13,-2878.07)">
                    <path d="M2179,3896.5C2179,3896.22 2178.78,3896 2178.5,3896L2138.5,3896C2138.22,3896 2138,3896.22 2138,3896.5L2138,3897.5C2138,3897.78 2138.22,3898 2138.5,3898L2178.5,3898C2178.78,3898 2179,3897.78 2179,3897.5L2179,3896.5Z" style="fill:rgb(2,3,129);stroke:rgb(2,3,129);stroke-width:1.17px;"/>
                </g>
                <g transform="matrix(1,0,0,1,-4.54747e-13,-2884.36)">
                    <path d="M2179,3896.5C2179,3896.22 2178.78,3896 2178.5,3896L2138.5,3896C2138.22,3896 2138,3896.22 2138,3896.5L2138,3897.5C2138,3897.78 2138.22,3898 2138.5,3898L2178.5,3898C2178.78,3898 2179,3897.78 2179,3897.5L2179,3896.5Z" style="fill:rgb(2,3,129);stroke:rgb(2,3,129);stroke-width:1.17px;"/>
                </g>
                <g transform="matrix(0.560976,0,0,1,938.634,-2891.25)">
                    <path d="M2179,3896.5C2179,3896.22 2178.6,3896 2178.11,3896L2138.89,3896C2138.4,3896 2138,3896.22 2138,3896.5L2138,3897.5C2138,3897.78 2138.4,3898 2138.89,3898L2178.11,3898C2178.6,3898 2179,3897.78 2179,3897.5L2179,3896.5Z" style="fill:rgb(2,3,129);stroke:rgb(2,3,129);stroke-width:1.44px;"/>
                </g>
                <g transform="matrix(0.512195,0,0,1,1042.93,-2913.36)">
                    <path d="M2179,3896.5C2179,3896.22 2178.56,3896 2178.02,3896L2138.98,3896C2138.44,3896 2138,3896.22 2138,3896.5L2138,3897.5C2138,3897.78 2138.44,3898 2138.98,3898L2178.02,3898C2178.56,3898 2179,3897.78 2179,3897.5L2179,3896.5Z" style="fill:rgb(2,3,129);stroke:rgb(2,3,129);stroke-width:1.47px;"/>
                </g>
                <g transform="matrix(0.414634,0,0,1,1251.51,-2899.07)">
                    <path d="M2179,3896.5C2179,3896.22 2178.46,3896 2177.79,3896L2139.21,3896C2138.54,3896 2138,3896.22 2138,3896.5L2138,3897.5C2138,3897.78 2138.54,3898 2139.21,3898L2177.79,3898C2178.46,3898 2179,3897.78 2179,3897.5L2179,3896.5Z" style="fill:rgb(2,3,129);stroke:rgb(2,3,129);stroke-width:1.52px;"/>
                </g>
                <g transform="matrix(0.414634,0,0,1,1251.51,-2906.01)">
                    <path d="M2179,3896.5C2179,3896.22 2178.46,3896 2177.79,3896L2139.21,3896C2138.54,3896 2138,3896.22 2138,3896.5L2138,3897.5C2138,3897.78 2138.54,3898 2139.21,3898L2177.79,3898C2178.46,3898 2179,3897.78 2179,3897.5L2179,3896.5Z" style="fill:rgb(2,3,129);stroke:rgb(2,3,129);stroke-width:1.52px;"/>
                </g>
            </g>
        </g>
    </g>
</svg>
