<?xml version="1.0" encoding="UTF-8" standalone="no"?>
<!DOCTYPE svg PUBLIC "-//W3C//DTD SVG 1.1//EN" "http://www.w3.org/Graphics/SVG/1.1/DTD/svg11.dtd">
<svg width="100%" height="100%" viewBox="0 0 972 904" version="1.1" xmlns="http://www.w3.org/2000/svg" xmlns:xlink="http://www.w3.org/1999/xlink" xml:space="preserve" xmlns:serif="http://www.serif.com/" style="fill-rule:evenodd;clip-rule:evenodd;stroke-linejoin:round;stroke-miterlimit:2;">
    <g transform="matrix(1,0,0,1,-4846.06,-2531)">
        <g transform="matrix(1,0,0,1,4792,2443)">
            <g transform="matrix(2.30953,0,0,2.30953,-34.1801,86.6628)">
                <rect x="52.459" y="356.36" width="77.908" height="0.25" style="fill:rgb(229,229,228);fill-rule:nonzero;"/>
                <rect x="412" y="363.966" width="37.901" height="0.25" style="fill:rgb(229,229,228);fill-rule:nonzero;"/>
                <rect x="131.368" y="365.646" width="19.193" height="0.25" style="fill:rgb(229,229,228);fill-rule:nonzero;"/>
                <rect x="202.166" y="353.647" width="43.194" height="0.25" style="fill:rgb(229,229,228);fill-rule:nonzero;"/>
                <rect x="254.263" y="353.647" width="6.333" height="0.25" style="fill:rgb(229,229,228);fill-rule:nonzero;"/>
                <rect x="327.667" y="359.744" width="43.222" height="0.25" style="fill:rgb(229,229,228);fill-rule:nonzero;"/>
                <path d="M43.915,19.641C40.905,19.641 38.457,22.09 38.457,25.099L38.457,296.53C38.457,299.54 40.905,301.988 43.915,301.988L237.014,301.988C240.022,301.988 242.471,299.54 242.471,296.53L242.471,25.099C242.471,22.09 240.022,19.641 237.014,19.641L43.915,19.641ZM237.014,302.238L43.915,302.238C40.767,302.238 38.207,299.678 38.207,296.53L38.207,25.099C38.207,21.952 40.767,19.391 43.915,19.391L237.014,19.391C240.16,19.391 242.721,21.952 242.721,25.099L242.721,296.53C242.721,299.678 240.16,302.238 237.014,302.238Z" style="fill:rgb(229,229,228);fill-rule:nonzero;"/>
                <path d="M260.212,19.641C257.203,19.641 254.755,22.09 254.755,25.099L254.755,296.53C254.755,299.54 257.203,301.988 260.212,301.988L453.311,301.988C456.32,301.988 458.769,299.54 458.769,296.53L458.769,25.099C458.769,22.09 456.32,19.641 453.311,19.641L260.212,19.641ZM453.311,302.238L260.212,302.238C257.065,302.238 254.505,299.678 254.505,296.53L254.505,25.099C254.505,21.952 257.065,19.391 260.212,19.391L453.311,19.391C456.458,19.391 459.019,21.952 459.019,25.099L459.019,296.53C459.019,299.678 456.458,302.238 453.311,302.238Z" style="fill:rgb(229,229,228);fill-rule:nonzero;"/>
                <rect x="56.11" y="71.343" width="387.779" height="200.91" style="fill:rgb(229,229,228);fill-rule:nonzero;"/>
                <rect x="62.11" y="77.343" width="375.779" height="188.91" style="fill:rgb(240,240,240);fill-rule:nonzero;"/>
                <path d="M273.852,266.253L358.572,77.343L397.239,77.343L312.518,266.253L273.852,266.253Z" style="fill:rgb(249,249,249);fill-rule:nonzero;"/>
                <path d="M132.001,266.253L216.722,77.343L255.388,77.343L170.668,266.253L132.001,266.253Z" style="fill:rgb(249,249,249);fill-rule:nonzero;"/>
                <path d="M244.348,266.253L329.068,77.343L343.154,77.343L258.433,266.253L244.348,266.253Z" style="fill:rgb(249,249,249);fill-rule:nonzero;"/>
                <path d="M70.612,266.253L155.333,77.343L169.419,77.343L84.698,266.253L70.612,266.253Z" style="fill:rgb(249,249,249);fill-rule:nonzero;"/>
                <path d="M110.747,296.59L60.036,296.59C57.682,296.59 55.756,294.664 55.756,292.31L55.756,290.468C55.756,288.115 57.682,286.188 60.036,286.188L110.747,286.188C113.101,286.188 115.026,288.115 115.026,290.468L115.026,292.31C115.026,294.664 113.101,296.59 110.747,296.59Z" style="fill:rgb(240,240,240);fill-rule:nonzero;"/>
                <path d="M72.199,296.59L63.856,296.59L54.365,346.837L62.709,346.837L72.199,296.59Z" style="fill:rgb(229,229,228);fill-rule:nonzero;"/>
                <path d="M88.854,296.59L80.511,296.59L75.835,346.837L84.178,346.837L88.854,296.59Z" style="fill:rgb(229,229,228);fill-rule:nonzero;"/>
                <path d="M98.584,296.59L106.927,296.59L116.417,346.837L108.074,346.837L98.584,296.59Z" style="fill:rgb(229,229,228);fill-rule:nonzero;"/>
                <path d="M85.63,273.785C86.67,248.718 87.78,223.794 85.509,211.222L81.804,208.775C81.804,208.775 82.616,211.119 83.042,249.524C83.468,287.929 83.997,268.079 83.543,273.785L85.63,273.785Z" style="fill:rgb(224,224,223);fill-rule:nonzero;"/>
                <path d="M79.673,184.883C73.973,170.988 60.69,157.571 46.259,152.083C40.593,149.929 48.756,197.311 69.297,200.365C79.329,201.857 82.452,225.872 84.144,237.41C84.718,214.717 85.374,198.777 79.673,184.883Z" style="fill:rgb(224,224,223);fill-rule:nonzero;"/>
                <path d="M80.892,220.151C76.88,214.203 70.322,205.875 60.74,205.867C49.879,205.858 59.384,222.584 72.15,227.927C78.384,230.536 83.581,238.815 84.93,243.996C84.817,233.495 84.903,226.099 80.892,220.151Z" style="fill:rgb(224,224,223);fill-rule:nonzero;"/>
                <path d="M90.657,202.173C97.633,190.611 113.182,178.985 129.735,173.695C136.235,171.619 136.876,205.867 101.836,214.062C90.519,216.709 85.982,235.446 83.635,244.866C83.831,226.571 83.682,213.735 90.657,202.173Z" style="fill:rgb(224,224,223);fill-rule:nonzero;"/>
                <path d="M86.838,229.592C91.284,222.222 103.372,218.619 114.242,219.308C118.51,219.579 118.976,234.704 95.236,240.544C88.035,242.316 85.131,254.174 83.635,260.179C83.76,248.517 82.392,236.961 86.838,229.592Z" style="fill:rgb(224,224,223);fill-rule:nonzero;"/>
                <path d="M86.377,190.664C89.834,180.359 100.021,171.122 109.372,167.304C113.043,165.805 114.171,182.893 94.103,199.623C88.017,204.698 86.098,219.48 85.105,226.976C84.65,213.596 82.921,200.969 86.377,190.664Z" style="fill:rgb(224,224,223);fill-rule:nonzero;"/>
                <path d="M102.412,258.905L66.308,258.905L67.286,265.777L67.977,265.777L68.787,274.405C69.262,285.586 76.093,286.188 84.36,286.188C92.627,286.188 99.458,285.586 99.933,274.405L100.743,265.777L101.434,265.777L102.412,258.905Z" style="fill:rgb(234,235,234);fill-rule:nonzero;"/>
                <rect x="342.222" y="28.935" width="84.609" height="35.761" style="fill:rgb(234,235,234);fill-rule:nonzero;"/>
                <rect x="426.831" y="28.935" width="10.891" height="35.761" style="fill:rgb(215,217,217);fill-rule:nonzero;"/>
                <rect x="346.117" y="32.83" width="76.818" height="27.971" style="fill:rgb(215,217,217);fill-rule:nonzero;"/>
                <path d="M355.299,46.839C355.299,48.026 355.52,48.878 355.96,49.396C356.401,49.914 357,50.173 357.759,50.173C358.54,50.173 359.143,49.919 359.57,49.412C359.998,48.904 360.211,47.994 360.211,46.679C360.211,45.573 359.989,44.765 359.543,44.255C359.096,43.745 358.491,43.49 357.727,43.49C356.995,43.49 356.408,43.749 355.964,44.267C355.521,44.785 355.299,45.643 355.299,46.839ZM351.669,46.824C351.669,44.906 352.203,43.412 353.272,42.344C354.34,41.275 355.828,40.741 357.735,40.741C359.691,40.741 361.197,41.266 362.255,42.316C363.313,43.366 363.842,44.836 363.842,46.727C363.842,48.1 363.611,49.226 363.149,50.105C362.687,50.984 362.018,51.668 361.145,52.157C360.272,52.645 359.183,52.89 357.879,52.89C356.555,52.89 355.458,52.679 354.59,52.257C353.722,51.835 353.018,51.167 352.478,50.253C351.938,49.34 351.669,48.197 351.669,46.824Z" style="fill:white;fill-rule:nonzero;"/>
                <path d="M365.821,40.941L369.211,40.941L373.635,47.441L373.635,40.941L377.057,40.941L377.057,52.69L373.635,52.69L369.235,46.239L369.235,52.69L365.821,52.69L365.821,40.941Z" style="fill:white;fill-rule:nonzero;"/>
                <path d="M391.413,48.21L390.115,43.987L388.832,48.21L391.413,48.21ZM392.165,50.75L388.044,50.75L387.471,52.69L383.765,52.69L388.18,40.941L392.14,40.941L396.555,52.69L392.753,52.69L392.165,50.75Z" style="fill:white;fill-rule:nonzero;"/>
                <rect x="397.853" y="40.941" width="3.638" height="11.749" style="fill:white;fill-rule:nonzero;"/>
                <path d="M357.88,55.625C356.143,55.625 354.633,55.32 353.394,54.717C352.039,54.058 350.938,53.024 350.124,51.645C349.333,50.308 348.934,48.685 348.934,46.824C348.934,44.162 349.742,42.004 351.338,40.409C352.932,38.814 355.085,38.006 357.735,38.006C359.853,38.006 361.647,38.498 363.086,39.472L363.086,38.206L370.658,38.206L370.9,38.56L370.9,38.206L379.792,38.206L379.792,55.425L372.19,55.425L371.971,55.104L371.971,55.425L363.086,55.425L363.086,54.17C362.892,54.303 362.69,54.427 362.481,54.544C361.2,55.262 359.651,55.625 357.88,55.625ZM357.735,39.373C355.461,39.373 353.634,40.047 352.305,41.377C350.975,42.706 350.301,44.539 350.301,46.824C350.301,48.438 350.638,49.826 351.301,50.95C351.977,52.094 352.882,52.948 353.992,53.487C355.044,53.999 356.352,54.258 357.88,54.258C359.414,54.258 360.737,53.952 361.813,53.35C362.918,52.732 363.774,51.855 364.36,50.742L364.454,50.524L364.454,54.057L370.603,54.057L370.603,50.672L372.913,54.057L378.425,54.057L378.425,39.574L372.268,39.574L372.268,43.001L369.935,39.574L364.454,39.574L364.454,43.162C364.136,42.487 363.744,41.866 363.219,41.345C361.901,40.036 360.056,39.373 357.735,39.373ZM357.76,48.805C357.314,48.805 357.126,48.656 357.002,48.51C356.923,48.418 356.667,48.024 356.667,46.84C356.667,45.643 356.925,45.249 357.003,45.156C357.137,45.001 357.316,44.858 357.728,44.858C358.19,44.858 358.384,45.008 358.513,45.156C358.612,45.269 358.844,45.645 358.844,46.68C358.844,48.111 358.557,48.493 358.524,48.531C358.456,48.613 358.293,48.805 357.76,48.805Z" style="fill:rgb(224,224,223);fill-rule:nonzero;"/>
                <path d="M357.88,54.258C356.352,54.258 355.044,53.999 353.992,53.487C352.882,52.948 351.977,52.094 351.301,50.95C350.638,49.826 350.301,48.438 350.301,46.824C350.301,44.539 350.975,42.706 352.305,41.377C353.634,40.047 355.461,39.373 357.735,39.373C360.056,39.373 361.901,40.036 363.219,41.345C363.744,41.866 364.136,42.487 364.454,43.162L364.454,39.574L369.935,39.574L372.268,43.001L372.268,39.574L378.425,39.574L378.425,54.057L372.913,54.057L370.603,50.672L370.603,54.057L364.454,54.057L364.454,50.524L364.36,50.742C363.774,51.855 362.918,52.732 361.813,53.35C360.737,53.952 359.414,54.258 357.88,54.258ZM357.735,40.741C355.828,40.741 354.34,41.275 353.272,42.344C352.203,43.412 351.669,44.906 351.669,46.824C351.669,48.197 351.938,49.34 352.478,50.253C353.018,51.167 353.722,51.835 354.59,52.257C355.458,52.679 356.555,52.89 357.879,52.89C359.183,52.89 360.272,52.645 361.145,52.157C362.018,51.668 362.687,50.984 363.149,50.105C363.611,49.226 363.842,48.1 363.842,46.727C363.842,44.836 363.313,43.366 362.255,42.316C361.197,41.266 359.691,40.741 357.735,40.741ZM369.235,46.239L373.635,52.69L377.057,52.69L377.057,40.941L373.635,40.941L373.635,47.441L369.211,40.941L365.821,40.941L365.821,52.69L369.235,52.69L369.235,46.239ZM357.759,50.173C357,50.173 356.401,49.914 355.96,49.396C355.52,48.878 355.299,48.026 355.299,46.839C355.299,45.643 355.521,44.785 355.964,44.267C356.408,43.749 356.995,43.49 357.727,43.49C358.491,43.49 359.096,43.745 359.543,44.255C359.989,44.765 360.211,45.573 360.211,46.679C360.211,47.994 359.998,48.904 359.57,49.412C359.143,49.919 358.54,50.173 357.759,50.173ZM357.728,44.858C357.316,44.858 357.137,45.001 357.003,45.156C356.925,45.249 356.667,45.643 356.667,46.84C356.667,48.024 356.923,48.418 357.002,48.51C357.126,48.656 357.314,48.805 357.76,48.805C358.293,48.805 358.456,48.613 358.524,48.531C358.557,48.493 358.844,48.111 358.844,46.68C358.844,45.645 358.612,45.269 358.513,45.156C358.384,45.008 358.19,44.858 357.728,44.858Z" style="fill:rgb(229,229,228);fill-rule:nonzero;"/>
                <path d="M357.879,52.89C356.555,52.89 355.458,52.679 354.59,52.257C353.722,51.835 353.018,51.167 352.478,50.253C351.938,49.34 351.669,48.197 351.669,46.824C351.669,44.906 352.203,43.412 353.272,42.344C354.34,41.275 355.828,40.741 357.735,40.741C359.691,40.741 361.197,41.266 362.255,42.316C363.313,43.366 363.842,44.836 363.842,46.727C363.842,48.1 363.611,49.226 363.149,50.105C362.687,50.984 362.018,51.668 361.145,52.157C360.272,52.645 359.183,52.89 357.879,52.89ZM357.727,43.49C356.995,43.49 356.408,43.749 355.964,44.267C355.521,44.785 355.299,45.643 355.299,46.839C355.299,48.026 355.52,48.878 355.96,49.396C356.401,49.914 357,50.173 357.759,50.173C358.54,50.173 359.143,49.919 359.57,49.412C359.998,48.904 360.211,47.994 360.211,46.679C360.211,45.573 359.989,44.765 359.543,44.255C359.096,43.745 358.491,43.49 357.727,43.49Z" style="fill:white;fill-rule:nonzero;"/>
                <path d="M377.057,52.69L373.635,52.69L369.235,46.239L369.235,52.69L365.821,52.69L365.821,40.941L369.211,40.941L373.635,47.441L373.635,40.941L377.057,40.941L377.057,52.69Z" style="fill:white;fill-rule:nonzero;"/>
                <path d="M420.19,55.425L390.725,55.425L390.136,53.486L390.087,53.486L389.515,55.425L379.814,55.425L386.286,38.206L394.035,38.206L395.118,41.088L395.118,38.206L410.194,38.206C411.618,38.206 412.735,38.344 413.611,38.628C414.78,39.007 415.733,39.715 416.445,40.734C417.133,41.721 417.482,42.888 417.482,44.203C417.482,45.346 417.215,46.379 416.688,47.275C416.566,47.483 416.432,47.682 416.288,47.871L420.19,55.425ZM409.158,51.052L410.783,54.057L417.945,54.057L415.165,48.674C415.038,48.419 414.837,48.122 414.536,47.745C414.923,47.413 415.249,47.025 415.509,46.582C415.91,45.899 416.114,45.098 416.114,44.203C416.114,43.173 415.848,42.27 415.323,41.517C414.787,40.749 414.069,40.214 413.189,39.929C412.452,39.69 411.473,39.574 410.194,39.574L396.485,39.574L396.485,48.617L393.087,39.574L387.233,39.574L381.789,54.057L388.493,54.057L389.066,52.118L391.151,52.118L391.739,54.057L409.158,54.057L409.158,51.052Z" style="fill:rgb(224,224,223);fill-rule:nonzero;"/>
                <path d="M417.945,54.057L410.783,54.057L409.158,51.052L409.158,54.057L391.739,54.057L391.151,52.118L389.066,52.118L388.493,54.057L381.789,54.057L387.233,39.574L393.087,39.574L396.485,48.617L396.485,39.574L410.194,39.574C411.473,39.574 412.452,39.69 413.189,39.929C414.069,40.214 414.787,40.749 415.323,41.517C415.848,42.27 416.114,43.173 416.114,44.203C416.114,45.098 415.91,45.899 415.509,46.582C415.249,47.025 414.923,47.413 414.536,47.745C414.837,48.122 415.038,48.419 415.165,48.674L417.945,54.057ZM397.853,40.941L397.853,52.69L401.491,52.69L401.491,40.941L397.853,40.941ZM396.555,52.69L392.14,40.941L388.18,40.941L383.765,52.69L387.471,52.69L388.044,50.75L392.165,50.75L392.753,52.69L396.555,52.69ZM391.413,48.21L388.832,48.21L390.115,43.987L391.413,48.21Z" style="fill:rgb(229,229,228);fill-rule:nonzero;"/>
                <path d="M396.555,52.69L392.753,52.69L392.165,50.75L388.044,50.75L387.471,52.69L383.765,52.69L388.18,40.941L392.14,40.941L396.555,52.69ZM390.115,43.987L388.832,48.21L391.413,48.21L390.115,43.987Z" style="fill:white;fill-rule:nonzero;"/>
                <rect x="397.853" y="40.941" width="3.638" height="11.749" style="fill:white;fill-rule:nonzero;"/>
                <path d="M407.79,45.702L409.321,45.702C409.486,45.702 409.807,45.648 410.282,45.541C410.523,45.493 410.719,45.37 410.872,45.173C411.024,44.975 411.1,44.748 411.1,44.492C411.1,44.112 410.979,43.821 410.739,43.618C410.499,43.415 410.047,43.313 409.385,43.313L407.79,43.313L407.79,45.702ZM404.144,52.69L404.144,40.941L410.194,40.941C411.316,40.941 412.174,41.037 412.767,41.23C413.36,41.422 413.838,41.779 414.201,42.3C414.564,42.821 414.746,43.455 414.746,44.203C414.746,44.855 414.607,45.417 414.33,45.89C414.051,46.363 413.669,46.746 413.183,47.04C412.872,47.227 412.447,47.382 411.908,47.505C412.34,47.649 412.655,47.794 412.853,47.938C412.986,48.034 413.179,48.24 413.433,48.556C413.687,48.871 413.856,49.114 413.942,49.285L415.7,52.69L411.598,52.69L409.657,49.099C409.412,48.635 409.192,48.333 409,48.194C408.738,48.012 408.442,47.921 408.111,47.921L407.79,47.921L407.79,52.69L404.144,52.69Z" style="fill:white;fill-rule:nonzero;"/>
                <path d="M443.889,380.676C443.889,386.93 357.083,392 250,392C142.918,392 56.11,386.93 56.11,380.676C56.11,374.423 142.918,369.353 250,369.353C357.083,369.353 443.889,374.423 443.889,380.676Z" style="fill:rgb(240,240,240);fill-rule:nonzero;"/>
                <path d="M239.079,46.306C264.743,40.861 287.127,52.661 289.075,72.663C290.376,86.025 282.221,99.66 269.018,108.868C272.717,112.912 279.311,116.296 279.311,116.296C279.311,116.296 269.581,118.135 260.066,114.047C255.727,116.094 251.049,117.699 246.132,118.742C220.467,124.188 198.083,112.388 196.135,92.386C194.188,72.383 213.414,51.753 239.079,46.306Z" style="fill:rgb(48,115,186);fill-rule:nonzero;"/>
                <path d="M233.771,120.07C213.634,120.07 197.762,109.088 196.135,92.386C196.044,91.448 195.999,90.509 195.999,89.57C196.004,70.482 214.617,51.497 239.079,46.306C243.313,45.408 247.461,44.979 251.439,44.979C271.576,44.979 287.449,55.961 289.075,72.663C289.167,73.603 289.211,74.544 289.211,75.484C289.204,87.921 281.293,100.307 269.018,108.868C272.717,112.912 279.311,116.296 279.311,116.296C279.311,116.296 277.129,116.709 273.822,116.709C270.144,116.709 265.076,116.199 260.066,114.047C255.727,116.094 251.049,117.699 246.132,118.742C241.898,119.641 237.749,120.07 233.771,120.07ZM264.477,67.513L198.31,77.812C197.017,81.1 196.249,84.484 196.063,87.875L264.477,67.513Z" style="fill:rgb(138,179,223);fill-rule:nonzero;"/>
                <path d="M196.063,87.875C196.249,84.484 197.017,81.1 198.31,77.812L264.477,67.513L196.063,87.875Z" style="fill:rgb(102,152,208);fill-rule:nonzero;"/>
                <path d="M214.863,8.604L214.652,7.606L237.092,2.845L237.303,3.843L214.863,8.604Z" style="fill:rgb(48,115,186);fill-rule:nonzero;"/>
                <path d="M242.938,2.647L242.727,1.649L247.765,0.579L247.976,1.578L242.938,2.647Z" style="fill:rgb(48,115,186);fill-rule:nonzero;"/>
                <path d="M150.005,24.974L261.484,1.318C265.2,0.529 268.538,2.943 268.902,6.681L274.008,59.126C274.373,62.865 271.63,66.569 267.914,67.357L184.3,85.1C175.359,102.349 158.42,108.342 158.42,108.342C158.42,108.342 167.095,96.339 168.11,88.536L156.435,91.014C152.719,91.802 149.381,89.389 149.017,85.65L143.91,33.204C143.546,29.466 146.289,25.763 150.005,24.974Z" style="fill:rgb(0,124,255);fill-rule:nonzero;"/>
                <path d="M308.434,63.773C308.044,63.773 307.698,63.496 307.624,63.099C304.902,48.438 294.733,36.63 279.727,30.703C279.303,30.536 279.096,30.057 279.263,29.634C279.43,29.21 279.906,29.003 280.332,29.17C295.879,35.31 306.417,47.567 309.245,62.798C309.328,63.245 309.032,63.676 308.585,63.759L308.434,63.773Z" style="fill:rgb(48,115,186);fill-rule:nonzero;"/>
                <path d="M293.284,64.108C292.926,64.108 292.596,63.872 292.492,63.511C290.503,56.586 285.613,50.62 278.726,46.713C278.329,46.488 278.19,45.985 278.415,45.589C278.639,45.194 279.143,45.055 279.538,45.279C286.805,49.401 291.967,55.714 294.076,63.056C294.202,63.494 293.949,63.95 293.512,64.076L293.284,64.108Z" style="fill:rgb(48,115,186);fill-rule:nonzero;"/>
                <path d="M303.417,63.891C303.035,63.891 302.692,63.624 302.611,63.235C300.102,51.231 291.644,41.286 279.407,35.952C278.989,35.77 278.799,35.285 278.98,34.867C279.163,34.45 279.649,34.26 280.065,34.441C292.799,39.992 301.604,50.364 304.225,62.898C304.317,63.344 304.032,63.78 303.587,63.873L303.417,63.891Z" style="fill:rgb(48,115,186);fill-rule:nonzero;"/>
                <path d="M293.284,64.108C292.926,64.108 292.596,63.872 292.492,63.511C290.503,56.586 285.613,50.62 278.726,46.713C278.329,46.488 278.19,45.985 278.415,45.589C278.639,45.194 279.143,45.055 279.538,45.279C286.805,49.401 291.967,55.714 294.076,63.056C294.202,63.494 293.949,63.95 293.512,64.076L293.284,64.108Z" style="fill:rgb(48,115,186);fill-rule:nonzero;"/>
                <path d="M298.366,64C297.994,64 297.657,63.746 297.566,63.369C295.269,53.852 288.702,46.007 279.076,41.279C278.668,41.078 278.499,40.584 278.699,40.176C278.9,39.767 279.394,39.599 279.803,39.799C289.876,44.747 296.754,52.981 299.168,62.982C299.275,63.425 299.003,63.87 298.561,63.977L298.366,64Z" style="fill:rgb(48,115,186);fill-rule:nonzero;"/>
                <path d="M293.284,64.108C292.926,64.108 292.596,63.872 292.492,63.511C290.503,56.586 285.613,50.62 278.726,46.713C278.329,46.488 278.19,45.985 278.415,45.589C278.639,45.194 279.143,45.055 279.538,45.279C286.805,49.401 291.967,55.714 294.076,63.056C294.202,63.494 293.949,63.95 293.512,64.076L293.284,64.108Z" style="fill:rgb(48,115,186);fill-rule:nonzero;"/>
                <path d="M135.599,381.312L132.293,381.312L120.229,256.732L124.486,260.636L135.599,381.312Z" style="fill:rgb(48,115,186);fill-rule:nonzero;"/>
                <path d="M162.703,228.993C165.31,247.647 151.986,262.781 132.942,262.796C113.899,262.81 96.347,247.7 93.74,229.046C91.132,210.391 104.457,195.257 123.501,195.243C142.544,195.228 160.095,210.339 162.703,228.993Z" style="fill:rgb(48,115,186);fill-rule:nonzero;"/>
                <path d="M132.915,262.796C130.095,262.796 127.307,262.465 124.597,261.84C123.248,261.527 121.918,261.143 120.612,260.691C110.489,257.185 101.832,249.582 97.145,240.04C95.452,236.595 94.278,232.895 93.74,229.046C93.521,227.479 93.414,225.937 93.414,224.427C93.411,207.956 106.056,195.256 123.501,195.243L123.527,195.243C134.127,195.243 144.261,199.926 151.612,207.298L147.792,207.298C141.424,201.779 133.161,198.138 125.141,197.941C124.912,197.935 124.687,197.932 124.462,197.932C110.928,197.932 103.312,208.027 107.409,220.762C110.344,229.887 118.509,237.933 127.961,242.007C129.388,247.901 131.406,254.766 134.186,262.773C133.976,262.781 133.765,262.786 133.554,262.79C133.351,262.794 133.147,262.796 132.942,262.796L132.915,262.796Z" style="fill:rgb(202,221,242);fill-rule:nonzero;"/>
                <path d="M127.961,242.007C118.509,237.933 110.344,229.887 107.409,220.762C103.312,208.027 110.928,197.932 124.462,197.932C124.687,197.932 124.912,197.935 125.141,197.941C133.161,198.138 141.424,201.779 147.792,207.298L127.517,207.298C125.422,211.814 122.741,220.442 127.961,242.007Z" style="fill:rgb(165,199,233);fill-rule:nonzero;"/>
                <path d="M143.647,344.886L127.551,344.886C126.398,344.886 125.455,343.943 125.455,342.79C125.455,341.637 126.398,340.693 127.551,340.693L143.647,340.693C144.8,340.693 145.744,341.637 145.744,342.79C145.744,343.943 144.8,344.886 143.647,344.886Z" style="fill:rgb(48,115,186);fill-rule:nonzero;"/>
                <path d="M157.003,381.312L130.009,381.312C128.856,381.312 127.914,380.369 127.914,379.216C127.914,378.063 128.856,377.12 130.009,377.12L157.003,377.12C158.156,377.12 159.099,378.063 159.099,379.216C159.099,380.369 158.156,381.312 157.003,381.312Z" style="fill:rgb(48,115,186);fill-rule:nonzero;"/>
                <path d="M120.983,122.489C118.029,123.603 116.778,128.709 117.879,137.121C118.981,145.532 125.057,152.441 138.566,151.991C152.075,151.54 157.482,146.133 157.482,146.133C157.482,146.133 149.965,145.081 150.044,141.527C150.123,137.972 159.435,128.159 151.775,119.998C144.115,111.837 125.089,112.764 120.983,122.489Z" style="fill:rgb(12,43,52);fill-rule:nonzero;"/>
                <path d="M150.569,351.241C145.215,347.403 145.936,347.168 142.708,345.328C139.948,343.747 139.125,343.761 136.893,342.522C135.027,341.489 135.882,339.637 137.366,337.77C138.11,336.832 139.115,335.736 140.248,334.183L149.102,338.845C149.305,341.881 150.923,346.077 153.687,348.671C156.324,351.147 152.703,352.77 150.569,351.241Z" style="fill-rule:nonzero;"/>
                <path d="M163.073,207.298L136.809,207.298C133.77,213.849 134.38,229.025 169.406,271.025C152.806,291.465 140.713,333.403 140.713,333.403C143.176,335.54 147.933,337.855 149.467,337.759C151.936,323.63 174.852,297.007 189.57,278.236C192.708,274.234 193.288,268.799 191.06,264.227C179.488,240.487 163.073,207.298 163.073,207.298Z" style="fill-rule:nonzero;"/>
                <path d="M151.216,335.719C150.892,336.575 150.355,338.081 150.098,339.311C150.005,339.755 149.59,339.993 149.175,339.853C145.708,338.691 141.346,335.434 139.975,334.37C139.712,334.166 139.594,333.816 139.673,333.492L140.524,330.029C140.641,329.556 141.133,329.334 141.553,329.565L150.833,334.682C151.193,334.88 151.362,335.333 151.216,335.719Z" style="fill:rgb(48,115,186);fill-rule:nonzero;"/>
                <path d="M149.413,339.893C149.349,339.893 149.283,339.884 149.217,339.866C149.203,339.862 149.189,339.858 149.175,339.853C145.778,338.715 141.521,335.565 140.061,334.437C140.031,334.414 140.002,334.392 139.975,334.37C139.767,334.209 139.65,333.957 139.649,333.699C139.649,333.63 139.657,333.56 139.673,333.492L140.524,330.029C140.609,329.684 140.893,329.473 141.204,329.473C141.319,329.473 141.439,329.502 141.553,329.565L150.833,334.682C151.106,334.832 151.269,335.129 151.269,335.431C151.268,335.528 151.251,335.626 151.216,335.719C150.892,336.575 150.355,338.081 150.098,339.311C150.023,339.669 149.738,339.893 149.413,339.893Z" style="fill:rgb(102,152,208);fill-rule:nonzero;"/>
                <path d="M191.764,374.776C185.698,377.344 186.087,377.069 182.621,378.402C179.648,379.537 179.138,380.183 176.766,381.126C174.785,381.915 173.893,380.081 173.388,377.75C173.133,376.581 172.92,375.109 172.437,373.249L181.65,369.348C184.129,371.114 187.542,371.782 191.196,370.776C194.684,369.815 194.182,373.752 191.764,374.776Z" style="fill:rgb(12,43,52);fill-rule:nonzero;"/>
                <path d="M153.78,207.298C153.78,207.298 158.797,257.491 162.416,283.33C166.215,310.469 172.143,353.814 181.65,369.348C180.654,370.744 175.686,372.906 172.437,373.249C172.437,373.249 139.374,318.525 144.714,289.764C119.67,230.985 124.288,214.257 127.517,207.298L153.78,207.298Z" style="fill:rgb(12,43,52);fill-rule:nonzero;"/>
                <path d="M180.57,365.732C181.027,366.525 181.853,367.894 182.642,368.872C182.927,369.225 182.848,369.697 182.477,369.93C179.383,371.877 174.1,373.192 172.408,373.58C172.084,373.654 171.738,373.523 171.538,373.256L169.396,370.405C169.103,370.015 169.243,369.493 169.689,369.315L179.525,365.372C179.906,365.219 180.364,365.374 180.57,365.732Z" style="fill:rgb(48,115,186);fill-rule:nonzero;"/>
                <path d="M172.225,373.6C171.96,373.6 171.7,373.473 171.538,373.256L169.396,370.405C169.292,370.267 169.242,370.111 169.242,369.961C169.241,369.688 169.401,369.43 169.689,369.315L179.525,365.372C179.624,365.332 179.728,365.313 179.831,365.313C180.127,365.313 180.417,365.467 180.57,365.732C181.027,366.525 181.853,367.894 182.642,368.872C182.758,369.016 182.814,369.179 182.814,369.337C182.815,369.553 182.713,369.762 182.521,369.901C182.507,369.911 182.492,369.921 182.477,369.93C179.445,371.838 174.312,373.139 172.515,373.555C172.478,373.563 172.442,373.572 172.408,373.58C172.348,373.593 172.286,373.6 172.225,373.6Z" style="fill:rgb(102,152,208);fill-rule:nonzero;"/>
                <path d="M162.522,165.662L163.644,168.79C164.044,169.869 164.468,170.945 164.912,172.01C165.781,174.148 166.727,176.244 167.712,178.292C168.717,180.328 169.787,182.3 170.936,184.161C172.106,186 173.34,187.737 174.679,189.229L173.091,188.13C172.676,187.948 172.307,187.887 172.044,187.881C171.813,187.865 171.653,187.904 171.606,187.921C171.484,187.974 171.667,187.972 171.9,187.921C172.398,187.81 173.165,187.491 173.936,187.081C175.5,186.252 177.213,185.162 178.877,183.978C180.563,182.806 182.245,181.538 183.933,180.25L188.989,176.341L189.049,176.294C190.427,175.229 192.406,175.483 193.471,176.86C194.313,177.949 194.327,179.419 193.617,180.512C192.346,182.457 191.011,184.226 189.589,186.006C188.168,187.771 186.664,189.481 185.047,191.153C183.403,192.804 181.703,194.443 179.594,195.965C178.529,196.726 177.386,197.48 175.853,198.164C175.07,198.501 174.205,198.829 172.999,199.012C172.412,199.104 171.705,199.147 170.931,199.092C170.126,199.022 169.224,198.831 168.31,198.429C167.811,198.209 167.367,197.917 166.983,197.57L166.721,197.329C164.538,195.335 162.672,193.183 161.037,190.945C160.223,189.826 159.449,188.692 158.715,187.547C157.999,186.392 157.318,185.227 156.667,184.054C155.371,181.706 154.229,179.307 153.204,176.87C152.698,175.648 152.218,174.418 151.76,173.175C151.534,172.551 151.303,171.929 151.096,171.291C150.884,170.632 150.702,170.056 150.476,169.275C149.509,165.941 151.429,162.454 154.763,161.488C157.965,160.56 161.307,162.293 162.423,165.385L162.522,165.662Z" style="fill:rgb(232,126,102);fill-rule:nonzero;"/>
                <path d="M154.685,157.41C161.246,158.646 162.634,161.328 167.465,171.291C166.008,177.847 158.164,183.61 158.164,183.61C158.164,183.61 143.865,165.885 154.685,157.41Z" style="fill:rgb(48,115,186);fill-rule:nonzero;"/>
                <path d="M165.086,169.825C165.194,173.321 164.852,177.547 164.066,185.869C163.537,192.918 165.292,206.317 163.072,207.298C158.209,210.709 144.351,209.73 127.517,207.298C126.8,197.204 127.064,190.253 120.68,167.717C119.2,162.492 122.501,157.474 127.772,156.939C129.181,156.796 130.675,156.677 132.208,156.602C138.17,156.314 143.058,156.123 148.354,156.603C150.108,156.762 151.927,156.983 153.666,157.225C159.941,158.096 164.893,163.56 165.086,169.825Z" style="fill:rgb(0,124,255);fill-rule:nonzero;"/>
                <path d="M133.341,138.423C134.747,143.618 136.472,153.136 133.096,156.602C133.096,156.602 138.017,155.864 148.463,162.325C151.488,157.986 149.241,156.603 149.241,156.603C143.345,155.22 143.174,150.922 143.883,146.886L133.341,138.423Z" style="fill:rgb(232,126,102);fill-rule:nonzero;"/>
                <path d="M146.267,161.023C142.826,161.513 141.749,166.71 141.749,166.71C141.749,166.71 133.484,160.865 130.865,156.742C132.092,156.1 133.883,154.826 133.883,154.826C133.883,154.826 144.258,159.037 146.267,161.023Z" style="fill:white;fill-rule:nonzero;"/>
                <path d="M149.538,160.47C149.538,160.47 152.269,161.061 153.64,164.861C154.427,157.284 150.835,156.587 150.835,156.587C150.835,156.587 149.755,155.816 147.724,156.137C150.453,157.577 149.538,160.47 149.538,160.47Z" style="fill:white;fill-rule:nonzero;"/>
                <path d="M143.594,149.746L143.592,149.746C143.592,149.668 143.593,149.589 143.595,149.51C143.594,149.589 143.594,149.668 143.594,149.746Z" style="fill:rgb(2,30,39);fill-rule:nonzero;"/>
                <path d="M143.592,149.746C142.25,149.554 140.555,148.603 139.326,147.373C140.401,147.66 141.47,147.797 142.506,147.797C142.924,147.797 143.336,147.774 143.742,147.731C143.66,148.327 143.606,148.923 143.595,149.51C143.593,149.589 143.592,149.668 143.592,149.746Z" style="fill:rgb(179,100,81);fill-rule:nonzero;"/>
                <path d="M126.395,131.519C129.457,139.485 130.584,142.913 136.018,146.006C144.191,150.66 153.343,145.726 152.731,137.144C152.179,129.42 147.261,117.69 138.26,116.526C129.392,115.378 123.331,123.554 126.395,131.519Z" style="fill:rgb(232,126,102);fill-rule:nonzero;"/>
                <path d="M122.925,132.626C121.501,129.027 122.289,125.624 126.031,124.182C125.473,126.091 125.424,128.202 126.004,130.331C125.892,130.347 125.781,130.367 125.669,130.393C124.465,130.671 123.517,131.492 122.925,132.626Z" style="fill:rgb(12,43,52);fill-rule:nonzero;"/>
                <path d="M131.475,133.642C130.328,131.605 128.438,130.292 126.557,130.292C126.373,130.292 126.188,130.305 126.004,130.331C125.424,128.202 125.473,126.091 126.031,124.182C127.233,123.719 128.739,123.458 130.574,123.458C131.104,123.458 131.658,123.48 132.243,123.524C133.721,127.102 133.158,130.902 131.475,133.642Z" style="fill:rgb(85,65,64);fill-rule:nonzero;"/>
                <path d="M135.37,131.192C135.14,131.192 134.9,131.183 134.654,131.16C135.264,130.746 135.98,130.632 136.585,130.632C137.335,130.632 137.915,130.808 137.915,130.808C137.915,130.808 136.831,131.192 135.37,131.192Z" style="fill:rgb(179,100,81);fill-rule:nonzero;"/>
                <path d="M135.165,132.638C135.947,131.68 137.25,131.583 137.746,131.583C137.873,131.583 137.947,131.59 137.947,131.59C137.947,131.59 136.791,132.408 135.165,132.638Z" style="fill:rgb(179,100,81);fill-rule:nonzero;"/>
                <path d="M139.716,130.496C139.944,131.177 140.486,131.634 140.927,131.519C141.368,131.404 141.541,130.76 141.313,130.08C141.084,129.401 140.542,128.943 140.101,129.058C139.66,129.173 139.487,129.817 139.716,130.496Z" style="fill:rgb(12,43,52);fill-rule:nonzero;"/>
                <path d="M148.052,128.454C148.28,129.134 148.822,129.592 149.263,129.476C149.704,129.362 149.876,128.718 149.648,128.038C149.42,127.358 148.878,126.9 148.437,127.015C147.996,127.13 147.823,127.774 148.052,128.454Z" style="fill:rgb(12,43,52);fill-rule:nonzero;"/>
                <path d="M148.255,127.104L149.717,126.211C149.717,126.211 149.314,127.703 148.255,127.104Z" style="fill:rgb(12,43,52);fill-rule:nonzero;"/>
                <path d="M146.113,130.172C146.113,130.172 148.24,132.8 149.975,133.883C149.365,134.953 147.723,134.965 147.723,134.965L146.113,130.172Z" style="fill:rgb(216,86,67);fill-rule:nonzero;"/>
                <path d="M144.687,138.488C145.058,138.459 145.446,138.396 145.851,138.291C145.96,138.263 146.019,138.15 145.982,138.039C145.945,137.93 145.83,137.863 145.717,137.892C142.759,138.664 140.674,136.94 140.654,136.923C140.563,136.845 140.431,136.851 140.36,136.935C140.289,137.019 140.304,137.15 140.395,137.226C140.475,137.294 142.152,138.684 144.687,138.488Z" style="fill:rgb(12,43,52);fill-rule:nonzero;"/>
                <path d="M126.148,138.398C127.293,140.035 128.862,140.888 130.197,141.016C132.204,141.21 132.644,138.732 131.614,136.522C130.688,134.533 128.526,132.035 126.74,132.878C124.979,133.709 124.839,136.526 126.148,138.398Z" style="fill:rgb(250,171,118);fill-rule:nonzero;"/>
                <path d="M137.254,127.466C137.361,127.448 137.458,127.388 137.519,127.29C138.448,125.767 139.982,125.775 140,125.775C140.228,125.777 140.407,125.598 140.395,125.37C140.381,125.142 140.184,124.954 139.953,124.95C139.873,124.95 137.946,124.937 136.793,126.828C136.678,127.017 136.747,127.273 136.947,127.401C137.044,127.462 137.153,127.482 137.254,127.466Z" style="fill:rgb(12,43,52);fill-rule:nonzero;"/>
                <path d="M148.976,123.458C149.08,123.454 149.179,123.412 149.25,123.333C149.399,123.17 149.375,122.909 149.199,122.75C147.427,121.161 145.573,121.558 145.494,121.577C145.273,121.627 145.148,121.848 145.216,122.07C145.283,122.291 145.516,122.431 145.737,122.382C145.809,122.365 147.252,122.078 148.661,123.342C148.752,123.423 148.867,123.462 148.976,123.458Z" style="fill:rgb(12,43,52);fill-rule:nonzero;"/>
                <path d="M139.919,129.146L141.381,128.253C141.381,128.253 140.978,129.745 139.919,129.146Z" style="fill:rgb(12,43,52);fill-rule:nonzero;"/>
                <path d="M143.746,183.88L141.105,183.624C140.112,183.528 139.134,183.918 138.479,184.67L135.419,188.188C134.195,189.594 133.729,191.506 134.167,193.318L134.438,194.439C138.788,195.163 144.023,192.74 144.023,192.74L145.591,192.215C146.988,191.746 147.731,190.34 147.296,188.984L146.296,185.862C145.95,184.784 144.936,183.995 143.746,183.88Z" style="fill:rgb(232,126,102);fill-rule:nonzero;"/>
                <path d="M202.384,178.1L200.711,180.159C200.082,180.933 199.117,181.355 198.121,181.292L193.468,180.997C191.608,180.88 189.92,179.869 188.938,178.284L188.331,177.303C190.873,173.699 196.275,171.677 196.275,171.677L197.751,170.93C199.066,170.266 200.588,170.725 201.248,171.987L202.766,174.893C203.291,175.896 203.139,177.173 202.384,178.1Z" style="fill:rgb(232,126,102);fill-rule:nonzero;"/>
                <path d="M128.716,171.288L128.241,172.533L127.732,173.911C127.403,174.842 127.069,175.78 126.76,176.727C126.128,178.62 125.587,180.539 125.076,182.455C124.572,184.375 124.162,186.302 123.816,188.223C123.469,190.152 123.266,192.059 123.106,193.968L122.979,192.772C122.916,192.614 122.776,192.255 122.471,191.885C122.179,191.51 121.728,191.215 121.443,191.12C120.846,190.934 120.972,191.162 121.356,191.202C121.738,191.264 122.351,191.271 123.007,191.222C123.67,191.171 124.392,191.054 125.139,190.918C126.638,190.648 128.218,190.244 129.813,189.806C131.402,189.377 133.063,188.854 134.628,188.409L134.805,188.358C136.486,187.88 138.237,188.855 138.716,190.537C139.067,191.769 138.633,193.041 137.715,193.82C136.226,195.079 134.755,196.121 133.162,197.149C131.575,198.16 129.912,199.085 128.089,199.91C127.174,200.318 126.212,200.684 125.167,201.013C124.117,201.336 122.993,201.624 121.626,201.731C120.273,201.81 118.6,201.864 116.428,200.888C115.362,200.401 114.225,199.524 113.419,198.443C112.597,197.365 112.123,196.177 111.879,195.165C111.811,194.883 111.772,194.601 111.762,194.323L111.751,193.968C111.674,191.539 111.662,189.103 111.909,186.729C112.113,184.345 112.446,181.99 112.931,179.683C113.388,177.368 113.986,175.096 114.68,172.854C115.043,171.738 115.405,170.621 115.831,169.517C116.043,168.964 116.251,168.409 116.486,167.854C116.726,167.281 116.943,166.786 117.262,166.094C118.714,162.942 122.447,161.565 125.599,163.017C128.615,164.408 130.006,167.886 128.847,170.945L128.716,171.288Z" style="fill:rgb(232,126,102);fill-rule:nonzero;"/>
                <path d="M127.441,156.982C121.653,157.876 119.332,159.637 114.603,171.269C116.75,175.608 126.8,179.758 126.8,179.758C126.8,179.758 134.681,165.453 127.441,156.982Z" style="fill:rgb(76,163,255);fill-rule:nonzero;"/>
                <path d="M149.855,165.319C149.983,165.984 149.82,166.524 149.49,166.524C149.161,166.524 148.79,165.985 148.662,165.319C148.534,164.654 148.697,164.115 149.026,164.115C149.356,164.114 149.727,164.654 149.855,165.319Z" style="fill:white;fill-rule:nonzero;"/>
                <path d="M150.489,170.965C150.517,171.642 150.275,172.151 149.949,172.102C149.624,172.054 149.336,171.465 149.309,170.788C149.281,170.111 149.522,169.602 149.849,169.651C150.174,169.7 150.461,170.288 150.489,170.965Z" style="fill:white;fill-rule:nonzero;"/>
                <path d="M140.713,118.145C136.289,125.546 129.294,128.298 123.336,128.253C117.378,128.209 119.732,119.297 128.043,113.64C136.354,107.982 145.322,110.435 140.713,118.145Z" style="fill:rgb(12,43,52);fill-rule:nonzero;"/>
                <path d="M132.26,135.558C131.307,132.085 128.356,129.773 125.669,130.393C122.983,131.013 121.578,134.33 122.531,137.803C123.484,141.276 126.434,143.588 129.121,142.969C131.808,142.349 133.213,139.031 132.26,135.558Z" style="fill:rgb(48,115,186);fill-rule:nonzero;"/>
                <path d="M127.16,142.16C125.645,142.16 123.862,140.252 123.074,137.722C122.24,135.048 122.833,132.692 124.397,132.46C124.481,132.447 124.565,132.441 124.651,132.441C126.166,132.441 127.949,134.349 128.738,136.88C129.571,139.554 128.979,141.909 127.415,142.142C127.331,142.154 127.246,142.16 127.16,142.16Z" style="fill:rgb(13,96,174);fill-rule:nonzero;"/>
                <path d="M128.022,130.556C126.219,124.604 125.666,117.039 129.322,112.836C127.671,112.989 124.877,116.205 124.877,116.205C123.165,118.947 122.26,124.95 124.366,131.584C127.07,132.565 128.022,130.556 128.022,130.556Z" style="fill:rgb(48,115,186);fill-rule:nonzero;"/>
                <path d="M343.453,380.739L346.758,380.739L358.823,256.158L354.565,260.064L343.453,380.739Z" style="fill:rgb(48,115,186);fill-rule:nonzero;"/>
                <path d="M316.349,228.42C313.742,247.074 327.066,262.208 346.109,262.224C365.153,262.237 382.704,247.127 385.311,228.473C387.919,209.818 374.595,194.685 355.551,194.67C336.508,194.655 318.956,209.766 316.349,228.42Z" style="fill:rgb(48,115,186);fill-rule:nonzero;"/>
                <path d="M346.136,262.224L346.109,262.224C341.867,262.22 337.91,261.467 334.348,260.091C339.371,256.69 343.537,253.614 347.231,251.151C354.608,246.234 358.673,242.546 359.999,236.118C365.422,231.854 369.689,226.261 371.643,220.189C375.739,207.454 368.125,197.36 354.591,197.36C354.366,197.36 354.139,197.362 353.911,197.368C342.205,197.656 329.983,205.28 323.888,215.369C322.606,215.603 321.452,215.827 320.474,216.033C327.264,203.518 340.954,194.67 355.524,194.67L355.551,194.67C372.995,194.683 385.641,207.383 385.637,223.854C385.637,225.364 385.53,226.906 385.311,228.473C383.284,242.981 372.219,255.345 358.44,260.118C357.134,260.57 355.803,260.955 354.455,261.267C351.743,261.892 348.957,262.224 346.136,262.224Z" style="fill:rgb(202,221,242);fill-rule:nonzero;"/>
                <path d="M359.999,236.118C361.161,230.487 360.222,222.754 357.568,210.248C357.568,210.248 356.082,210.45 353.679,210.787C353.46,209.686 353.225,208.547 352.974,207.364L352.532,207.457C352.781,208.63 353.015,209.759 353.233,210.849C346.206,211.835 332.275,213.838 323.888,215.369C329.983,205.28 342.205,197.656 353.911,197.368C354.139,197.362 354.366,197.36 354.591,197.36C368.125,197.36 375.739,207.454 371.643,220.189C369.689,226.261 365.422,231.854 359.999,236.118Z" style="fill:rgb(165,199,233);fill-rule:nonzero;"/>
                <path d="M335.404,344.313L351.5,344.313C352.653,344.313 353.597,343.37 353.597,342.217C353.597,341.064 352.653,340.121 351.5,340.121L335.404,340.121C334.251,340.121 333.308,341.064 333.308,342.217C333.308,343.37 334.251,344.313 335.404,344.313Z" style="fill:rgb(48,115,186);fill-rule:nonzero;"/>
                <path d="M322.049,380.739L349.042,380.739C350.194,380.739 351.138,379.796 351.138,378.643C351.138,377.49 350.194,376.547 349.042,376.547L322.049,376.547C320.896,376.547 319.953,377.49 319.953,378.643C319.953,379.796 320.896,380.739 322.049,380.739Z" style="fill:rgb(48,115,186);fill-rule:nonzero;"/>
                <path d="M308.065,165.127C305.814,167.033 303.661,168.675 301.356,170.327C299.07,171.962 296.716,173.525 294.246,175.005C291.761,176.472 289.207,177.894 286.306,179.108C284.847,179.715 283.321,180.29 281.534,180.746C280.638,180.975 279.674,181.161 278.566,181.266C277.458,181.361 276.189,181.392 274.652,181.095C273.129,180.795 271.244,180.057 269.679,178.536C269.023,177.82 268.367,177.082 267.866,176.391C266.801,174.981 265.91,173.47 265.196,171.934C263.729,168.864 262.957,165.686 262.558,162.607C262.181,159.516 262.201,156.497 262.501,153.558C262.638,152.088 262.886,150.64 263.163,149.206C263.467,147.746 263.807,146.42 264.311,144.866C264.902,143.045 266.856,142.048 268.677,142.639C270.111,143.104 271.034,144.416 271.072,145.843L271.081,146.221L271.125,147.998C271.14,148.617 271.173,149.242 271.214,149.862C271.276,151.103 271.413,152.338 271.552,153.551C271.868,155.975 272.316,158.333 273.007,160.504C273.665,162.681 274.572,164.661 275.65,166.322C276.18,167.165 276.809,167.883 277.436,168.553C277.763,168.919 278.049,169.137 278.318,169.394C277.735,168.791 277.135,168.605 276.929,168.535C276.715,168.468 276.803,168.471 277.024,168.408C277.248,168.352 277.598,168.245 277.994,168.112C278.791,167.843 279.763,167.412 280.746,166.914C282.727,165.892 284.833,164.629 286.902,163.26C288.983,161.895 291.06,160.426 293.127,158.924C295.17,157.432 297.296,155.831 299.216,154.358L299.318,154.28C302.372,151.936 306.747,152.512 309.09,155.565C311.362,158.525 310.877,162.738 308.065,165.127Z" style="fill:rgb(139,61,62);fill-rule:nonzero;"/>
                <path d="M306.707,144.339C296.664,149.264 295.321,156.349 284.595,162.569C288.023,169.509 293.306,175.746 299.969,176.621C313.133,164.64 324.273,158.131 306.707,144.339Z" style="fill:rgb(76,163,255);fill-rule:nonzero;"/>
                <path d="M270.743,149.125C270.474,149.473 270.077,149.704 269.647,149.798L265.913,150.618C265.187,150.777 264.434,150.503 263.979,149.915L262,147.357C260.077,144.87 258.713,141.997 258.002,138.934L257.767,137.921C257.361,136.176 258.469,134.438 260.221,134.07L264.07,133.262C265.602,132.939 267.141,133.774 267.707,135.233L269.377,139.538C269.377,139.538 273.198,145.949 270.743,149.125Z" style="fill:rgb(139,61,62);fill-rule:nonzero;"/>
                <path d="M315.116,289.598C323.629,265.527 339.157,235.862 344.483,216.622L305.073,215.859C305.073,215.859 291.394,267.36 291.134,287.844C290.961,301.511 289.939,369.117 289.939,369.117L299.835,370.946C299.835,370.946 319.363,317.245 315.116,289.598Z" style="fill:rgb(48,115,186);fill-rule:nonzero;"/>
                <path d="M302.049,364.485L290.028,363.267C290.279,346.549 290.992,299.053 291.134,287.844C291.158,285.924 291.3,283.734 291.538,281.338C297.057,292.592 306.317,306.64 313.98,317.591C312.372,327.651 309.867,337.98 307.409,346.837C307.386,346.92 307.362,347.004 307.339,347.087C305.381,354.126 303.458,360.218 302.049,364.485ZM318.109,281.594C316.246,277.825 314.42,274.739 312.735,272.818C317.014,270.681 320.874,268.54 324.382,266.449C323.547,268.389 322.72,270.327 321.912,272.253C320.588,275.405 319.311,278.527 318.109,281.594ZM297.331,248.112C301.054,230.99 305.073,215.859 305.073,215.859L319.946,216.147C315.178,224.588 305.183,237.298 297.331,248.112Z" style="fill:rgb(12,43,52);fill-rule:nonzero;"/>
                <path d="M271.675,379.014C271.675,379.014 286.661,374.834 290.555,368.356L299.451,371.258L298.898,380.839L291.989,380.978L291.023,379.385L289.866,381.021C285.644,381.106 274.604,381.729 271.63,380.839C271.092,379.502 271.675,379.014 271.675,379.014Z" style="fill:rgb(12,43,52);fill-rule:nonzero;"/>
                <path d="M289.029,369.487L299.374,372.608C299.871,372.758 300.432,372.487 300.655,371.988L303.38,365.893C303.657,365.276 303.294,364.612 302.645,364.546L289.906,363.255C289.317,363.195 288.763,363.663 288.717,364.26L288.385,368.525C288.35,368.97 288.612,369.361 289.029,369.487Z" style="fill:rgb(48,115,186);fill-rule:nonzero;"/>
                <path d="M299.655,372.649C299.561,372.649 299.466,372.636 299.374,372.608L299.373,372.608L289.602,369.66L289.029,369.487C288.638,369.369 288.383,369.017 288.382,368.608C288.382,368.58 288.383,368.553 288.385,368.525L288.717,364.26C288.76,363.698 289.254,363.25 289.804,363.25C289.838,363.25 289.872,363.251 289.906,363.255L302.645,364.546C303.145,364.597 303.474,365.002 303.474,365.467C303.474,365.606 303.444,365.751 303.38,365.893L300.655,371.988C300.473,372.394 300.068,372.649 299.655,372.649Z" style="fill:rgb(102,152,208);fill-rule:nonzero;"/>
                <g transform="matrix(1,0,0,1,-2.11309,-0.102886)">
                    <path d="M357.568,210.248C357.568,210.248 329.257,214.101 319.946,216.147C318.283,219.091 315.984,222.554 313.363,226.275C303.985,239.583 290.476,256.188 287.133,264.126C281.888,276.582 326.933,335.389 326.933,335.389L335.975,330.603C335.975,330.603 322.15,283.554 312.735,272.818C329.044,264.674 339.241,256.478 347.231,251.151C361.069,241.926 363.253,237.032 357.568,210.248Z" style="fill:rgb(12,43,52);fill-rule:nonzero;"/>
                </g>
                <path d="M353.233,210.849C353.015,209.759 352.781,208.63 352.532,207.457L352.974,207.364C353.225,208.547 353.46,209.686 353.679,210.787C353.533,210.807 353.385,210.828 353.233,210.849Z" style="fill:rgb(190,214,239);fill-rule:nonzero;"/>
                <path d="M330.901,325.107C330.755,324.672 316.053,281.46 306.774,270.88L306.581,270.661L306.843,270.53C319.289,264.315 328.596,257.734 336.074,252.446C338.301,250.871 340.403,249.384 342.291,248.126C355.314,239.443 358.055,234.947 353.233,210.849C353.385,210.828 353.533,210.807 353.679,210.787C358.496,234.979 355.555,239.824 342.541,248.501C340.658,249.756 338.558,251.242 336.334,252.814C328.895,258.074 319.649,264.612 307.303,270.804C316.649,281.814 331.182,324.53 331.329,324.963L330.901,325.107Z" style="fill:rgb(102,152,208);fill-rule:nonzero;"/>
                <path d="M318.061,353.516C318.061,353.516 329.053,337.189 327.962,334.395L336.525,329.622L341.014,338.045L336.431,341.481L334.746,340.956L334.522,343.39C331.722,345.489 321.524,355.102 319.031,355.538C317.935,354.328 318.061,353.516 318.061,353.516Z" style="fill:rgb(12,43,52);fill-rule:nonzero;"/>
                <path d="M328.008,337.315L338.242,333.146C338.734,332.946 338.985,332.398 338.817,331.894L336.759,325.74C336.55,325.117 335.811,324.857 335.258,325.213L324.411,332.213C323.909,332.537 323.798,333.224 324.172,333.69L326.844,337.014C327.123,337.361 327.596,337.483 328.008,337.315Z" style="fill:rgb(48,115,186);fill-rule:nonzero;"/>
                <path d="M327.629,337.39C327.33,337.39 327.039,337.257 326.844,337.014L324.172,333.69C324.022,333.502 323.95,333.279 323.95,333.058C323.951,332.73 324.111,332.407 324.411,332.213L335.258,325.213C335.428,325.103 335.617,325.052 335.802,325.052C336.217,325.052 336.615,325.309 336.759,325.74L338.817,331.894C338.852,332 338.869,332.108 338.869,332.215C338.869,332.613 338.63,332.988 338.242,333.146L328.008,337.315C327.885,337.366 327.756,337.39 327.629,337.39Z" style="fill:rgb(102,152,208);fill-rule:nonzero;"/>
                <path d="M334.965,138.024C323.207,138.511 316.302,139.117 306.329,144.544C299.221,148.412 295.399,152.884 296.575,164.975C298.226,181.954 301.885,199.371 304.023,218.382C310.79,224.119 327.556,216.805 350.83,218.407C357.764,215.002 358.747,211.097 358.747,211.097C357.097,206.389 353.29,194.267 352.646,182.233C353.607,171.238 357.885,169.621 356.519,154.997C355.363,142.63 344.923,137.612 334.965,138.024Z" style="fill:rgb(0,100,205);fill-rule:nonzero;"/>
                <path d="M330.102,118.078L315.972,130.502C318.99,136.984 316.782,140.445 312.578,142.432C312.546,143.959 313.359,146.958 315.986,148.51C322.855,147.73 331.68,145.428 334.362,140.977C333.116,137.776 329.405,124.934 330.102,118.078Z" style="fill:rgb(139,61,62);fill-rule:nonzero;"/>
                <path d="M317.307,134.828L317.299,134.828C317.238,134.303 317.13,133.751 316.972,133.17C316.973,133.171 316.974,133.171 316.975,133.171C317.135,133.753 317.245,134.304 317.307,134.828Z" style="fill:rgb(192,193,193);fill-rule:nonzero;"/>
                <path d="M318.385,134.875C318.018,134.875 317.657,134.858 317.307,134.828C317.245,134.304 317.135,133.753 316.975,133.171C317.579,133.266 318.191,133.316 318.803,133.316C320.969,133.316 323.156,132.702 325.124,131.363C323.707,134.084 320.905,134.875 318.385,134.875Z" style="fill:rgb(109,44,45);fill-rule:nonzero;"/>
                <path d="M308.632,99.57C300.314,103.686 310.305,117.659 310.305,117.659C310.305,117.659 317.365,95.248 308.632,99.57Z" style="fill:rgb(12,43,52);fill-rule:nonzero;"/>
                <path d="M331.993,110.768C331.415,119.875 331.541,125.239 326.924,129.867C319.978,136.827 308.724,132.531 306.564,123.411C304.62,115.202 305.891,101.688 314.829,98.159C323.635,94.681 332.571,101.661 331.993,110.768Z" style="fill:rgb(139,61,62);fill-rule:nonzero;"/>
                <path d="M324.485,102.446C315.836,104.479 307.997,103.572 305.892,100.021C297.709,86.219 317.585,89.983 323.03,91.957C328.476,93.931 327.477,96.027 327.477,96.027C327.477,96.027 331.037,94.677 334.503,97.569C337.62,100.169 336.133,103.22 336.133,103.22C336.133,103.22 343.488,108.146 333.297,118.245C329.386,117.991 326.563,117.624 325.597,116.242C324.63,114.86 325.354,111.879 328.662,109.486C326.43,109.796 323.911,107.15 324.485,102.446Z" style="fill:rgb(12,43,52);fill-rule:nonzero;"/>
                <path d="M335.098,120.38C334.059,122.367 332.193,123.682 330.418,124.196C327.748,124.969 326.363,122.587 327.063,120.054C327.693,117.773 329.842,114.623 332.542,114.963C335.202,115.297 336.285,118.109 335.098,120.38Z" style="fill:rgb(139,61,62);fill-rule:nonzero;"/>
                <path d="M327.056,118.679C328.24,115.278 331.339,113.169 333.978,113.969C336.617,114.767 337.796,118.172 336.612,121.573C335.428,124.974 332.329,127.083 329.689,126.284C327.051,125.485 325.872,122.08 327.056,118.679Z" style="fill:rgb(48,115,186);fill-rule:nonzero;"/>
                <path d="M331.824,125.613C331.696,125.613 331.57,125.6 331.448,125.573C329.903,125.236 329.47,122.846 330.481,120.235C331.412,117.831 333.242,116.077 334.733,116.077C334.861,116.077 334.987,116.09 335.109,116.117C336.654,116.454 337.087,118.844 336.076,121.455C335.145,123.859 333.315,125.613 331.824,125.613Z" style="fill:rgb(13,96,174);fill-rule:nonzero;"/>
                <path d="M331.619,113.973C333.563,108.834 330.014,99.524 327.348,96.413C326.98,95.983 327.231,95.304 327.795,95.259C329.734,95.104 331.01,95.843 331.01,95.843C332.637,96.519 338.39,106.41 335.199,115.244C332.436,116.041 331.619,113.973 331.619,113.973Z" style="fill:rgb(48,115,186);fill-rule:nonzero;"/>
                <path d="M319.048,113.362C319.046,114.103 318.651,114.701 318.166,114.696C317.68,114.69 317.288,114.084 317.289,113.343C317.291,112.6 317.686,112.003 318.171,112.009C318.657,112.014 319.049,112.62 319.048,113.362Z" style="fill:rgb(12,43,52);fill-rule:nonzero;"/>
                <path d="M310.398,112.868C310.396,113.61 310.002,114.207 309.516,114.202C309.031,114.196 308.638,113.591 308.64,112.849C308.641,112.106 309.036,111.509 309.521,111.515C310.007,111.52 310.399,112.126 310.398,112.868Z" style="fill:rgb(12,43,52);fill-rule:nonzero;"/>
                <path d="M311.508,113.727C311.508,113.727 309.81,117.99 307.946,120.035C309.258,121.274 311.494,120.739 311.494,120.739L311.508,113.727Z" style="fill:rgb(110,13,15);fill-rule:nonzero;"/>
                <path d="M322.708,110.31L322.903,110.251C323.092,110.135 323.149,109.887 323.032,109.697C321.854,107.795 319.995,107.719 319.916,107.716C319.693,107.71 319.51,107.885 319.505,108.107C319.501,108.329 319.676,108.515 319.898,108.522C319.959,108.524 321.408,108.599 322.348,110.117C322.428,110.246 322.567,110.315 322.708,110.31Z" style="fill:rgb(12,43,52);fill-rule:nonzero;"/>
                <path d="M306.335,109.959C306.476,109.945 306.606,109.863 306.675,109.728C307.557,108.027 309.117,107.845 309.183,107.838C309.421,107.813 309.595,107.6 309.569,107.362C309.543,107.123 309.331,106.949 309.091,106.972C309.005,106.981 307.003,107.191 305.899,109.324C305.789,109.537 305.873,109.8 306.087,109.912L306.335,109.959Z" style="fill:rgb(12,43,52);fill-rule:nonzero;"/>
                <path d="M352.985,146.959C354.992,150.062 356.733,153.068 358.465,156.207C360.171,159.333 361.814,162.506 363.328,165.772C364.085,167.406 364.823,169.059 365.535,170.734C366.228,172.42 366.893,174.133 367.521,175.882C368.765,179.406 369.873,183.018 370.438,187.249L370.469,187.49C370.504,187.753 370.518,188.042 370.512,188.3C370.472,189.764 370.062,191.536 369.158,193.061C368.268,194.608 367.004,195.716 365.857,196.433C363.516,197.848 361.608,198.147 359.912,198.386C358.212,198.593 356.679,198.574 355.212,198.482C353.746,198.389 352.348,198.228 350.983,198.005C348.258,197.551 345.663,196.926 343.124,196.176C340.575,195.409 338.144,194.579 335.646,193.508C333.875,192.749 333.055,190.7 333.814,188.93C334.417,187.522 335.836,186.715 337.283,186.825L337.424,186.837C339.802,187.021 342.299,187.243 344.705,187.372C347.122,187.51 349.517,187.602 351.812,187.55C354.077,187.526 356.352,187.311 357.951,186.879C358.721,186.69 359.307,186.317 359.074,186.331C358.963,186.343 358.643,186.562 358.355,186.998C358.066,187.423 357.953,187.933 357.929,188.14L358.004,189.19C357.454,186.588 356.337,183.611 355.119,180.685C353.859,177.745 352.428,174.785 350.925,171.835C349.396,168.894 347.822,165.946 346.172,163.028C344.545,160.124 342.818,157.148 341.184,154.376L341.129,154.283C339.174,150.967 340.277,146.695 343.593,144.74C346.821,142.837 350.965,143.845 352.985,146.959Z" style="fill:rgb(139,61,62);fill-rule:nonzero;"/>
                <path d="M341.671,192.958C341.935,192.606 342.051,192.162 342.027,191.723L341.82,187.905C341.78,187.162 341.315,186.51 340.627,186.228L337.634,185.005C334.724,183.815 331.591,183.267 328.45,183.399L327.411,183.442C325.621,183.517 324.242,185.049 324.354,186.837L324.602,190.761C324.7,192.323 325.916,193.583 327.473,193.74L332.068,194.201C332.068,194.201 339.266,196.172 341.671,192.958Z" style="fill:rgb(139,61,62);fill-rule:nonzero;"/>
                <path d="M350.956,143.002C358.379,148.077 361.537,155.086 366.788,164.129C362.935,170.979 353.504,175.526 346.833,174.717C341.863,164.308 335.2,142.39 341.423,140.586C344.959,139.562 347.917,140.925 350.956,143.002Z" style="fill:rgb(76,163,255);fill-rule:nonzero;"/>
                <path d="M310.626,123.361C310.626,123.361 316.926,121.633 321.14,119.931C319.433,122.825 317.237,124.15 314.489,124.834C311.741,125.518 310.626,123.361 310.626,123.361Z" style="fill:white;fill-rule:nonzero;"/>
                <path d="M275.144,234.401L193.584,234.401C193.225,234.401 192.933,234.11 192.933,233.75L192.933,229.997C192.933,228.453 194.197,227.19 195.741,227.19L272.987,227.19C274.531,227.19 275.794,228.453 275.794,229.997L275.794,233.75C275.794,234.11 275.503,234.401 275.144,234.401Z" style="fill:rgb(48,115,186);fill-rule:nonzero;"/>
                <path d="M257.445,378.295L235.766,376.492L235.766,234.402L232.962,234.402L232.962,376.492L211.283,378.295L208.579,381.312L260.148,381.312L257.445,378.295Z" style="fill:rgb(48,115,186);fill-rule:nonzero;"/>
                <path d="M260.148,381.312L208.579,381.312L211.283,378.295L232.962,376.492L232.962,234.402L235.766,234.402L235.766,376.492L257.445,378.295L260.148,381.312Z" style="fill:rgb(138,179,223);fill-rule:nonzero;"/>
                <path d="M274.806,234.401L193.922,234.401C193.922,235.342 194.684,236.104 195.625,236.104L273.104,236.104C274.043,236.104 274.806,235.342 274.806,234.401Z" style="fill:rgb(12,43,52);fill-rule:nonzero;"/>
                <path d="M221.292,207.172L220.706,207.758C219.063,209.401 216.375,209.401 214.732,207.758L202.941,195.966C201.298,194.324 201.298,191.636 202.941,189.994L203.527,189.407C205.169,187.765 207.857,187.765 209.5,189.407L221.292,201.199C222.935,202.842 222.935,205.529 221.292,207.172Z" style="fill:rgb(48,115,186);fill-rule:nonzero;"/>
                <path d="M209.023,203.09L214.349,208.415C216.278,210.345 219.381,210.695 221.547,209.036C224.168,207.027 224.35,203.216 222.092,200.958L216.624,195.49C216.162,195.028 215.413,195.028 214.951,195.49L209.023,201.417C208.562,201.879 208.562,202.628 209.023,203.09Z" style="fill:rgb(12,43,52);fill-rule:nonzero;"/>
                <path d="M214.058,207.225C214.058,208.475 213.045,209.488 211.795,209.488C210.546,209.488 209.533,208.475 209.533,207.225C209.533,205.975 210.546,204.962 211.795,204.962C213.045,204.962 214.058,205.975 214.058,207.225Z" style="fill:rgb(12,43,52);fill-rule:nonzero;"/>
                <rect x="211.175" y="207.225" width="1.241" height="18.462" style="fill:rgb(12,43,52);fill-rule:nonzero;"/>
                <path d="M215.775,225.248L207.816,225.248L207.063,227.19L216.528,227.19L215.775,225.248Z" style="fill:rgb(12,43,52);fill-rule:nonzero;"/>
                <path d="M226.975,242.172C226.848,242.172 226.716,242.164 226.578,242.148C225.785,242.053 225.149,241.645 224.687,240.937C223.073,238.469 223.678,232.183 226.388,223.238C229.125,214.204 225.172,211.203 222.285,209.011C221.703,208.569 221.153,208.152 220.733,207.731C220.586,207.584 220.586,207.346 220.733,207.199C220.88,207.053 221.118,207.053 221.265,207.199C221.649,207.583 222.154,207.967 222.74,208.412C225.63,210.606 229.997,213.922 227.108,223.456C224.502,232.058 223.849,238.28 225.315,240.526C225.656,241.046 226.099,241.333 226.668,241.401C227.221,241.467 227.631,241.364 227.914,241.088C228.808,240.21 228.543,237.597 228.288,235.07C227.96,231.829 227.621,228.479 229.245,226.919C229.396,226.774 229.633,226.78 229.777,226.929C229.921,227.079 229.916,227.317 229.767,227.461C228.406,228.768 228.741,232.076 229.036,234.994C229.322,237.823 229.592,240.494 228.44,241.624C228.069,241.989 227.578,242.172 226.975,242.172Z" style="fill:rgb(12,43,52);fill-rule:nonzero;"/>
                <path d="M249.494,203.163L249.756,203.95C250.491,206.154 252.895,207.355 255.099,206.621L270.919,201.346C273.123,200.611 274.324,198.207 273.59,196.004L273.328,195.217C272.593,193.014 270.188,191.811 267.985,192.546L252.165,197.821C249.961,198.556 248.759,200.96 249.494,203.163Z" style="fill:rgb(48,115,186);fill-rule:nonzero;"/>
                <path d="M262.293,204.998L255.148,207.38C252.56,208.243 249.628,207.168 248.433,204.716C246.986,201.747 248.527,198.258 251.557,197.247L258.893,194.802C259.513,194.595 260.183,194.93 260.39,195.55L263.041,203.502C263.248,204.121 262.913,204.791 262.293,204.998Z" style="fill:rgb(12,43,52);fill-rule:nonzero;"/>
                <path d="M256.079,207.225C256.079,208.475 257.092,209.488 258.341,209.488C259.591,209.488 260.604,208.475 260.604,207.225C260.604,205.975 259.591,204.962 258.341,204.962C257.092,204.962 256.079,205.975 256.079,207.225Z" style="fill:rgb(12,43,52);fill-rule:nonzero;"/>
                <rect x="257.721" y="207.225" width="1.241" height="18.462" style="fill:rgb(12,43,52);fill-rule:nonzero;"/>
                <path d="M254.361,225.248L262.321,225.248L263.073,227.19L253.609,227.19L254.361,225.248Z" style="fill:rgb(12,43,52);fill-rule:nonzero;"/>
                <path d="M245.006,229.754C245.239,232.388 245.127,234.628 245.04,236.361C244.894,239.294 244.878,240.596 246.057,240.732C246.577,240.788 246.969,240.39 247.207,240.042C248.264,238.498 248.473,235.065 246.968,232.211C246.538,231.397 245.913,230.522 245.006,229.754ZM246.161,241.49L245.971,241.479C244.042,241.257 244.141,239.294 244.289,236.324C244.387,234.372 244.507,231.974 244.197,229.152C242.777,228.225 240.817,227.566 238.113,227.566C237.905,227.566 237.737,227.397 237.737,227.19C237.737,226.982 237.905,226.814 238.113,226.814C240.668,226.814 242.606,227.371 244.077,228.194C243.869,226.722 243.539,225.141 243.028,223.456C239.531,211.909 246.245,204.287 249.506,203.2C249.707,203.133 249.916,203.241 249.981,203.437C250.048,203.635 249.941,203.848 249.744,203.913C246.78,204.902 240.447,212.341 243.749,223.238C244.34,225.189 244.693,227.023 244.896,228.712C246.215,229.648 247.074,230.801 247.633,231.86C249.269,234.962 249.008,238.743 247.828,240.467C247.372,241.132 246.786,241.49 246.161,241.49Z" style="fill:rgb(12,43,52);fill-rule:nonzero;"/>
                <path d="M393.088,350.916C391.024,338.867 395.593,328 400.011,317.492C403.496,309.201 407.1,300.628 407.469,291.48C407.847,282.125 405.865,273.44 404.116,265.778C401.9,256.065 400.149,248.392 404.66,244.303L405.238,244.941C401.102,248.692 402.803,256.148 404.957,265.587C406.717,273.301 408.712,282.045 408.33,291.516C407.955,300.819 404.32,309.464 400.805,317.826C396.435,328.22 391.916,338.969 393.938,350.771L393.088,350.916Z" style="fill:rgb(48,115,186);fill-rule:nonzero;"/>
                <path d="M407.822,243.594C407.19,244.933 403.137,247.243 403.137,247.243C403.137,247.243 402.34,242.646 402.972,241.307C403.603,239.968 405.201,239.394 406.541,240.026C407.88,240.657 408.454,242.255 407.822,243.594Z" style="fill:rgb(48,115,186);fill-rule:nonzero;"/>
                <path d="M399.163,249.764C400.452,250.492 402.458,254.704 402.458,254.704C402.458,254.704 397.815,255.162 396.526,254.433C395.237,253.705 394.781,252.07 395.509,250.781C396.237,249.491 397.873,249.036 399.163,249.764Z" style="fill:rgb(48,115,186);fill-rule:nonzero;"/>
                <path d="M404.715,279.288C406.004,280.017 408.011,284.228 408.011,284.228C408.011,284.228 403.368,284.686 402.079,283.958C400.789,283.23 400.334,281.595 401.062,280.305C401.79,279.016 403.425,278.56 404.715,279.288Z" style="fill:rgb(48,115,186);fill-rule:nonzero;"/>
                <path d="M400.39,313.381C400.893,314.773 399.67,319.275 399.67,319.275C399.67,319.275 395.85,316.597 395.347,315.204C394.843,313.811 395.564,312.274 396.957,311.771C398.35,311.267 399.886,311.988 400.39,313.381Z" style="fill:rgb(48,115,186);fill-rule:nonzero;"/>
                <path d="M410.802,266.996C409.932,268.194 405.519,269.707 405.519,269.707C405.519,269.707 405.593,265.043 406.463,263.845C407.333,262.646 409.01,262.38 410.208,263.25C411.406,264.121 411.672,265.797 410.802,266.996Z" style="fill:rgb(48,115,186);fill-rule:nonzero;"/>
                <path d="M412.176,301.232C410.924,302.023 406.265,301.795 406.265,301.795C406.265,301.795 408.06,297.489 409.312,296.699C410.564,295.908 412.22,296.281 413.011,297.533C413.802,298.785 413.428,300.441 412.176,301.232Z" style="fill:rgb(48,115,186);fill-rule:nonzero;"/>
                <path d="M399.995,335.104C398.743,335.895 394.083,335.667 394.083,335.667C394.083,335.667 395.879,331.361 397.131,330.571C398.383,329.78 400.039,330.153 400.83,331.405C401.621,332.657 401.247,334.313 399.995,335.104Z" style="fill:rgb(48,115,186);fill-rule:nonzero;"/>
                <path d="M406.879,310.275C406.093,310.556 403.557,309.856 403.557,309.856C403.557,309.856 405.076,307.708 405.863,307.427C406.649,307.146 407.515,307.557 407.795,308.343C408.076,309.129 407.666,309.995 406.879,310.275Z" style="fill:rgb(48,115,186);fill-rule:nonzero;"/>
                <path d="M406.065,259.01C405.654,259.737 403.278,260.868 403.278,260.868C403.278,260.868 403.021,258.25 403.432,257.522C403.843,256.795 404.766,256.538 405.493,256.95C406.22,257.362 406.476,258.284 406.065,259.01Z" style="fill:rgb(48,115,186);fill-rule:nonzero;"/>
                <path d="M407.575,287.718C408.073,288.388 408.143,291.018 408.143,291.018C408.143,291.018 405.646,290.191 405.147,289.521C404.649,288.85 404.789,287.903 405.459,287.406C406.13,286.908 407.077,287.047 407.575,287.718Z" style="fill:rgb(48,115,186);fill-rule:nonzero;"/>
                <path d="M390.435,349.825L389.597,349.627C391.513,341.538 388.964,334.217 386.266,326.467C384.183,320.482 382.028,314.294 382.176,307.778C382.326,301.153 384.101,295.145 385.667,289.846C387.567,283.411 389.069,278.328 386.408,275.59L387.025,274.989C390.039,278.088 388.474,283.385 386.493,290.09C384.942,295.338 383.185,301.287 383.037,307.798C382.894,314.158 385.021,320.271 387.08,326.183C389.699,333.71 392.409,341.492 390.435,349.825Z" style="fill:rgb(48,115,186);fill-rule:nonzero;"/>
                <path d="M384.763,274.448C385.144,275.408 387.863,277.194 387.863,277.194C387.863,277.194 388.62,274.029 388.239,273.069C387.858,272.109 386.771,271.64 385.812,272.02C384.852,272.401 384.382,273.488 384.763,274.448Z" style="fill:rgb(48,115,186);fill-rule:nonzero;"/>
                <path d="M390.519,279.122C389.59,279.573 388.008,282.416 388.008,282.416C388.008,282.416 391.22,282.939 392.149,282.489C393.079,282.038 393.467,280.92 393.017,279.991C392.567,279.061 391.449,278.672 390.519,279.122Z" style="fill:rgb(48,115,186);fill-rule:nonzero;"/>
                <path d="M385.359,299.429C384.429,299.879 382.848,302.723 382.848,302.723C382.848,302.723 386.059,303.246 386.989,302.795C387.918,302.345 388.307,301.227 387.856,300.297C387.407,299.368 386.288,298.979 385.359,299.429Z" style="fill:rgb(48,115,186);fill-rule:nonzero;"/>
                <path d="M386.873,323.349C386.461,324.296 387.115,327.483 387.115,327.483C387.115,327.483 389.891,325.786 390.303,324.839C390.714,323.892 390.28,322.79 389.333,322.379C388.386,321.967 387.284,322.401 386.873,323.349Z" style="fill:rgb(48,115,186);fill-rule:nonzero;"/>
                <path d="M381.661,290.605C382.214,291.477 385.219,292.725 385.219,292.725C385.219,292.725 385.373,289.475 384.82,288.603C384.267,287.73 383.111,287.472 382.239,288.025C381.367,288.578 381.108,289.733 381.661,290.605Z" style="fill:rgb(48,115,186);fill-rule:nonzero;"/>
                <path d="M379.202,314.375C380.039,314.981 383.292,315.027 383.292,315.027C383.292,315.027 382.231,311.951 381.395,311.346C380.558,310.74 379.389,310.928 378.783,311.764C378.178,312.6 378.365,313.77 379.202,314.375Z" style="fill:rgb(48,115,186);fill-rule:nonzero;"/>
                <path d="M386.194,338.486C387.031,339.092 390.284,339.138 390.284,339.138C390.284,339.138 389.223,336.062 388.387,335.456C387.55,334.851 386.381,335.038 385.775,335.875C385.17,336.712 385.357,337.881 386.194,338.486Z" style="fill:rgb(48,115,186);fill-rule:nonzero;"/>
                <path d="M382.492,320.902C383.027,321.132 384.823,320.756 384.823,320.756C384.823,320.756 383.859,319.194 383.324,318.964C382.789,318.734 382.169,318.982 381.939,319.517C381.709,320.052 381.957,320.672 382.492,320.902Z" style="fill:rgb(48,115,186);fill-rule:nonzero;"/>
                <path d="M385.309,285.255C385.563,285.779 387.167,286.67 387.167,286.67C387.167,286.67 387.461,284.859 387.207,284.335C386.953,283.811 386.322,283.592 385.798,283.846C385.273,284.1 385.055,284.731 385.309,285.255Z" style="fill:rgb(48,115,186);fill-rule:nonzero;"/>
                <path d="M382.998,305.171C382.622,305.616 382.458,307.443 382.458,307.443C382.458,307.443 384.232,306.977 384.608,306.533C384.984,306.088 384.929,305.422 384.484,305.046C384.039,304.67 383.374,304.726 382.998,305.171Z" style="fill:rgb(48,115,186);fill-rule:nonzero;"/>
                <path d="M405.394,343.01L380.272,343.01C378.509,343.01 377.12,344.514 377.26,346.272L379.778,377.894C379.903,379.465 381.215,380.676 382.791,380.676L402.875,380.676C404.452,380.676 405.763,379.465 405.888,377.894L408.407,346.272C408.547,344.514 407.158,343.01 405.394,343.01Z" style="fill:white;fill-rule:nonzero;"/>
                <path d="M380.272,343.51C379.561,343.51 378.903,343.798 378.42,344.32C377.937,344.843 377.702,345.522 377.758,346.232L380.276,377.854C380.38,379.156 381.484,380.176 382.791,380.176L402.876,380.176C404.183,380.176 405.287,379.156 405.391,377.854L407.909,346.232C407.965,345.522 407.73,344.843 407.247,344.32C406.764,343.798 406.106,343.51 405.395,343.51L380.272,343.51ZM402.876,381.176L382.791,381.176C380.967,381.176 379.425,379.752 379.28,377.933L376.762,346.311C376.684,345.334 377.021,344.362 377.686,343.642C378.35,342.922 379.293,342.51 380.272,342.51L405.395,342.51C406.374,342.51 407.317,342.922 407.981,343.642C408.646,344.362 408.983,345.334 408.905,346.311L406.387,377.933C406.242,379.752 404.7,381.176 402.876,381.176Z" style="fill:rgb(48,115,186);fill-rule:nonzero;"/>
            </g>
        </g>
    </g>
</svg>
