<?xml version="1.0" encoding="UTF-8" standalone="no"?>
<!DOCTYPE svg PUBLIC "-//W3C//DTD SVG 1.1//EN" "http://www.w3.org/Graphics/SVG/1.1/DTD/svg11.dtd">
<svg width="100%" height="100%" viewBox="0 0 1076 802" version="1.1" xmlns="http://www.w3.org/2000/svg" xmlns:xlink="http://www.w3.org/1999/xlink" xml:space="preserve" xmlns:serif="http://www.serif.com/" style="fill-rule:evenodd;clip-rule:evenodd;stroke-linejoin:round;stroke-miterlimit:2;">
    <g transform="matrix(1,0,0,1,-3584.61,-96)">
        <g transform="matrix(1,0,0,1,3580,0)">
            <g transform="matrix(2.15078,0,0,2.15078,4.61066,95.1591)">
                <rect x="0" y="327.837" width="500" height="0.25" style="fill:rgb(229,229,228);fill-rule:nonzero;"/>
                <rect x="416.779" y="343.933" width="33.122" height="0.25" style="fill:rgb(229,229,228);fill-rule:nonzero;"/>
                <rect x="260.334" y="340.799" width="12.888" height="0.25" style="fill:rgb(229,229,228);fill-rule:nonzero;"/>
                <rect x="322.527" y="341.855" width="27.14" height="0.25" style="fill:rgb(229,229,228);fill-rule:nonzero;"/>
                <rect x="359.667" y="334.647" width="56.111" height="0.25" style="fill:rgb(229,229,228);fill-rule:nonzero;"/>
                <rect x="52.459" y="346.216" width="26.526" height="0.25" style="fill:rgb(229,229,228);fill-rule:nonzero;"/>
                <rect x="87.888" y="346.216" width="23.001" height="0.25" style="fill:rgb(229,229,228);fill-rule:nonzero;"/>
                <rect x="131" y="340.674" width="60.814" height="0.25" style="fill:rgb(229,229,228);fill-rule:nonzero;"/>
                <path d="M43.915,0.641C40.905,0.641 38.457,3.09 38.457,6.099L38.457,277.53C38.457,280.54 40.905,282.988 43.915,282.988L237.014,282.988C240.023,282.988 242.471,280.54 242.471,277.53L242.471,6.099C242.471,3.09 240.023,0.641 237.014,0.641L43.915,0.641ZM237.014,283.238L43.915,283.238C40.767,283.238 38.206,280.678 38.206,277.53L38.206,6.099C38.206,2.952 40.767,0.391 43.915,0.391L237.014,0.391C240.16,0.391 242.721,2.952 242.721,6.099L242.721,277.53C242.721,280.678 240.16,283.238 237.014,283.238Z" style="fill:rgb(229,229,228);fill-rule:nonzero;"/>
                <path d="M260.212,0.641C257.203,0.641 254.755,3.09 254.755,6.099L254.755,277.53C254.755,280.54 257.203,282.988 260.212,282.988L453.31,282.988C456.32,282.988 458.769,280.54 458.769,277.53L458.769,6.099C458.769,3.09 456.32,0.641 453.31,0.641L260.212,0.641ZM453.31,283.238L260.212,283.238C257.065,283.238 254.505,280.678 254.505,277.53L254.505,6.099C254.505,2.952 257.065,0.391 260.212,0.391L453.31,0.391C456.458,0.391 459.019,2.952 459.019,6.099L459.019,277.53C459.019,280.678 456.458,283.238 453.31,283.238Z" style="fill:rgb(229,229,228);fill-rule:nonzero;"/>
                <path d="M264.905,241.83C262.902,236.08 247.109,243.899 240.7,253.428C236.431,259.773 233.824,266.547 232.606,275.646C232.752,265.264 232.918,254.109 233.08,243.582C234.377,240.957 237.336,234.905 239.465,230.11C246.567,214.11 263.457,208.152 269.292,198.05C276.937,184.813 276.893,164.958 270.385,157.793C264.729,151.566 245.999,193.668 243.89,198.371C236.634,214.55 234.524,226.556 233.164,238.188C233.319,228.301 233.467,219.223 233.589,212.218C233.985,189.372 234.481,182.023 234.707,179.762C235.49,178.658 236.413,177.371 236.949,176.68C241.482,170.845 251.538,163.899 256.564,155.416C263.903,143.03 262.717,128.206 257.57,122.687C252.188,116.916 242.673,130.556 237.622,144.071C232.571,157.587 234.729,170.523 233.312,181.748C233.016,183.949 232.711,192.311 232.426,203.91C230.893,191.43 227.841,183.069 222.184,175.278C215.226,165.695 209.22,154.026 203.487,155.534C197.754,157.042 200.84,172.482 205.375,183.322C209.415,192.976 229.34,202.604 232.276,210.365C231.93,226.087 231.621,246.005 231.402,264.55C229.831,254.971 230.911,254.167 224.474,239.502C220.647,230.783 204.958,220.031 203.087,226.022C201.251,231.9 204.06,243.334 209.983,251.263C214.761,257.661 225.362,257.653 227.815,261.622C228.387,262.548 230.279,266.098 231.36,268.139C231.104,290.779 230.99,310.764 231.116,317.578L232.145,317.647C232.096,315.888 232.22,304.371 232.422,289.13C234.996,281.019 252.326,276.286 257.678,267.852C263.282,259.027 267.308,248.727 264.905,241.83Z" style="fill:rgb(224,224,223);fill-rule:nonzero;"/>
                <path d="M248.61,327.837L215.347,327.837C213.529,327.837 211.963,326.557 211.602,324.775L209.241,313.134L254.715,313.134L252.354,324.775C251.993,326.557 250.427,327.837 248.61,327.837Z" style="fill:rgb(234,235,234);fill-rule:nonzero;"/>
                <path d="M255.667,317.647L208.29,317.647C207.155,317.647 206.2,316.794 206.073,315.666L205.105,307.06C204.956,305.738 205.99,304.58 207.321,304.58L256.635,304.58C257.966,304.58 259.001,305.738 258.851,307.06L257.883,315.666C257.756,316.794 256.802,317.647 255.667,317.647Z" style="fill:rgb(234,235,234);fill-rule:nonzero;"/>
                <rect x="400.763" y="187.761" width="31.85" height="135.909" style="fill:rgb(234,235,234);fill-rule:nonzero;"/>
                <rect x="265.453" y="323.67" width="165.015" height="4.167" style="fill:rgb(234,235,234);fill-rule:nonzero;"/>
                <rect x="263.308" y="187.761" width="137.455" height="135.909" style="fill:rgb(240,240,240);fill-rule:nonzero;"/>
                <rect x="275.831" y="241.327" width="112.409" height="28.778" style="fill:rgb(234,235,234);fill-rule:nonzero;"/>
                <rect x="275.831" y="278.367" width="112.409" height="28.778" style="fill:rgb(234,235,234);fill-rule:nonzero;"/>
                <path d="M319.416,246.292L344.655,246.292C346.363,246.292 347.761,244.894 347.761,243.186C347.761,241.477 346.363,240.079 344.655,240.079L319.416,240.079C317.708,240.079 316.31,241.477 316.31,243.186C316.31,244.894 317.708,246.292 319.416,246.292Z" style="fill:rgb(240,240,240);fill-rule:nonzero;"/>
                <rect x="275.831" y="204.286" width="112.409" height="28.778" style="fill:rgb(234,235,234);fill-rule:nonzero;"/>
                <path d="M319.416,209.251L344.655,209.251C346.363,209.251 347.761,207.854 347.761,206.145C347.761,204.437 346.363,203.039 344.655,203.039L319.416,203.039C317.708,203.039 316.31,204.437 316.31,206.145C316.31,207.854 317.708,209.251 319.416,209.251Z" style="fill:rgb(240,240,240);fill-rule:nonzero;"/>
                <path d="M319.416,283.332L344.655,283.332C346.363,283.332 347.761,281.934 347.761,280.226C347.761,278.518 346.363,277.12 344.655,277.12L319.416,277.12C317.708,277.12 316.31,278.518 316.31,280.226C316.31,281.934 317.708,283.332 319.416,283.332Z" style="fill:rgb(240,240,240);fill-rule:nonzero;"/>
                <rect x="260.482" y="183.884" width="140.281" height="3.877" style="fill:rgb(234,235,234);fill-rule:nonzero;"/>
                <rect x="400.763" y="183.884" width="34.884" height="3.877" style="fill:rgb(224,224,223);fill-rule:nonzero;"/>
                <rect x="147.419" y="124.311" width="31.467" height="203.526" style="fill:rgb(215,217,217);fill-rule:nonzero;"/>
                <path d="M67.211,327.837L172.582,327.837L183.651,77.324L78.28,77.324L67.211,327.837Z" style="fill:rgb(224,224,223);fill-rule:nonzero;"/>
                <path d="M51.839,327.837L168.395,327.837L179.464,77.324L62.908,77.324L51.839,327.837Z" style="fill:rgb(234,235,234);fill-rule:nonzero;"/>
                <path d="M156.986,315.556L166.31,89.606L74.317,89.606L64.993,315.556L156.986,315.556Z" style="fill:white;fill-rule:nonzero;"/>
                <path d="M117.459,315.556L148.728,89.606L138.917,89.606L107.649,315.556L117.459,315.556Z" style="fill:rgb(249,249,249);fill-rule:nonzero;"/>
                <path d="M103.491,315.556L134.76,89.606L118.032,89.606L86.763,315.556L103.491,315.556Z" style="fill:rgb(249,249,249);fill-rule:nonzero;"/>
                <rect x="293.464" y="26.26" width="127.531" height="119.296" style="fill:rgb(224,224,223);fill-rule:nonzero;"/>
                <rect x="289.506" y="26.26" width="129.64" height="119.296" style="fill:rgb(240,240,240);fill-rule:nonzero;"/>
                <rect x="293.464" y="145.556" width="127.531" height="4.882" style="fill:rgb(224,224,223);fill-rule:nonzero;"/>
                <rect x="285.954" y="145.556" width="120.979" height="4.882" style="fill:rgb(240,240,240);fill-rule:nonzero;"/>
                <rect x="295.047" y="33.652" width="118.558" height="104.512" style="fill:rgb(249,249,249);fill-rule:nonzero;"/>
                <rect x="295.047" y="33.652" width="0.79" height="104.512" style="fill:rgb(224,224,223);fill-rule:nonzero;"/>
                <path d="M393.944,138.164L373.445,33.652L346.572,33.652L367.072,138.164L393.944,138.164Z" style="fill:white;fill-rule:nonzero;"/>
                <path d="M362.723,138.164L342.224,33.652L330.088,33.652L350.587,138.164L362.723,138.164Z" style="fill:white;fill-rule:nonzero;"/>
                <path d="M409.642,132.493L409.642,22.155C409.642,21.82 409.368,21.545 409.032,21.545L408.984,21.545C408.648,21.545 408.374,21.82 408.374,22.155L408.374,132.493C408.374,132.829 408.648,133.103 408.984,133.103L409.032,133.103C409.368,133.103 409.642,132.829 409.642,132.493Z" style="fill:rgb(229,229,228);fill-rule:nonzero;"/>
                <path d="M423.147,39.804L420.995,39.804L420.995,26.26L409.642,26.26L409.642,22.155C409.642,21.82 409.368,21.545 409.032,21.545L423.147,21.545L423.147,39.804Z" style="fill:rgb(237,238,237);fill-rule:nonzero;"/>
                <path d="M420.995,39.804L419.146,39.804L419.146,26.26L409.642,26.26L420.995,26.26L420.995,39.804Z" style="fill:rgb(224,224,223);fill-rule:nonzero;"/>
                <path d="M419.146,39.804L413.605,39.804L413.605,33.652L409.642,33.652L409.642,26.26L419.146,26.26L419.146,39.804Z" style="fill:rgb(231,232,231);fill-rule:nonzero;"/>
                <rect x="409.642" y="33.652" width="3.963" height="6.152" style="fill:rgb(234,235,234);fill-rule:nonzero;"/>
                <path d="M289.506,39.804L286.599,39.804L286.599,21.545L408.984,21.545C408.648,21.545 408.374,21.82 408.374,22.155L408.374,26.26L289.506,26.26L289.506,39.804Z" style="fill:rgb(237,238,237);fill-rule:nonzero;"/>
                <path d="M295.047,39.804L289.506,39.804L289.506,26.26L408.374,26.26L408.374,33.652L295.047,33.652L295.047,39.804Z" style="fill:rgb(231,232,231);fill-rule:nonzero;"/>
                <path d="M408.374,39.804L374.651,39.804L373.445,33.652L346.572,33.652L347.779,39.804L343.43,39.804L342.224,33.652L330.088,33.652L331.294,39.804L295.837,39.804L295.837,33.652L295.047,33.652L295.047,39.804L295.047,33.652L408.374,33.652L408.374,39.804Z" style="fill:rgb(234,235,234);fill-rule:nonzero;"/>
                <rect x="295.047" y="33.652" width="0.79" height="6.152" style="fill:rgb(224,224,223);fill-rule:nonzero;"/>
                <path d="M374.651,39.804L347.779,39.804L346.572,33.652L373.445,33.652L374.651,39.804Z" style="fill:rgb(237,237,236);fill-rule:nonzero;"/>
                <path d="M343.43,39.804L331.294,39.804L330.088,33.652L342.224,33.652L343.43,39.804Z" style="fill:rgb(237,237,236);fill-rule:nonzero;"/>
                <path d="M409.642,39.804L408.374,39.804L408.374,22.155C408.374,21.82 408.648,21.545 408.984,21.545L409.032,21.545C409.368,21.545 409.642,21.82 409.642,22.155L409.642,39.804Z" style="fill:rgb(225,226,226);fill-rule:nonzero;"/>
                <rect x="286.599" y="21.545" width="136.548" height="2.269" style="fill:rgb(215,217,217);fill-rule:nonzero;"/>
                <path d="M286.824,22.541L422.922,22.541C423.401,22.541 423.792,22.149 423.792,21.67L423.792,21.42C423.792,20.942 423.401,20.55 422.922,20.55L286.824,20.55C286.346,20.55 285.954,20.942 285.954,21.42L285.954,21.67C285.954,22.149 286.346,22.541 286.824,22.541Z" style="fill:rgb(229,229,228);fill-rule:nonzero;"/>
                <path d="M286.43,40.28L423.317,40.28C423.578,40.28 423.792,40.066 423.792,39.804C423.792,39.542 423.578,39.328 423.317,39.328L286.43,39.328C286.168,39.328 285.954,39.542 285.954,39.804C285.954,40.066 286.168,40.28 286.43,40.28Z" style="fill:white;fill-rule:nonzero;"/>
                <path d="M443.889,361.676C443.889,367.93 357.082,373 250,373C142.918,373 56.111,367.93 56.111,361.676C56.111,355.423 142.918,350.353 250,350.353C357.082,350.353 443.889,355.423 443.889,361.676Z" style="fill:rgb(240,240,240);fill-rule:nonzero;"/>
                <path d="M65.636,233.032L63.835,217.636L64.844,217.518L66.645,232.914L65.636,233.032Z" style="fill:rgb(48,115,186);fill-rule:nonzero;"/>
                <path d="M67.213,246.519L66.305,238.755L67.314,238.636L68.222,246.401L67.213,246.519Z" style="fill:rgb(48,115,186);fill-rule:nonzero;"/>
                <path d="M134.587,186.127L133.388,182.763C131.687,177.993 126.918,175.03 121.889,175.619L74.097,181.208C68.136,181.906 63.868,187.304 64.565,193.265L78.168,309.569C78.646,313.658 82.348,316.584 86.437,316.106L257.426,296.107C261.514,295.629 264.441,291.927 263.963,287.839L252.204,187.299C251.726,183.21 248.024,180.284 243.935,180.762L144.644,192.375C140.246,192.889 136.075,190.298 134.587,186.127Z" style="fill:rgb(48,115,186);fill-rule:nonzero;"/>
                <path d="M154.199,209.981L100.171,220.748L85.337,146.315L139.364,135.548L154.199,209.981Z" style="fill:rgb(48,115,186);fill-rule:nonzero;"/>
                <path d="M92.717,183.348L85.337,146.315L110.342,141.332L111.233,151.553L97.703,154.25C96.089,154.571 95.042,156.14 95.363,157.754C95.646,159.172 96.89,160.152 98.282,160.152C98.475,160.152 98.671,160.133 98.868,160.094L111.754,157.526L112.329,164.131L100.156,166.557C98.542,166.879 97.495,168.448 97.816,170.062C98.099,171.479 99.343,172.46 100.736,172.46C100.929,172.46 101.125,172.441 101.321,172.402L112.85,170.104L113.426,176.709L102.609,178.865C100.995,179.187 99.947,180.756 100.269,182.37C100.276,182.401 100.282,182.432 100.29,182.462L92.717,183.348Z" style="fill:rgb(179,207,236);fill-rule:nonzero;"/>
                <path d="M98.282,160.152C96.89,160.152 95.646,159.172 95.363,157.754C95.042,156.14 96.089,154.571 97.703,154.25L111.233,151.553L111.754,157.526L98.868,160.094C98.671,160.133 98.475,160.152 98.282,160.152Z" style="fill:rgb(122,168,218);fill-rule:nonzero;"/>
                <path d="M100.736,172.46C99.343,172.46 98.099,171.479 97.816,170.062C97.495,168.448 98.542,166.879 100.156,166.557L112.329,164.131L112.85,170.104L101.321,172.402C101.125,172.441 100.929,172.46 100.736,172.46Z" style="fill:rgb(122,168,218);fill-rule:nonzero;"/>
                <path d="M100.29,182.462C100.282,182.432 100.276,182.401 100.269,182.37C99.947,180.756 100.995,179.187 102.609,178.865L113.426,176.709L113.789,180.884L100.29,182.462Z" style="fill:rgb(122,168,218);fill-rule:nonzero;"/>
                <path d="M226.637,196.389L172.056,203.859L161.765,128.663L216.346,121.193L226.637,196.389Z" style="fill:rgb(48,115,186);fill-rule:nonzero;"/>
                <path d="M170.576,193.044L169.396,184.423L164.843,132.18L162.277,132.403L161.765,128.663L216.346,121.193L217.439,129.181L176.704,131.148L176.98,136.875L173.627,137.333C171.997,137.557 170.856,139.059 171.079,140.69C171.284,142.183 172.561,143.266 174.028,143.266C174.162,143.266 174.299,143.256 174.436,143.238L177.269,142.85L177.588,149.458L175.329,149.767C173.699,149.99 172.558,151.493 172.781,153.123C172.985,154.617 174.263,155.699 175.729,155.699C175.864,155.699 176,155.69 176.137,155.671L177.876,155.433L178.195,162.041L177.031,162.201C175.401,162.424 174.26,163.927 174.483,165.557C174.687,167.05 175.965,168.133 177.431,168.133C177.566,168.133 177.702,168.124 177.839,168.105L178.484,168.017L178.803,174.625L178.733,174.635C177.102,174.858 175.961,176.36 176.184,177.991C176.387,179.47 177.642,180.546 179.09,180.566L179.42,187.399C178.36,187.973 177.713,189.16 177.886,190.424C177.976,191.079 178.271,191.654 178.699,192.094L170.576,193.044Z" style="fill:rgb(179,207,236);fill-rule:nonzero;"/>
                <path d="M174.028,143.266C172.561,143.266 171.284,142.183 171.079,140.69C170.856,139.059 171.997,137.557 173.627,137.333L176.98,136.875L177.269,142.85L174.436,143.238C174.299,143.256 174.162,143.266 174.028,143.266Z" style="fill:rgb(122,168,218);fill-rule:nonzero;"/>
                <path d="M175.729,155.699C174.263,155.699 172.985,154.617 172.781,153.123C172.558,151.493 173.699,149.99 175.329,149.767L177.588,149.458L177.876,155.433L176.137,155.671C176,155.69 175.864,155.699 175.729,155.699Z" style="fill:rgb(122,168,218);fill-rule:nonzero;"/>
                <path d="M177.431,168.133C175.965,168.133 174.687,167.05 174.483,165.557C174.26,163.927 175.401,162.424 177.031,162.201L178.195,162.041L178.484,168.017L177.839,168.105C177.702,168.124 177.566,168.133 177.431,168.133Z" style="fill:rgb(122,168,218);fill-rule:nonzero;"/>
                <path d="M179.09,180.566C177.642,180.546 176.387,179.47 176.184,177.991C175.961,176.36 177.102,174.858 178.733,174.635L178.803,174.625L179.09,180.566Z" style="fill:rgb(122,168,218);fill-rule:nonzero;"/>
                <path d="M178.699,192.094C178.271,191.654 177.976,191.079 177.886,190.424C177.713,189.16 178.36,187.973 179.42,187.399L179.641,191.984L178.699,192.094Z" style="fill:rgb(122,168,218);fill-rule:nonzero;"/>
                <path d="M171.433,207.79L116.551,212.573L109.962,136.963L164.843,132.18L171.433,207.79Z" style="fill:rgb(48,115,186);fill-rule:nonzero;"/>
                <path d="M158.093,194.439C154.171,194.439 150.841,192.008 149.849,188.28L149.646,187.515L158.978,186.702C160.617,186.559 161.83,185.114 161.687,183.475C161.552,181.923 160.251,180.754 158.722,180.754C158.636,180.754 158.548,180.757 158.46,180.765L147.394,181.729C145.609,179.365 142.751,177.946 139.547,177.946C139.123,177.946 138.693,177.971 138.258,178.022L113.789,180.884L112.85,170.104L112.329,164.131L111.754,157.526L111.233,151.553L109.962,136.963L164.843,132.18L170.152,193.094L159.22,194.373C158.84,194.417 158.464,194.439 158.093,194.439ZM157.633,168.251C157.546,168.251 157.459,168.255 157.371,168.263L123.564,171.209C121.924,171.352 120.711,172.797 120.854,174.436C120.989,175.988 122.29,177.158 123.819,177.158C123.906,177.158 123.993,177.154 124.081,177.146L157.888,174.2C159.527,174.057 160.741,172.612 160.598,170.972C160.463,169.421 159.161,168.251 157.633,168.251ZM156.543,155.749C156.457,155.749 156.369,155.753 156.281,155.761L122.474,158.707C120.835,158.85 119.621,160.295 119.764,161.934C119.899,163.486 121.201,164.655 122.729,164.655C122.816,164.655 122.904,164.652 122.991,164.644L156.798,161.697C158.438,161.555 159.651,160.11 159.508,158.47C159.373,156.919 158.072,155.749 156.543,155.749ZM155.453,143.247C155.367,143.247 155.279,143.251 155.191,143.258L121.384,146.205C119.745,146.348 118.532,147.792 118.675,149.432C118.81,150.983 120.111,152.153 121.64,152.153C121.726,152.153 121.814,152.149 121.902,152.142L155.709,149.195C157.348,149.052 158.561,147.607 158.418,145.968C158.283,144.416 156.982,143.247 155.453,143.247Z" style="fill:rgb(202,221,242);fill-rule:nonzero;"/>
                <path d="M121.64,152.153C120.111,152.153 118.81,150.983 118.675,149.432C118.532,147.792 119.745,146.348 121.384,146.205L155.191,143.258C155.279,143.251 155.367,143.247 155.453,143.247C156.982,143.247 158.283,144.416 158.418,145.968C158.561,147.607 157.348,149.052 155.709,149.195L121.902,152.142C121.814,152.149 121.726,152.153 121.64,152.153Z" style="fill:rgb(133,177,223);fill-rule:nonzero;"/>
                <path d="M122.729,164.655C121.201,164.655 119.899,163.486 119.764,161.934C119.621,160.295 120.835,158.85 122.474,158.707L156.281,155.761C156.369,155.753 156.457,155.749 156.543,155.749C158.072,155.749 159.373,156.919 159.508,158.47C159.651,160.11 158.438,161.555 156.798,161.697L122.991,164.644C122.904,164.652 122.816,164.655 122.729,164.655Z" style="fill:rgb(133,177,223);fill-rule:nonzero;"/>
                <path d="M123.819,177.158C122.29,177.158 120.989,175.988 120.854,174.436C120.711,172.797 121.924,171.352 123.564,171.209L157.371,168.263C157.459,168.255 157.546,168.251 157.633,168.251C159.161,168.251 160.463,169.421 160.598,170.972C160.741,172.612 159.527,174.057 157.888,174.2L124.081,177.146C123.993,177.154 123.906,177.158 123.819,177.158Z" style="fill:rgb(133,177,223);fill-rule:nonzero;"/>
                <path d="M149.646,187.515L148.973,184.988C148.649,183.771 148.107,182.675 147.394,181.729L158.46,180.765C158.548,180.757 158.636,180.754 158.722,180.754C160.251,180.754 161.552,181.923 161.687,183.475C161.83,185.114 160.617,186.559 158.978,186.702L149.646,187.515Z" style="fill:rgb(133,177,223);fill-rule:nonzero;"/>
                <path d="M235.389,204.3L180.364,206.956L176.704,131.148L231.73,128.491L235.389,204.3Z" style="fill:rgb(48,115,186);fill-rule:nonzero;"/>
                <path d="M179.641,191.984L178.484,168.017L178.195,162.041L177.876,155.433L177.588,149.458L177.269,142.85L176.98,136.875L176.704,131.148L231.73,128.491L234.485,185.57L179.641,191.984ZM223.618,176.79C223.57,176.79 223.521,176.791 223.472,176.793L189.576,178.429C187.932,178.509 186.664,179.906 186.744,181.549C186.821,183.144 188.138,184.385 189.717,184.385C189.766,184.385 189.815,184.384 189.864,184.382L223.759,182.746C225.403,182.666 226.671,181.269 226.592,179.626C226.515,178.031 225.198,176.79 223.618,176.79ZM198.457,165.44C198.408,165.44 198.36,165.441 198.311,165.443L188.971,165.894C187.327,165.974 186.059,167.371 186.138,169.014C186.215,170.609 187.533,171.85 189.112,171.85C189.161,171.85 189.209,171.849 189.258,171.847L198.598,171.396C200.242,171.317 201.51,169.92 201.431,168.276C201.354,166.681 200.037,165.44 198.457,165.44ZM216.568,164.566C216.519,164.566 216.47,164.567 216.422,164.569L207.082,165.02C205.438,165.099 204.17,166.496 204.249,168.14C204.326,169.735 205.643,170.976 207.223,170.976C207.271,170.976 207.32,170.975 207.369,170.973L216.709,170.522C218.353,170.442 219.621,169.045 219.541,167.402C219.464,165.807 218.147,164.566 216.568,164.566ZM222.408,151.719C222.359,151.719 222.31,151.721 222.262,151.723L188.366,153.359C186.722,153.439 185.454,154.836 185.533,156.479C185.61,158.074 186.927,159.315 188.507,159.315C188.556,159.315 188.604,159.314 188.653,159.312L222.549,157.675C224.193,157.596 225.461,156.199 225.381,154.556C225.304,152.961 223.987,151.719 222.408,151.719ZM221.802,139.184C221.754,139.184 221.705,139.186 221.656,139.188L187.761,140.824C186.117,140.904 184.849,142.301 184.928,143.944C185.005,145.539 186.322,146.78 187.902,146.78C187.95,146.78 187.999,146.779 188.048,146.777L221.944,145.14C223.587,145.061 224.856,143.664 224.776,142.021C224.699,140.426 223.382,139.184 221.802,139.184Z" style="fill:rgb(202,221,242);fill-rule:nonzero;"/>
                <path d="M187.902,146.78C186.322,146.78 185.005,145.539 184.928,143.944C184.849,142.301 186.117,140.904 187.761,140.824L221.656,139.188C221.705,139.186 221.754,139.184 221.802,139.184C223.382,139.184 224.699,140.426 224.776,142.021C224.856,143.664 223.587,145.061 221.944,145.14L188.048,146.777C187.999,146.779 187.95,146.78 187.902,146.78Z" style="fill:rgb(133,177,223);fill-rule:nonzero;"/>
                <path d="M188.507,159.315C186.927,159.315 185.61,158.074 185.533,156.479C185.454,154.836 186.722,153.439 188.366,153.359L222.262,151.723C222.31,151.721 222.359,151.719 222.408,151.719C223.987,151.719 225.304,152.961 225.381,154.556C225.461,156.199 224.193,157.596 222.549,157.675L188.653,159.312C188.604,159.314 188.556,159.315 188.507,159.315Z" style="fill:rgb(133,177,223);fill-rule:nonzero;"/>
                <path d="M189.112,171.85C187.533,171.85 186.215,170.609 186.138,169.014C186.059,167.371 187.327,165.974 188.971,165.894L198.311,165.443C198.36,165.441 198.408,165.44 198.457,165.44C200.037,165.44 201.354,166.681 201.431,168.276C201.51,169.92 200.242,171.317 198.598,171.396L189.258,171.847C189.209,171.849 189.161,171.85 189.112,171.85Z" style="fill:rgb(133,177,223);fill-rule:nonzero;"/>
                <path d="M207.223,170.976C205.643,170.976 204.326,169.735 204.249,168.14C204.17,166.496 205.438,165.099 207.082,165.02L216.422,164.569C216.47,164.567 216.519,164.566 216.568,164.566C218.147,164.566 219.464,165.807 219.541,167.402C219.621,169.045 218.353,170.442 216.709,170.522L207.369,170.973C207.32,170.975 207.271,170.976 207.223,170.976Z" style="fill:rgb(133,177,223);fill-rule:nonzero;"/>
                <path d="M189.717,184.385C188.138,184.385 186.821,183.144 186.744,181.549C186.664,179.906 187.932,178.509 189.576,178.429L223.472,176.793C223.521,176.791 223.57,176.79 223.618,176.79C225.198,176.79 226.515,178.031 226.592,179.626C226.671,181.269 225.403,182.666 223.759,182.746L189.864,184.382C189.815,184.384 189.766,184.385 189.717,184.385Z" style="fill:rgb(133,177,223);fill-rule:nonzero;"/>
                <path d="M149.849,188.28L148.973,184.988C147.731,180.323 143.288,177.433 138.258,178.022L90.467,183.611C84.506,184.308 79.786,189.604 79.924,195.44L82.636,309.284C82.732,313.286 86.123,316.143 90.211,315.665L261.2,295.666C265.289,295.188 268.526,291.556 268.431,287.554L266.087,189.14C265.991,185.138 262.6,182.282 258.51,182.76L159.22,194.373C154.822,194.887 150.935,192.36 149.849,188.28Z" style="fill:rgb(48,115,186);fill-rule:nonzero;"/>
                <path d="M89.323,315.717C85.643,315.717 82.724,312.992 82.636,309.284L79.924,195.44C79.923,195.36 79.922,195.28 79.921,195.201C79.915,189.46 84.587,184.299 90.467,183.611L138.258,178.022C138.693,177.971 139.123,177.946 139.547,177.946C144.031,177.946 147.839,180.726 148.973,184.988L149.849,188.28C150.841,192.008 154.171,194.439 158.093,194.439C158.464,194.439 158.84,194.417 159.22,194.373L258.51,182.76C258.812,182.725 259.108,182.707 259.4,182.707C263.08,182.707 265.998,185.432 266.087,189.14L268.431,287.554C268.432,287.609 268.433,287.663 268.433,287.718C268.436,290.937 266.294,293.891 263.308,295.119C262.643,295.392 261.936,295.58 261.2,295.666L232.295,299.047L231.093,299.187L117.892,312.427L107.92,313.593L103.694,314.088L91.143,315.556L90.211,315.665C89.911,315.7 89.614,315.717 89.323,315.717Z" style="fill:rgb(13,96,174);fill-rule:nonzero;"/>
                <path d="M317.028,133.548C316.289,137.264 315.497,140.917 314.611,144.571C313.741,148.223 312.85,151.869 311.88,155.496L310.403,160.932L310.209,161.626C310.119,161.925 310.021,162.228 309.904,162.537C309.669,163.157 309.371,163.806 308.925,164.468C308.489,165.124 307.873,165.816 307.059,166.366C306.249,166.918 305.241,167.27 304.328,167.351C302.465,167.497 301.129,166.937 300.04,166.404C298.955,165.83 298.07,165.171 297.261,164.481C295.652,163.075 294.384,161.595 293.191,159.893L295.972,157.392C297.328,158.423 298.836,159.476 300.268,160.245C300.982,160.636 301.699,160.961 302.327,161.137C302.942,161.337 303.477,161.31 303.483,161.208L303.333,161.176C303.275,161.175 303.287,161.151 303.334,161.009C303.378,160.874 303.451,160.66 303.515,160.394L303.745,159.293L304.912,153.83L307.261,142.91C308.023,139.271 308.839,135.623 309.633,132.021L317.028,133.548Z" style="fill:rgb(249,182,182);fill-rule:nonzero;"/>
                <path d="M313.685,122.121C305.154,128.652 305.497,140.958 305.497,140.958L320.755,144.605C320.755,144.605 325.436,132.232 323.537,127.701C321.555,122.974 318.486,118.445 313.685,122.121Z" style="fill:rgb(12,43,52);fill-rule:nonzero;"/>
                <path d="M296.756,157.588L291.146,151.979L288.12,160.755C288.12,160.755 292.856,163.312 297.389,160.901L296.756,157.588Z" style="fill:rgb(249,182,182);fill-rule:nonzero;"/>
                <path d="M283.383,151.113L282.352,158.048L288.12,160.755L291.146,151.979L283.383,151.113Z" style="fill:rgb(249,182,182);fill-rule:nonzero;"/>
                <path d="M363.122,354.297L354.541,355.135L345.612,334.711L354.193,333.873L363.122,354.297Z" style="fill:rgb(249,182,182);fill-rule:nonzero;"/>
                <path d="M418.399,324.102L411.954,330.154L398.041,314.862L404.485,308.811L418.399,324.102Z" style="fill:rgb(249,182,182);fill-rule:nonzero;"/>
                <path d="M408.979,327.251L413.822,318.525C413.998,318.208 414.362,318.072 414.696,318.2L422.152,321.037C422.925,321.332 423.261,322.324 422.842,323.049C421.101,326.062 420.109,327.429 417.979,331.267C416.669,333.627 414.117,339.042 412.308,342.302C410.538,345.491 407.178,343.947 407.64,342.427C409.709,335.614 409.32,331.821 408.736,328.814C408.63,328.272 408.721,327.716 408.979,327.251Z" style="fill:rgb(12,43,52);fill-rule:nonzero;"/>
                <path d="M353.401,352.484L363.94,352.484C364.323,352.484 364.669,352.75 364.772,353.125L367.064,361.462C367.301,362.327 366.665,363.122 365.778,363.13C362.064,363.164 360.304,363.148 355.669,363.148L341.505,363.148C337.654,363.148 336.849,359.254 338.442,358.902C345.586,357.321 349.705,355.141 351.909,353.061C352.307,352.686 352.84,352.484 353.401,352.484Z" style="fill:rgb(12,43,52);fill-rule:nonzero;"/>
                <path d="M359.168,345.245L359.164,345.245L357.703,341.901L357.707,341.901L359.168,345.245Z" style="fill:rgb(195,197,197);fill-rule:nonzero;"/>
                <path d="M359.164,345.245L350.217,345.245L348.855,342.128L357.703,341.901L359.164,345.245Z" style="fill:rgb(216,151,147);fill-rule:nonzero;"/>
                <path d="M411.661,316.697L409.459,314.277L409.463,314.274L411.666,316.693L411.661,316.697Z" style="fill:rgb(182,185,186);fill-rule:nonzero;"/>
                <path d="M405.218,322.746L403.292,320.631L409.459,314.277L411.661,316.697L405.218,322.746Z" style="fill:rgb(216,151,147);fill-rule:nonzero;"/>
                <path d="M316.261,120.856C316.261,120.856 312.404,122.552 325.341,173.752C339.604,172.519 354.345,171.244 361.285,170.643C359.416,156.067 358.619,147.047 363.014,116.42C363.014,116.42 355.342,115.434 347.577,115.73C341.503,115.961 336.531,116.197 331.256,117.142C324.301,118.388 316.261,120.856 316.261,120.856Z" style="fill:rgb(12,43,52);fill-rule:nonzero;"/>
                <path d="M347.577,115.478C347.577,115.478 349.616,115.515 352.025,115.515C353.471,117.749 348.767,127.512 340.986,133.908C339.111,128.079 334.738,124.852 334.738,124.852L347.577,115.478Z" style="fill:white;fill-rule:nonzero;"/>
                <path d="M331.261,117.012C331.261,117.012 330.352,117.141 328.176,117.637C326.731,119.872 324.279,129.396 328.545,134.259C330.21,128.257 334.738,124.852 334.738,124.852L331.261,117.012Z" style="fill:white;fill-rule:nonzero;"/>
                <path d="M344.371,97.492C343.795,102.832 343.6,112.543 347.577,115.73C347.577,115.73 343.329,120.065 334.738,124.852C328.488,120.533 331.256,117.142 331.256,117.142C336.991,115.237 336.464,110.905 335.091,106.913L344.371,97.492Z" style="fill:rgb(249,182,182);fill-rule:nonzero;"/>
                <path d="M334.593,124.878C334.593,124.878 339.864,119.14 342.584,120.243C345.305,121.345 343.204,123.311 342.962,125.157C342.719,127.003 344.019,131.93 340.37,130.65C336.721,129.37 334.593,124.878 334.593,124.878Z" style="fill:rgb(48,115,186);fill-rule:nonzero;"/>
                <path d="M334.379,124.762C334.379,124.762 331.893,120.359 329.203,120.947C326.514,121.534 328.115,123.081 328.353,124.735C328.658,126.863 326.417,130.935 329.661,129.786C332.817,128.667 334.379,124.762 334.379,124.762Z" style="fill:rgb(48,115,186);fill-rule:nonzero;"/>
                <path d="M333.515,126.393C333.514,126.393 333.514,126.392 333.513,126.391C333.602,126.251 333.685,126.115 333.76,125.985C333.685,126.115 333.603,126.252 333.515,126.393Z" style="fill:rgb(2,30,39);fill-rule:nonzero;"/>
                <path d="M333.513,126.391C333.216,125.883 333.038,125.036 333.012,123.808C333.006,123.461 333.03,123.197 333.106,122.996C333.893,123.903 334.376,124.765 334.376,124.765C334.376,124.765 334.167,125.279 333.76,125.985C333.685,126.115 333.602,126.251 333.513,126.391Z" style="fill:rgb(31,104,179);fill-rule:nonzero;"/>
                <path d="M334.595,124.876L334.595,124.875C334.595,124.875 334.619,124.849 334.665,124.801C334.627,124.842 334.603,124.867 334.595,124.876Z" style="fill:rgb(195,197,197);fill-rule:nonzero;"/>
                <path d="M334.665,124.801C334.88,124.572 335.58,123.843 336.51,123.023C336.51,123.024 336.511,123.025 336.511,123.026C335.584,123.841 334.884,124.569 334.665,124.801Z" style="fill:rgb(216,151,147);fill-rule:nonzero;"/>
                <path d="M335.624,126.608C334.961,125.635 334.603,124.892 334.595,124.876C334.603,124.867 334.627,124.842 334.665,124.801C334.884,124.569 335.584,123.841 336.511,123.026C336.644,123.307 336.69,123.715 336.599,124.336C336.436,125.538 336.07,126.23 335.624,126.608Z" style="fill:rgb(31,104,179);fill-rule:nonzero;"/>
                <path d="M334.526,126.683C333.782,126.686 333.322,125.869 333.268,123.936C333.213,122.004 334.699,123.077 334.699,123.077C334.699,123.077 336.675,122.044 336.34,124.394C336.08,126.22 335.296,126.68 334.526,126.683Z" style="fill:rgb(48,115,186);fill-rule:nonzero;"/>
                <path d="M335.849,109.761C335.838,109.691 335.826,109.62 335.813,109.549C335.826,109.619 335.839,109.691 335.851,109.761L335.849,109.761ZM335.095,106.908L336.05,105.939L335.095,106.908Z" style="fill:rgb(192,193,193);fill-rule:nonzero;"/>
                <path d="M335.851,109.761C335.839,109.691 335.826,109.619 335.813,109.549C335.657,108.671 335.399,107.782 335.095,106.908L336.05,105.939L340.588,101.335C340.825,101.863 341.309,103.407 341.291,104.586C341.256,106.948 338.06,109.243 335.851,109.761Z" style="fill:rgb(216,151,147);fill-rule:nonzero;"/>
                <path d="M335.882,79.451C335.882,79.451 329.901,87.763 328.912,91.493C324.831,93.866 324.007,82.159 326.171,74.937C332.875,79.114 335.882,79.451 335.882,79.451Z" style="fill:rgb(12,43,52);fill-rule:nonzero;"/>
                <path d="M349.069,89.148C346.841,97.678 346.08,101.336 340.848,104.91C332.978,110.287 322.988,105.685 322.622,96.662C322.292,88.539 325.991,75.954 335.118,74.18C344.11,72.431 351.296,80.618 349.069,89.148Z" style="fill:rgb(249,182,182);fill-rule:nonzero;"/>
                <path d="M353.706,85.744C353.706,85.744 349.42,92.687 348.844,95.707C345.733,97.824 344.419,88.564 345.733,82.702C347.163,77.53 353.706,85.744 353.706,85.744Z" style="fill:rgb(12,43,52);fill-rule:nonzero;"/>
                <path d="M351.997,80.907C350.762,81.846 349.445,78.375 350.684,75.718C348.311,75.865 345.46,74.458 346.068,72.172C341.403,73.736 339.67,68.986 340.208,65.699C340.858,61.726 344.343,60.849 346.389,61.898C346.43,60.112 350.908,56.375 352.626,59.297C355.817,58.171 360.956,58.518 360.854,62.436C362.962,62.503 369.186,64.889 366.892,70.487C369.638,70.65 371.126,74.143 369.598,76.779C373.118,78.842 371.813,82.427 370.473,83.681C371.74,86.321 367.886,90.246 365.844,89.775C364.282,92.171 361.89,93.968 360.325,91.926C357.287,94.14 353.884,91.333 354.654,89.17C351.213,88.603 347.738,82.925 351.997,80.907Z" style="fill:rgb(12,43,52);fill-rule:nonzero;"/>
                <path d="M357.081,72.513C359.321,76.251 359.135,80.481 356.665,81.961C354.196,83.441 350.378,81.61 348.138,77.871C345.898,74.133 346.084,69.903 348.553,68.423C351.023,66.943 354.841,68.774 357.081,72.513Z" style="fill:rgb(48,115,186);fill-rule:nonzero;"/>
                <path d="M336.283,78.406C336.146,79.479 333.196,79.201 332.346,77.313C331.131,78.59 328.261,79.254 327.279,77.862C325.622,80.978 322.296,80.162 321.424,78.665C320.553,77.168 319.993,74.408 321.718,73.863C320.713,72.997 321.017,68.949 323.639,69.457C324.74,67.3 327.755,64.849 329.953,66.755C331.147,65.713 335.93,63.675 337.894,67.492C339.492,66.172 342.317,67.068 342.996,69.093C346.112,68.278 347.459,70.639 347.446,71.915C349.659,72.52 349.805,76.34 348.415,77.156C348.938,79.085 348.661,81.154 346.629,80.983C346.238,83.578 342.759,83.981 341.937,82.565C339.724,84.049 335.11,81.529 336.283,78.406Z" style="fill:rgb(12,43,52);fill-rule:nonzero;"/>
                <path d="M331.021,71.061C333.554,67.557 342.777,66.104 350.767,71.353C357.968,76.084 357.501,87.065 351.777,86.481C346.053,85.897 340.388,79.18 340.388,79.18L331.021,71.061Z" style="fill:rgb(12,43,52);fill-rule:nonzero;"/>
                <path d="M349.773,96.848C348.934,98.472 347.424,99.557 345.985,99.99C343.822,100.641 342.695,98.717 343.259,96.652C343.767,94.793 345.504,92.214 347.693,92.467C349.85,92.716 350.732,94.992 349.773,96.848Z" style="fill:rgb(249,182,182);fill-rule:nonzero;"/>
                <path d="M325.341,173.752C325.341,173.752 313.18,227.549 321.298,265.477C326.735,290.878 346.344,342.193 346.344,342.193L361.675,341.799C361.675,341.799 346.832,287.948 343.763,266.77C338.513,230.544 351.662,171.476 351.662,171.476L325.341,173.752Z" style="fill:rgb(48,115,186);fill-rule:nonzero;"/>
                <path d="M342.644,240.011C335.018,226.359 335.341,209.413 337.031,197.048C338.645,205.726 340.779,215.927 343.457,226.178C343.079,230.774 342.794,235.42 342.644,240.011Z" style="fill:rgb(31,104,179);fill-rule:nonzero;"/>
                <path d="M344.183,342.987L363.122,342.504L362.026,336.685L342.703,337.601L344.183,342.987Z" style="fill:rgb(12,43,52);fill-rule:nonzero;"/>
                <path d="M333.2,173.179C333.2,173.179 340.334,230.232 355.799,261.379C368.29,286.538 401.622,322.351 401.622,322.351L410.144,313.572C410.144,313.572 387.63,274.65 378.347,257.938C355.583,216.96 374.187,185.689 361.285,170.643L333.2,173.179Z" style="fill:rgb(48,115,186);fill-rule:nonzero;"/>
                <path d="M400.759,323.526L411.757,312.805L408.108,307.841L396.445,319.482L400.759,323.526Z" style="fill:rgb(12,43,52);fill-rule:nonzero;"/>
                <path d="M361.641,168.487L363.54,171.565C363.687,171.803 363.414,172.083 362.998,172.119L325.303,175.38C324.979,175.408 324.697,175.272 324.658,175.07L324.056,171.881C324.014,171.66 324.279,171.447 324.633,171.416L361.032,168.268C361.3,168.245 361.546,168.334 361.641,168.487Z" style="fill:rgb(48,115,186);fill-rule:nonzero;"/>
                <path d="M336.207,174.436L336.581,170.383L361.032,168.268C361.06,168.266 361.088,168.265 361.116,168.265C361.35,168.265 361.556,168.35 361.641,168.487L363.54,171.565C363.567,171.609 363.58,171.656 363.58,171.701C363.58,171.9 363.336,172.09 362.998,172.119L336.207,174.436Z" style="fill:rgb(138,179,223);fill-rule:nonzero;"/>
                <path d="M357.104,172.98L358.079,172.896C358.273,172.879 358.412,172.766 358.388,172.645L357.57,168.504C357.546,168.383 357.367,168.298 357.173,168.315L356.198,168.399C356.004,168.416 355.865,168.529 355.889,168.65L356.708,172.79C356.732,172.912 356.91,172.997 357.104,172.98Z" style="fill:rgb(48,115,186);fill-rule:nonzero;"/>
                <path d="M328.073,175.491L329.047,175.407C329.242,175.39 329.381,175.277 329.357,175.156L328.538,171.015C328.514,170.894 328.336,170.809 328.142,170.826L327.167,170.91C326.973,170.927 326.833,171.04 326.857,171.161L327.676,175.301C327.7,175.423 327.878,175.508 328.073,175.491Z" style="fill:rgb(48,115,186);fill-rule:nonzero;"/>
                <path d="M342.588,174.236L343.563,174.151C343.757,174.135 343.897,174.022 343.873,173.901L343.054,169.76C343.03,169.639 342.852,169.553 342.657,169.57L341.683,169.654C341.488,169.671 341.349,169.784 341.373,169.905L342.192,174.046C342.216,174.167 342.394,174.252 342.588,174.236Z" style="fill:rgb(48,115,186);fill-rule:nonzero;"/>
                <path d="M334.628,88.855C334.49,89.558 334.005,90.055 333.546,89.965C333.086,89.874 332.826,89.231 332.964,88.528C333.102,87.825 333.587,87.328 334.046,87.419C334.506,87.509 334.767,88.152 334.628,88.855Z" style="fill:rgb(12,43,52);fill-rule:nonzero;"/>
                <path d="M326.682,87.293C326.543,87.996 326.059,88.493 325.599,88.402C325.14,88.312 324.879,87.669 325.017,86.966C325.156,86.263 325.64,85.766 326.1,85.856C326.559,85.947 326.82,86.59 326.682,87.293Z" style="fill:rgb(12,43,52);fill-rule:nonzero;"/>
                <path d="M326.295,85.935L324.702,85.117C324.702,85.117 325.309,86.606 326.295,85.935Z" style="fill:rgb(12,43,52);fill-rule:nonzero;"/>
                <path d="M329.414,89.045C329.414,89.045 327.625,91.838 326.025,93.04C326.783,94.089 328.439,94.003 328.439,94.003L329.414,89.045Z" style="fill:rgb(244,130,127);fill-rule:nonzero;"/>
                <path d="M331.69,97.354C334.179,97.354 335.625,95.901 335.695,95.83L335.692,95.582L335.445,95.585C335.426,95.604 333.537,97.49 330.444,96.88C330.345,96.859 330.257,96.924 330.238,97.018C330.219,97.113 330.281,97.205 330.376,97.223C330.841,97.314 331.28,97.354 331.69,97.354Z" style="fill:rgb(12,43,52);fill-rule:nonzero;"/>
                <path d="M339.402,86.129L339.582,86.078C339.748,85.978 339.801,85.764 339.7,85.598C338.516,83.638 336.613,83.552 336.532,83.55C336.328,83.557 336.179,83.694 336.172,83.886C336.164,84.078 336.314,84.241 336.507,84.249C336.573,84.251 338.119,84.335 339.102,85.96C339.168,86.069 339.283,86.129 339.402,86.129Z" style="fill:rgb(12,43,52);fill-rule:nonzero;"/>
                <path d="M324.475,83.313L324.645,83.269C326.318,82.335 327.732,83.057 327.746,83.065C327.918,83.155 328.129,83.088 328.218,82.918C328.308,82.747 328.242,82.535 328.071,82.446C328,82.408 326.303,81.541 324.304,82.658C324.135,82.752 324.075,82.965 324.169,83.133C324.234,83.248 324.353,83.313 324.475,83.313Z" style="fill:rgb(12,43,52);fill-rule:nonzero;"/>
                <path d="M364.542,124.601C365.219,125.263 365.689,125.776 366.223,126.368C366.733,126.948 367.223,127.534 367.7,128.129C368.655,129.316 369.557,130.536 370.412,131.787C372.092,134.308 373.599,136.943 374.886,139.695C376.19,142.437 377.199,145.324 378.003,148.264C378.386,149.74 378.737,151.226 378.988,152.734C379.334,154.316 379.469,156.879 378.305,159.055C377.743,160.142 376.922,161.048 376.069,161.717C375.21,162.392 374.32,162.859 373.456,163.216C371.724,163.914 370.079,164.212 368.488,164.398C365.311,164.73 362.309,164.612 359.361,164.28C353.47,163.613 347.849,162.368 342.261,160.646L343.175,157.019C345.895,157.467 348.697,157.89 351.464,158.175C354.232,158.495 357.001,158.724 359.733,158.784C362.455,158.822 365.173,158.789 367.637,158.351C368.856,158.136 370.015,157.813 370.897,157.379C371.793,156.938 372.261,156.432 372.371,156.073C372.441,155.883 372.49,155.669 372.493,155.349C372.495,155.19 372.475,155.005 372.455,154.812C372.413,154.605 372.391,154.424 372.298,154.058C372.018,152.77 371.648,151.502 371.254,150.244C370.449,147.728 369.391,145.296 368.213,142.921C367.035,140.546 365.655,138.261 364.13,136.085C363.381,134.988 362.593,133.918 361.767,132.888C361.355,132.372 360.934,131.867 360.506,131.378C360.102,130.902 359.615,130.362 359.284,130.02L364.542,124.601Z" style="fill:rgb(249,182,182);fill-rule:nonzero;"/>
                <path d="M345.448,157.569L338.438,153.856L338.124,163.134C338.124,163.134 343.075,163.446 345.981,161.168L345.448,157.569Z" style="fill:rgb(249,182,182);fill-rule:nonzero;"/>
                <path d="M333.167,207.439L338.953,144.628L326.602,135.171L288.898,131.697L282.352,202.758L333.167,207.439Z" style="fill:rgb(48,115,186);fill-rule:nonzero;"/>
                <path d="M333.167,207.439L282.352,202.758L288.898,131.697L326.602,135.171L338.953,144.628L336.207,174.436L335.128,186.156L333.167,207.439ZM296.953,162.638C294.806,162.638 292.973,164.276 292.773,166.456C292.56,168.768 294.261,170.814 296.573,171.027L315.792,172.795C315.923,172.807 316.053,172.813 316.182,172.813C318.329,172.813 320.162,171.175 320.363,168.994C320.575,166.683 318.874,164.636 316.562,164.424L297.343,162.656C297.212,162.644 297.082,162.638 296.953,162.638ZM298.04,150.527C295.892,150.527 294.06,152.165 293.859,154.345C293.647,156.657 295.348,158.703 297.66,158.916L325.16,161.446C325.291,161.458 325.421,161.464 325.55,161.464C327.698,161.464 329.53,159.826 329.731,157.645C329.943,155.334 328.242,153.287 325.93,153.075L298.43,150.545C298.299,150.533 298.169,150.527 298.04,150.527Z" style="fill:rgb(202,221,242);fill-rule:nonzero;"/>
                <path d="M338.953,144.628L326.602,135.171L329.84,146.49L338.953,144.628Z" style="fill:rgb(48,115,186);fill-rule:nonzero;"/>
                <path d="M302.063,200.134C301.072,208.58 293.422,214.623 284.976,213.632C276.53,212.641 270.486,204.991 271.477,196.545C272.468,188.099 280.118,182.056 288.564,183.047C297.01,184.038 303.054,191.688 302.063,200.134Z" style="fill:rgb(48,115,186);fill-rule:nonzero;"/>
                <path d="M298.966,199.771C298.176,206.506 292.075,211.326 285.339,210.536C278.603,209.745 273.784,203.644 274.574,196.909C275.364,190.173 281.465,185.353 288.201,186.143C294.937,186.934 299.756,193.035 298.966,199.771Z" style="fill:white;fill-rule:nonzero;"/>
                <path d="M294.358,197.261L288.94,196.625L289.576,191.207L285.691,190.751L285.056,196.17L279.637,195.534L279.182,199.418L284.6,200.054L283.964,205.472L287.848,205.928L288.484,200.51L293.902,201.145L294.358,197.261Z" style="fill:rgb(48,115,186);fill-rule:nonzero;"/>
                <path d="M325.55,161.464C325.421,161.464 325.291,161.458 325.16,161.446L297.66,158.916C295.348,158.703 293.647,156.657 293.859,154.345C294.06,152.165 295.892,150.527 298.04,150.527C298.169,150.527 298.299,150.533 298.43,150.545L325.93,153.075C328.242,153.287 329.943,155.334 329.731,157.645C329.53,159.826 327.698,161.464 325.55,161.464Z" style="fill:rgb(133,177,223);fill-rule:nonzero;"/>
                <path d="M316.182,172.813C316.053,172.813 315.923,172.807 315.792,172.795L296.573,171.027C294.261,170.814 292.56,168.768 292.773,166.456C292.973,164.276 294.806,162.638 296.953,162.638C297.082,162.638 297.212,162.644 297.343,162.656L316.562,164.424C318.874,164.636 320.575,166.683 320.363,168.994C320.162,171.175 318.329,172.813 316.182,172.813Z" style="fill:rgb(133,177,223);fill-rule:nonzero;"/>
                <path d="M334.165,154.41L335.217,161.342L338.124,163.134L338.438,153.856L334.165,154.41Z" style="fill:rgb(249,182,182);fill-rule:nonzero;"/>
                <path d="M363.015,116.42C367.42,117.2 373.596,129.838 373.596,129.838L362.488,139.884C362.488,139.884 353.653,130.248 354.124,124.507C354.524,119.632 357.402,115.428 363.015,116.42Z" style="fill:rgb(12,43,52);fill-rule:nonzero;"/>
                <path d="M409.229,328.758C408.74,330.318 408.109,331.351 407.51,331.553C407.251,331.64 406.994,331.58 406.718,331.373C406.56,331.253 406.55,331.136 406.557,331.059C406.613,330.377 408.263,329.305 409.229,328.758ZM407.279,331.942C407.393,331.942 407.508,331.922 407.622,331.884C408.676,331.529 409.367,329.578 409.686,328.447L409.628,328.264L409.436,328.245C409.115,328.413 406.3,329.919 406.208,331.03C406.194,331.2 406.235,331.446 406.508,331.652C406.764,331.845 407.022,331.942 407.279,331.942Z" style="fill:rgb(48,115,186);fill-rule:nonzero;"/>
                <path d="M409.132,328.399C408.178,328.806 406.329,329.056 405.807,328.615C405.72,328.541 405.634,328.421 405.745,328.149C405.829,327.941 405.977,327.802 406.194,327.726C407.012,327.434 408.498,328.087 409.132,328.399ZM406.844,329.198C407.844,329.198 409.07,328.879 409.609,328.55L409.692,328.397L409.602,328.247C409.508,328.195 407.277,326.969 406.078,327.396C405.765,327.506 405.543,327.715 405.421,328.018C405.23,328.489 405.439,328.761 405.58,328.881C405.847,329.108 406.314,329.198 406.844,329.198Z" style="fill:rgb(48,115,186);fill-rule:nonzero;"/>
                <path d="M351.001,353.589C349.866,353.802 347.767,354.078 346.902,353.424C346.663,353.243 346.538,353.005 346.52,352.697C346.512,352.555 346.567,352.498 346.616,352.465C347.154,352.1 349.414,352.89 351.001,353.589ZM348.726,354.189C349.738,354.189 350.839,353.993 351.603,353.824L351.739,353.672L351.639,353.495C351.206,353.291 347.383,351.524 346.42,352.176C346.297,352.258 346.154,352.42 346.171,352.717C346.194,353.128 346.369,353.46 346.691,353.703C347.169,354.064 347.919,354.189 348.726,354.189Z" style="fill:rgb(48,115,186);fill-rule:nonzero;"/>
                <path d="M348.944,350.261C350.269,350.261 351.042,352.456 351.298,353.334C350.053,352.682 348.33,351.11 348.413,350.496C348.419,350.45 348.438,350.313 348.798,350.27L348.944,350.261ZM351.565,353.828L351.678,353.786L351.735,353.614C351.699,353.453 350.831,349.683 348.756,349.923C348.237,349.985 348.094,350.243 348.067,350.448C347.937,351.408 350.347,353.344 351.498,353.814L351.565,353.828Z" style="fill:rgb(48,115,186);fill-rule:nonzero;"/>
                <path d="M334.242,87.497L332.649,86.679C332.649,86.679 333.256,88.168 334.242,87.497Z" style="fill:rgb(12,43,52);fill-rule:nonzero;"/>
            </g>
        </g>
    </g>
</svg>
