<?xml version="1.0" encoding="UTF-8" standalone="no"?>
<!DOCTYPE svg PUBLIC "-//W3C//DTD SVG 1.1//EN" "http://www.w3.org/Graphics/SVG/1.1/DTD/svg11.dtd">
<svg width="100%" height="100%" viewBox="0 0 1080 805" version="1.1" xmlns="http://www.w3.org/2000/svg" xmlns:xlink="http://www.w3.org/1999/xlink" xml:space="preserve" xmlns:serif="http://www.serif.com/" style="fill-rule:evenodd;clip-rule:evenodd;stroke-linejoin:round;stroke-miterlimit:2;">
    <g transform="matrix(1,0,0,1,-1188,-1309.5)">
        <g transform="matrix(1,0,0,1,1188,1216)">
            <g transform="matrix(2.16,0,0,2.16,-2.27374e-13,-25.1987)">
                <g transform="matrix(1,0,0,1,0,265.047)">
                    <rect x="0" y="117.352" width="500" height="0.249" style="fill:rgb(236,236,236);"/>
                </g>
                <g transform="matrix(1,0,0,1,0,297.24)">
                    <rect x="428.222" y="101.255" width="21.679" height="0.25" style="fill:rgb(236,236,236);"/>
                </g>
                <g transform="matrix(1,0,0,1,0,286.862)">
                    <rect x="310.558" y="106.444" width="34.109" height="0.25" style="fill:rgb(236,236,236);"/>
                </g>
                <g transform="matrix(1,0,0,1,0,278.666)">
                    <rect x="396.586" y="110.542" width="44.525" height="0.25" style="fill:rgb(236,236,236);"/>
                </g>
                <g transform="matrix(1,0,0,1,0,288.75)">
                    <rect x="161.877" y="105.5" width="11.137" height="0.25" style="fill:rgb(236,236,236);"/>
                </g>
                <g transform="matrix(1,0,0,1,0,288.75)">
                    <rect x="114.584" y="105.5" width="38.389" height="0.25" style="fill:rgb(236,236,236);"/>
                </g>
                <g transform="matrix(1,0,0,1,0,280.305)">
                    <rect x="66.307" y="109.723" width="27.696" height="0.249" style="fill:rgb(236,236,236);"/>
                </g>
                <g transform="matrix(1,0,0,1,43.915,337.55)">
                    <path d="M0,-282.347C-3.01,-282.347 -5.458,-279.899 -5.458,-276.889L-5.458,-5.458C-5.458,-2.448 -3.01,0 0,0L193.099,0C196.107,0 198.556,-2.448 198.556,-5.458L198.556,-276.889C198.556,-279.899 196.107,-282.347 193.099,-282.347L0,-282.347ZM193.099,0.25L0,0.25C-3.147,0.25 -5.708,-2.31 -5.708,-5.458L-5.708,-276.889C-5.708,-280.036 -3.147,-282.597 0,-282.597L193.099,-282.597C196.245,-282.597 198.806,-280.036 198.806,-276.889L198.806,-5.458C198.806,-2.31 196.245,0.25 193.099,0.25" style="fill:rgb(236,236,236);fill-rule:nonzero;"/>
                </g>
                <g transform="matrix(1,0,0,1,260.212,337.55)">
                    <path d="M0,-282.347C-3.009,-282.347 -5.457,-279.899 -5.457,-276.889L-5.457,-5.458C-5.457,-2.448 -3.009,0 0,0L193.099,0C196.108,0 198.557,-2.448 198.557,-5.458L198.557,-276.889C198.557,-279.899 196.108,-282.347 193.099,-282.347L0,-282.347ZM193.099,0.25L0,0.25C-3.147,0.25 -5.707,-2.31 -5.707,-5.458L-5.707,-276.889C-5.707,-280.036 -3.147,-282.597 0,-282.597L193.099,-282.597C196.246,-282.597 198.807,-280.036 198.807,-276.889L198.807,-5.458C198.807,-2.31 196.246,0.25 193.099,0.25" style="fill:rgb(236,236,236);fill-rule:nonzero;"/>
                </g>
                <g transform="matrix(1,0,0,1,114.978,132.806)">
                    <path d="M0,41.821C11.549,41.821 20.911,32.459 20.911,20.91C20.911,9.362 11.549,0 0,0L-2.565,0L-2.565,41.821L0,41.821Z" style="fill:rgb(225,225,225);fill-rule:nonzero;"/>
                </g>
                <g transform="matrix(0,1,1,0,112.413,132.806)">
                    <path d="M20.911,-20.911C32.459,-20.911 41.822,-11.548 41.822,0.001C41.822,11.548 32.459,20.911 20.911,20.911C9.362,20.911 -0.001,11.548 -0.001,0.001C-0.001,-11.548 9.362,-20.911 20.911,-20.911" style="fill:rgb(245,245,245);fill-rule:nonzero;"/>
                </g>
                <g transform="matrix(1,0,0,1,111.455,109)">
                    <path d="M0,47.344C-15.434,47.344 -27.991,34.787 -27.991,19.353L-27.991,2.629C-27.991,1.177 -26.814,0 -25.362,0C-23.911,0 -22.734,1.177 -22.734,2.629L-22.734,19.353C-22.734,31.889 -12.536,42.087 0,42.087C1.451,42.087 2.628,43.264 2.628,44.716C2.628,46.167 1.451,47.344 0,47.344" style="fill:rgb(225,225,225);fill-rule:nonzero;"/>
                </g>
                <g transform="matrix(1,0,0,1,62.8322,101.402)">
                    <path d="M0,24.95L46.521,24.95C49.709,24.95 52.033,21.931 51.217,18.849L47.181,3.614C46.617,1.483 44.69,0 42.486,0L4.035,0C1.832,0 -0.096,1.483 -0.66,3.614L-4.695,18.849C-5.512,21.931 -3.188,24.95 0,24.95" style="fill:rgb(245,245,245);fill-rule:nonzero;"/>
                </g>
                <g transform="matrix(1,0,0,1,410.277,132.806)">
                    <path d="M0,41.821C11.549,41.821 20.911,32.459 20.911,20.91C20.911,9.362 11.549,0 0,0L-2.565,0L-2.565,41.821L0,41.821Z" style="fill:rgb(225,225,225);fill-rule:nonzero;"/>
                </g>
                <g transform="matrix(0,1,1,0,407.712,132.806)">
                    <path d="M20.911,-20.911C32.459,-20.911 41.822,-11.548 41.822,0.001C41.822,11.548 32.459,20.911 20.911,20.911C9.362,20.911 -0.001,11.548 -0.001,0.001C-0.001,-11.548 9.362,-20.911 20.911,-20.911" style="fill:rgb(245,245,245);fill-rule:nonzero;"/>
                </g>
                <g transform="matrix(1,0,0,1,406.754,109)">
                    <path d="M0,47.344C-15.434,47.344 -27.991,34.787 -27.991,19.353L-27.991,2.629C-27.991,1.177 -26.814,0 -25.362,0C-23.911,0 -22.734,1.177 -22.734,2.629L-22.734,19.353C-22.734,31.889 -12.536,42.087 0,42.087C1.451,42.087 2.628,43.264 2.628,44.716C2.628,46.167 1.451,47.344 0,47.344" style="fill:rgb(225,225,225);fill-rule:nonzero;"/>
                </g>
                <g transform="matrix(1,0,0,1,358.131,101.402)">
                    <path d="M0,24.95L46.521,24.95C49.709,24.95 52.033,21.931 51.217,18.849L47.182,3.614C46.617,1.483 44.69,0 42.486,0L4.035,0C1.832,0 -0.096,1.483 -0.66,3.614L-4.695,18.849C-5.512,21.931 -3.188,24.95 0,24.95" style="fill:rgb(245,245,245);fill-rule:nonzero;"/>
                </g>
                <g transform="matrix(1,0,0,1,0,72.776)">
                    <rect x="133.981" y="184.147" width="15.207" height="58.93" style="fill:rgb(231,231,231);"/>
                </g>
                <g transform="matrix(1,0,0,1,92.7511,246.88)">
                    <path d="M0,68.973L50.47,68.973L58.092,0L7.622,0L0,68.973Z" style="fill:rgb(240,240,240);fill-rule:nonzero;"/>
                </g>
                <g transform="matrix(1,0,0,1,87.2847,246.88)">
                    <path d="M0,68.973L52.132,68.973L59.753,0L7.622,0L0,68.973Z" style="fill:rgb(245,245,245);fill-rule:nonzero;"/>
                </g>
                <g transform="matrix(0.109844,-0.993949,-0.993949,-0.109844,148.068,266.182)">
                    <path d="M-45.332,7.484L13.123,7.484L8.356,50.618L-50.099,50.618L-45.332,7.484Z" style="fill:white;fill-rule:nonzero;"/>
                </g>
                <g transform="matrix(0.109971,-0.993935,-0.993935,-0.109971,133.086,273.545)">
                    <path d="M-23.356,3.854L-20.973,3.854C-6.308,3.857 5.604,14.331 4.304,26.081L1.921,26.081C-12.744,26.079 -24.656,15.605 -23.356,3.854Z" style="fill:rgb(245,245,245);fill-rule:nonzero;"/>
                </g>
                <g transform="matrix(1,0,0,1,0,198.251)">
                    <rect x="59.084" y="117.602" width="44.839" height="66.545" style="fill:rgb(231,231,231);"/>
                </g>
                <g transform="matrix(-1,0,0,1,63.8132,369.569)">
                    <path d="M0.219,12.829L4.729,12.829L4.729,0L-4.51,0L0.219,12.829Z" style="fill:rgb(240,240,240);fill-rule:nonzero;"/>
                </g>
                <g transform="matrix(1,0,0,1,0,198.251)">
                    <rect x="184.754" y="117.602" width="44.839" height="66.545" style="fill:rgb(231,231,231);"/>
                </g>
                <g transform="matrix(1,0,0,1,0,190.379)">
                    <rect x="59.084" y="125.474" width="129.606" height="58.673" style="fill:rgb(240,240,240);"/>
                </g>
                <g transform="matrix(1,0,0,1,184.179,369.569)">
                    <path d="M0,12.829L4.51,12.829L4.51,0L-4.729,0L0,12.829Z" style="fill:rgb(240,240,240);fill-rule:nonzero;"/>
                </g>
                <g transform="matrix(1,0,0,1,0,162.721)">
                    <rect x="62.583" y="156.802" width="122.608" height="23.675" style="fill:rgb(231,231,231);"/>
                </g>
                <g transform="matrix(1,0,0,1,115.71,326.88)">
                    <path d="M0,8.077L16.353,8.077C23.456,8.077 30.247,5.156 35.133,0L-18.779,0C-13.894,5.156 -7.103,8.077 0,8.077" style="fill:rgb(240,240,240);fill-rule:nonzero;"/>
                </g>
                <g transform="matrix(1,0,0,1,0,217.725)">
                    <rect x="62.583" y="129.3" width="122.608" height="23.675" style="fill:rgb(231,231,231);"/>
                </g>
                <g transform="matrix(1,0,0,1,115.71,354.382)">
                    <path d="M0,8.077L16.353,8.077C23.456,8.077 30.247,5.157 35.133,0L-18.779,0C-13.894,5.157 -7.103,8.077 0,8.077" style="fill:rgb(240,240,240);fill-rule:nonzero;"/>
                </g>
                <g transform="matrix(1,0,0,1,180.48,264.15)">
                    <path d="M0,48.989L1.158,48.989C1.146,46.603 1.163,40.55 1.279,26.677C1.488,1.533 1.887,0 1.887,0L-0.872,11.608C-2.619,24.461 -0.365,37.377 0,48.989" style="fill:rgb(231,231,231);fill-rule:nonzero;"/>
                </g>
                <g transform="matrix(-0.672763,-0.739858,-0.739858,0.672763,157.804,272.609)">
                    <path d="M-14.765,-14.128C-8.594,-14.373 -1.869,-9.026 4.844,-3.393C7.48,-1.182 -6.605,-5.091 -14.765,-5.841C-21.106,-6.424 -24.005,-7.846 -28.042,-5.918C-24.542,-10.009 -20.083,-13.915 -14.765,-14.128" style="fill:rgb(231,231,231);fill-rule:nonzero;"/>
                </g>
                <g transform="matrix(-0.672763,0.739858,0.739858,0.672763,203.842,281.065)">
                    <path d="M14.765,-14.128C8.594,-14.373 1.869,-9.026 -4.844,-3.393C-7.48,-1.182 6.605,-5.091 14.765,-5.841C21.106,-6.424 24.005,-7.846 28.042,-5.918C24.542,-10.009 20.083,-13.915 14.765,-14.128" style="fill:rgb(231,231,231);fill-rule:nonzero;"/>
                </g>
                <g transform="matrix(-0.552794,0.833318,0.833318,0.552794,199.943,261.163)">
                    <path d="M11.616,-14.119C5.259,-14.765 -3.319,-11.466 -9.647,-5.58C-12.132,-3.269 3.28,-6.176 11.616,-5.638C18.091,-5.219 25.97,-5.134 30.296,-3.064C23.011,-9.104 17.974,-13.473 11.616,-14.119" style="fill:rgb(231,231,231);fill-rule:nonzero;"/>
                </g>
                <g transform="matrix(1,0,0,1,181.405,307.916)">
                    <path d="M0,7.937C-3.546,7.937 -6.476,6.16 -6.68,3.886L-7.271,0L7.271,0L6.68,3.886C6.476,6.16 3.546,7.937 0,7.937" style="fill:rgb(240,240,240);fill-rule:nonzero;"/>
                </g>
                <g transform="matrix(-1,0,0,1,173.192,305.084)">
                    <path d="M-16.425,4.328L-0,4.328L0.47,0L-16.895,0L-16.425,4.328Z" style="fill:rgb(240,240,240);fill-rule:nonzero;"/>
                </g>
                <g transform="matrix(1,0,0,1,0,-192.686)">
                    <rect x="169.54" y="273.277" width="160.206" height="146.132" style="fill:rgb(231,231,231);"/>
                </g>
                <g transform="matrix(1,0,0,1,0,-192.686)">
                    <rect x="165.935" y="273.277" width="162.245" height="146.132" style="fill:rgb(245,245,245);"/>
                </g>
                <g transform="matrix(-1,0,0,1,494.115,-192.685)">
                    <rect x="172.407" y="279.823" width="149.301" height="133.039" style="fill:rgb(250,250,250);"/>
                </g>
                <g transform="matrix(-0.404033,-0.914744,-0.914744,0.404033,308.972,90.7766)">
                    <path d="M-116.112,57.391L29.327,57.391L37.391,75.648L-108.048,75.648L-116.112,57.391Z" style="fill:white;fill-rule:nonzero;"/>
                </g>
                <g transform="matrix(-0.404033,-0.914744,-0.914744,0.404033,287.72,93.6196)">
                    <path d="M-111.748,60.234L33.69,60.234L39.243,72.805L-106.195,72.806L-111.748,60.234Z" style="fill:white;fill-rule:nonzero;"/>
                </g>
                <g transform="matrix(-1,0,0,1,447.967,-192.685)">
                    <rect x="220.123" y="279.823" width="7.721" height="133.039" style="fill:rgb(231,231,231);"/>
                </g>
                <g transform="matrix(-1,0,0,1,550.605,-192.685)">
                    <rect x="271.442" y="279.823" width="7.721" height="133.039" style="fill:rgb(231,231,231);"/>
                </g>
                <g transform="matrix(-1,0,0,1,443.143,-193.4)">
                    <rect x="216.692" y="275.67" width="9.759" height="142.06" style="fill:rgb(245,245,245);"/>
                </g>
                <g transform="matrix(-1,0,0,1,545.783,-193.4)">
                    <rect x="268.012" y="275.67" width="9.759" height="142.06" style="fill:rgb(245,245,245);"/>
                </g>
                <g transform="matrix(-1,0,0,1,345.499,-192.685)">
                    <rect x="172.406" y="279.823" width="0.687" height="133.039" style="fill:rgb(231,231,231);"/>
                </g>
                <g transform="matrix(1,0,0,1,163.217,73.8416)">
                    <path d="M0,-1.669L173.565,-1.669C174.024,-1.669 174.4,-1.293 174.4,-0.834C174.4,-0.375 174.024,0 173.565,0L0,0C-0.459,0 -0.835,-0.375 -0.835,-0.834C-0.835,-1.293 -0.459,-1.669 0,-1.669" style="fill:rgb(231,231,231);fill-rule:nonzero;"/>
                </g>
                <g transform="matrix(1,0,0,1,329.746,73.0074)">
                    <path d="M0,4.674C0.62,4.674 1.127,4.167 1.127,3.547L1.127,1.127C1.127,0.507 0.62,0 0,0C-0.62,0 -1.127,0.507 -1.127,1.127L-1.127,3.547C-1.127,4.167 -0.62,4.674 0,4.674" style="fill:rgb(231,231,231);fill-rule:nonzero;"/>
                </g>
                <g transform="matrix(1,0,0,1,175.804,73.0074)">
                    <path d="M0,4.674C0.62,4.674 1.127,4.167 1.127,3.547L1.127,1.127C1.127,0.507 0.62,0 0,0C-0.62,0 -1.127,0.507 -1.127,1.127L-1.127,3.547C-1.127,4.167 -0.62,4.674 0,4.674" style="fill:rgb(231,231,231);fill-rule:nonzero;"/>
                </g>
                <g opacity="0.6">
                    <g transform="matrix(1,0,0,1,0,-239.549)">
                        <rect x="163.484" y="312.556" width="162.126" height="114.437" style="fill:rgb(225,225,225);"/>
                    </g>
                </g>
                <g transform="matrix(1,0,0,1,340.286,259.97)">
                    <path d="M0,23.702L-27.951,23.702C-30.923,23.702 -33.333,21.292 -33.333,18.32L-33.333,5.382C-33.333,2.41 -30.923,0 -27.951,0L0,0C2.973,0 5.382,2.41 5.382,5.382L5.382,18.32C5.382,21.292 2.973,23.702 0,23.702" style="fill:rgb(250,250,250);fill-rule:nonzero;"/>
                </g>
                <g transform="matrix(1,0,0,1,343.861,255.592)">
                    <path d="M0,5.076L-35.101,5.076C-36.099,5.076 -36.908,4.267 -36.908,3.269L-36.908,1.807C-36.908,0.809 -36.099,0 -35.101,0L0,0C0.998,0 1.807,0.809 1.807,1.807L1.807,3.269C1.807,4.267 0.998,5.076 0,5.076" style="fill:rgb(231,231,231);fill-rule:nonzero;"/>
                </g>
                <g transform="matrix(1,0,0,1,307.523,326.618)">
                    <path d="M0,-16.663C0,-16.663 0.507,0 19.927,0C39.347,0 39.854,-16.663 39.854,-16.663L0,-16.663Z" style="fill:rgb(240,240,240);fill-rule:nonzero;"/>
                </g>
                <g transform="matrix(1,0,0,1,351.804,326.618)">
                    <path d="M0,-16.663C0,-16.663 0.507,0 19.927,0C39.347,0 39.854,-16.663 39.854,-16.663L0,-16.663Z" style="fill:rgb(240,240,240);fill-rule:nonzero;"/>
                </g>
                <g transform="matrix(1,0,0,1,382.048,249.235)">
                    <path d="M0,34.437L-38.411,34.437C-42.496,34.437 -45.807,31.125 -45.807,27.041L-45.807,7.397C-45.807,3.312 -42.496,0 -38.411,0L0,0C4.085,0 7.396,3.312 7.396,7.397L7.396,27.041C7.396,31.125 4.085,34.437 0,34.437" style="fill:rgb(240,240,240);fill-rule:nonzero;"/>
                </g>
                <g transform="matrix(1,0,0,1,386.961,243.219)">
                    <path d="M0,6.975L-48.237,6.975C-49.609,6.975 -50.721,5.863 -50.721,4.492L-50.721,2.483C-50.721,1.112 -49.609,0 -48.237,0L0,0C1.371,0 2.483,1.112 2.483,2.483L2.483,4.492C2.483,5.863 1.371,6.975 0,6.975" style="fill:rgb(245,245,245);fill-rule:nonzero;"/>
                </g>
                <g transform="matrix(1,0,0,1,0,182.153)">
                    <rect x="292.896" y="117.602" width="5.038" height="82.643" style="fill:rgb(231,231,231);"/>
                </g>
                <g transform="matrix(-1,0,0,1,849.546,83.427)">
                    <rect x="411.128" y="200.245" width="27.29" height="16.083" style="fill:rgb(231,231,231);"/>
                </g>
                <g transform="matrix(1,0,0,1,0,83.427)">
                    <rect x="275.447" y="200.245" width="135.681" height="16.083" style="fill:rgb(245,245,245);"/>
                </g>
                <g transform="matrix(-1,0,0,1,849.546,169.319)">
                    <rect x="411.128" y="157.299" width="27.29" height="16.083" style="fill:rgb(231,231,231);"/>
                </g>
                <g transform="matrix(1,0,0,1,0,169.319)">
                    <rect x="275.447" y="157.299" width="135.681" height="16.083" style="fill:rgb(245,245,245);"/>
                </g>
                <g transform="matrix(1,0,0,1,0,182.153)">
                    <rect x="428.577" y="117.602" width="5.038" height="82.643" style="fill:rgb(231,231,231);"/>
                </g>
                <g transform="matrix(1,0,0,1,0,182.153)">
                    <rect x="406.089" y="117.602" width="5.038" height="82.643" style="fill:rgb(245,245,245);"/>
                </g>
                <g transform="matrix(1,0,0,1,0,182.153)">
                    <rect x="275.447" y="117.602" width="5.038" height="82.643" style="fill:rgb(245,245,245);"/>
                </g>
                <g transform="matrix(0,-1,-1,0,250,222.349)">
                    <path d="M-193.889,-193.889C-200.142,-193.889 -205.213,-107.082 -205.213,-0C-205.213,107.081 -200.142,193.889 -193.889,193.889C-187.635,193.889 -182.565,107.081 -182.565,-0C-182.565,-107.082 -187.635,-193.889 -193.889,-193.889" style="fill:rgb(245,245,245);fill-rule:nonzero;"/>
                </g>
                <g transform="matrix(1,0,0,1,260.414,128.682)">
                    <path d="M0,236.814L-127.574,236.814C-131.789,236.814 -135.382,233.397 -135.599,229.182L-147.017,7.632C-147.234,3.417 -143.993,0 -139.778,0L-12.204,0C-7.989,0 -4.396,3.417 -4.179,7.632L7.239,229.182C7.456,233.397 4.215,236.814 0,236.814" style="fill:rgb(0,124,255);fill-rule:nonzero;"/>
                </g>
                <g opacity="0.8">
                    <g transform="matrix(1,0,0,1,260.414,128.682)">
                        <path d="M0,236.814L-127.574,236.814C-131.789,236.814 -135.382,233.397 -135.599,229.182L-147.017,7.632C-147.234,3.417 -143.993,0 -139.778,0L-12.204,0C-7.989,0 -4.396,3.417 -4.179,7.632L7.239,229.182C7.456,233.397 4.215,236.814 0,236.814" style="fill:white;fill-rule:nonzero;"/>
                    </g>
                </g>
                <g transform="matrix(-1,0,0,1,457.127,-256.09)">
                    <rect x="221.508" y="377.545" width="14.111" height="1" style="fill:rgb(0,124,255);"/>
                </g>
                <g transform="matrix(-1,0,0,1,428.071,-256.09)">
                    <rect x="211.452" y="377.545" width="5.167" height="1" style="fill:rgb(0,124,255);"/>
                </g>
                <g transform="matrix(1,0,0,1,265.899,124.955)">
                    <path d="M0,226.489L-122.011,226.489C-126.043,226.489 -129.479,223.221 -129.687,219.19L-140.607,7.299C-140.815,3.268 -137.715,0 -133.684,0L-11.672,0C-7.641,0 -4.205,3.268 -3.997,7.299L6.923,219.19C7.131,223.221 4.031,226.489 0,226.489" style="fill:rgb(0,124,255);fill-rule:nonzero;"/>
                </g>
                <g transform="matrix(1,0,0,1,132.215,346.319)">
                    <path d="M0,-216.239C-0.678,-216.239 -1.099,-215.946 -1.332,-215.7C-1.567,-215.452 -1.84,-215.013 -1.805,-214.329L9.115,-2.437C9.182,-1.139 10.377,-0 11.672,-0L133.684,-0C134.361,-0 134.782,-0.293 135.015,-0.538C135.25,-0.786 135.524,-1.225 135.489,-1.91L124.569,-213.801C124.502,-215.1 123.307,-216.239 122.011,-216.239L0,-216.239ZM133.684,0.25L11.672,0.25C10.25,0.25 8.939,-1 8.865,-2.425L-2.055,-214.316C-2.094,-215.089 -1.782,-215.589 -1.514,-215.872C-1.246,-216.154 -0.767,-216.489 0,-216.489L122.011,-216.489C123.433,-216.489 124.745,-215.239 124.819,-213.814L135.739,-1.923C135.778,-1.149 135.465,-0.649 135.197,-0.366C134.929,-0.085 134.45,0.25 133.684,0.25" style="fill:white;fill-rule:nonzero;"/>
                </g>
                <g transform="matrix(0.782331,0,0,0.783387,45.6503,29.8434)">
                    <g opacity="0.3">
                        <g transform="matrix(0,-1,-1,0,196.089,143.678)">
                            <path d="M-36.936,-36.936C-57.335,-37.987 -73.872,-22.303 -73.872,-1.904C-73.872,18.496 -57.335,35.885 -36.936,36.936C-16.537,37.987 0,22.303 0,1.904C0,-18.496 -16.537,-35.885 -36.936,-36.936" style="fill:white;fill-rule:nonzero;"/>
                        </g>
                    </g>
                </g>
                <g transform="matrix(0.459048,0.379613,-0.0773172,0.093496,-418.961,-600.099)">
                    <path d="M1741,1667.75C1741,1658.51 1739.47,1651 1737.59,1651L1649.41,1651C1647.53,1651 1646,1658.51 1646,1667.75L1646,1701.25C1646,1710.5 1647.53,1718 1649.41,1718L1737.59,1718C1739.47,1718 1741,1710.5 1741,1701.25L1741,1667.75Z" style="fill:rgb(76,163,255);"/>
                </g>
                <g transform="matrix(0.782331,0,0,0.783387,222.436,171.333)">
                    <path d="M0,0.001C0.266,5.162 -0.793,10.007 -2.878,14.235C-7.438,23.549 -16.983,29.884 -28.343,29.884C-39.704,29.884 -49.901,23.549 -55.422,14.235C-57.942,10.007 -59.501,5.162 -59.767,0.001C-60.618,-16.506 -47.93,-29.883 -31.423,-29.883C-14.917,-29.883 -0.851,-16.506 0,0.001" style="fill:white;fill-rule:nonzero;"/>
                </g>
                <g transform="matrix(1,0,0,1,248.413,248.805)">
                    <path d="M0,20.216L-95.534,20.216C-97.24,20.216 -98.694,18.833 -98.782,17.127L-99.505,3.089C-99.593,1.383 -98.282,0 -96.576,0L-1.042,0C0.664,0 2.118,1.383 2.206,3.089L2.93,17.127C3.018,18.833 1.706,20.216 0,20.216" style="fill:white;fill-rule:nonzero;"/>
                </g>
                <g opacity="0.3">
                    <g transform="matrix(1,0,0,1,219.157,231.938)">
                        <path d="M0,9.158L-39.899,9.158C-41.605,9.158 -43.059,7.775 -43.147,6.069L-43.301,3.089C-43.389,1.383 -42.077,0 -40.371,0L-0.472,0C1.234,0 2.688,1.383 2.776,3.089L2.93,6.069C3.018,7.775 1.706,9.158 0,9.158" style="fill-rule:nonzero;"/>
                    </g>
                </g>
                <g opacity="0.3">
                    <g transform="matrix(1,0,0,1,233.994,318.894)">
                        <path d="M0,17.413L-59.761,17.413C-62.666,17.413 -65.142,15.058 -65.292,12.153L-65.647,5.26C-65.797,2.355 -63.563,0 -60.658,0L-0.897,0C2.008,0 4.484,2.355 4.634,5.26L4.989,12.153C5.139,15.058 2.905,17.413 0,17.413" style="fill-rule:nonzero;"/>
                    </g>
                </g>
                <g transform="matrix(1,0,0,1,250.157,282.64)">
                    <path d="M0,20.216L-95.534,20.216C-97.24,20.216 -98.694,18.833 -98.782,17.127L-99.505,3.089C-99.593,1.383 -98.282,0 -96.576,0L-1.042,0C0.664,0 2.118,1.383 2.206,3.089L2.93,17.127C3.018,18.833 1.706,20.216 0,20.216" style="fill:white;fill-rule:nonzero;"/>
                </g>
                <g transform="matrix(0,-1,-1,0,161.608,255.494)">
                    <path d="M-3.42,-3.42C-5.309,-3.517 -6.839,-2.065 -6.839,-0.176C-6.839,1.712 -5.309,3.322 -3.42,3.42C-1.532,3.517 -0.001,2.064 -0.001,0.176C-0.001,-1.713 -1.532,-3.323 -3.42,-3.42" style="fill:rgb(26,46,53);fill-rule:nonzero;"/>
                </g>
                <g transform="matrix(0,-1,-1,0,172.115,255.494)">
                    <path d="M-3.42,-3.42C-5.309,-3.517 -6.839,-2.065 -6.839,-0.176C-6.839,1.712 -5.309,3.322 -3.42,3.42C-1.532,3.517 -0.001,2.064 -0.001,0.176C-0.001,-1.713 -1.532,-3.323 -3.42,-3.42" style="fill:rgb(26,46,53);fill-rule:nonzero;"/>
                </g>
                <g transform="matrix(0,-1,-1,0,182.623,255.494)">
                    <path d="M-3.42,-3.42C-5.309,-3.517 -6.839,-2.065 -6.839,-0.176C-6.839,1.712 -5.309,3.322 -3.42,3.42C-1.532,3.517 -0.001,2.064 -0.001,0.176C-0.001,-1.713 -1.532,-3.323 -3.42,-3.42" style="fill:rgb(26,46,53);fill-rule:nonzero;"/>
                </g>
                <g transform="matrix(0,-1,-1,0,193.13,255.494)">
                    <path d="M-3.42,-3.42C-5.309,-3.517 -6.839,-2.065 -6.839,-0.176C-6.839,1.712 -5.309,3.322 -3.42,3.42C-1.532,3.517 -0.001,2.064 -0.001,0.176C-0.001,-1.713 -1.532,-3.323 -3.42,-3.42" style="fill:rgb(26,46,53);fill-rule:nonzero;"/>
                </g>
                <g transform="matrix(0,-1,-1,0,163.352,289.329)">
                    <path d="M-3.42,-3.42C-5.308,-3.517 -6.839,-2.065 -6.839,-0.176C-6.839,1.712 -5.308,3.322 -3.42,3.42C-1.531,3.517 -0.001,2.064 -0.001,0.176C-0.001,-1.713 -1.531,-3.323 -3.42,-3.42" style="fill:rgb(26,46,53);fill-rule:nonzero;"/>
                </g>
                <g transform="matrix(0,-1,-1,0,173.859,289.329)">
                    <path d="M-3.42,-3.42C-5.308,-3.517 -6.839,-2.065 -6.839,-0.176C-6.839,1.712 -5.308,3.322 -3.42,3.42C-1.531,3.517 -0.001,2.064 -0.001,0.176C-0.001,-1.713 -1.531,-3.323 -3.42,-3.42" style="fill:rgb(26,46,53);fill-rule:nonzero;"/>
                </g>
                <g transform="matrix(0,-1,-1,0,184.366,289.329)">
                    <path d="M-3.42,-3.42C-5.308,-3.517 -6.839,-2.065 -6.839,-0.176C-6.839,1.712 -5.308,3.322 -3.42,3.42C-1.531,3.517 -0.001,2.064 -0.001,0.176C-0.001,-1.713 -1.531,-3.323 -3.42,-3.42" style="fill:rgb(26,46,53);fill-rule:nonzero;"/>
                </g>
                <g transform="matrix(0,-1,-1,0,194.874,289.329)">
                    <path d="M-3.42,-3.42C-5.308,-3.517 -6.839,-2.065 -6.839,-0.176C-6.839,1.712 -5.308,3.322 -3.42,3.42C-1.531,3.517 -0.001,2.064 -0.001,0.176C-0.001,-1.713 -1.531,-3.323 -3.42,-3.42" style="fill:rgb(26,46,53);fill-rule:nonzero;"/>
                </g>
                <g transform="matrix(0,-1,-1,0,205.381,289.329)">
                    <path d="M-3.42,-3.42C-5.308,-3.517 -6.839,-2.065 -6.839,-0.176C-6.839,1.712 -5.308,3.322 -3.42,3.42C-1.531,3.517 -0.001,2.064 -0.001,0.176C-0.001,-1.713 -1.531,-3.323 -3.42,-3.42" style="fill:rgb(26,46,53);fill-rule:nonzero;"/>
                </g>
                <g transform="matrix(0,-1,-1,0,215.888,289.329)">
                    <path d="M-3.42,-3.42C-5.308,-3.517 -6.839,-2.065 -6.839,-0.176C-6.839,1.712 -5.308,3.322 -3.42,3.42C-1.531,3.517 -0.001,2.064 -0.001,0.176C-0.001,-1.713 -1.531,-3.323 -3.42,-3.42" style="fill:rgb(26,46,53);fill-rule:nonzero;"/>
                </g>
                <g transform="matrix(1,0,0,1,333.031,223.71)">
                    <path d="M0,-47.085C0.251,-46.714 0.378,-46.51 0.543,-46.243L0.99,-45.495C1.28,-45 1.534,-44.506 1.79,-44.012C2.29,-43.023 2.763,-42.033 3.187,-41.033C4.043,-39.033 4.746,-36.991 5.354,-34.935C6.586,-30.825 7.339,-26.613 7.725,-22.399L7.803,-21.61C7.817,-21.497 7.827,-21.318 7.835,-21.133L7.857,-20.595C7.87,-19.884 7.835,-19.181 7.736,-18.516C7.548,-17.175 7.187,-15.937 6.744,-14.792C5.845,-12.512 4.61,-10.575 3.285,-8.812C0.573,-5.301 -2.506,-2.491 -6.024,0L-8.779,-3.226C-6.307,-6.085 -3.912,-9.253 -2.138,-12.416C-1.233,-13.993 -0.541,-15.619 -0.111,-17.136C0.091,-17.893 0.2,-18.622 0.217,-19.28C0.24,-19.612 0.216,-19.918 0.184,-20.21L0.153,-20.423C0.146,-20.488 0.138,-20.561 0.112,-20.696L-0.013,-21.4C-0.667,-25.153 -1.56,-28.841 -2.731,-32.403C-3.306,-34.189 -4.017,-35.915 -4.739,-37.611C-5.095,-38.462 -5.49,-39.287 -5.894,-40.092L-6.514,-41.267L-6.822,-41.824L-7.076,-42.261L0,-47.085Z" style="fill:rgb(146,60,57);fill-rule:nonzero;"/>
                </g>
                <g transform="matrix(0.42801,0.903774,0.903774,-0.42801,327.011,221.762)">
                    <path d="M0.399,-3.857L8.859,-3.857L4.245,1.506C4.245,1.506 -1.905,1.602 -2.917,-1.729L0.399,-3.857Z" style="fill:rgb(145,60,56);fill-rule:nonzero;"/>
                </g>
                <g transform="matrix(0.520607,-0.853796,-0.853796,-0.520607,332.901,230.277)">
                    <path d="M-2.855,1.76L2.668,1.76L3.132,5.087L-3.882,4.173L-2.855,1.76Z" style="fill:rgb(145,60,56);fill-rule:nonzero;"/>
                </g>
                <g transform="matrix(1,0,0,1,315.284,406.311)">
                    <path d="M0,1.323C-1.458,1.615 -2.555,1.564 -2.979,1.177C-3.159,1.012 -3.226,0.781 -3.182,0.471C-3.159,0.304 -3.082,0.249 -3.017,0.22C-2.503,-0.016 -1.037,0.696 0,1.323M-1.65,1.906C-0.876,1.906 -0.031,1.746 0.562,1.606C0.639,1.588 0.698,1.526 0.711,1.448C0.725,1.37 0.691,1.291 0.625,1.248C0.338,1.059 -2.206,-0.583 -3.18,-0.142C-3.334,-0.072 -3.528,0.081 -3.575,0.416C-3.638,0.86 -3.527,1.215 -3.246,1.47C-2.889,1.796 -2.295,1.906 -1.65,1.906" style="fill:rgb(0,124,255);fill-rule:nonzero;"/>
                </g>
                <g transform="matrix(1,0,0,1,314.375,407.495)">
                    <path d="M0,-2.968C0.163,-2.968 0.307,-2.911 0.439,-2.794C0.982,-2.313 1.169,-0.959 1.215,-0.156C0.418,-0.792 -0.531,-2.15 -0.417,-2.725C-0.398,-2.82 -0.344,-2.932 -0.09,-2.963C-0.059,-2.966 -0.029,-2.968 0,-2.968M1.426,0.427C1.46,0.427 1.495,0.418 1.525,0.4C1.586,0.365 1.624,0.299 1.624,0.229C1.624,0.126 1.613,-2.285 0.702,-3.091C0.46,-3.306 0.177,-3.395 -0.138,-3.356C-0.635,-3.296 -0.77,-2.984 -0.806,-2.803C-0.994,-1.859 0.529,-0.051 1.328,0.401C1.358,0.419 1.392,0.427 1.426,0.427" style="fill:rgb(0,124,255);fill-rule:nonzero;"/>
                </g>
                <g transform="matrix(1,0,0,1,299.534,405.142)">
                    <path d="M0,-0.372C0.446,-0.854 2.424,-0.985 3.91,-0.961C2.352,0.094 1.066,0.598 0.414,0.396C0.185,0.324 0.031,0.167 -0.059,-0.086C-0.094,-0.185 -0.085,-0.262 -0.03,-0.337C-0.021,-0.349 -0.011,-0.36 0,-0.372M4.656,-1.006C4.703,-1.057 4.721,-1.129 4.701,-1.197C4.677,-1.278 4.604,-1.334 4.52,-1.339C4.105,-1.359 0.511,-1.508 -0.299,-0.633C-0.317,-0.613 -0.333,-0.594 -0.348,-0.574C-0.483,-0.392 -0.513,-0.177 -0.433,0.046C-0.3,0.42 -0.055,0.666 0.296,0.774C1.46,1.136 3.509,-0.17 4.627,-0.98C4.638,-0.988 4.647,-0.997 4.656,-1.006" style="fill:rgb(0,124,255);fill-rule:nonzero;"/>
                </g>
                <g transform="matrix(1,0,0,1,300.599,403.464)">
                    <path d="M0,-1.332C0.041,-1.376 0.101,-1.425 0.19,-1.477C0.451,-1.63 0.725,-1.665 1.027,-1.584C1.896,-1.35 2.714,-0.238 3.076,0.318C1.894,0.183 0.082,-0.548 -0.071,-1.104C-0.081,-1.138 -0.103,-1.22 0,-1.332M3.591,0.673C3.601,0.662 3.609,0.65 3.617,0.638C3.652,0.577 3.653,0.502 3.618,0.441C3.571,0.357 2.454,-1.61 1.13,-1.967C0.726,-2.076 0.341,-2.026 -0.011,-1.819C-0.487,-1.54 -0.514,-1.218 -0.454,-0.999C-0.198,-0.072 2.351,0.744 3.447,0.737C3.502,0.736 3.554,0.712 3.591,0.673" style="fill:rgb(0,124,255);fill-rule:nonzero;"/>
                </g>
                <g transform="matrix(1,0,0,1,315.199,171.501)">
                    <path d="M0,-24.171C-0.974,-19.201 -3.163,-8.358 0.314,-5.041C0.314,-5.041 -1.045,0 -10.28,0C-20.435,0 -15.133,-5.041 -15.133,-5.041C-9.591,-6.364 -9.734,-10.477 -10.699,-14.338L0,-24.171Z" style="fill:rgb(145,60,56);fill-rule:nonzero;"/>
                </g>
                <g transform="matrix(1,0,0,1,298.275,132.808)">
                    <path d="M0,2.8C0.06,2.8 0.12,2.786 0.177,2.758C0.373,2.66 0.453,2.421 0.354,2.225C-0.628,0.263 -2.446,0.035 -2.523,0.026C-2.74,0 -2.938,0.158 -2.962,0.376C-2.987,0.593 -2.831,0.789 -2.615,0.815C-2.555,0.822 -1.139,1.015 -0.355,2.581C-0.285,2.72 -0.145,2.8 0,2.8" style="fill:rgb(26,46,53);fill-rule:nonzero;"/>
                </g>
                <g transform="matrix(1,0,0,1,295.247,144.871)">
                    <path d="M0,-4.919C0,-4.919 -1.495,-2.173 -2.92,-0.935C-2.137,0 -0.585,-0.191 -0.585,-0.191L0,-4.919Z" style="fill:rgb(116,7,7);fill-rule:nonzero;"/>
                </g>
                <g transform="matrix(0.123188,-0.992383,-0.992383,-0.123188,295.391,138)">
                    <path d="M-0.793,-0.701C-1.469,-0.701 -2.017,-0.344 -2.017,0.098C-2.018,0.54 -1.47,0.898 -0.793,0.898C-0.118,0.898 0.43,0.541 0.429,0.099C0.43,-0.343 -0.117,-0.701 -0.793,-0.701" style="fill:rgb(26,46,53);fill-rule:nonzero;"/>
                </g>
                <g transform="matrix(1,0,0,1,295.535,137.656)">
                    <path d="M0,-0.033L-1.553,-0.697C-1.553,-0.697 -0.882,0.664 0,-0.033" style="fill:rgb(26,46,53);fill-rule:nonzero;"/>
                </g>
                <g transform="matrix(-0.973796,0.227422,0.227422,0.973796,298.158,387.092)">
                    <path d="M-11.024,18.127L-2.648,18.127L-2.089,-1.27L-10.465,-1.27L-11.024,18.127Z" style="fill:rgb(145,60,56);fill-rule:nonzero;"/>
                </g>
                <g transform="matrix(-1,0,0,1,317.822,388.327)">
                    <path d="M-7.719,19.397L0.657,19.397L-0,0L-8.376,0L-7.719,19.397Z" style="fill:rgb(145,60,56);fill-rule:nonzero;"/>
                </g>
                <g transform="matrix(1,0,0,1,316.501,416.276)">
                    <path d="M0,-9.522L9.41,-9.522C9.753,-9.522 10.031,-9.284 10.079,-8.95L11.151,-1.504C11.262,-0.732 10.598,-0.001 9.808,-0.015C6.527,-0.071 4.946,-0.264 0.808,-0.264C-1.738,-0.264 -5.458,0 -8.973,0C-12.412,0 -12.677,-3.476 -11.213,-3.791C-4.648,-5.203 -3.611,-7.149 -1.4,-9.007C-1.001,-9.342 -0.501,-9.522 0,-9.522" style="fill:rgb(26,46,53);fill-rule:nonzero;"/>
                </g>
                <g transform="matrix(1,0,0,1,304.136,413.301)">
                    <path d="M0,-10.409L8.549,-14.342C8.86,-14.485 9.212,-14.385 9.396,-14.101L13.481,-7.785C13.905,-7.13 13.607,-6.189 12.884,-5.871C9.88,-4.551 8.363,-4.065 4.603,-2.336C2.29,-1.272 -2.384,1.169 -5.578,2.639C-8.702,4.076 -10.395,1.028 -9.196,0.13C-3.823,-3.896 -2.289,-6.744 -1.057,-9.356C-0.834,-9.827 -0.455,-10.2 0,-10.409" style="fill:rgb(26,46,53);fill-rule:nonzero;"/>
                </g>
                <g opacity="0.2">
                    <g transform="matrix(0.255279,0.966867,0.966867,-0.255279,307.833,383.238)">
                        <path d="M0.051,-8.213L10.448,-8.213L10.295,0.164L0.292,0.163L0.051,-8.213Z" style="fill-rule:nonzero;"/>
                    </g>
                </g>
                <g opacity="0.2">
                    <g transform="matrix(-1,0,0,1,317.486,398.331)">
                        <path d="M-8.714,-9.999L-0.334,-9.999L0,0L-8.38,0L-8.714,-9.999Z" style="fill-rule:nonzero;"/>
                    </g>
                </g>
                <g transform="matrix(-0.993865,-0.110597,-0.110597,0.993865,325.098,190.934)">
                    <path d="M-2.336,-22.971C-5.879,-22.597 -10.957,-10.567 -10.957,-10.567L-2.336,0.918C-2.336,0.918 7.078,-9.863 5.904,-14.344C4.68,-19.011 1.852,-23.411 -2.336,-22.971" style="fill:rgb(26,46,53);fill-rule:nonzero;"/>
                </g>
                <g opacity="0.4">
                    <g transform="matrix(1,0,0,1,324.444,189.33)">
                        <path d="M0,-13C-1.76,-14.61 -2.95,-14.13 -3.76,-12.85C-4.56,-9.13 0.18,-1.34 2.09,1.61C2.97,-1.91 3.98,-9.34 0,-13" style="fill-rule:nonzero;"/>
                    </g>
                </g>
                <g transform="matrix(1,0,0,1,285.907,216.556)">
                    <path d="M0,-47.95C0,-47.95 -3.99,-46.544 4.003,2.605L38.022,2.605C37.451,-11.241 37.435,-19.778 44.053,-48.193C44.053,-48.193 36.925,-49.743 29.607,-50.096C23.882,-50.372 19.192,-50.555 14.159,-50.096C7.524,-49.49 0,-47.95 0,-47.95" style="fill:rgb(26,46,53);fill-rule:nonzero;"/>
                </g>
                <g opacity="0.4">
                    <g transform="matrix(1,0,0,1,285.604,189.901)">
                        <path d="M0,-2.431C0.22,-0.041 0.51,2.649 0.89,5.689C3.676,3.18 5.953,-3.956 5.12,-8.12C3.17,-6.671 1.37,-4.431 0,-2.431" style="fill-rule:nonzero;"/>
                    </g>
                </g>
                <g transform="matrix(1,0,0,1,289.235,210.458)">
                    <path d="M0,-30.439C-1.851,-25.764 -3.89,-21.321 -6.183,-16.884C-8.473,-12.453 -10.919,-8.099 -14.169,-3.888L-14.808,-3.101L-15.128,-2.709C-15.237,-2.576 -15.323,-2.46 -15.5,-2.278C-16.119,-1.595 -16.789,-1.011 -17.475,-0.521C-18.853,0.461 -20.277,1.086 -21.656,1.567C-24.42,2.497 -27.092,2.827 -29.696,2.983C-34.923,3.195 -39.868,2.711 -44.855,1.637L-44.301,-2.568C-42.002,-2.556 -39.592,-2.607 -37.267,-2.754C-34.931,-2.876 -32.619,-3.126 -30.401,-3.522C-28.188,-3.893 -26.048,-4.456 -24.262,-5.233C-23.381,-5.628 -22.615,-6.101 -22.052,-6.58C-21.769,-6.819 -21.546,-7.063 -21.368,-7.296C-21.331,-7.33 -21.241,-7.461 -21.165,-7.569L-20.931,-7.899L-20.463,-8.556C-18,-12.201 -15.836,-16.436 -13.771,-20.668C-11.741,-24.921 -9.783,-29.331 -7.946,-33.634L0,-30.439Z" style="fill:rgb(146,60,57);fill-rule:nonzero;"/>
                </g>
                <g transform="matrix(-0.999671,-0.0256479,-0.0256479,0.999671,287.174,192.531)">
                    <path d="M1.88,-23.885C6.016,-22.763 10.844,-11.206 10.844,-11.206L1.88,1.263C1.88,1.263 -9.249,-13.51 -7.768,-17.899C-6.227,-22.47 -3.137,-25.245 1.88,-23.885" style="fill:rgb(26,46,53);fill-rule:nonzero;"/>
                </g>
                <g transform="matrix(-0.9079,-0.419186,-0.419186,0.9079,240.299,209.25)">
                    <path d="M-6.075,-3.617L1.864,-3.617L-0.482,3.192C-0.482,3.192 -6.695,2.276 -8.63,-0.617L-6.075,-3.617Z" style="fill:rgb(145,60,56);fill-rule:nonzero;"/>
                </g>
                <g transform="matrix(-0.124907,0.992168,0.992168,0.124907,241.762,207.096)">
                    <path d="M-1.871,-6.238L3.629,-6.238L5.507,-1.688L-1.692,-1.864L-1.871,-6.238Z" style="fill:rgb(145,60,56);fill-rule:nonzero;"/>
                </g>
                <g transform="matrix(-0.340873,-0.940109,-0.940109,0.340873,300.312,131.955)">
                    <path d="M-13.272,-14.874C-20.434,-10.655 -23.557,-9.023 -25.451,-3.356C-28.3,5.169 -21.551,13.044 -13.272,11.051C-5.819,9.256 4.643,2.659 3.9,-6.078C3.169,-14.685 -6.109,-19.093 -13.272,-14.874" style="fill:rgb(145,60,56);fill-rule:nonzero;"/>
                </g>
                <g transform="matrix(1,0,0,1,300.868,133.75)">
                    <path d="M0,7.333C-0.467,11.5 -0.647,22.326 8.507,22.666C19.725,23.083 23.083,13.5 22.083,9.666C27.917,4.916 28.76,-3.25 22.201,-9.5C15.643,-15.75 1.201,-12.257 -2.833,-6.167C-7.833,1.38 0,7.333 0,7.333" style="fill:rgb(26,46,53);fill-rule:nonzero;"/>
                </g>
                <g transform="matrix(0.108489,0.994098,0.994098,-0.108489,320.708,118.725)">
                    <path d="M6.972,-9.419C2.545,-9.481 -0.425,-8.733 0.021,-4.646C0.467,-0.56 2.562,4.87 6.972,6.463C11.383,8.057 17.946,7.508 16.659,1.864C15.373,-3.78 12.273,-9.344 6.972,-9.419" style="fill:rgb(0,124,255);fill-rule:nonzero;"/>
                </g>
                <g transform="matrix(1,0,0,1,318.477,111.477)">
                    <path d="M0,14.145C-0.98,8.902 3.691,-5.851 15.086,-6.81C20.363,-7.255 22.808,-1.574 20.044,-0.639C25.03,-0.699 28.244,5.91 23.58,6.905C27.267,9.26 26.349,14.106 21.099,16.481C17.229,18.232 1.356,21.4 0,14.145" style="fill:rgb(26,46,53);fill-rule:nonzero;"/>
                </g>
                <g transform="matrix(1,0,0,1,330.65,120.883)">
                    <path d="M0,10.369C-3.666,10.369 -7.5,9.83 -9.875,8.24C-11.317,7.274 -12.108,5.994 -12.226,4.434C-12.236,4.296 -12.133,4.176 -11.996,4.166C-11.85,4.155 -11.738,4.258 -11.727,4.396C-11.622,5.795 -10.905,6.948 -9.597,7.825C-5.072,10.855 5.387,9.874 8.664,8.804C11.483,7.884 13.392,6.101 13.771,4.035C14.049,2.519 13.454,1.082 12.097,-0.011C11.989,-0.097 11.972,-0.255 12.059,-0.362C12.145,-0.47 12.303,-0.486 12.41,-0.4C13.896,0.796 14.57,2.445 14.263,4.125C13.851,6.375 11.815,8.302 8.819,9.279C7.104,9.839 3.634,10.369 0,10.369" style="fill:rgb(26,46,53);fill-rule:nonzero;"/>
                </g>
                <g transform="matrix(-0.888869,0.458161,0.458161,0.888869,303.471,143.675)">
                    <path d="M2.888,-5.648C4.418,-4.871 5.467,-3.467 5.909,-2.125C6.573,-0.108 4.819,0.952 2.888,0.435C1.15,-0.03 -1.291,-1.64 -1.118,-3.686C-0.947,-5.7 1.139,-6.535 2.888,-5.648" style="fill:rgb(145,60,56);fill-rule:nonzero;"/>
                </g>
                <g transform="matrix(1,0,0,1,298.894,396.395)">
                    <path d="M0,-177.234C0,-177.234 4.861,-119.743 9.905,-87.342C13.979,-61.172 17.191,0 17.191,0L28.614,0C28.614,0 32.677,-59.344 30.609,-85.228C25.376,-150.726 37.045,-156.062 25.035,-177.234L0,-177.234Z" style="fill:rgb(0,124,255);fill-rule:nonzero;"/>
                </g>
                <g opacity="0.4">
                    <g transform="matrix(1,0,0,1,313.273,296.99)">
                        <path d="M0,-56.1C-4.61,-51.39 -8.12,-45.76 -10.79,-39.82C-9.46,-26.9 -7.88,-12.56 -6.2,0C-1,-13.13 3.45,-33.33 0,-56.1" style="fill-rule:nonzero;"/>
                    </g>
                </g>
                <g transform="matrix(1,0,0,1,290.899,391.375)">
                    <path d="M0,-172.577C0,-172.577 -10.545,-109.788 -12.212,-81.486C-8.07,-55.315 8.872,0 8.872,0L19.261,-3.764C19.261,-3.764 13.514,-64.083 7.229,-80.597C21.299,-127.97 31.639,-139.942 28.63,-172.214C21.455,-172.214 0,-172.577 0,-172.577" style="fill:rgb(0,124,255);fill-rule:nonzero;"/>
                </g>
                <g transform="matrix(0.965061,-0.262024,-0.262024,-0.965061,299.823,395.58)">
                    <path d="M-1.019,1.77L13.53,1.77L14.228,7.379L-1.344,7.394L-1.019,1.77Z" style="fill:rgb(26,46,53);fill-rule:nonzero;"/>
                </g>
                <g transform="matrix(1,0,0,1,314.522,390.996)">
                    <path d="M0,5.625L14.548,5.625L15.313,0.521L-0.083,0L0,5.625Z" style="fill:rgb(26,46,53);fill-rule:nonzero;"/>
                </g>
                <g transform="matrix(1,0,0,1,324.439,220.431)">
                    <path d="M0,-3.267L1.534,-0.222C1.653,0.014 1.373,0.255 0.98,0.255L-34.697,0.255C-35.003,0.255 -35.257,0.105 -35.277,-0.088L-35.584,-3.133C-35.605,-3.344 -35.339,-3.522 -35.004,-3.522L-0.554,-3.522C-0.301,-3.522 -0.077,-3.419 0,-3.267" style="fill:rgb(0,124,255);fill-rule:nonzero;"/>
                </g>
                <g opacity="0.5">
                    <g transform="matrix(1,0,0,1,324.439,220.431)">
                        <path d="M0,-3.267L1.534,-0.222C1.653,0.014 1.373,0.255 0.98,0.255L-34.697,0.255C-35.003,0.255 -35.257,0.105 -35.277,-0.088L-35.584,-3.133C-35.605,-3.344 -35.339,-3.522 -35.004,-3.522L-0.554,-3.522C-0.301,-3.522 -0.077,-3.419 0,-3.267" style="fill-rule:nonzero;"/>
                    </g>
                </g>
                <g transform="matrix(1,0,0,1,319.812,216.639)">
                    <path d="M0,4.377L0.923,4.377C1.106,4.377 1.246,4.282 1.234,4.167L0.801,0.21C0.788,0.095 0.628,0 0.444,0L-0.479,0C-0.662,0 -0.802,0.095 -0.79,0.21L-0.357,4.167C-0.344,4.282 -0.184,4.377 0,4.377" style="fill:rgb(0,124,255);fill-rule:nonzero;"/>
                </g>
                <g transform="matrix(1,0,0,1,307.427,166.467)">
                    <path d="M0,25.408C-0.226,25.408 -0.424,25.257 -0.482,25.039C-3.746,12.984 -10.526,3.07 -13.761,1.541C-14.123,1.37 -14.423,1.321 -14.604,1.402C-14.857,1.516 -15.152,1.403 -15.265,1.152C-15.378,0.9 -15.266,0.604 -15.015,0.491C-14.548,0.28 -13.983,0.33 -13.333,0.637C-9.881,2.269 -3.042,12.07 0.381,24.406C2.833,24.375 6.616,24.069 7.528,23.992C8.671,22.634 17.057,12.153 13.919,0.688C13.847,0.421 14.003,0.146 14.27,0.073C14.534,0 14.811,0.157 14.884,0.423C18.376,13.186 8.25,24.692 8.147,24.806C8.062,24.901 7.944,24.96 7.818,24.971C7.768,24.975 2.781,25.408 0,25.408" style="fill:rgb(0,124,255);fill-rule:nonzero;"/>
                </g>
                <g transform="matrix(1,0,0,1,323.992,204.187)">
                    <path d="M0,-5.243C-5.45,-15.461 -7.679,-16.175 -8.655,-19.46C-8.655,-19.46 -7.776,-21.94 -5.547,-24.451C-6.215,-24.637 -7.631,-24.92 -8.519,-25.092C-8.417,-25.539 -8.315,-25.981 -8.213,-26.405C-8.95,-26.609 -10.479,-26.399 -11.262,-26.268L-11.297,-27.276C-11.297,-27.276 -14.061,-27.831 -15.172,-27.522C-15.061,-27.057 -14.948,-26.573 -14.837,-26.082C-15.81,-25.894 -17.362,-25.584 -18.095,-25.38C-15.972,-22.989 -15.207,-20.437 -15.042,-19.806C-17.977,-14.761 -29.401,17.704 -10.825,20.145C7.761,22.588 5.45,4.976 0,-5.243" style="fill:rgb(0,124,255);fill-rule:nonzero;"/>
                </g>
                <g opacity="0.4">
                    <g transform="matrix(1,0,0,1,323.992,204.187)">
                        <path d="M0,-5.243C-5.45,-15.461 -7.679,-16.175 -8.655,-19.46C-8.655,-19.46 -7.776,-21.94 -5.547,-24.451C-6.215,-24.637 -7.631,-24.92 -8.519,-25.092C-8.417,-25.539 -8.315,-25.981 -8.213,-26.405C-8.95,-26.609 -10.479,-26.399 -11.262,-26.268L-11.297,-27.276C-11.297,-27.276 -14.061,-27.831 -15.172,-27.522C-15.061,-27.057 -14.948,-26.573 -14.837,-26.082C-15.81,-25.894 -17.362,-25.584 -18.095,-25.38C-15.972,-22.989 -15.207,-20.437 -15.042,-19.806C-17.977,-14.761 -29.401,17.704 -10.825,20.145C7.761,22.588 5.45,4.976 0,-5.243" style="fill:white;fill-rule:nonzero;"/>
                    </g>
                </g>
                <g transform="matrix(1,0,0,1,308.257,185.436)">
                    <path d="M0,-2.021C-0.138,-1.773 -0.125,-0.834 -0.146,-0.459C-0.167,-0.084 0.833,0.167 1.958,0.271C3.083,0.375 7.729,0.562 7.583,0.042C7.437,-0.479 7.812,-1.188 7.833,-1.625C7.854,-2.063 5.979,-2.083 4.417,-2.021C2.854,-1.959 0.312,-2.583 0,-2.021" style="fill:rgb(0,124,255);fill-rule:nonzero;"/>
                </g>
                <g transform="matrix(1,0,0,1,297.448,216.639)">
                    <path d="M0,4.377L0.923,4.377C1.106,4.377 1.246,4.282 1.234,4.167L0.801,0.21C0.788,0.095 0.628,0 0.444,0L-0.479,0C-0.662,0 -0.802,0.095 -0.79,0.21L-0.357,4.167C-0.344,4.282 -0.184,4.377 0,4.377" style="fill:rgb(0,124,255);fill-rule:nonzero;"/>
                </g>
            </g>
        </g>
    </g>
</svg>
