<?xml version="1.0" encoding="UTF-8" standalone="no"?>
<!DOCTYPE svg PUBLIC "-//W3C//DTD SVG 1.1//EN" "http://www.w3.org/Graphics/SVG/1.1/DTD/svg11.dtd">
<svg width="100%" height="100%" viewBox="0 0 160 148" version="1.1" xmlns="http://www.w3.org/2000/svg" xmlns:xlink="http://www.w3.org/1999/xlink" xml:space="preserve" xmlns:serif="http://www.serif.com/" style="fill-rule:evenodd;clip-rule:evenodd;stroke-linecap:round;stroke-linejoin:round;stroke-miterlimit:1.5;">
    <g transform="matrix(1,0,0,1,-5252.19,-1916.48)">
        <g transform="matrix(1,0,0,1,4792,1216)">
            <g transform="matrix(1.24364,-0.456618,0.603633,1.72201,-4307.1,-4363.07)">
                <path d="M2182,3524.59C2182,3520.72 2177.68,3517.58 2172.35,3517.58L2133.65,3517.58C2128.32,3517.58 2124,3520.72 2124,3524.59L2124,3583.99C2124,3587.86 2128.32,3591 2133.65,3591L2172.35,3591C2177.68,3591 2182,3587.86 2182,3583.99L2182,3524.59Z" style="fill:none;stroke:rgb(2,3,129);stroke-width:1.32px;"/>
            </g>
            <g transform="matrix(1.0446,-0.383537,0.541982,1.54613,-3659.44,-3895.3)">
                <path d="M2182,3524.14C2182,3520.52 2177.68,3517.58 2172.35,3517.58L2133.65,3517.58C2128.32,3517.58 2124,3520.52 2124,3524.14L2124,3584.44C2124,3588.06 2128.32,3591 2133.65,3591L2172.35,3591C2177.68,3591 2182,3588.06 2182,3584.44L2182,3524.14Z" style="fill:none;stroke:rgb(2,3,129);stroke-width:1.5px;"/>
            </g>
            <g transform="matrix(1.82742,0.147909,-0.144522,1.87024,-2892.12,-6198.82)">
                <path d="M2174.1,3554L2177.52,3562.63L2180.93,3554L2200,3554L2200,3525L2155,3525L2155,3554L2174.1,3554ZM2177,3535.24C2178.89,3532 2182.68,3532 2184.58,3533.62C2186.47,3535.24 2186.47,3538.47 2184.58,3541.71C2183.25,3544.14 2179.84,3546.57 2177,3548.19C2174.16,3546.57 2170.75,3544.14 2169.42,3541.71C2167.53,3538.47 2167.53,3535.24 2169.42,3533.62C2171.32,3532 2175.11,3532 2177,3535.24Z" style="fill:rgb(2,3,129);stroke:rgb(2,3,129);stroke-width:1.12px;"/>
            </g>
        </g>
    </g>
</svg>
