<?xml version="1.0" encoding="UTF-8" standalone="no"?>
<!DOCTYPE svg PUBLIC "-//W3C//DTD SVG 1.1//EN" "http://www.w3.org/Graphics/SVG/1.1/DTD/svg11.dtd">
<svg width="100%" height="100%" viewBox="0 0 153 139" version="1.1" xmlns="http://www.w3.org/2000/svg" xmlns:xlink="http://www.w3.org/1999/xlink" xml:space="preserve" xmlns:serif="http://www.serif.com/" style="fill-rule:evenodd;clip-rule:evenodd;stroke-linecap:round;stroke-linejoin:round;stroke-miterlimit:1.5;">
    <g transform="matrix(1,0,0,1,-1667.18,-698)">
        <g transform="matrix(1,0,0,1,1192,5.68434e-14)">
            <g transform="matrix(2.0771,0,0,2.0771,-3057.54,-829.722)">
                <path d="M1741.63,745.466L1703.8,745.466L1703.8,799.066L1760.2,799.066L1760.2,770.667" style="fill:none;stroke:rgb(2,3,129);stroke-width:6.02px;"/>
            </g>
            <g transform="matrix(1,0,0,1,-1192,0)">
                <path d="M1704.46,797.458C1704.03,797.622 1703.55,797.497 1703.25,797.147C1702.96,796.796 1702.92,796.297 1703.15,795.904C1706.87,789.704 1715.76,774.872 1715.76,774.872L1727.35,788.651C1727.35,788.651 1711.21,794.862 1704.46,797.458ZM1792.1,710.705L1716.29,774.43L1727.87,788.208L1803.68,724.484L1792.1,710.705ZM1796.99,724.308C1796.68,723.943 1796.13,723.895 1795.77,724.203L1728.65,780.618C1728.29,780.925 1728.24,781.472 1728.55,781.837L1729.66,783.162C1729.97,783.528 1730.52,783.575 1730.88,783.268L1797.99,726.853C1798.36,726.545 1798.41,725.999 1798.1,725.633L1796.99,724.308ZM1797.36,706.28L1808.94,720.059L1809.63,719.477C1809.67,719.445 1809.71,719.412 1809.74,719.378C1809.83,719.311 1809.91,719.243 1810,719.173L1816.31,713.863C1820.09,710.688 1820.56,705.023 1817.37,701.221C1814.17,697.419 1808.51,696.91 1804.73,700.085L1797.36,706.28Z" style="fill:rgb(2,3,129);"/>
            </g>
        </g>
    </g>
</svg>
