<?xml version="1.0" encoding="UTF-8" standalone="no"?>
<!DOCTYPE svg PUBLIC "-//W3C//DTD SVG 1.1//EN" "http://www.w3.org/Graphics/SVG/1.1/DTD/svg11.dtd">
<svg width="100%" height="100%" viewBox="0 0 968 857" version="1.1" xmlns="http://www.w3.org/2000/svg" xmlns:xlink="http://www.w3.org/1999/xlink" xml:space="preserve" xmlns:serif="http://www.serif.com/" style="fill-rule:evenodd;clip-rule:evenodd;stroke-linejoin:round;stroke-miterlimit:2;">
    <g transform="matrix(1,0,0,1,-2441.11,-2536.5)">
        <g transform="matrix(1,0,0,1,2385,2443)">
            <g transform="matrix(2.29981,0,0,2.29981,-31.7637,-32.8808)">
                <g transform="matrix(1,0,0,1,0,284.094)">
                    <rect x="410.767" y="107.828" width="33.122" height="0.25" style="fill:rgb(236,236,236);"/>
                </g>
                <g transform="matrix(1,0,0,1,0,290.862)">
                    <rect x="131.471" y="104.444" width="49.862" height="0.25" style="fill:rgb(236,236,236);"/>
                </g>
                <g transform="matrix(1,0,0,1,0,302.666)">
                    <rect x="380.241" y="98.542" width="29.525" height="0.25" style="fill:rgb(236,236,236);"/>
                </g>
                <g transform="matrix(1,0,0,1,0,299.306)">
                    <rect x="52.459" y="100.222" width="21.596" height="0.25" style="fill:rgb(236,236,236);"/>
                </g>
                <g transform="matrix(1,0,0,1,0,299.306)">
                    <rect x="82.959" y="100.222" width="38.374" height="0.25" style="fill:rgb(236,236,236);"/>
                </g>
                <g transform="matrix(1,0,0,1,0,278.666)">
                    <rect x="237.544" y="110.542" width="93.676" height="0.25" style="fill:rgb(236,236,236);"/>
                </g>
                <g transform="matrix(1,0,0,1,43.915,337.55)">
                    <path d="M0,-282.347C-3.01,-282.347 -5.458,-279.899 -5.458,-276.889L-5.458,-5.458C-5.458,-2.448 -3.01,0 0,0L193.099,0C196.107,0 198.556,-2.448 198.556,-5.458L198.556,-276.889C198.556,-279.899 196.107,-282.347 193.099,-282.347L0,-282.347ZM193.099,0.25L0,0.25C-3.147,0.25 -5.708,-2.31 -5.708,-5.458L-5.708,-276.889C-5.708,-280.036 -3.147,-282.597 0,-282.597L193.099,-282.597C196.245,-282.597 198.806,-280.036 198.806,-276.889L198.806,-5.458C198.806,-2.31 196.245,0.25 193.099,0.25" style="fill:rgb(236,236,236);fill-rule:nonzero;"/>
                </g>
                <g transform="matrix(1,0,0,1,260.212,337.55)">
                    <path d="M0,-282.347C-3.009,-282.347 -5.457,-279.899 -5.457,-276.889L-5.457,-5.458C-5.457,-2.448 -3.009,0 0,0L193.099,0C196.108,0 198.557,-2.448 198.557,-5.458L198.557,-276.889C198.557,-279.899 196.108,-282.347 193.099,-282.347L0,-282.347ZM193.099,0.25L0,0.25C-3.147,0.25 -5.707,-2.31 -5.707,-5.458L-5.707,-276.889C-5.707,-280.036 -3.147,-282.597 0,-282.597L193.099,-282.597C196.246,-282.597 198.807,-280.036 198.807,-276.889L198.807,-5.458C198.807,-2.31 196.246,0.25 193.099,0.25" style="fill:rgb(236,236,236);fill-rule:nonzero;"/>
                </g>
                <g transform="matrix(1,0,0,1,0,-179.352)">
                    <rect x="187.868" y="261.836" width="109.306" height="155.68" style="fill:rgb(231,231,231);"/>
                </g>
                <g transform="matrix(1,0,0,1,0,-179.352)">
                    <rect x="183.686" y="261.836" width="109.306" height="155.68" style="fill:rgb(245,245,245);"/>
                </g>
                <g transform="matrix(-1,0,0,1,476.677,-179.351)">
                    <rect x="191.193" y="268.845" width="94.291" height="141.661" style="fill:white;"/>
                </g>
                <g transform="matrix(-1,0,0,1,385.548,-179.351)">
                    <rect x="191.193" y="268.845" width="3.162" height="141.661" style="fill:rgb(231,231,231);"/>
                </g>
                <g transform="matrix(1,0,0,1,0,-112.414)">
                    <rect x="186.791" y="301.502" width="103.096" height="9.41" style="fill:rgb(245,245,245);"/>
                </g>
                <g transform="matrix(1,0,0,1,0,-286.889)">
                    <rect x="186.791" y="388.739" width="103.096" height="9.411" style="fill:rgb(245,245,245);"/>
                </g>
                <g transform="matrix(1,0,0,1,0,-179.352)">
                    <rect x="54.723" y="261.836" width="109.306" height="155.68" style="fill:rgb(231,231,231);"/>
                </g>
                <g transform="matrix(1,0,0,1,0,-179.352)">
                    <rect x="50.541" y="261.836" width="109.306" height="155.68" style="fill:rgb(245,245,245);"/>
                </g>
                <g transform="matrix(-1,0,0,1,210.387,-179.351)">
                    <rect x="58.048" y="268.845" width="94.291" height="141.661" style="fill:white;"/>
                </g>
                <g transform="matrix(-1,0,0,1,119.258,-179.351)">
                    <rect x="58.048" y="268.845" width="3.162" height="141.661" style="fill:rgb(231,231,231);"/>
                </g>
                <g transform="matrix(1,0,0,1,0,-112.414)">
                    <rect x="53.646" y="301.502" width="103.096" height="9.41" style="fill:rgb(245,245,245);"/>
                </g>
                <g transform="matrix(1,0,0,1,0,-286.889)">
                    <rect x="53.646" y="388.739" width="103.096" height="9.411" style="fill:rgb(245,245,245);"/>
                </g>
                <g transform="matrix(1,0,0,1,425.197,235.739)">
                    <path d="M0,52.083C5.618,48.741 9.773,43.039 9.049,30.067C7.836,8.339 -8.786,5.811 -12.547,-3.601C-11.402,-4.814 -10.314,-6.493 -9.308,-8.815C-3.777,-21.582 -15.889,-26.26 -9.716,-33.203C-5.984,-37.4 -8.677,-43.006 -13.118,-45.81C-17.588,-48.632 -20.017,-49.322 -17.842,-53.744C-15.511,-58.48 -20.903,-68.23 -29.131,-67.428C-38.331,-66.531 -38.411,-72.84 -44.541,-70.375C-50.757,-67.876 -43.585,-61.712 -52.706,-58.182C-54.826,-57.361 -56.101,-56.146 -56.74,-54.73C-62.579,-57.303 -69.613,-57.735 -75.77,-53.859C-90.858,-44.363 -96.446,-55.172 -104.886,-45.626C-113.443,-35.947 -95.752,-31.516 -108.427,-17.548C-116.889,-8.223 -110.601,0.71 -101.53,5.503C-101.535,5.504 -101.539,5.504 -101.545,5.505C-111.518,6.002 -116.238,18.606 -112.615,23.855C-109.233,28.753 -112.013,30.008 -116.856,34.172C-121.666,38.308 -123.893,45.484 -118.691,49.839C-110.086,57.044 -123.732,64.777 -114.865,79.055C-102.346,99.212 -82.621,64.506 -72.899,99.552C-71.63,104.124 -73.76,115.903 -70.364,116.761C-64.059,124.923 -47.917,122.002 -40.031,117.927C-39.149,117.51 -40.521,111.117 -39.723,110.554C-36.744,108.601 -33.976,106.024 -31.625,103.02C-23.068,98.603 -16.88,113.295 -6.134,100.533C2.827,89.89 -7.433,81.933 0.473,77.053C5.251,74.104 4.28,67.96 0.831,64C-2.641,60.014 -4.77,58.656 -1.418,55.045C-0.715,54.287 -0.248,53.256 0,52.083" style="fill:rgb(231,231,231);fill-rule:nonzero;"/>
                </g>
                <g transform="matrix(1,0,0,1,344.285,382.398)">
                    <path d="M0,-36.733C0,-36.733 0.733,0 28.814,0C56.896,0 57.629,-36.733 57.629,-36.733L0,-36.733Z" style="fill:rgb(240,240,240);fill-rule:nonzero;"/>
                </g>
                <g transform="matrix(-1,0,0,1,220.742,135.177)">
                    <rect x="69.997" y="117.601" width="80.748" height="129.621" style="fill:rgb(240,240,240);"/>
                </g>
                <g transform="matrix(-1,0,0,1,220.742,50.214)">
                    <rect x="74.429" y="205.815" width="71.884" height="38.156" style="fill:rgb(231,231,231);"/>
                </g>
                <g transform="matrix(-1,0,0,1,220.742,133.376)">
                    <rect x="74.429" y="164.234" width="71.884" height="38.156" style="fill:rgb(231,231,231);"/>
                </g>
                <g transform="matrix(-1,0,0,1,220.742,216.538)">
                    <rect x="74.429" y="122.653" width="71.884" height="38.156" style="fill:rgb(231,231,231);"/>
                </g>
                <g transform="matrix(-1,0,0,1,177.132,50.214)">
                    <rect x="74.429" y="205.815" width="28.274" height="38.156" style="fill:rgb(225,225,225);"/>
                </g>
                <g transform="matrix(-1,0,0,1,177.132,133.376)">
                    <rect x="74.429" y="164.234" width="28.274" height="38.156" style="fill:rgb(225,225,225);"/>
                </g>
                <g transform="matrix(1,0,0,1,0,156.29)">
                    <rect x="115.362" y="164.234" width="19.585" height="15.242" style="fill:rgb(240,240,240);"/>
                </g>
                <g transform="matrix(-1,0,0,1,278.163,156.29)">
                    <rect x="134.947" y="164.234" width="8.269" height="15.242" style="fill:rgb(225,225,225);"/>
                </g>
                <g transform="matrix(1,0,0,1,0,156.29)">
                    <rect x="83.72" y="164.234" width="19.585" height="15.242" style="fill:rgb(240,240,240);"/>
                </g>
                <g transform="matrix(-1,0,0,1,214.879,156.29)">
                    <rect x="103.305" y="164.234" width="8.269" height="15.242" style="fill:rgb(225,225,225);"/>
                </g>
                <g transform="matrix(-1,0,0,1,177.132,216.538)">
                    <rect x="74.429" y="122.653" width="28.274" height="38.156" style="fill:rgb(225,225,225);"/>
                </g>
                <g transform="matrix(-1,0,0,1,323.415,135.177)">
                    <rect x="150.745" y="117.601" width="21.925" height="129.621" style="fill:rgb(245,245,245);"/>
                </g>
                <g transform="matrix(-1,0,0,1,231.189,222.037)">
                    <rect x="93.513" y="122.654" width="44.163" height="32.655" style="fill:rgb(240,240,240);"/>
                </g>
                <g transform="matrix(1,0,0,1,0,222.037)">
                    <rect x="137.676" y="122.654" width="8.637" height="32.655" style="fill:rgb(225,225,225);"/>
                </g>
                <g transform="matrix(-1,0,0,1,216.985,55.715)">
                    <rect x="79.309" y="205.815" width="58.367" height="32.655" style="fill:rgb(250,250,250);"/>
                </g>
                <g transform="matrix(1,0,0,1,0,55.715)">
                    <rect x="137.676" y="205.815" width="8.637" height="32.655" style="fill:rgb(240,240,240);"/>
                </g>
                <g transform="matrix(-1,0,0,1,394.23,135.177)">
                    <rect x="156.741" y="117.601" width="80.748" height="129.621" style="fill:rgb(240,240,240);"/>
                </g>
                <g transform="matrix(-1,0,0,1,394.23,50.214)">
                    <rect x="161.173" y="205.815" width="71.884" height="38.156" style="fill:rgb(231,231,231);"/>
                </g>
                <g transform="matrix(-1,0,0,1,394.23,133.376)">
                    <rect x="161.173" y="164.234" width="71.884" height="38.156" style="fill:rgb(231,231,231);"/>
                </g>
                <g transform="matrix(-1,0,0,1,394.23,216.538)">
                    <rect x="161.173" y="122.653" width="71.884" height="38.156" style="fill:rgb(231,231,231);"/>
                </g>
                <g transform="matrix(-1,0,0,1,350.622,50.214)">
                    <rect x="161.174" y="205.815" width="28.274" height="38.156" style="fill:rgb(225,225,225);"/>
                </g>
                <g transform="matrix(-1,0,0,1,350.622,133.376)">
                    <rect x="161.174" y="164.234" width="28.274" height="38.156" style="fill:rgb(225,225,225);"/>
                </g>
                <g transform="matrix(1,0,0,1,0,73.129)">
                    <rect x="171.957" y="205.815" width="19.585" height="15.241" style="fill:rgb(240,240,240);"/>
                </g>
                <g transform="matrix(-1,0,0,1,391.353,73.129)">
                    <rect x="191.542" y="205.815" width="8.269" height="15.241" style="fill:rgb(225,225,225);"/>
                </g>
                <g transform="matrix(1,0,0,1,0,68.794)">
                    <rect x="195.677" y="205.815" width="25.155" height="19.576" style="fill:rgb(240,240,240);"/>
                </g>
                <g transform="matrix(-1,0,0,1,452.283,68.794)">
                    <rect x="220.831" y="205.815" width="10.621" height="19.576" style="fill:rgb(225,225,225);"/>
                </g>
                <g transform="matrix(-1,0,0,1,350.622,216.538)">
                    <rect x="161.174" y="122.653" width="28.274" height="38.156" style="fill:rgb(225,225,225);"/>
                </g>
                <g transform="matrix(-1,0,0,1,496.903,135.177)">
                    <rect x="237.489" y="117.601" width="21.925" height="129.621" style="fill:rgb(245,245,245);"/>
                </g>
                <g transform="matrix(-1,0,0,1,391.838,246.343)">
                    <rect x="169.222" y="122.655" width="53.394" height="8.347" style="fill:rgb(240,240,240);"/>
                </g>
                <g transform="matrix(1,0,0,1,0,246.343)">
                    <rect x="222.616" y="122.655" width="10.442" height="8.347" style="fill:rgb(225,225,225);"/>
                </g>
                <g transform="matrix(-1,0,0,1,404.63,144.988)">
                    <rect x="178.593" y="164.234" width="47.444" height="26.544" style="fill:rgb(250,250,250);"/>
                </g>
                <g transform="matrix(1,0,0,1,0,144.988)">
                    <rect x="226.037" y="164.234" width="7.02" height="26.544" style="fill:rgb(240,240,240);"/>
                </g>
                <g transform="matrix(0,-1,-1,0,250,222.349)">
                    <path d="M-193.889,-193.889C-200.142,-193.889 -205.213,-107.082 -205.213,-0C-205.213,107.081 -200.142,193.889 -193.889,193.889C-187.635,193.889 -182.565,107.081 -182.565,-0C-182.565,-107.082 -187.635,-193.889 -193.889,-193.889" style="fill:rgb(245,245,245);fill-rule:nonzero;"/>
                </g>
                <g transform="matrix(-0.958965,-0.283524,-0.283524,0.958965,277.964,378.191)">
                    <path d="M-6.872,18.45L0.665,18.45L2.67,0.995L-4.867,0.995L-6.872,18.45Z" style="fill:rgb(255,183,112);fill-rule:nonzero;"/>
                </g>
                <g transform="matrix(-1,0,0,1,332.644,391.086)">
                    <path d="M-9.414,17.456L-1.876,17.456L0,0L-7.537,0L-9.414,17.456Z" style="fill:rgb(255,183,112);fill-rule:nonzero;"/>
                </g>
                <g transform="matrix(1,0,0,1,333.901,416.238)">
                    <path d="M0,-8.569L9.19,-8.569C9.498,-8.569 9.765,-8.355 9.831,-8.054L11.32,-1.354C11.475,-0.659 10.928,-0.002 10.217,-0.014C7.26,-0.065 5.103,-0.238 1.379,-0.238C-0.912,-0.238 -7.821,0 -10.985,0C-14.079,0 -14.562,-3.129 -13.267,-3.412C-7.459,-4.682 -3.083,-6.434 -1.224,-8.106C-0.888,-8.407 -0.451,-8.569 0,-8.569" style="fill:rgb(26,46,53);fill-rule:nonzero;"/>
                </g>
                <g transform="matrix(1,0,0,1,272.393,405.737)">
                    <path d="M0,-10.863L7.894,-8.53C8.189,-8.442 8.384,-8.161 8.363,-7.854L7.891,-1.007C7.842,-0.297 7.15,0.185 6.471,-0.029C3.638,-0.919 -0.427,-2.302 -4.006,-3.36C-8.191,-4.597 -11.872,-5.438 -16.78,-6.889C-19.747,-7.766 -19.684,-11.009 -18.362,-10.914C-12.341,-10.479 -7.685,-9.247 -1.908,-10.815C-1.28,-10.986 -0.624,-11.048 0,-10.863" style="fill:rgb(26,46,53);fill-rule:nonzero;"/>
                </g>
                <g transform="matrix(1,0,0,1,324.898,186.126)">
                    <path d="M0,-7.685C-3.866,-4.94 -7.747,-2.412 -11.753,0.04C-15.757,2.473 -19.832,4.811 -24.054,6.982L-25.644,7.79L-26.085,8.012C-26.328,8.128 -26.567,8.248 -26.816,8.349C-27.313,8.554 -27.824,8.727 -28.339,8.857C-30.417,9.396 -32.429,9.233 -34.084,8.839C-37.423,8.011 -39.759,6.423 -41.863,4.826C-45.996,1.516 -49.031,-2.199 -51.743,-6.39L-47.368,-9.98C-44.08,-7.175 -40.463,-4.364 -36.971,-2.456C-35.25,-1.509 -33.445,-0.834 -32.237,-0.754C-31.634,-0.709 -31.274,-0.835 -31.127,-0.933C-31.086,-0.958 -31.055,-0.988 -31.024,-1.015C-31.008,-1.027 -30.996,-1.051 -30.979,-1.061L-30.664,-1.259L-29.236,-2.146C-25.435,-4.54 -21.639,-7.027 -17.854,-9.548L-6.5,-17.081L0,-7.685Z" style="fill:rgb(255,183,112);fill-rule:nonzero;"/>
                </g>
                <g transform="matrix(1,0,0,1,303.267,171.736)">
                    <path d="M0,4.458L8.202,22.156C44.496,10.153 33.316,-17.698 0,4.458" style="fill:rgb(26,46,53);fill-rule:nonzero;"/>
                </g>
                <g opacity="0.2">
                    <g transform="matrix(1,0,0,1,322.544,193.492)">
                        <path d="M0,-16.403C-5.024,-11.437 -8.156,-5.917 -9.932,0C-2.558,-2.565 2.744,-5.797 6.226,-9.092L0,-16.403Z" style="fill-rule:nonzero;"/>
                    </g>
                </g>
                <g transform="matrix(-0.332319,-0.943167,-0.943167,0.332319,274.532,170.438)">
                    <path d="M-8.246,-1.13L-0.215,-1.13L-3.737,6.873C-3.737,6.873 -7.274,6.798 -9.564,3.759L-8.246,-1.13Z" style="fill:rgb(255,183,112);fill-rule:nonzero;"/>
                </g>
                <g transform="matrix(-0.669582,0.742738,0.742738,0.669582,273.783,175.162)">
                    <path d="M-3.516,-6.452L3.906,-6.452L3.812,-2.609L-4.9,-1.878L-3.516,-6.452Z" style="fill:rgb(255,183,112);fill-rule:nonzero;"/>
                </g>
                <g opacity="0.2">
                    <g transform="matrix(-0.172362,0.985034,0.985034,0.172362,283.891,382.083)">
                        <path d="M-2.123,-9.275L6.933,-9.275L7.793,-1.784L-1.263,-1.784L-2.123,-9.275Z" style="fill-rule:nonzero;"/>
                    </g>
                </g>
                <g opacity="0.2">
                    <g transform="matrix(-1,0,0,1,333.613,400.088)">
                        <path d="M-6.57,-8.997L0.971,-8.997L0,0L-7.541,0L-6.57,-8.997Z" style="fill-rule:nonzero;"/>
                    </g>
                </g>
                <g transform="matrix(1,0,0,1,359.316,233.312)">
                    <path d="M0,-58.957C2.326,-58.123 3.494,-55.537 2.611,-53.229C0.06,-46.561 -1.96,-39.796 -3.592,-33.328C-5.028,-27.622 -6.148,-22.145 -7.043,-17.163C-9.143,-5.485 -10.012,3.51 -10.743,6.502C-16.54,5.361 -38.385,1.056 -50.296,-1.296C-42.901,-60.085 -37.246,-65.134 -37.246,-65.134C-37.246,-65.134 -32.718,-65.459 -27.546,-65.113C-26.865,-65.072 -26.174,-65.009 -25.474,-64.935C-20.943,-64.462 -13.661,-62.858 -8.658,-61.621C-7.606,-61.359 -6.546,-61.067 -5.517,-60.766C-3.502,-60.172 -1.59,-59.527 0,-58.957" style="fill:rgb(26,46,53);fill-rule:nonzero;"/>
                </g>
                <g opacity="0.2">
                    <g transform="matrix(-0.970843,0.239717,0.239717,0.970843,360.729,202.344)">
                        <path d="M4.295,-18.434C6.735,-12.151 7.044,-6.168 5.904,-0.382C5.387,-1.412 4.847,-2.447 4.295,-3.488C2.218,-7.392 -0.059,-11.383 -2.563,-15.338L4.295,-18.434Z" style="fill-rule:nonzero;"/>
                    </g>
                </g>
                <g transform="matrix(1,0,0,1,352.725,180.203)">
                    <path d="M0,-27.773L-12.06,-20.997C-11.839,-16.586 -12.566,-12.079 -18.883,-11.829C-20.276,-10.231 -21.669,-6.46 -17.104,-3.114L-18.106,0C-9.1,-0.662 -3.975,-5.578 -2.069,-8.512C-5.142,-12.869 -2.128,-22.572 0,-27.773" style="fill:rgb(255,183,112);fill-rule:nonzero;"/>
                </g>
                <g transform="matrix(1,0,0,1,323.044,176.809)">
                    <path d="M0,58.224C-0.011,58.224 -0.021,58.224 -0.032,58.222C-0.169,58.204 -0.266,58.079 -0.248,57.942C4.083,24.42 12.258,0.437 12.34,0.199C12.384,0.068 12.532,0 12.657,0.044C12.788,0.089 12.858,0.231 12.813,0.362C12.731,0.599 4.572,24.538 0.248,58.006C0.232,58.132 0.124,58.224 0,58.224" style="fill:white;fill-rule:nonzero;"/>
                </g>
                <g transform="matrix(0.92377,0.382948,0.382948,-0.92377,327.622,178.731)">
                    <path d="M2.452,-0.357C2.452,-0.357 4.173,2.215 6.761,4.58C5.322,5.232 2.639,9.964 2.452,12.59C1.529,12.205 0.583,11.815 0.583,11.815C0.583,11.815 -3.006,8.566 2.452,-0.357" style="fill:white;fill-rule:nonzero;"/>
                </g>
                <g transform="matrix(0.866597,0.499009,0.499009,-0.866597,339.926,180.316)">
                    <path d="M3.769,-1.168C3.769,-1.168 2.221,0.297 -1.151,0.857C1.17,3.346 4.6,8.526 3.769,13.754C4.757,13.598 6.281,13.453 6.281,13.453C6.281,13.453 11.644,7.982 3.769,-1.168" style="fill:white;fill-rule:nonzero;"/>
                </g>
                <g transform="matrix(0.00659326,-0.999978,-0.999978,-0.00659326,336.092,181.901)">
                    <path d="M-0.683,-0.678C-1.303,-0.557 -1.807,-0.153 -1.807,0.224C-1.807,0.601 -1.303,0.808 -0.683,0.687C-0.062,0.566 0.442,0.161 0.441,-0.215C0.442,-0.592 -0.062,-0.799 -0.683,-0.678" style="fill:white;fill-rule:nonzero;"/>
                </g>
                <g opacity="0.2">
                    <g transform="matrix(-0.87197,0.489559,0.489559,0.87197,342.908,163.692)">
                        <path d="M-8.432,-5.01L-0.247,-5.01C0.216,-4.071 0.731,-3.16 1.326,-2.353C-0.682,-1.087 -4.811,-0.953 -6.596,-2.663C-7.487,-3.515 -8.214,-4.445 -8.432,-5.01" style="fill-rule:nonzero;"/>
                    </g>
                </g>
                <g transform="matrix(1,0,0,1,340.623,141.745)">
                    <path d="M0,-11.876C-5.167,-10.625 -7.622,-0.056 -1.167,3.524C11.444,0.689 14.548,-15.4 0,-11.876" style="fill:rgb(26,46,53);fill-rule:nonzero;"/>
                </g>
                <g transform="matrix(-0.241376,-0.970432,-0.970432,0.241376,341.867,136.673)">
                    <path d="M-10.634,-12.699C-17.081,-8.903 -21.047,-7.009 -22.75,-1.909C-25.313,5.762 -18.085,12.424 -10.634,10.629C-3.929,9.014 5.486,3.078 4.817,-4.784C4.159,-12.529 -4.189,-16.495 -10.634,-12.699" style="fill:rgb(255,183,112);fill-rule:nonzero;"/>
                </g>
                <g transform="matrix(1,0,0,1,358.185,149.418)">
                    <path d="M0,-15.45C-7.323,-17.218 -9.529,-1.812 -3.074,1.768C11.789,-1.573 7.729,-13.585 0,-15.45" style="fill:rgb(26,46,53);fill-rule:nonzero;"/>
                </g>
                <g transform="matrix(1,0,0,1,356.42,141.196)">
                    <path d="M0,-11.533C-8.047,-13.041 -12.986,-19.53 -12.986,-19.53C-12.986,-19.53 -19.716,-14.324 -17.802,-10.283C-15.886,-6.241 -6.864,-1.696 -2.531,-1.53C-2.531,-1.53 -4.552,7.997 4.039,2.637C15.525,-4.53 7.58,-10.113 0,-11.533" style="fill:rgb(26,46,53);fill-rule:nonzero;"/>
                </g>
                <g transform="matrix(1,0,0,1,363.207,144.082)">
                    <path d="M0,-4.522C0,-4.522 3.113,-3.026 4.431,0.549C5.064,-5.071 1.161,-4.674 0,-4.522" style="fill:rgb(26,46,53);fill-rule:nonzero;"/>
                </g>
                <g transform="matrix(1,0,0,1,344.404,130.773)">
                    <path d="M0,4.19C0,4.19 -5.522,2.796 -8.826,-2.55C-8.003,6.74 -1.825,4.817 0,4.19" style="fill:rgb(26,46,53);fill-rule:nonzero;"/>
                </g>
                <g transform="matrix(1,0,0,1,340.82,149.985)">
                    <path d="M0,0.824C0.001,0.824 0.003,0.824 0.004,0.825C3.009,1.5 4.849,-0.252 4.926,-0.326C5.002,-0.401 5.003,-0.522 4.929,-0.598C4.855,-0.674 4.734,-0.676 4.658,-0.602C4.64,-0.585 2.883,1.077 0.088,0.45C-0.015,0.427 -0.118,0.491 -0.141,0.595C-0.164,0.698 -0.101,0.799 0,0.824" style="fill:rgb(26,46,53);fill-rule:nonzero;"/>
                </g>
                <g transform="matrix(0.299455,-0.95411,-0.95411,-0.299455,357.122,147.751)">
                    <path d="M-3.351,-1.364C-4.997,-0.578 -6.126,0.785 -6.601,2.066C-7.316,3.992 -5.43,4.932 -3.351,4.376C-1.481,3.877 1.146,2.271 0.959,0.347C0.776,-1.549 -1.47,-2.263 -3.351,-1.364" style="fill:rgb(255,183,112);fill-rule:nonzero;"/>
                </g>
                <g transform="matrix(1,0,0,1,271.345,235.628)">
                    <path d="M0,149.215L12.241,152.828C12.241,152.828 24.494,111.134 32.102,85.284C34.12,78.43 37.209,68.796 40.879,58.572C45.509,45.691 51.027,31.828 55.481,20.989C60.177,9.573 63.673,1.515 63.673,1.515L37.67,-3.613C37.67,-3.613 15.824,56.096 11,78.59C5.981,101.977 0,149.215 0,149.215" style="fill:rgb(0,124,255);fill-rule:nonzero;"/>
                </g>
                <g opacity="0.2">
                    <g transform="matrix(1,0,0,1,312.224,250.412)">
                        <path d="M0,43.788C4.629,30.907 10.148,17.044 14.601,6.205L12.616,0C5.137,6.913 0.376,30.627 0,43.788" style="fill-rule:nonzero;"/>
                    </g>
                </g>
                <g transform="matrix(1,0,0,1,323.044,398.346)">
                    <path d="M0,-163.563C0,-163.563 -5.235,-98.975 -5.25,-76.89C-5.266,-52.705 7.086,0 7.086,0L20.892,0C20.892,0 15.5,-46.632 15.39,-70.356C15.265,-97.217 25.522,-158.528 25.522,-158.528L0,-163.563Z" style="fill:rgb(0,124,255);fill-rule:nonzero;"/>
                </g>
                <g transform="matrix(1,0,0,1,328.478,393.472)">
                    <path d="M0,5.172L16.256,5.172L16.256,0.316L-1.916,0L0,5.172Z" style="fill:rgb(26,46,53);fill-rule:nonzero;"/>
                </g>
                <g transform="matrix(0.95898,0.283474,0.283474,-0.95898,270.641,382.621)">
                    <path d="M0.505,-2.229L14.912,-2.229L15.57,2.917L-0.861,2.942L0.505,-2.229Z" style="fill:rgb(26,46,53);fill-rule:nonzero;"/>
                </g>
                <g transform="matrix(0.225164,-0.974321,-0.974321,-0.225164,344.868,142.602)">
                    <path d="M-0.701,-0.557C-1.31,-0.558 -1.802,-0.235 -1.802,0.162C-1.802,0.559 -1.31,0.881 -0.701,0.881C-0.093,0.881 0.4,0.559 0.399,0.162C0.4,-0.235 -0.093,-0.558 -0.701,-0.557" style="fill:rgb(26,46,53);fill-rule:nonzero;"/>
                </g>
                <g transform="matrix(0.225164,-0.974321,-0.974321,-0.225164,338.173,141.054)">
                    <path d="M-0.701,-0.557C-1.309,-0.557 -1.802,-0.235 -1.802,0.162C-1.802,0.559 -1.309,0.882 -0.701,0.881C-0.092,0.882 0.4,0.559 0.399,0.162C0.4,-0.235 -0.093,-0.558 -0.701,-0.557" style="fill:rgb(26,46,53);fill-rule:nonzero;"/>
                </g>
                <g transform="matrix(1,0,0,1,340.619,148.282)">
                    <path d="M0,-5.633C0,-5.633 -2.137,-2.527 -4.001,-1.221C-3.179,0 -1.179,-0.166 -1.179,-0.166L0,-5.633Z" style="fill:rgb(255,138,53);fill-rule:nonzero;"/>
                </g>
                <g transform="matrix(1,0,0,1,347.833,139.102)">
                    <path d="M0,2.624C-0.13,2.618 -0.252,2.541 -0.309,2.413C-0.958,0.959 -2.256,0.739 -2.269,0.737C-2.464,0.706 -2.597,0.522 -2.566,0.328C-2.535,0.134 -2.36,-0.003 -2.157,0.031C-2.088,0.042 -0.463,0.318 0.343,2.122C0.424,2.302 0.343,2.513 0.163,2.593C0.11,2.617 0.054,2.627 0,2.624" style="fill:rgb(26,46,53);fill-rule:nonzero;"/>
                </g>
                <g transform="matrix(1,0,0,1,336.221,136.783)">
                    <path d="M0,2.111C-0.073,2.108 -0.145,2.082 -0.206,2.032C-0.36,1.908 -0.383,1.684 -0.26,1.53C0.981,-0.006 2.622,0.139 2.693,0.149C2.889,0.17 3.031,0.344 3.012,0.541C2.991,0.736 2.807,0.879 2.622,0.86C2.566,0.859 1.288,0.75 0.296,1.979C0.221,2.071 0.11,2.117 0,2.111" style="fill:rgb(26,46,53);fill-rule:nonzero;"/>
                </g>
                <g transform="matrix(1,0,0,1,330.288,408.283)">
                    <path d="M0,-0.857C-0.094,-0.857 -0.172,-0.843 -0.232,-0.812C-0.28,-0.788 -0.336,-0.741 -0.344,-0.603C-0.363,-0.319 -0.283,-0.107 -0.102,0.045C0.311,0.392 1.294,0.439 2.574,0.182C1.724,-0.311 0.578,-0.857 0,-0.857M1.12,0.703C0.547,0.703 0.01,0.606 -0.332,0.319C-0.602,0.092 -0.726,-0.225 -0.701,-0.625C-0.682,-0.922 -0.524,-1.063 -0.395,-1.129C0.442,-1.56 2.87,-0.064 3.145,0.108C3.206,0.146 3.238,0.217 3.226,0.288C3.215,0.359 3.162,0.416 3.092,0.433C2.569,0.559 1.817,0.703 1.12,0.703" style="fill:rgb(0,124,255);fill-rule:nonzero;"/>
                </g>
                <g transform="matrix(1,0,0,1,331.817,408.339)">
                    <path d="M0,-2.674C-0.027,-2.674 -0.053,-2.673 -0.081,-2.669C-0.313,-2.64 -0.333,-2.534 -0.341,-2.488C-0.436,-1.992 0.525,-0.744 1.3,-0.155C1.212,-0.791 0.972,-2.059 0.41,-2.517C0.282,-2.622 0.147,-2.674 0,-2.674M1.521,0.382C1.492,0.382 1.463,0.375 1.436,0.361C0.656,-0.063 -0.852,-1.715 -0.693,-2.555C-0.664,-2.708 -0.551,-2.971 -0.124,-3.024C0.151,-3.056 0.408,-2.981 0.637,-2.794C1.512,-2.078 1.692,0.097 1.699,0.189C1.704,0.255 1.674,0.318 1.619,0.353C1.589,0.372 1.555,0.382 1.521,0.382" style="fill:rgb(0,124,255);fill-rule:nonzero;"/>
                </g>
                <g transform="matrix(1,0,0,1,267.859,395.103)">
                    <path d="M0,-1.777C-0.018,-1.776 -0.034,-1.773 -0.05,-1.77C-0.131,-1.752 -0.179,-1.706 -0.212,-1.619C-0.298,-1.392 -0.284,-1.192 -0.169,-1.007C0.159,-0.483 1.328,-0.061 3.003,0.146C2.007,-0.75 0.589,-1.83 0,-1.777M3.534,0.558C3.524,0.559 3.513,0.559 3.502,0.558C2.269,0.446 0.113,0.117 -0.471,-0.819C-0.648,-1.1 -0.673,-1.413 -0.546,-1.746C-0.47,-1.945 -0.326,-2.073 -0.128,-2.118C0.886,-2.336 3.364,-0.015 3.642,0.252C3.697,0.304 3.712,0.385 3.681,0.454C3.654,0.514 3.597,0.552 3.534,0.558" style="fill:rgb(0,124,255);fill-rule:nonzero;"/>
                </g>
                <g transform="matrix(1,0,0,1,270.12,395.239)">
                    <path d="M0,-3.076C-0.139,-3.063 -0.172,-2.994 -0.185,-2.967C-0.409,-2.5 0.402,-0.925 1.134,-0.126C1.21,-0.722 1.296,-1.963 0.839,-2.638C0.68,-2.872 0.473,-3.011 0.206,-3.061C0.12,-3.077 0.052,-3.08 0,-3.076M1.274,0.423C1.227,0.427 1.179,0.412 1.142,0.38C0.385,-0.269 -0.881,-2.344 -0.507,-3.121C-0.419,-3.304 -0.21,-3.503 0.272,-3.411C0.632,-3.344 0.922,-3.15 1.135,-2.837C1.831,-1.81 1.45,0.194 1.433,0.279C1.421,0.341 1.377,0.392 1.317,0.414C1.303,0.419 1.289,0.421 1.274,0.423" style="fill:rgb(0,124,255);fill-rule:nonzero;"/>
                </g>
                <g transform="matrix(1,0,0,1,361.039,233.559)">
                    <path d="M0,-57.154C0.576,-56.583 0.977,-56.161 1.441,-55.667C1.889,-55.19 2.309,-54.699 2.732,-54.212C3.573,-53.234 4.386,-52.241 5.178,-51.23C6.754,-49.204 8.22,-47.084 9.568,-44.87C10.914,-42.654 12.154,-40.347 13.216,-37.921C14.286,-35.496 15.205,-32.967 15.844,-30.299L16.083,-29.279L16.306,-28.109C16.413,-27.339 16.512,-26.57 16.542,-25.821C16.608,-24.321 16.551,-22.868 16.392,-21.473C16.091,-18.678 15.396,-16.084 14.581,-13.605C12.865,-8.646 10.571,-4.242 7.624,0L2.665,-2.728L3.744,-5.947C4.098,-7.04 4.398,-8.15 4.71,-9.243C5.313,-11.439 5.84,-13.63 6.198,-15.791C6.59,-17.943 6.773,-20.075 6.773,-22.059C6.768,-23.053 6.68,-24 6.532,-24.882C6.468,-25.328 6.368,-25.739 6.273,-26.148L6.099,-26.729L5.861,-27.439C4.512,-31.321 2.441,-35.141 0.003,-38.788C-1.222,-40.609 -2.527,-42.399 -3.9,-44.143C-4.58,-45.018 -5.282,-45.878 -5.999,-46.717L-7.08,-47.956L-8.093,-49.089L0,-57.154Z" style="fill:rgb(255,183,112);fill-rule:nonzero;"/>
                </g>
                <g transform="matrix(1,0,0,1,349.808,178.449)">
                    <path d="M0,8.859C2.351,15.491 5.092,20.531 8.953,24.238L23.419,10.456C10.158,-15.379 -3.584,-1.253 0,8.859" style="fill:rgb(26,46,53);fill-rule:nonzero;"/>
                </g>
                <g transform="matrix(-0.738774,0.673953,0.673953,0.738774,368.768,236.922)">
                    <path d="M-1.79,-8.221L5.861,-8.221L1.845,0.53C1.845,0.53 -4.669,-0.917 -4.289,-4.454L-1.79,-8.221Z" style="fill:rgb(255,183,112);fill-rule:nonzero;"/>
                </g>
                <g transform="matrix(0.93797,0.346717,0.346717,-0.93797,357.523,239.17)">
                    <path d="M0.905,-1.619L8.871,-1.619L9.392,4.125L-0.226,4.576L0.905,-1.619Z" style="fill:rgb(255,183,112);fill-rule:nonzero;"/>
                </g>
                <g transform="matrix(1,0,0,1,223.916,209.089)">
                    <path d="M0,-114.252L-58.604,-99.85L-62.443,-108.011C-62.777,-108.721 -63.567,-109.098 -64.33,-108.91L-100.624,-99.991C-101.386,-99.803 -101.911,-99.104 -101.878,-98.319L-101.498,-89.308L-124.903,-83.556C-126.269,-83.22 -127.105,-81.841 -126.769,-80.475L-107.45,-1.865C-107.114,-0.499 -105.734,0.336 -104.368,0L20.535,-30.695C21.901,-31.031 22.737,-32.411 22.401,-33.777L3.082,-112.386C2.746,-113.752 1.366,-114.588 0,-114.252" style="fill:rgb(0,124,255);fill-rule:nonzero;"/>
                </g>
                <g opacity="0.5">
                    <g transform="matrix(1,0,0,1,223.916,209.089)">
                        <path d="M0,-114.252L-58.604,-99.85L-62.443,-108.011C-62.777,-108.721 -63.567,-109.098 -64.33,-108.91L-100.624,-99.991C-101.386,-99.803 -101.911,-99.104 -101.878,-98.319L-101.498,-89.308L-124.903,-83.556C-126.269,-83.22 -127.105,-81.841 -126.769,-80.475L-107.45,-1.865C-107.114,-0.499 -105.734,0.336 -104.368,0L20.535,-30.695C21.901,-31.031 22.737,-32.411 22.401,-33.777L3.082,-112.386C2.746,-113.752 1.366,-114.588 0,-114.252" style="fill:white;fill-rule:nonzero;"/>
                    </g>
                </g>
                <g transform="matrix(-0.971106,0.23865,0.23865,0.971106,127.924,114.948)">
                    <rect x="-31.127" y="-3.769" width="31.083" height="4.131" style="fill:white;"/>
                </g>
                <g transform="matrix(1,0,0,1,225.673,235.209)">
                    <path d="M0,-114.252L-63,-98.77L-66.839,-106.93C-67.174,-107.641 -67.963,-108.018 -68.727,-107.83L-105.02,-98.911C-105.783,-98.723 -106.308,-98.023 -106.275,-97.239L-105.895,-88.228L-124.903,-83.556C-126.269,-83.221 -127.105,-81.841 -126.769,-80.475L-107.45,-1.866C-107.114,-0.5 -105.734,0.336 -104.368,0L20.535,-30.696C21.901,-31.031 22.737,-32.411 22.401,-33.777L3.082,-112.387C2.746,-113.753 1.366,-114.588 0,-114.252" style="fill:rgb(0,124,255);fill-rule:nonzero;"/>
                </g>
                <g opacity="0.4">
                    <g transform="matrix(1,0,0,1,225.673,235.209)">
                        <path d="M0,-114.252L-63,-98.77L-66.839,-106.93C-67.174,-107.641 -67.963,-108.018 -68.727,-107.83L-105.02,-98.911C-105.783,-98.723 -106.308,-98.023 -106.275,-97.239L-105.895,-88.228L-124.903,-83.556C-126.269,-83.221 -127.105,-81.841 -126.769,-80.475L-107.45,-1.866C-107.114,-0.5 -105.734,0.336 -104.368,0L20.535,-30.696C21.901,-31.031 22.737,-32.411 22.401,-33.777L3.082,-112.387C2.746,-113.753 1.366,-114.588 0,-114.252" style="fill:white;fill-rule:nonzero;"/>
                    </g>
                </g>
                <g transform="matrix(-0.971106,0.23865,0.23865,0.971106,125.284,142.148)">
                    <rect x="-31.127" y="-3.769" width="31.083" height="4.131" style="fill:white;"/>
                </g>
                <g transform="matrix(1,0,0,1,227.43,261.327)">
                    <path d="M0,-114.252L-67.397,-97.689L-71.236,-105.85C-71.57,-106.56 -72.36,-106.937 -73.123,-106.749L-109.417,-97.83C-110.179,-97.643 -110.704,-96.943 -110.671,-96.158L-110.291,-87.147L-124.903,-83.556C-126.269,-83.22 -127.105,-81.84 -126.769,-80.474L-107.45,-1.865C-107.114,-0.499 -105.734,0.336 -104.368,0L20.535,-30.695C21.901,-31.031 22.737,-32.411 22.401,-33.777L3.082,-112.386C2.746,-113.752 1.366,-114.588 0,-114.252" style="fill:rgb(0,124,255);fill-rule:nonzero;"/>
                </g>
                <g opacity="0.3">
                    <g transform="matrix(1,0,0,1,227.43,261.327)">
                        <path d="M0,-114.252L-67.397,-97.689L-71.236,-105.85C-71.57,-106.56 -72.36,-106.937 -73.123,-106.749L-109.417,-97.83C-110.179,-97.643 -110.704,-96.943 -110.671,-96.158L-110.291,-87.147L-124.903,-83.556C-126.269,-83.22 -127.105,-81.84 -126.769,-80.474L-107.45,-1.865C-107.114,-0.499 -105.734,0.336 -104.368,0L20.535,-30.695C21.901,-31.031 22.737,-32.411 22.401,-33.777L3.082,-112.386C2.746,-113.752 1.366,-114.588 0,-114.252" style="fill:white;fill-rule:nonzero;"/>
                    </g>
                </g>
                <g transform="matrix(-0.971104,0.238658,0.238658,0.971104,122.644,169.347)">
                    <rect x="-31.127" y="-3.769" width="31.083" height="4.132" style="fill:white;"/>
                </g>
                <g transform="matrix(1,0,0,1,277.591,261.527)">
                    <path d="M0,-86.278L-73.834,-82.521L-76.061,-91.26C-76.255,-92.021 -76.96,-92.54 -77.745,-92.5L-115.07,-90.601C-115.854,-90.561 -116.502,-89.973 -116.618,-89.196L-117.948,-80.276L-128.453,-79.741C-129.858,-79.67 -130.94,-78.472 -130.868,-77.068L-126.754,3.776C-126.683,5.181 -125.485,6.262 -124.08,6.191L4.373,-0.346C5.778,-0.418 6.859,-1.615 6.788,-3.02L2.674,-83.863C2.602,-85.268 1.405,-86.349 0,-86.278" style="fill:rgb(0,124,255);fill-rule:nonzero;"/>
                </g>
                <g opacity="0.2">
                    <g transform="matrix(1,0,0,1,277.591,261.527)">
                        <path d="M0,-86.278L-73.834,-82.521L-76.061,-91.26C-76.255,-92.021 -76.96,-92.54 -77.745,-92.5L-115.07,-90.601C-115.854,-90.561 -116.502,-89.973 -116.618,-89.196L-117.948,-80.276L-128.453,-79.741C-129.858,-79.67 -130.94,-78.472 -130.868,-77.068L-126.754,3.776C-126.683,5.181 -125.485,6.262 -124.08,6.191L4.373,-0.346C5.778,-0.418 6.859,-1.615 6.788,-3.02L2.674,-83.863C2.602,-85.268 1.405,-86.349 0,-86.278" style="fill:white;fill-rule:nonzero;"/>
                    </g>
                </g>
                <g transform="matrix(-0.998707,0.0508313,0.0508313,0.998707,165.771,174.576)">
                    <rect x="-31.168" y="-0.794" width="31.083" height="4.132" style="fill:white;"/>
                </g>
                <g transform="matrix(1,0,0,1,230.944,313.566)">
                    <path d="M0,-114.253L-76.19,-95.528L-80.029,-103.69C-80.363,-104.4 -81.153,-104.777 -81.916,-104.589L-118.21,-95.67C-118.972,-95.482 -119.497,-94.783 -119.464,-93.998L-119.084,-84.987L-124.903,-83.557C-126.269,-83.221 -127.105,-81.841 -126.769,-80.475L-107.45,-1.866C-107.114,-0.5 -105.734,0.335 -104.368,-0.001L20.535,-30.696C21.901,-31.032 22.737,-32.412 22.401,-33.778L3.082,-112.387C2.746,-113.753 1.366,-114.588 0,-114.253" style="fill:rgb(0,124,255);fill-rule:nonzero;"/>
                </g>
                <g opacity="0.1">
                    <g transform="matrix(1,0,0,1,230.944,313.566)">
                        <path d="M0,-114.253L-76.19,-95.528L-80.029,-103.69C-80.363,-104.4 -81.153,-104.777 -81.916,-104.589L-118.21,-95.67C-118.972,-95.482 -119.497,-94.783 -119.464,-93.998L-119.084,-84.987L-124.903,-83.557C-126.269,-83.221 -127.105,-81.841 -126.769,-80.475L-107.45,-1.866C-107.114,-0.5 -105.734,0.335 -104.368,-0.001L20.535,-30.696C21.901,-31.032 22.737,-32.412 22.401,-33.778L3.082,-112.387C2.746,-113.753 1.366,-114.588 0,-114.253" style="fill:white;fill-rule:nonzero;"/>
                    </g>
                </g>
                <g transform="matrix(-0.971106,0.23865,0.23865,0.971106,117.365,223.746)">
                    <rect x="-31.127" y="-3.769" width="31.083" height="4.131" style="fill:white;"/>
                </g>
                <g transform="matrix(1,0,0,1,232.701,339.685)">
                    <path d="M0,-114.253L-124.903,-83.557C-126.269,-83.221 -127.105,-81.841 -126.769,-80.475L-107.45,-1.866C-107.114,-0.5 -105.735,0.335 -104.368,-0.001L20.535,-30.696C21.901,-31.032 22.736,-32.412 22.4,-33.778L3.082,-112.387C2.746,-113.753 1.366,-114.588 0,-114.253" style="fill:rgb(0,124,255);fill-rule:nonzero;"/>
                </g>
                <g transform="matrix(1,0,0,1,151.118,246.03)">
                    <path d="M0,1.73L-39.845,11.522C-40.857,11.771 -41.844,11.031 -41.888,9.99L-42.278,0.738C-42.311,-0.047 -41.786,-0.747 -41.023,-0.934L-4.73,-9.853C-3.967,-10.041 -3.177,-9.665 -2.843,-8.954L1.099,-0.575C1.543,0.368 1.012,1.481 0,1.73" style="fill:rgb(0,124,255);fill-rule:nonzero;"/>
                </g>
                <g transform="matrix(-0.971104,0.238658,0.238658,0.971104,114.726,250.945)">
                    <rect x="-31.127" y="-3.769" width="31.083" height="4.133" style="fill:white;"/>
                </g>
            </g>
        </g>
    </g>
</svg>
