<?xml version="1.0" encoding="UTF-8" standalone="no"?>
<!DOCTYPE svg PUBLIC "-//W3C//DTD SVG 1.1//EN" "http://www.w3.org/Graphics/SVG/1.1/DTD/svg11.dtd">
<svg width="100%" height="100%" viewBox="0 0 1080 733" version="1.1" xmlns="http://www.w3.org/2000/svg" xmlns:xlink="http://www.w3.org/1999/xlink" xml:space="preserve" xmlns:serif="http://www.serif.com/" style="fill-rule:evenodd;clip-rule:evenodd;stroke-linejoin:round;stroke-miterlimit:2;">
    <g transform="matrix(1,0,0,1,-3595,-2536.5)">
        <g transform="matrix(1,0,0,1,3595,2443)">
            <g transform="matrix(2.16,0,0,1.96552,0,92.7315)">
                <rect x="0" y="327.837" width="500" height="0.25" style="fill:rgb(229,229,228);fill-rule:nonzero;"/>
                <rect x="416.779" y="343.933" width="33.122" height="0.25" style="fill:rgb(229,229,228);fill-rule:nonzero;"/>
                <rect x="292" y="346.646" width="39.22" height="0.25" style="fill:rgb(229,229,228);fill-rule:nonzero;"/>
                <rect x="358.755" y="334.647" width="57.023" height="0.25" style="fill:rgb(229,229,228);fill-rule:nonzero;"/>
                <rect x="174.477" y="336.327" width="68.631" height="0.25" style="fill:rgb(229,229,228);fill-rule:nonzero;"/>
                <rect x="252.011" y="336.327" width="6.333" height="0.25" style="fill:rgb(229,229,228);fill-rule:nonzero;"/>
                <rect x="98.333" y="340.549" width="126.814" height="0.25" style="fill:rgb(229,229,228);fill-rule:nonzero;"/>
                <path d="M43.915,0.642C40.905,0.642 38.457,3.09 38.457,6.099L38.457,277.53C38.457,280.54 40.905,282.988 43.915,282.988L237.014,282.988C240.023,282.988 242.471,280.54 242.471,277.53L242.471,6.099C242.471,3.09 240.023,0.642 237.014,0.642L43.915,0.642ZM237.014,283.238L43.915,283.238C40.767,283.238 38.206,280.678 38.206,277.53L38.206,6.099C38.206,2.952 40.767,0.391 43.915,0.391L237.014,0.391C240.16,0.391 242.721,2.952 242.721,6.099L242.721,277.53C242.721,280.678 240.16,283.238 237.014,283.238Z" style="fill:rgb(229,229,228);fill-rule:nonzero;"/>
                <path d="M260.212,0.642C257.203,0.642 254.755,3.09 254.755,6.099L254.755,277.53C254.755,280.54 257.203,282.988 260.212,282.988L453.31,282.988C456.32,282.988 458.769,280.54 458.769,277.53L458.769,6.099C458.769,3.09 456.32,0.642 453.31,0.642L260.212,0.642ZM453.31,283.238L260.212,283.238C257.065,283.238 254.505,280.678 254.505,277.53L254.505,6.099C254.505,2.952 257.065,0.391 260.212,0.391L453.31,0.391C456.458,0.391 459.019,2.952 459.019,6.099L459.019,277.53C459.019,280.678 456.458,283.238 453.31,283.238Z" style="fill:rgb(229,229,228);fill-rule:nonzero;"/>
                <rect x="78.332" y="210.161" width="35.034" height="117.676" style="fill:rgb(240,240,240);fill-rule:nonzero;"/>
                <rect x="78.332" y="210.161" width="5.778" height="117.676" style="fill:rgb(234,235,234);fill-rule:nonzero;"/>
                <rect x="107.966" y="214.05" width="133.021" height="29.444" style="fill:rgb(224,224,223);fill-rule:nonzero;"/>
                <rect x="107.966" y="252.304" width="133.021" height="6.801" style="fill:rgb(224,224,223);fill-rule:nonzero;"/>
                <rect x="78.332" y="210.161" width="154.877" height="10.222" style="fill:rgb(234,235,234);fill-rule:nonzero;"/>
                <rect x="233.209" y="210.161" width="35.033" height="117.676" style="fill:rgb(240,240,240);fill-rule:nonzero;"/>
                <rect x="233.209" y="210.161" width="5.778" height="117.676" style="fill:rgb(234,235,234);fill-rule:nonzero;"/>
                <rect x="284.132" y="145.994" width="60.13" height="181.843" style="fill:rgb(234,235,234);fill-rule:nonzero;"/>
                <g transform="matrix(1,0,0,1,-1.3209,-2.2085)">
                    <rect x="287.432" y="150.555" width="53.529" height="53.529" style="fill:rgb(224,224,223);fill-rule:nonzero;"/>
                </g>
                <rect x="287.432" y="208.888" width="53.529" height="53.529" style="fill:rgb(224,224,223);fill-rule:nonzero;"/>
                <rect x="287.432" y="267.221" width="53.529" height="53.529" style="fill:rgb(224,224,223);fill-rule:nonzero;"/>
                <rect x="287.432" y="150.555" width="21.055" height="53.529" style="fill:rgb(215,217,217);fill-rule:nonzero;"/>
                <rect x="287.432" y="208.888" width="21.055" height="53.529" style="fill:rgb(215,217,217);fill-rule:nonzero;"/>
                <rect x="287.432" y="267.221" width="21.055" height="53.529" style="fill:rgb(215,217,217);fill-rule:nonzero;"/>
                <rect x="344.262" y="145.994" width="16.326" height="181.843" style="fill:rgb(240,240,240);fill-rule:nonzero;"/>
                <rect x="348.417" y="145.994" width="60.129" height="181.843" style="fill:rgb(234,235,234);fill-rule:nonzero;"/>
                <rect x="351.717" y="150.555" width="53.529" height="53.529" style="fill:rgb(224,224,223);fill-rule:nonzero;"/>
                <rect x="351.717" y="208.888" width="53.529" height="53.529" style="fill:rgb(224,224,223);fill-rule:nonzero;"/>
                <rect x="351.717" y="267.221" width="53.529" height="53.529" style="fill:rgb(224,224,223);fill-rule:nonzero;"/>
                <rect x="351.717" y="150.555" width="21.055" height="53.529" style="fill:rgb(215,217,217);fill-rule:nonzero;"/>
                <rect x="351.717" y="208.888" width="21.055" height="53.529" style="fill:rgb(215,217,217);fill-rule:nonzero;"/>
                <rect x="351.717" y="267.221" width="21.055" height="53.529" style="fill:rgb(215,217,217);fill-rule:nonzero;"/>
                <rect x="408.546" y="145.994" width="16.327" height="181.843" style="fill:rgb(240,240,240);fill-rule:nonzero;"/>
                <path d="M364.659,190.261C364.659,182.627 370.847,176.438 378.481,176.438C386.115,176.438 392.304,182.627 392.304,190.261C392.304,197.895 386.115,204.084 378.481,204.084C370.847,204.084 364.659,197.895 364.659,190.261Z" style="fill:rgb(240,240,240);fill-rule:nonzero;"/>
                <path d="M331.328,248.594C331.328,256.228 325.139,262.417 317.505,262.417C309.871,262.417 303.683,256.228 303.683,248.594L331.328,248.594Z" style="fill:rgb(234,235,234);fill-rule:nonzero;"/>
                <path d="M331.328,238.261C331.328,245.895 325.139,252.084 317.505,252.084C309.871,252.084 303.683,245.895 303.683,238.261L331.328,238.261Z" style="fill:rgb(234,235,234);fill-rule:nonzero;"/>
                <rect x="355.351" y="274.938" width="43.463" height="45.812" style="fill:rgb(234,235,234);fill-rule:nonzero;"/>
                <rect x="398.814" y="274.938" width="6.432" height="45.812" style="fill:rgb(215,217,217);fill-rule:nonzero;"/>
                <rect x="366.66" y="79.033" width="17.279" height="66.961" style="fill:rgb(224,224,223);fill-rule:nonzero;"/>
                <path d="M319.811,145.994L377.158,145.994L385.819,67.622L328.471,67.622L319.811,145.994Z" style="fill:rgb(234,235,234);fill-rule:nonzero;"/>
                <path d="M313.599,145.994L372.835,145.994L381.496,67.622L322.26,67.622L313.599,145.994Z" style="fill:rgb(240,240,240);fill-rule:nonzero;"/>
                <path d="M355.764,145.994L367.257,145.994L354.013,67.622L342.52,67.622L355.764,145.994Z" style="fill:rgb(249,249,249);fill-rule:nonzero;"/>
                <path d="M345.516,145.994L349.975,145.994L336.731,67.622L332.272,67.622L345.516,145.994Z" style="fill:rgb(249,249,249);fill-rule:nonzero;"/>
                <rect x="70.941" y="32.772" width="135" height="150.666" style="fill:rgb(229,229,228);fill-rule:nonzero;"/>
                <rect x="205.941" y="32.772" width="1.223" height="150.666" style="fill:rgb(215,217,217);fill-rule:nonzero;"/>
                <rect x="80.941" y="42.772" width="115.001" height="130.666" style="fill:rgb(240,240,240);fill-rule:nonzero;"/>
                <rect x="147.52" y="135.105" width="32.385" height="45.333" style="fill:white;fill-rule:nonzero;"/>
                <path d="M100.008,164.481L132.393,164.481L134.722,119.148L102.337,119.148L100.008,164.481Z" style="fill:white;fill-rule:nonzero;"/>
                <path d="M165.587,83.815L197.972,83.815L200.301,38.482L167.916,38.482L165.587,83.815Z" style="fill:white;fill-rule:nonzero;"/>
                <path d="M123.047,109.765L155.401,111.185L157.388,65.896L125.034,64.476L123.047,109.765Z" style="fill:white;fill-rule:nonzero;"/>
                <path d="M76.671,97.166L109.043,96.229L107.731,50.915L75.359,51.852L76.671,97.166Z" style="fill:white;fill-rule:nonzero;"/>
                <path d="M443.889,361.676C443.889,367.93 357.082,373 250,373C142.918,373 56.111,367.93 56.111,361.676C56.111,355.423 142.918,350.353 250,350.353C357.082,350.353 443.889,355.423 443.889,361.676Z" style="fill:rgb(240,240,240);fill-rule:nonzero;"/>
                <path d="M154.921,353.79L162.645,353.79L165.739,335.903L158.015,335.903L154.921,353.79Z" style="fill:rgb(249,182,182);fill-rule:nonzero;"/>
                <path d="M109.495,353.79L117.218,353.79L124.275,335.903L116.551,335.903L109.495,353.79Z" style="fill:rgb(249,182,182);fill-rule:nonzero;"/>
                <path d="M118.301,352.895L108.884,352.895C108.569,352.895 108.283,353.115 108.196,353.423L106.272,360.289C106.072,361.001 106.593,361.675 107.323,361.662C110.355,361.61 112.577,361.433 116.393,361.433C118.741,361.433 123.563,361.676 126.805,361.676C129.976,361.676 130.657,358.471 129.347,358.18C123.471,356.878 121.333,355.083 119.527,353.37C119.202,353.061 118.763,352.895 118.301,352.895Z" style="fill:rgb(12,43,52);fill-rule:nonzero;"/>
                <path d="M162.643,352.895L154.208,352.895C153.892,352.895 153.606,353.115 153.52,353.423L151.595,360.289C151.396,361 151.897,361.675 152.626,361.663C155.672,361.611 160.079,361.433 163.904,361.433C168.376,361.433 172.224,361.676 177.468,361.676C180.639,361.676 181.705,358.471 180.395,358.18C174.429,356.859 169.503,356.717 164.469,353.497C163.922,353.147 163.31,352.895 162.643,352.895Z" style="fill:rgb(12,43,52);fill-rule:nonzero;"/>
                <path d="M162.236,132.533C166.321,135.087 170.612,137.671 174.841,140.122C179.084,142.587 183.369,144.951 187.666,147.011C188.744,147.541 189.807,148 190.879,148.489C191.414,148.728 191.941,148.921 192.473,149.142L193.269,149.464L193.917,149.71C195.579,150.336 196.969,150.519 198.291,150.258C199.617,150.02 201.075,149.127 202.441,147.691C203.124,146.981 203.757,146.138 204.375,145.247C204.673,144.795 204.961,144.327 205.228,143.846L205.974,142.47L211.626,143.77C211.516,144.636 211.432,145.277 211.262,146.004C211.104,146.709 210.915,147.407 210.701,148.105C210.267,149.502 209.699,150.885 208.927,152.233C208.166,153.587 207.188,154.893 205.976,156.098C204.768,157.304 203.253,158.343 201.561,159.086C199.871,159.842 198.009,160.224 196.213,160.311C194.405,160.41 192.688,160.182 191.083,159.803C190.7,159.705 190.244,159.608 189.922,159.503L188.94,159.189C188.29,158.975 187.62,158.776 186.985,158.547C185.728,158.077 184.434,157.642 183.225,157.116C178.305,155.102 173.644,152.804 169.108,150.328C166.837,149.092 164.603,147.814 162.4,146.478C160.185,145.139 158.03,143.821 155.821,142.328L162.236,132.533Z" style="fill:rgb(249,182,182);fill-rule:nonzero;"/>
                <path d="M150.608,139.658C152.144,147.035 170.714,157.678 170.714,157.678L177.485,139.888C177.485,139.888 172.194,136.579 164.287,131.297C156.296,125.958 148.923,131.562 150.608,139.658Z" style="fill:rgb(12,43,52);fill-rule:nonzero;"/>
                <path d="M203.853,145.288L209.22,136.861L213.231,146.034C213.231,146.034 210.053,150.856 205.137,148.381L203.853,145.288Z" style="fill:rgb(249,182,182);fill-rule:nonzero;"/>
                <path d="M216.073,133.673L218.704,140.548L213.231,146.034L209.22,136.861L216.073,133.673Z" style="fill:rgb(249,182,182);fill-rule:nonzero;"/>
                <path d="M156.419,345.128L156.416,345.128L156.672,343.648L156.675,343.648L156.419,345.128Z" style="fill:rgb(195,197,197);fill-rule:nonzero;"/>
                <path d="M164.143,345.128L156.419,345.128L156.675,343.648L164.399,343.648L164.143,345.128Z" style="fill:rgb(216,151,147);fill-rule:nonzero;"/>
                <path d="M112.912,345.128L112.906,345.128L113.49,343.648L113.495,343.648L112.912,345.128Z" style="fill:rgb(195,197,197);fill-rule:nonzero;"/>
                <path d="M120.633,345.128L112.912,345.128L113.495,343.648L121.218,343.648L120.633,345.128Z" style="fill:rgb(216,151,147);fill-rule:nonzero;"/>
                <path d="M159.566,129.462C159.566,129.462 170.297,151.579 164.863,196.101C152.521,197.721 129.907,200.689 123.901,201.477C123.159,195.178 124.865,163.753 116.633,134.695C116.633,134.695 123.551,132.354 130.218,131.151C135.433,130.21 142.999,129.047 147.631,128.867C153.737,128.628 159.566,129.462 159.566,129.462Z" style="fill:rgb(12,43,52);fill-rule:nonzero;"/>
                <path d="M122.449,167.942C121.522,157.574 119.826,145.956 116.634,134.696L116.808,134.643C117.244,134.521 117.687,134.462 118.134,134.462C121.792,134.462 125.686,138.408 127.88,143.899C131.471,152.87 135.704,164.772 135.704,164.772L122.449,167.942Z" style="fill:rgb(2,30,39);fill-rule:nonzero;"/>
                <path d="M130.509,111.169C132.017,116.67 133.864,126.87 130.218,131.151C130.218,131.151 136.909,137.256 146.828,138.139C150.664,134.064 147.631,128.867 147.631,128.867C141.274,128.183 141.096,123.491 141.866,118.962L130.509,111.169Z" style="fill:rgb(249,182,182);fill-rule:nonzero;"/>
                <path d="M162.415,179.859L153.233,128.824C146.119,130.104 141.39,136.908 142.67,144.022L147.217,169.296C148.497,176.41 155.302,181.139 162.415,179.859Z" style="fill:rgb(48,115,186);fill-rule:nonzero;"/>
                <path d="M160.082,180.068C153.87,180.068 148.356,175.626 147.217,169.296L142.67,144.022C142.529,143.237 142.461,142.456 142.461,141.685C142.463,135.894 146.322,130.712 151.973,129.114C151.941,130.065 152.009,131.033 152.184,132.007L160.323,177.242C160.498,178.216 160.772,179.146 161.134,180.026C160.781,180.054 160.431,180.068 160.082,180.068Z" style="fill:rgb(0,100,205);fill-rule:nonzero;"/>
                <path d="M197.627,230.343L191.192,231.501C186.495,232.346 182.122,228.879 181.874,224.113L179.219,173.077C179.012,169.091 181.801,165.572 185.73,164.865L197.637,162.723C203.175,161.727 207.959,166.659 206.793,172.164L202.04,194.622C201.877,195.393 201.829,196.183 201.899,196.967L204.117,221.84C204.481,225.927 201.666,229.617 197.627,230.343Z" style="fill:rgb(0,100,205);fill-rule:nonzero;"/>
                <path d="M180.094,190.005L179.969,187.597C179.971,187.596 179.973,187.596 179.975,187.596L180.1,190.004C180.098,190.004 180.096,190.004 180.094,190.005Z" style="fill:rgb(195,197,197);fill-rule:nonzero;"/>
                <path d="M180.1,190.004L179.975,187.596C188.028,186.226 196.121,185.1 204.235,184.22L203.713,186.679C195.815,187.546 187.942,188.661 180.1,190.004Z" style="fill:rgb(31,104,179);fill-rule:nonzero;"/>
                <path d="M207.479,210.293L196.646,212.242L196.735,193.458L207.568,191.509L207.479,210.293Z" style="fill:rgb(0,100,205);fill-rule:nonzero;"/>
                <path d="M209.125,200.613C209.1,205.8 208.363,210.134 207.479,210.293C206.594,210.452 205.897,206.376 205.922,201.189C205.947,196.002 206.684,191.668 207.568,191.509C208.452,191.35 209.149,195.426 209.125,200.613Z" style="fill:rgb(48,115,186);fill-rule:nonzero;"/>
                <g transform="matrix(1,0,0,1,-0.553399,0)">
                    <path d="M207.429,210.298C206.583,210.298 205.921,206.418 205.921,201.457C205.921,201.368 205.922,201.279 205.922,201.189C205.947,196.002 206.684,191.668 207.568,191.509C207.585,191.506 207.602,191.504 207.618,191.504C208.463,191.504 209.125,195.384 209.125,200.346L209.125,200.613C209.1,205.8 208.363,210.134 207.479,210.293C207.462,210.296 207.445,210.298 207.429,210.298Z" style="fill:rgb(31,104,179);fill-rule:nonzero;"/>
                </g>
                <path d="M163.203,116.153C155.782,117.488 150.849,124.586 152.184,132.007L160.323,177.242C161.658,184.662 168.756,189.596 176.176,188.261L176.177,188.26C202.757,183.478 229.749,181.365 256.75,181.952L284.524,182.557L266.743,83.733L240.921,93.981C215.819,103.942 189.783,111.37 163.203,116.153Z" style="fill:rgb(0,124,255);fill-rule:nonzero;"/>
                <path d="M253.917,181.908C252.569,181.878 251.214,181.869 249.862,181.869L249.861,181.861C251.214,181.867 252.563,181.881 253.915,181.901L253.917,181.908ZM234.496,96.467L234.495,96.463C234.883,96.318 235.271,96.173 235.658,96.027C235.271,96.174 234.883,96.321 234.496,96.467ZM237.499,95.321C237.76,95.219 238.022,95.116 238.282,95.013L238.283,95.017C238.022,95.119 237.76,95.22 237.499,95.321Z" style="fill:rgb(168,171,171);fill-rule:nonzero;"/>
                <path d="M253.915,181.901C252.563,181.881 251.214,181.867 249.861,181.861L234.496,96.467C234.883,96.321 235.271,96.174 235.658,96.027C236.273,95.795 236.887,95.56 237.499,95.321C237.76,95.22 238.022,95.119 238.283,95.017L253.915,181.901Z" style="fill:rgb(0,100,205);fill-rule:nonzero;"/>
                <path d="M279.822,132.391C284.732,159.68 286.837,182.14 284.524,182.557C282.21,182.973 276.354,161.188 271.444,133.898C266.534,106.609 264.429,84.149 266.743,83.733C269.056,83.317 274.912,105.102 279.822,132.391Z" style="fill:rgb(48,115,186);fill-rule:nonzero;"/>
                <path d="M284.457,182.562C282.1,182.562 276.308,160.931 271.444,133.898C267.889,114.138 265.804,96.909 265.803,88.749C265.802,85.641 266.104,83.848 266.743,83.733C266.764,83.729 266.787,83.727 266.809,83.727C269.166,83.727 274.958,105.358 279.822,132.391C283.377,152.152 285.462,169.38 285.463,177.54C285.464,180.649 285.162,182.442 284.524,182.557C284.502,182.56 284.48,182.562 284.457,182.562Z" style="fill:rgb(0,100,205);fill-rule:nonzero;"/>
                <path d="M141.55,122.143L141.548,122.143C141.548,122.063 141.55,121.982 141.552,121.901C141.55,121.982 141.55,122.062 141.55,122.143ZM141.86,118.959L140.662,118.136L141.86,118.958L141.86,118.959Z" style="fill:rgb(187,190,190);fill-rule:nonzero;"/>
                <path d="M141.548,122.143C139.136,122.107 135.667,119.898 135.231,117.414C135.013,116.175 134.978,114.961 135.139,114.349L140.662,118.136L141.86,118.959C141.689,119.947 141.568,120.942 141.552,121.901C141.55,121.982 141.548,122.063 141.548,122.143Z" style="fill:rgb(216,151,147);fill-rule:nonzero;"/>
                <path d="M140.81,88.717C144.869,89.092 150.985,100 146.916,103.843C142.847,107.686 133.123,88.006 140.81,88.717Z" style="fill:rgb(12,43,52);fill-rule:nonzero;"/>
                <path d="M126.565,104.279C128.925,111.476 129.938,115.83 134.637,118.41C141.705,122.291 149.92,116.026 149.772,108.137C149.638,101.036 145.801,90.461 137.833,89.842C129.983,89.232 124.204,97.083 126.565,104.279Z" style="fill:rgb(249,182,182);fill-rule:nonzero;"/>
                <path d="M145.957,87.55C143.565,87.047 141.649,87.028 139.923,87.084C141.395,85.654 142.54,84.365 143.095,83.527C141.27,84.871 139.113,85.698 136.919,86.36C137.341,85.203 137.581,84.198 137.6,83.476C136.073,85.323 133.473,86.566 130.662,87.62C131.999,85.848 132.958,84.151 133.386,82.673C131.643,85.894 125.074,88.664 120.931,91.419L120.868,91.454C120.565,91.638 120.293,91.835 120.042,92.038L119.997,92.07C119.603,92.362 119.325,92.657 119.144,92.946C117.407,95.104 117.931,97.786 119.84,99.075C118.366,99.96 117.8,101.976 118.595,103.985C118.532,102.59 118.863,101.058 119.874,100.436C118.173,105.36 123.897,110.002 128.948,111.309C131.902,112.073 133.789,100.587 130.918,96.049C134.773,95.554 138.065,94.596 140.034,93.234C138.761,93.758 137.149,93.78 135.43,93.627C139.129,92.167 143.109,90.108 146.253,90.631C144.952,90.105 143.35,89.853 141.534,89.814C142.713,89.394 143.831,89.09 144.885,89.133C148.246,89.272 150.468,92.161 149.607,94.05C151.052,91.855 150.583,88.522 145.957,87.55Z" style="fill:rgb(12,43,52);fill-rule:nonzero;"/>
                <path d="M125.343,113.434C126.826,114.788 128.828,115.285 130.515,115.125C133.053,114.884 133.552,112.37 132.201,110.432C130.985,108.687 128.198,106.71 125.961,107.917C123.757,109.105 123.647,111.885 125.343,113.434Z" style="fill:rgb(249,182,182);fill-rule:nonzero;"/>
                <path d="M164.863,196.101C164.863,196.101 185.84,253.829 183.632,277.383C181.336,301.883 167.145,343.342 167.145,343.342L154.061,343.342C154.061,343.342 161.742,303.315 162.557,279.253C163.446,253.022 139.405,219.852 137.937,199.635C150.603,197.973 164.863,196.101 164.863,196.101Z" style="fill:rgb(0,124,255);fill-rule:nonzero;"/>
                <path d="M157.206,252.304L157.201,252.304C156.148,249.365 154.995,246.422 153.793,243.494L153.795,243.494C154.998,246.421 156.152,249.366 157.206,252.304Z" style="fill:rgb(195,197,197);fill-rule:nonzero;"/>
                <path d="M153.795,243.494L153.793,243.494C153.51,242.805 153.224,242.116 152.936,241.43L152.936,241.426C153.224,242.114 153.511,242.804 153.795,243.494Z" style="fill:rgb(173,176,177);fill-rule:nonzero;"/>
                <path d="M158.549,256.248C158.123,254.936 157.672,253.621 157.201,252.304L157.206,252.304C157.676,253.615 158.125,254.922 158.55,256.229C158.55,256.236 158.55,256.241 158.549,256.248Z" style="fill:rgb(173,176,177);fill-rule:nonzero;"/>
                <path d="M158.55,256.229C158.125,254.922 157.676,253.615 157.206,252.304C156.152,249.366 154.998,246.421 153.795,243.494C153.511,242.804 153.224,242.114 152.936,241.426C152.848,235.614 152.622,229.814 152.337,224.432C156.802,231.165 158.876,240.901 158.55,256.229Z" style="fill:rgb(31,104,179);fill-rule:nonzero;"/>
                <path d="M150.332,198.008C150.332,198.008 156.338,255.106 150.242,277.221C143.566,301.437 124.371,343.342 124.371,343.342L110.224,343.342C110.224,343.342 122.543,303.393 126.943,279.416C131.717,253.393 125.305,220.812 123.901,201.477C139.588,199.418 150.332,198.008 150.332,198.008Z" style="fill:rgb(0,124,255);fill-rule:nonzero;"/>
                <path d="M126.856,343.648L108.892,343.648L110.097,338.347L129.343,338.347L126.856,343.648Z" style="fill:rgb(48,115,186);fill-rule:nonzero;"/>
                <path d="M126.856,343.648L108.892,343.648L110.097,338.347L129.343,338.347L128.31,340.549L128.192,340.799L126.856,343.648Z" style="fill:rgb(0,86,167);fill-rule:nonzero;"/>
                <path d="M170.049,343.648L152.267,343.648L152.56,338.612L171.045,338.347L170.049,343.648Z" style="fill:rgb(48,115,186);fill-rule:nonzero;"/>
                <path d="M170.049,343.648L152.267,343.648L152.56,338.612L171.045,338.347L170.631,340.549L170.584,340.799L170.049,343.648Z" style="fill:rgb(0,86,167);fill-rule:nonzero;"/>
                <path d="M138.267,102.764C138.422,103.361 138.866,103.744 139.258,103.619C139.65,103.494 139.842,102.908 139.686,102.31C139.531,101.712 139.087,101.329 138.695,101.455C138.303,101.58 138.112,102.166 138.267,102.764Z" style="fill:rgb(12,43,52);fill-rule:nonzero;"/>
                <path d="M145.044,100.599C145.199,101.197 145.643,101.58 146.035,101.455C146.427,101.329 146.618,100.743 146.463,100.146C146.308,99.548 145.864,99.165 145.472,99.29C145.08,99.416 144.888,100.002 145.044,100.599Z" style="fill:rgb(12,43,52);fill-rule:nonzero;"/>
                <path d="M142.967,101.585C142.967,101.585 145.226,104.597 147.16,105.782C146.356,107.108 144.435,107.233 144.435,107.233L142.967,101.585Z" style="fill:rgb(244,130,127);fill-rule:nonzero;"/>
                <path d="M143.117,109.441C140.296,110.342 138.502,108.827 138.427,108.762L138.415,108.503L138.672,108.476C138.689,108.491 140.402,109.928 143.026,109.09C143.123,109.059 143.222,109.113 143.247,109.21C143.272,109.306 143.214,109.41 143.117,109.441Z" style="fill:rgb(12,43,52);fill-rule:nonzero;"/>
                <path d="M135.658,101.237L135.428,101.234C135.242,101.166 135.154,100.956 135.231,100.764C136.004,98.841 137.648,98.416 137.721,98.4C137.919,98.351 138.108,98.472 138.145,98.67C138.182,98.868 138.054,99.066 137.856,99.115C137.802,99.128 136.519,99.474 135.903,101.008C135.858,101.121 135.765,101.203 135.658,101.237Z" style="fill:rgb(12,43,52);fill-rule:nonzero;"/>
                <path d="M147.408,97.331C147.277,97.372 147.132,97.34 147.039,97.234C145.998,96.057 144.696,96.272 144.641,96.282C144.442,96.317 144.26,96.185 144.236,95.985C144.211,95.785 144.356,95.596 144.549,95.557C144.62,95.544 146.288,95.25 147.593,96.725C147.723,96.872 147.705,97.106 147.552,97.246L147.408,97.331Z" style="fill:rgb(12,43,52);fill-rule:nonzero;"/>
                <path d="M124.86,140.942C125.718,144.292 126.618,147.807 127.592,151.214C128.571,154.636 129.529,158.06 130.616,161.423C131.693,164.788 132.865,168.1 134.107,171.321C135.368,174.516 136.762,177.654 138.335,180.308C138.536,180.621 138.726,180.978 138.932,181.26L139.236,181.706L139.386,181.931L139.388,181.947C139.43,182.047 139.862,182.467 140.392,182.837C141.47,183.617 142.907,184.437 144.391,185.18C147.393,186.667 150.66,188.043 153.964,189.328C160.584,191.906 167.441,194.308 174.244,196.653L172.92,202.299C165.574,201.222 158.38,199.77 151.164,197.818C147.561,196.811 143.962,195.739 140.316,194.257C138.485,193.503 136.645,192.711 134.676,191.497C133.689,190.868 132.655,190.181 131.477,188.926L131.041,188.42L130.787,188.094L130.284,187.44C129.933,187.001 129.662,186.571 129.35,186.133C126.988,182.656 125.293,179.168 123.728,175.663C122.166,172.165 120.851,168.632 119.621,165.093C117.155,157.993 115.125,150.939 113.451,143.574L124.86,140.942Z" style="fill:rgb(249,182,182);fill-rule:nonzero;"/>
                <path d="M112.047,138.95C108.25,147.813 114.427,168.016 114.427,168.016L132.932,163.272C132.932,163.272 131.071,151.353 127.986,142.194C124.798,132.73 114.97,132.125 112.047,138.95Z" style="fill:rgb(12,43,52);fill-rule:nonzero;"/>
                <path d="M119.318,353.71C120.612,353.973 121.624,353.925 122.068,353.571C122.263,353.415 122.357,353.198 122.355,352.907C122.355,352.765 122.3,352.718 122.252,352.692C121.821,352.465 120.364,353.125 119.318,353.71ZM120.777,354.245C120.063,354.245 119.301,354.097 118.772,353.968L118.643,353.819L118.738,353.635C119.029,353.458 121.606,351.927 122.439,352.367C122.567,352.435 122.72,352.58 122.722,352.884C122.724,353.293 122.577,353.619 122.287,353.851C121.92,354.145 121.365,354.245 120.777,354.245Z" style="fill:rgb(48,115,186);fill-rule:nonzero;"/>
                <path d="M120.556,350.842C120.406,350.842 120.264,350.894 120.126,351.002C119.563,351.441 119.219,352.676 119.072,353.424C119.901,352.821 120.962,351.54 120.895,351.031C120.888,350.985 120.874,350.876 120.638,350.847L120.556,350.842ZM118.815,353.973L118.717,353.943L118.644,353.776C118.657,353.681 118.971,351.452 119.911,350.719C120.155,350.528 120.421,350.448 120.704,350.484C121.138,350.537 121.238,350.807 121.258,350.963C121.372,351.824 119.728,353.517 118.904,353.951L118.815,353.973Z" style="fill:rgb(48,115,186);fill-rule:nonzero;"/>
                <path d="M163.991,353.709C165.68,353.993 166.955,353.919 167.454,353.498C167.63,353.35 167.714,353.157 167.71,352.909C167.708,352.814 167.677,352.755 167.605,352.714C167.115,352.432 165.302,353.101 163.991,353.709ZM165.777,354.246C164.926,354.246 164.012,354.1 163.365,353.969L163.228,353.816L163.337,353.627C163.698,353.446 166.892,351.868 167.802,352.395C167.977,352.496 168.072,352.664 168.076,352.882C168.082,353.246 167.949,353.546 167.681,353.771C167.259,354.127 166.543,354.246 165.777,354.246Z" style="fill:rgb(48,115,186);fill-rule:nonzero;"/>
                <path d="M165.467,350.842C165.235,350.842 165.022,350.92 164.818,351.08C164.142,351.609 163.795,352.854 163.66,353.461C164.645,352.889 165.976,351.577 165.922,351.053C165.917,351.01 165.904,350.881 165.577,350.847L165.467,350.842ZM163.401,353.973L163.296,353.939L163.23,353.772C163.243,353.685 163.572,351.604 164.602,350.797C164.916,350.551 165.262,350.444 165.635,350.483C166.135,350.534 166.265,350.789 166.286,350.994C166.376,351.868 164.433,353.538 163.477,353.957L163.401,353.973Z" style="fill:rgb(48,115,186);fill-rule:nonzero;"/>
                <path d="M172.74,196.508L180.466,195.235L177.358,204.848C177.358,204.848 170.624,204.454 170.626,200.774L172.74,196.508Z" style="fill:rgb(249,182,182);fill-rule:nonzero;"/>
                <path d="M187.789,198.805L184.83,206.567L177.358,204.848L180.466,195.235L187.789,198.805Z" style="fill:rgb(249,182,182);fill-rule:nonzero;"/>
                <path d="M392.329,88.973L381.012,46.871C380.084,43.417 376.53,41.369 373.076,42.298L291.064,64.343C287.609,65.271 285.561,68.825 286.49,72.28L297.807,114.38C298.736,117.835 302.289,119.882 305.744,118.954L317.314,115.844L333.238,125.021L329.865,112.47L387.756,96.909C391.21,95.98 393.258,92.427 392.329,88.973Z" style="fill:rgb(48,115,186);fill-rule:nonzero;"/>
                <g transform="matrix(1,0,0,1,-0.154874,-0.218183)">
                    <path d="M333.238,125.021L317.314,115.844L316.92,115.95L305.744,118.954C305.18,119.105 304.615,119.177 304.058,119.177C301.2,119.177 298.584,117.272 297.807,114.38L286.49,72.28C286.339,71.719 286.267,71.157 286.266,70.603C286.262,67.742 288.169,65.121 291.064,64.343L373.076,42.298C373.639,42.146 374.205,42.074 374.761,42.074C377.619,42.074 380.235,43.98 381.012,46.871L392.329,88.973C392.48,89.533 392.552,90.095 392.553,90.649C392.557,93.51 390.65,96.131 387.756,96.909L360.213,104.312L349.22,107.267L343.682,108.756L339.417,109.902L329.865,112.47L333.238,125.021Z" style="fill:rgb(0,100,205);fill-rule:nonzero;"/>
                </g>
                <path d="M425.737,177.119L430.122,148.623C430.482,146.285 428.878,144.097 426.54,143.738L371.03,135.196C368.692,134.836 366.505,136.44 366.145,138.778L361.76,167.274C361.4,169.613 363.004,171.799 365.342,172.159L373.174,173.365L380.362,183.167L381.669,174.672L420.852,180.701C423.19,181.061 425.377,179.457 425.737,177.119Z" style="fill:rgb(48,115,186);fill-rule:nonzero;"/>
                <path d="M380.362,183.167L373.174,173.365L372.772,173.303L365.342,172.159C363.223,171.833 361.707,170.007 361.71,167.926C361.71,167.711 361.726,167.493 361.76,167.274L366.145,138.778C366.471,136.66 368.295,135.145 370.374,135.145C370.59,135.145 370.81,135.162 371.03,135.196L426.54,143.738C428.659,144.064 430.175,145.891 430.173,147.971C430.172,148.186 430.156,148.404 430.122,148.623L425.737,177.119C425.411,179.237 423.587,180.752 421.509,180.752C421.292,180.752 421.073,180.735 420.852,180.701L405.246,178.3L381.669,174.672L381.351,176.737L380.362,183.167Z" style="fill:rgb(76,163,255);fill-rule:nonzero;"/>
                <path d="M423.765,130.923L416.627,79.888C416.041,75.7 412.171,72.78 407.984,73.366L308.569,87.271C304.381,87.857 301.461,91.727 302.047,95.915L309.186,146.949C309.771,151.137 313.641,154.057 317.829,153.471L331.855,151.509L349.196,164.595L347.068,149.381L417.243,139.565C421.431,138.98 424.351,135.11 423.765,130.923Z" style="fill:rgb(0,124,255);fill-rule:nonzero;"/>
            </g>
        </g>
    </g>
</svg>
