<?xml version="1.0" encoding="UTF-8" standalone="no"?>
<!DOCTYPE svg PUBLIC "-//W3C//DTD SVG 1.1//EN" "http://www.w3.org/Graphics/SVG/1.1/DTD/svg11.dtd">
<svg width="100%" height="100%" viewBox="0 0 100 166" version="1.1" xmlns="http://www.w3.org/2000/svg" xmlns:xlink="http://www.w3.org/1999/xlink" xml:space="preserve" xmlns:serif="http://www.serif.com/" style="fill-rule:evenodd;clip-rule:evenodd;stroke-linecap:round;stroke-linejoin:round;stroke-miterlimit:1.5;">
    <g transform="matrix(1,0,0,1,-5282.33,-3135.92)">
        <g transform="matrix(1,0,0,1,4792,2443)">
            <g transform="matrix(2.11628,0,0,2.20833,-2879.91,-8425.42)">
                <path d="M1630,4143.42C1630,4136.01 1623.73,4130 1616,4130C1608.27,4130 1602,4136.01 1602,4143.42L1602,4160.58C1602,4167.99 1608.27,4174 1616,4174C1623.73,4174 1630,4167.99 1630,4160.58L1630,4143.42Z" style="fill:rgb(2,3,129);stroke:rgb(2,3,129);stroke-width:1.93px;"/>
            </g>
            <g transform="matrix(2.11628,0,0,2.20833,-2885.2,-8427.77)">
                <path d="M1597,4159.07C1597,4191 1640,4188 1640,4159.07" style="fill:none;stroke:rgb(2,3,129);stroke-width:3.85px;"/>
            </g>
            <g transform="matrix(2.11628,0,0,2.20833,-2885.3,-8421.15)">
                <path d="M1618.55,4200L1618.55,4178.91" style="fill:none;stroke:rgb(2,3,129);stroke-width:3.85px;"/>
            </g>
            <g transform="matrix(2.11628,0,0,2.20833,-2880.97,-8419.15)">
                <rect x="1597" y="4197" width="39" height="3" style="fill:rgb(2,3,129);stroke:rgb(2,3,129);stroke-width:1.93px;"/>
            </g>
            <g transform="matrix(2.11628,0,0,2.20833,-2884.31,-8422.94)">
                <path d="M1609,4140L1609,4153" style="fill:none;stroke:white;stroke-width:3.85px;"/>
            </g>
            <g transform="matrix(4.62415,0,0,4.55241,-6914.47,-18171)">
                <circle cx="1608" cy="4159" r="1" style="fill:white;"/>
            </g>
        </g>
    </g>
</svg>
