<?xml version="1.0" encoding="UTF-8" standalone="no"?>
<!DOCTYPE svg PUBLIC "-//W3C//DTD SVG 1.1//EN" "http://www.w3.org/Graphics/SVG/1.1/DTD/svg11.dtd">
<svg width="100%" height="100%" viewBox="0 0 927 821" version="1.1" xmlns="http://www.w3.org/2000/svg" xmlns:xlink="http://www.w3.org/1999/xlink" xml:space="preserve" xmlns:serif="http://www.serif.com/" style="fill-rule:evenodd;clip-rule:evenodd;stroke-linejoin:round;stroke-miterlimit:2;">
    <g transform="matrix(1,0,0,1,-2461.94,-98.5262)">
        <g transform="matrix(1,0,0,1,2385,1.13687e-13)">
            <g transform="matrix(2.20082,0,0,2.20082,-7.15154,97.6657)">
                <rect x="388.343" y="343.521" width="44.86" height="0.25" style="fill:rgb(215,215,214);fill-rule:nonzero;"/>
                <rect x="373.066" y="343.521" width="8.694" height="0.25" style="fill:rgb(215,215,214);fill-rule:nonzero;"/>
                <rect x="279.963" y="340.063" width="19.359" height="0.25" style="fill:rgb(215,215,214);fill-rule:nonzero;"/>
                <rect x="80.932" y="339.938" width="43.193" height="0.25" style="fill:rgb(215,215,214);fill-rule:nonzero;"/>
                <rect x="65.695" y="339.938" width="6.333" height="0.25" style="fill:rgb(215,215,214);fill-rule:nonzero;"/>
                <rect x="189.296" y="334.021" width="93.677" height="0.25" style="fill:rgb(215,215,214);fill-rule:nonzero;"/>
                <path d="M43.915,0.642C40.905,0.642 38.457,3.09 38.457,6.099L38.457,277.53C38.457,280.54 40.905,282.988 43.915,282.988L237.014,282.988C240.022,282.988 242.471,280.54 242.471,277.53L242.471,6.099C242.471,3.09 240.022,0.642 237.014,0.642L43.915,0.642ZM237.014,283.238L43.915,283.238C40.767,283.238 38.207,280.678 38.207,277.53L38.207,6.099C38.207,2.952 40.767,0.391 43.915,0.391L237.014,0.391C240.16,0.391 242.721,2.952 242.721,6.099L242.721,277.53C242.721,280.678 240.16,283.238 237.014,283.238Z" style="fill:rgb(215,215,214);fill-rule:nonzero;"/>
                <path d="M260.212,0.642C257.203,0.642 254.755,3.09 254.755,6.099L254.755,277.53C254.755,280.54 257.203,282.988 260.212,282.988L453.311,282.988C456.32,282.988 458.769,280.54 458.769,277.53L458.769,6.099C458.769,3.09 456.32,0.642 453.311,0.642L260.212,0.642ZM453.311,283.238L260.212,283.238C257.065,283.238 254.505,280.678 254.505,277.53L254.505,6.099C254.505,2.952 257.065,0.391 260.212,0.391L453.311,0.391C456.458,0.391 459.019,2.952 459.019,6.099L459.019,277.53C459.019,280.678 456.458,283.238 453.311,283.238Z" style="fill:rgb(215,215,214);fill-rule:nonzero;"/>
                <rect x="115.494" y="63.55" width="119.555" height="264.412" style="fill:rgb(222,220,219);fill-rule:nonzero;"/>
                <rect x="121.16" y="63.55" width="113.889" height="264.412" style="fill:rgb(233,231,231);fill-rule:nonzero;"/>
                <rect x="127.16" y="69.55" width="101.89" height="252.412" style="fill:rgb(227,226,226);fill-rule:nonzero;"/>
                <rect x="227.494" y="69.55" width="1.556" height="252.412" style="fill:rgb(222,220,219);fill-rule:nonzero;"/>
                <path d="M220.554,184.827C220.554,187.65 218.266,189.938 215.443,189.938C212.62,189.938 210.332,187.65 210.332,184.827C210.332,182.004 212.62,179.716 215.443,179.716C218.266,179.716 220.554,182.004 220.554,184.827Z" style="fill:rgb(222,220,219);fill-rule:nonzero;"/>
                <path d="M222.554,183.772C222.554,186.595 220.266,188.883 217.443,188.883C214.62,188.883 212.332,186.595 212.332,183.772C212.332,180.949 214.62,178.661 217.443,178.661C220.266,178.661 222.554,180.949 222.554,183.772Z" style="fill:rgb(248,247,247);fill-rule:nonzero;"/>
                <rect x="287.559" y="31.003" width="135.699" height="203.102" style="fill:rgb(215,215,214);fill-rule:nonzero;"/>
                <rect x="290.574" y="31.003" width="135.699" height="203.102" style="fill:rgb(233,231,231);fill-rule:nonzero;"/>
                <rect x="295.987" y="37.083" width="124.873" height="190.941" style="fill:rgb(248,247,247);fill-rule:nonzero;"/>
                <rect x="418.581" y="37.083" width="2.279" height="190.941" style="fill:rgb(215,215,214);fill-rule:nonzero;"/>
                <rect x="292.814" y="96.611" width="131.22" height="8.162" style="fill:rgb(233,231,231);fill-rule:nonzero;"/>
                <path d="M432.175,20.939L281.658,20.939C281.2,20.939 280.825,21.314 280.825,21.772C280.825,22.23 281.2,22.605 281.658,22.605L432.175,22.605C432.633,22.605 433.008,22.23 433.008,21.772C433.008,21.314 432.633,20.939 432.175,20.939Z" style="fill:rgb(215,215,214);fill-rule:nonzero;"/>
                <path d="M437.175,21.772C437.175,24.073 435.31,25.939 433.008,25.939C430.707,25.939 428.841,24.073 428.841,21.772C428.841,19.471 430.707,17.605 433.008,17.605C435.31,17.605 437.175,19.471 437.175,21.772Z" style="fill:rgb(215,215,214);fill-rule:nonzero;"/>
                <path d="M288.684,26.439C288.065,26.439 287.559,25.933 287.559,25.314L287.559,22.897C287.559,22.278 288.065,21.772 288.684,21.772C289.303,21.772 289.809,22.278 289.809,22.897L289.809,25.314C289.809,25.933 289.303,26.439 288.684,26.439Z" style="fill:rgb(215,215,214);fill-rule:nonzero;"/>
                <path d="M419.607,26.439C418.988,26.439 418.482,25.932 418.482,25.314L418.482,22.897C418.482,22.278 418.988,21.772 419.607,21.772C420.226,21.772 420.732,22.278 420.732,22.897L420.732,25.314C420.732,25.932 420.226,26.439 419.607,26.439Z" style="fill:rgb(215,215,214);fill-rule:nonzero;"/>
                <path d="M431.908,80.105L426.273,80.105L426.273,31.003L292.814,31.003L292.814,22.605L418.521,22.605C418.496,22.699 418.482,22.796 418.482,22.897L418.482,25.314C418.482,25.932 418.988,26.439 419.607,26.439C420.226,26.439 420.732,25.932 420.732,25.314L420.732,22.897C420.732,22.796 420.719,22.699 420.694,22.605L428.924,22.605C429.237,24.148 430.403,25.381 431.908,25.792L431.908,80.105Z" style="fill:rgb(236,234,234);fill-rule:nonzero;"/>
                <path d="M426.273,80.105L423.764,80.105C424.783,76.179 424.267,71.901 420.86,70.043L420.86,37.083L295.987,37.083L295.987,53.364C295.236,53.077 294.422,52.919 293.572,52.919L292.814,52.919L292.814,31.003L426.273,31.003L426.273,80.105Z" style="fill:rgb(226,224,224);fill-rule:nonzero;"/>
                <path d="M393.961,80.105L300.379,80.105L300.379,59.726C300.379,56.832 298.548,54.344 295.987,53.364L295.987,37.083L420.86,37.083L418.581,37.083L418.581,69.263C418.229,69.198 417.858,69.152 417.468,69.124C420.487,71.694 416.985,77.327 410.021,77.327C407.532,77.327 404.598,76.606 401.364,74.768C400.012,74 398.919,73.664 398.027,73.664C395.361,73.664 394.502,76.669 393.961,80.105Z" style="fill:rgb(233,231,231);fill-rule:nonzero;"/>
                <path d="M420.86,70.043C420.209,69.688 419.453,69.422 418.581,69.263L418.581,37.083L420.86,37.083L420.86,70.043Z" style="fill:rgb(215,215,214);fill-rule:nonzero;"/>
                <path d="M428.924,22.605L420.694,22.605C420.564,22.127 420.125,21.772 419.607,21.772L428.841,21.772C428.841,22.057 428.869,22.336 428.924,22.605ZM418.521,22.605L292.814,22.605L292.814,21.772L419.607,21.772C419.089,21.772 418.65,22.127 418.521,22.605Z" style="fill:rgb(215,215,214);fill-rule:nonzero;"/>
                <path d="M431.908,25.792C430.403,25.381 429.237,24.148 428.924,22.605C428.869,22.336 428.841,22.057 428.841,21.772L431.908,21.772L431.908,25.792Z" style="fill:rgb(215,215,214);fill-rule:nonzero;"/>
                <path d="M419.607,26.439C418.988,26.439 418.482,25.932 418.482,25.314L418.482,22.897C418.482,22.796 418.496,22.699 418.521,22.605C418.65,22.127 419.089,21.772 419.607,21.772C420.125,21.772 420.564,22.127 420.694,22.605C420.719,22.699 420.732,22.796 420.732,22.897L420.732,25.314C420.732,25.932 420.226,26.439 419.607,26.439Z" style="fill:rgb(215,215,214);fill-rule:nonzero;"/>
                <path d="M306.251,21.772C306.251,24.073 304.386,25.939 302.085,25.939C299.783,25.939 297.918,24.073 297.918,21.772C297.918,19.471 299.783,17.605 302.085,17.605C304.386,17.605 306.251,19.471 306.251,21.772Z" style="fill:rgb(215,215,214);fill-rule:nonzero;"/>
                <rect x="281.982" y="264.688" width="26.785" height="59.386" style="fill:rgb(222,220,219);fill-rule:nonzero;"/>
                <rect x="287.125" y="324.074" width="132.091" height="3.763" style="fill:rgb(222,220,219);fill-rule:nonzero;"/>
                <rect x="308.767" y="264.688" width="115.591" height="59.386" style="fill:rgb(233,231,231);fill-rule:nonzero;"/>
                <rect x="319.297" y="271.998" width="94.53" height="19.477" style="fill:rgb(222,220,219);fill-rule:nonzero;"/>
                <rect x="319.297" y="297.288" width="94.53" height="19.477" style="fill:rgb(222,220,219);fill-rule:nonzero;"/>
                <path d="M378.607,283.071L354.518,283.071C353.869,283.071 353.338,282.541 353.338,281.892L353.338,281.58C353.338,280.931 353.869,280.4 354.518,280.4L378.607,280.4C379.256,280.4 379.787,280.931 379.787,281.58L379.787,281.892C379.787,282.541 379.256,283.071 378.607,283.071Z" style="fill:rgb(233,231,231);fill-rule:nonzero;"/>
                <path d="M378.607,308.361L354.518,308.361C353.869,308.361 353.338,307.83 353.338,307.182L353.338,306.87C353.338,306.222 353.869,305.69 354.518,305.69L378.607,305.69C379.256,305.69 379.787,306.222 379.787,306.87L379.787,307.182C379.787,307.83 379.256,308.361 378.607,308.361Z" style="fill:rgb(233,231,231);fill-rule:nonzero;"/>
                <path d="M348.021,250.033C348.021,253.292 345.378,255.933 342.119,255.933C338.86,255.933 336.218,253.292 336.218,250.033C336.218,246.773 338.86,244.132 342.119,244.132C345.378,244.132 348.021,246.773 348.021,250.033Z" style="fill:rgb(233,231,231);fill-rule:nonzero;"/>
                <path d="M357.301,248.923C357.301,252.183 354.659,254.824 351.399,254.824C348.141,254.824 345.498,252.183 345.498,248.923C345.498,245.664 348.141,243.021 351.399,243.021C354.659,243.021 357.301,245.664 357.301,248.923Z" style="fill:rgb(233,231,231);fill-rule:nonzero;"/>
                <path d="M385.849,251.646C385.849,254.906 383.207,257.549 379.948,257.549C376.689,257.549 374.047,254.906 374.047,251.646C374.047,248.388 376.689,245.745 379.948,245.745C383.207,245.745 385.849,248.388 385.849,251.646Z" style="fill:rgb(233,231,231);fill-rule:nonzero;"/>
                <path d="M370.616,254.37C370.616,257.631 367.975,260.271 364.716,260.271C361.456,260.271 358.814,257.631 358.814,254.37C358.814,251.111 361.456,248.469 364.716,248.469C367.975,248.469 370.616,251.111 370.616,254.37Z" style="fill:rgb(233,231,231);fill-rule:nonzero;"/>
                <path d="M324.961,251.105C324.961,251.105 325.917,264.688 362.563,264.688C399.208,264.688 400.164,251.105 400.164,251.105L324.961,251.105Z" style="fill:rgb(222,220,219);fill-rule:nonzero;"/>
                <rect x="43.568" y="243.771" width="18.229" height="79.057" style="fill:rgb(222,220,219);fill-rule:nonzero;"/>
                <rect x="47.068" y="322.828" width="89.896" height="5.009" style="fill:rgb(222,220,219);fill-rule:nonzero;"/>
                <rect x="61.797" y="243.771" width="78.667" height="79.057" style="fill:rgb(233,231,231);fill-rule:nonzero;"/>
                <rect x="68.963" y="253.503" width="64.334" height="25.927" style="fill:rgb(222,220,219);fill-rule:nonzero;"/>
                <rect x="68.963" y="287.169" width="64.334" height="25.928" style="fill:rgb(222,220,219);fill-rule:nonzero;"/>
                <path d="M108.353,268.244L93.908,268.244C92.93,268.244 92.13,267.444 92.13,266.466C92.13,265.488 92.93,264.688 93.908,264.688L108.353,264.688C109.331,264.688 110.13,265.488 110.13,266.466C110.13,267.444 109.331,268.244 108.353,268.244Z" style="fill:rgb(233,231,231);fill-rule:nonzero;"/>
                <path d="M108.353,301.91L93.908,301.91C92.93,301.91 92.13,301.11 92.13,300.133C92.13,299.155 92.93,298.355 93.908,298.355L108.353,298.355C109.331,298.355 110.13,299.155 110.13,300.133C110.13,301.11 109.331,301.91 108.353,301.91Z" style="fill:rgb(233,231,231);fill-rule:nonzero;"/>
                <path d="M97.361,228.569C97.361,228.569 82.328,202.654 103.185,182.025C103.185,182.025 108.629,185.573 108.545,190.343C108.461,195.113 102.716,196.319 103.95,200.3C105.185,204.28 110.61,208.185 107.049,211.476C103.489,214.767 107.624,217.695 107.382,221.727C107.141,225.759 97.361,228.569 97.361,228.569Z" style="fill:rgb(233,231,231);fill-rule:nonzero;"/>
                <path d="M75.468,224.438C75.468,224.438 75.968,243.771 95.135,243.771C114.302,243.771 114.802,224.438 114.802,224.438L75.468,224.438Z" style="fill:rgb(222,220,219);fill-rule:nonzero;"/>
                <path d="M98.502,230.938C98.502,230.938 104.597,201.605 78.299,188.605C78.299,188.605 74.252,193.688 75.835,198.188C77.419,202.688 83.252,202.021 83.335,206.188C83.419,210.355 79.502,215.771 83.919,217.771C88.335,219.771 85.335,223.855 86.835,227.605C88.335,231.355 98.502,230.938 98.502,230.938Z" style="fill:rgb(222,220,219);fill-rule:nonzero;"/>
                <rect x="59.421" y="86.328" width="30.008" height="75.489" style="fill:rgb(215,215,214);fill-rule:nonzero;"/>
                <rect x="63.646" y="86.328" width="31.854" height="75.489" style="fill:rgb(233,231,231);fill-rule:nonzero;"/>
                <rect x="68.497" y="91.179" width="22.152" height="65.787" style="fill:rgb(248,247,247);fill-rule:nonzero;"/>
                <path d="M443.889,361.677C443.889,367.931 357.082,373 250,373C142.918,373 56.111,367.931 56.111,361.677C56.111,355.423 142.918,350.353 250,350.353C357.082,350.353 443.889,355.423 443.889,361.677Z" style="fill:rgb(238,237,237);fill-rule:nonzero;"/>
                <path d="M366.659,140.828C366.497,143.637 366.159,146.222 365.779,148.895C365.381,151.544 364.854,154.175 364.266,156.799C363.082,162.074 361.403,167.179 359.007,172.311C358.055,174.177 356.875,175.354 355.712,176.372C354.54,177.376 353.351,178.199 352.153,178.953C349.759,180.448 347.315,181.628 344.858,182.714C339.912,184.824 334.951,186.531 329.784,187.853L328.537,184.137C330.841,183.1 333.195,182.026 335.477,180.895C337.775,179.791 340.038,178.628 342.222,177.386C344.411,176.164 346.537,174.859 348.454,173.461C349.406,172.763 350.302,172.029 351.048,171.285C351.786,170.551 352.388,169.768 352.563,169.285C353.421,167.144 354.257,164.761 354.902,162.4C355.539,160.011 356.132,157.598 356.63,155.146C357.128,152.696 357.529,150.218 357.889,147.733C358.26,145.272 358.54,142.7 358.762,140.333L366.659,140.828Z" style="fill:rgb(244,127,118);fill-rule:nonzero;"/>
                <path d="M361.272,131.397C358.083,132.209 355.852,145.335 355.852,145.335L364.641,151.312C364.641,151.312 373.068,138.071 370.614,134.564C368.06,130.912 365.927,130.212 361.272,131.397Z" style="fill:rgb(40,107,180);fill-rule:nonzero;"/>
                <path d="M359.112,147.552L355.852,145.335C355.852,145.335 358.083,132.209 361.272,131.397C362.194,131.162 363.017,131.001 363.764,130.923C362.237,131.2 361.272,131.397 361.272,131.397C361.272,131.397 360.353,131.721 360.352,137.705C360.352,138.535 360.37,139.476 360.41,140.539L359.112,147.552Z" style="fill:rgb(48,65,130);fill-rule:nonzero;"/>
                <path d="M361.561,134.329L359.11,147.558L364.05,150.909L361.561,134.329Z" style="fill:rgb(40,107,180);fill-rule:nonzero;"/>
                <path d="M360.994,148.836L359.11,147.558L360.41,140.539C360.494,142.737 360.673,145.459 360.994,148.836Z" style="fill:rgb(42,40,82);fill-rule:nonzero;"/>
                <path d="M330.336,183.943L324.847,178.379L324.125,186.216C324.125,186.216 328.24,189.001 331.088,187.504L330.336,183.943Z" style="fill:rgb(244,127,118);fill-rule:nonzero;"/>
                <path d="M318.394,177.548L318.145,184.141L324.125,186.216L324.847,178.379L318.394,177.548Z" style="fill:rgb(244,127,118);fill-rule:nonzero;"/>
                <path d="M378.529,352.323L370.79,352.323L370.273,334.401L378.013,334.401L378.529,352.323Z" style="fill:rgb(244,127,118);fill-rule:nonzero;"/>
                <path d="M446.82,316.375L440.922,321.386L427.423,309.337L433.321,304.327L446.82,316.375Z" style="fill:rgb(244,127,118);fill-rule:nonzero;"/>
                <path d="M439.306,320.785L445.025,314.237C445.234,313.999 445.568,313.95 445.83,314.12L451.662,317.899C452.268,318.292 452.372,319.198 451.883,319.739C449.849,321.988 448.754,322.971 446.238,325.851C444.69,327.622 442.613,330.37 440.477,332.816C438.386,335.209 435.807,333.28 436.478,332.07C439.485,326.644 438.761,324.739 438.813,322.072C438.822,321.591 439.001,321.133 439.306,320.785Z" style="fill:rgb(36,48,59);fill-rule:nonzero;"/>
                <path d="M370.524,351.427L379.22,351.427C379.536,351.427 379.793,351.646 379.837,351.956L380.828,358.835C380.931,359.548 380.316,360.224 379.587,360.211C376.556,360.158 375.095,359.98 371.271,359.98C368.919,359.98 364.054,360.225 360.806,360.225C357.628,360.225 357.384,357.013 358.736,356.723C364.802,355.418 367.188,353.619 369.231,351.903C369.6,351.594 370.063,351.427 370.524,351.427Z" style="fill:rgb(36,48,59);fill-rule:nonzero;"/>
                <path d="M370.275,334.406L370.54,343.643L378.282,343.643L378.018,334.406L370.275,334.406Z" style="fill:rgb(225,100,97);fill-rule:nonzero;"/>
                <path d="M433.326,304.329L427.426,309.341L434.387,315.549L440.287,310.537L433.326,304.329Z" style="fill:rgb(225,100,97);fill-rule:nonzero;"/>
                <path d="M361.272,131.397C361.272,131.397 357.586,132.695 364.971,178.105L396.401,178.105C395.874,165.313 395.859,157.425 401.974,131.172C401.974,131.172 395.388,129.74 388.626,129.414C383.337,129.159 379.004,128.99 374.353,129.414C368.224,129.974 361.272,131.397 361.272,131.397Z" style="fill:rgb(40,107,180);fill-rule:nonzero;"/>
                <path d="M396.32,176.025L393.344,176.025L393.338,175.97C393.326,175.863 393.178,175.776 393.008,175.776L392.155,175.776C391.992,175.776 391.867,175.857 391.867,175.958C391.867,175.962 391.868,175.966 391.868,175.97L391.874,176.025L380.651,176.025L380.645,175.97C380.633,175.863 380.484,175.776 380.314,175.776L379.462,175.776C379.299,175.776 379.173,175.857 379.174,175.958C379.174,175.962 379.174,175.966 379.175,175.97L379.181,176.025L367.957,176.025L367.951,175.97C367.939,175.863 367.791,175.776 367.621,175.776L366.769,175.776C366.605,175.776 366.48,175.857 366.481,175.958L366.481,175.97L366.487,176.025L364.635,176.025C363.849,171.11 363.198,166.734 362.661,162.842C361.888,157.232 361.353,152.624 360.994,148.836C360.519,143.825 360.352,140.252 360.352,137.705C360.353,131.721 361.272,131.397 361.272,131.397C361.272,131.397 366.493,130.328 371.875,129.679C370.575,130.859 370.084,131.963 370.082,132.958C370.077,136.039 374.772,138.077 374.772,138.077L378.783,132.161L374.923,129.365C376.773,129.215 378.579,129.156 380.425,129.156C382.725,129.156 385.086,129.247 387.664,129.368L378.992,132.698L381.828,138.494C381.828,138.494 392.318,135.292 392.317,130.57C392.317,130.279 392.277,129.982 392.192,129.68C396.234,130.078 399.765,130.729 401.24,131.022C401.099,131.007 400.959,130.999 400.82,130.999C397.661,130.999 394.785,134.804 393.556,138.586C393.385,139.11 393.311,139.718 393.31,140.378C393.307,144.839 396.688,151.708 396.688,151.708L397.913,150.832C397.059,155.924 396.592,160.03 396.366,163.755C394.888,163.021 393.412,162.267 391.944,161.526L389.727,164.757C391.81,166.538 393.936,168.204 396.187,169.762L396.187,169.826C396.187,171.865 396.241,173.891 396.32,176.025Z" style="fill:rgb(48,65,130);fill-rule:nonzero;"/>
                <path d="M378.992,132.698L381.828,138.494C381.828,138.494 393.738,134.858 392.176,129.623L388.218,129.156L378.992,132.698Z" style="fill:rgb(40,107,180);fill-rule:nonzero;"/>
                <path d="M381.828,138.494L378.992,132.698L388.218,129.156L392.176,129.623C392.272,129.945 392.317,130.261 392.317,130.57C392.318,135.292 381.828,138.494 381.828,138.494Z" style="fill:rgb(149,178,221);fill-rule:nonzero;"/>
                <path d="M378.783,132.161L374.772,138.077C374.772,138.077 366.294,134.397 372.136,129.451L374.634,129.156L378.783,132.161Z" style="fill:rgb(40,107,180);fill-rule:nonzero;"/>
                <path d="M374.772,138.077C374.772,138.077 370.077,136.039 370.082,132.958C370.084,131.899 370.641,130.716 372.136,129.451L374.634,129.156L378.783,132.161L374.772,138.077Z" style="fill:rgb(149,178,221);fill-rule:nonzero;"/>
                <path d="M391.549,89.404C395.219,85.873 391.701,69.276 401.364,74.768C413.645,81.748 421.566,72.613 417.468,69.124C426.09,69.738 425.245,79.551 421.662,84.822C416.45,92.491 408.203,91.599 402.079,90.706C397.499,90.039 394.107,89.372 394.061,92.286C393.952,99.097 391.549,89.404 391.549,89.404Z" style="fill:rgb(36,48,59);fill-rule:nonzero;"/>
                <path d="M386.253,87.047C390.456,83.723 404.845,86.493 394.984,99.902L386.253,87.047Z" style="fill:rgb(40,107,180);fill-rule:nonzero;"/>
                <path d="M394.984,99.902L386.253,87.047C387.302,86.218 388.984,85.768 390.767,85.768C394.368,85.768 398.374,87.606 398.372,91.864C398.37,93.943 397.413,96.6 394.984,99.902Z" style="fill:rgb(32,87,167);fill-rule:nonzero;"/>
                <path d="M388.47,93.274C400.731,95.105 401.586,115.032 382.559,118.122L388.47,93.274Z" style="fill:rgb(36,48,59);fill-rule:nonzero;"/>
                <path d="M387.212,113.344C386.312,117.935 385.413,126.35 388.626,129.414C388.626,129.414 387.371,134.072 378.838,134.072C369.455,134.072 374.354,129.414 374.354,129.414C379.475,128.192 379.343,124.392 378.451,120.824L387.212,113.344Z" style="fill:rgb(244,127,118);fill-rule:nonzero;"/>
                <path d="M383.641,116.396L378.455,120.82C378.669,121.664 378.835,122.521 378.895,123.353C380.852,123.071 383.539,120.923 383.746,118.875C383.85,117.853 383.807,116.871 383.641,116.396Z" style="fill:rgb(225,100,97);fill-rule:nonzero;"/>
                <path d="M367.86,108.027C363.627,102.581 358.121,88.521 374.608,87.173L367.86,108.027Z" style="fill:rgb(36,48,59);fill-rule:nonzero;"/>
                <path d="M386.897,101.632C387.912,109.245 388.504,112.446 385.463,117.053C380.888,123.983 371.314,123.564 368.046,116.408C365.104,109.966 363.938,98.598 370.714,94.159C377.39,89.785 385.883,94.019 386.897,101.632Z" style="fill:rgb(244,127,118);fill-rule:nonzero;"/>
                <path d="M364.971,178.105C364.971,178.105 358.866,237.721 359.374,261.321C359.901,285.869 368.896,341.855 368.896,341.855L379.361,341.855C379.361,341.855 377.705,287.304 378.63,263.195C379.639,236.912 387.987,178.105 387.987,178.105L364.971,178.105Z" style="fill:rgb(40,107,180);fill-rule:nonzero;"/>
                <path d="M368.332,338.27C366.353,325.534 359.821,282.131 359.374,261.321C359.354,260.376 359.344,259.374 359.344,258.32C359.345,235.44 363.954,188.261 364.828,179.516L366.869,179.516L366.881,179.625C366.893,179.732 367.041,179.82 367.211,179.82L368.063,179.82C368.227,179.82 368.352,179.739 368.351,179.638L368.351,179.625L368.339,179.516L373.436,179.516C373.798,182.608 374.738,190.502 376.01,200.333C375.136,204.304 374.784,208.66 374.783,213.1C374.78,226.448 377.954,240.566 379.708,247.339C379.982,244.244 380.292,241.013 380.628,237.714C379.65,247.335 378.892,256.365 378.63,263.195C378.428,268.457 378.349,275.169 378.349,282.448C378.349,303.092 378.984,328.293 379.248,337.889L368.332,338.27Z" style="fill:rgb(149,178,221);fill-rule:nonzero;"/>
                <path d="M380.268,342.23L367.989,342.23L367.089,338.313L380.839,337.834L380.268,342.23Z" style="fill:rgb(40,107,180);fill-rule:nonzero;"/>
                <path d="M380.268,342.23L367.989,342.23L367.089,338.313L380.839,337.834L380.268,342.23Z" style="fill:rgb(105,152,208);fill-rule:nonzero;"/>
                <path d="M378.528,192.938C370.809,208.469 376.979,236.799 379.708,247.339C381.108,231.509 383.469,212.158 385.309,197.948C384.139,189.909 382.089,185.778 378.528,192.938Z" style="fill:rgb(40,107,180);fill-rule:nonzero;"/>
                <path d="M379.708,247.339C377.954,240.566 374.78,226.448 374.783,213.1C374.784,208.66 375.136,204.304 376.01,200.333C377.366,210.815 379.1,223.497 380.918,234.916C380.47,239.187 380.059,243.374 379.708,247.339Z" style="fill:rgb(105,152,208);fill-rule:nonzero;"/>
                <path d="M373.272,178.105C373.272,178.105 380.391,240.083 385.768,259.98C392.151,283.603 431.804,315.395 431.804,315.395L439.848,308.563C439.848,308.563 411.107,274.028 406.227,261.583C395.81,235.021 404.727,195.438 396.401,178.105L373.272,178.105Z" style="fill:rgb(40,107,180);fill-rule:nonzero;"/>
                <path d="M428.946,313.024C425.698,310.273 420.032,305.322 413.827,299.199C413.193,298.573 412.555,297.937 411.911,297.288C401.572,286.858 390.289,273.548 386.354,261.904C386.135,261.257 385.939,260.616 385.768,259.98C385.118,257.576 384.442,254.555 383.757,251.105C382.816,246.364 381.856,240.808 380.918,234.916C379.1,223.497 377.366,210.815 376.01,200.333C374.738,190.502 373.798,182.608 373.436,179.516L379.562,179.516L379.574,179.625C379.586,179.732 379.734,179.82 379.904,179.82L380.757,179.82C380.92,179.82 381.046,179.739 381.045,179.638C381.045,179.634 381.044,179.63 381.044,179.625L381.032,179.516L392.256,179.516L392.268,179.625C392.279,179.732 392.428,179.82 392.598,179.82L393.45,179.82C393.613,179.82 393.739,179.739 393.738,179.638C393.738,179.634 393.738,179.63 393.737,179.625L393.725,179.516L397.022,179.516C404.272,197.507 396.083,235.718 406.227,261.583C410.2,271.714 429.982,296.481 437.203,305.343L428.946,313.024Z" style="fill:rgb(149,178,221);fill-rule:nonzero;"/>
                <path d="M441.131,308.196L431.153,316.673L427.426,314.438L438.714,303.938L441.131,308.196Z" style="fill:rgb(40,107,180);fill-rule:nonzero;"/>
                <path d="M431.153,316.673L427.426,314.438L438.714,303.938L441.131,308.196L439.355,309.705L433.455,314.718L433.453,314.719L431.153,316.673Z" style="fill:rgb(105,152,208);fill-rule:nonzero;"/>
                <path d="M375.899,105.975C376.02,106.587 375.793,107.147 375.393,107.226C374.992,107.305 374.57,106.871 374.45,106.259C374.329,105.646 374.557,105.086 374.957,105.008C375.357,104.929 375.779,105.362 375.899,105.975Z" style="fill:rgb(36,48,59);fill-rule:nonzero;"/>
                <path d="M368.977,107.333C369.097,107.946 368.869,108.506 368.469,108.585C368.068,108.663 367.646,108.23 367.526,107.618C367.406,107.006 367.633,106.445 368.033,106.367C368.434,106.288 368.856,106.721 368.977,107.333Z" style="fill:rgb(36,48,59);fill-rule:nonzero;"/>
                <path d="M368.217,106.366L366.662,106.23C366.662,106.23 367.643,107.231 368.217,106.366Z" style="fill:rgb(36,48,59);fill-rule:nonzero;"/>
                <path d="M371.013,108.027C371.013,108.027 370.491,110.868 369.597,112.365C370.554,112.961 371.86,112.346 371.86,112.346L371.013,108.027Z" style="fill:rgb(240,77,85);fill-rule:nonzero;"/>
                <path d="M374.455,114.338L374.275,114.19C374.256,114.091 374.32,113.995 374.42,113.976C377.108,113.447 377.994,111.323 378.003,111.302C378.04,111.208 378.146,111.163 378.241,111.201C378.335,111.238 378.381,111.345 378.343,111.439C378.305,111.534 377.372,113.769 374.49,114.335L374.455,114.338Z" style="fill:rgb(36,48,59);fill-rule:nonzero;"/>
                <path d="M367.988,96.861C367.988,96.861 374.495,106.726 386.495,108.027C386.495,108.027 398.895,96.782 391.272,88.98C378.939,76.355 364.218,92.394 367.988,96.861Z" style="fill:rgb(36,48,59);fill-rule:nonzero;"/>
                <path d="M389.515,107.515C389.486,109.107 388.727,110.538 387.771,111.431C386.332,112.775 384.709,111.707 384.352,109.877C384.03,108.229 384.391,105.545 386.198,104.896C387.979,104.258 389.547,105.695 389.515,107.515Z" style="fill:rgb(244,127,118);fill-rule:nonzero;"/>
                <path d="M377.478,103.339L377.233,103.246C376.014,102.155 374.705,102.494 374.692,102.497C374.492,102.547 374.295,102.434 374.243,102.239C374.19,102.043 374.306,101.842 374.501,101.789C374.571,101.771 376.21,101.347 377.722,102.699C377.873,102.833 377.886,103.065 377.751,103.216C377.679,103.297 377.578,103.339 377.478,103.339Z" style="fill:rgb(36,48,59);fill-rule:nonzero;"/>
                <path d="M365.136,104.767L364.995,104.739C364.809,104.661 364.72,104.447 364.797,104.26C365.575,102.387 367.235,102.059 367.306,102.045C367.519,102.006 367.696,102.141 367.733,102.339C367.771,102.537 367.64,102.728 367.441,102.766C367.387,102.776 366.096,103.046 365.475,104.541C365.416,104.682 365.279,104.767 365.136,104.767Z" style="fill:rgb(36,48,59);fill-rule:nonzero;"/>
                <path d="M407.57,168.275L407.751,168.249C407.908,168.266 407.772,168.286 407.57,168.275ZM412.949,169.771L412.908,168.879C412.876,167.675 412.737,166.528 412.621,165.365C412.043,160.769 410.996,156.394 409.76,152.1C408.518,147.79 407.099,143.649 405.369,139.444L398.045,142.438C399.531,146.298 400.942,150.372 402.227,154.367C402.85,156.377 403.444,158.397 403.955,160.413C404.504,162.427 404.935,164.44 405.3,166.436C405.37,166.879 405.444,167.324 405.514,167.768C404.824,167.54 404.11,167.286 403.389,166.991C399.609,165.447 395.745,163.447 391.944,161.526L389.727,164.757C393.132,167.668 396.651,170.274 400.648,172.596C401.66,173.165 402.702,173.72 403.875,174.202C404.465,174.445 405.085,174.676 405.8,174.872C406.166,174.967 406.543,175.058 406.995,175.119C407.437,175.18 407.937,175.226 408.597,175.162C409.235,175.091 410.11,174.916 411.045,174.241C411.994,173.578 412.638,172.395 412.809,171.551C413.014,170.719 412.956,169.919 412.949,169.771Z" style="fill:rgb(244,127,118);fill-rule:nonzero;"/>
                <path d="M401.974,131.172C405.122,132.13 408.904,142.973 408.904,142.973L396.688,151.708C396.688,151.708 392.232,142.656 393.556,138.586C394.934,134.347 398.38,130.08 401.974,131.172Z" style="fill:rgb(40,107,180);fill-rule:nonzero;"/>
                <path d="M396.688,151.708C396.688,151.708 393.307,144.839 393.31,140.378C393.311,139.718 393.385,139.11 393.556,138.586C394.785,134.804 397.661,130.999 400.82,130.999C401.201,130.999 401.586,131.055 401.974,131.172C405.122,132.13 408.904,142.973 408.904,142.973L407.202,144.19L400.445,149.022L396.688,151.708Z" style="fill:rgb(48,65,130);fill-rule:nonzero;"/>
                <path d="M439.178,322.166C438.111,322.506 436.727,323.097 436.576,323.595C436.557,323.657 436.549,323.744 436.65,323.862C436.84,324.082 437.036,324.179 437.266,324.15C437.793,324.09 438.494,323.357 439.178,322.166ZM437.191,324.521C436.889,324.521 436.613,324.381 436.373,324.102C436.169,323.866 436.18,323.638 436.226,323.488C436.512,322.542 439.199,321.77 439.505,321.685L439.696,321.747L439.716,321.948C439.235,322.858 438.284,324.402 437.307,324.515L437.191,324.521Z" style="fill:rgb(40,107,180);fill-rule:nonzero;"/>
                <path d="M436.968,320.703L436.851,320.711C436.66,320.735 436.518,320.822 436.412,320.976C436.279,321.171 436.325,321.277 436.379,321.348C436.708,321.776 438.227,321.939 439.157,321.774C438.604,321.345 437.634,320.703 436.968,320.703ZM438.328,322.197C437.436,322.197 436.432,322.018 436.088,321.571C435.984,321.436 435.85,321.152 436.109,320.769C436.274,320.527 436.508,320.385 436.804,320.347C437.902,320.223 439.603,321.662 439.674,321.725L439.733,321.897L439.614,322.035C439.321,322.138 438.843,322.197 438.328,322.197Z" style="fill:rgb(40,107,180);fill-rule:nonzero;"/>
                <path d="M366.239,351.179C366.098,351.179 365.981,351.199 365.897,351.245C365.822,351.286 365.785,351.348 365.776,351.443C365.754,351.69 365.823,351.883 365.987,352.03C366.458,352.453 367.733,352.525 369.446,352.242C368.384,351.732 366.973,351.179 366.239,351.179ZM367.62,352.78C366.851,352.78 366.141,352.661 365.742,352.303C365.49,352.076 365.378,351.775 365.411,351.41C365.431,351.192 365.538,351.023 365.722,350.923C366.672,350.406 369.756,351.979 370.104,352.161L370.201,352.35L370.056,352.503C369.398,352.634 368.473,352.78 367.62,352.78Z" style="fill:rgb(40,107,180);fill-rule:nonzero;"/>
                <path d="M368.176,349.369L368.065,349.375C367.73,349.409 367.709,349.543 367.701,349.587C367.616,350.113 368.854,351.426 369.795,351.996C369.705,351.389 369.447,350.14 368.809,349.608C368.616,349.448 368.408,349.369 368.176,349.369ZM370.02,352.507L369.944,352.49C369.021,352.073 367.197,350.404 367.34,349.527C367.374,349.32 367.521,349.061 368.028,349.01C368.405,348.973 368.745,349.079 369.044,349.326C370.017,350.137 370.195,352.221 370.202,352.309L370.125,352.473L370.02,352.507Z" style="fill:rgb(40,107,180);fill-rule:nonzero;"/>
                <path d="M392.972,162.348L390.374,154.4L386.23,161.091C386.23,161.091 388.67,165.42 391.886,165.352L392.972,162.348Z" style="fill:rgb(244,127,118);fill-rule:nonzero;"/>
                <path d="M384.971,150.776L381.805,156.565L386.23,161.091L390.374,154.4L384.971,150.776Z" style="fill:rgb(244,127,118);fill-rule:nonzero;"/>
                <path d="M375.141,105.007L373.586,104.871C373.586,104.871 374.566,105.872 375.141,105.007Z" style="fill:rgb(36,48,59);fill-rule:nonzero;"/>
                <path d="M396.872,176.261L397.676,179.075C397.786,179.293 397.527,179.516 397.164,179.516L364.815,179.516C364.532,179.516 364.297,179.376 364.279,179.198L363.996,176.385C363.977,176.19 364.222,176.025 364.532,176.025L396.36,176.025C396.595,176.025 396.802,176.12 396.872,176.261Z" style="fill:rgb(36,48,59);fill-rule:nonzero;"/>
                <path d="M392.598,179.82L393.45,179.82C393.62,179.82 393.749,179.732 393.737,179.625L393.338,175.97C393.326,175.863 393.178,175.776 393.008,175.776L392.155,175.776C391.985,175.776 391.856,175.863 391.868,175.97L392.268,179.625C392.279,179.732 392.428,179.82 392.598,179.82Z" style="fill:rgb(40,107,180);fill-rule:nonzero;"/>
                <path d="M393.45,179.82L392.598,179.82C392.428,179.82 392.279,179.732 392.268,179.625L391.868,175.97C391.868,175.966 391.867,175.962 391.867,175.958C391.867,175.857 391.992,175.776 392.155,175.776L393.008,175.776C393.178,175.776 393.326,175.863 393.338,175.97L393.737,179.625C393.738,179.63 393.738,179.634 393.738,179.638C393.739,179.739 393.613,179.82 393.45,179.82Z" style="fill:rgb(149,178,221);fill-rule:nonzero;"/>
                <path d="M367.211,179.82L368.063,179.82C368.233,179.82 368.362,179.732 368.351,179.625L367.951,175.97C367.939,175.863 367.791,175.776 367.621,175.776L366.769,175.776C366.599,175.776 366.47,175.863 366.481,175.97L366.881,179.625C366.893,179.732 367.041,179.82 367.211,179.82Z" style="fill:rgb(40,107,180);fill-rule:nonzero;"/>
                <path d="M368.063,179.82L367.211,179.82C367.041,179.82 366.893,179.732 366.881,179.625L366.481,175.97L366.481,175.958C366.48,175.857 366.605,175.776 366.769,175.776L367.621,175.776C367.791,175.776 367.939,175.863 367.951,175.97L368.351,179.625L368.351,179.638C368.352,179.739 368.227,179.82 368.063,179.82Z" style="fill:rgb(149,178,221);fill-rule:nonzero;"/>
                <path d="M379.904,179.82L380.757,179.82C380.927,179.82 381.056,179.732 381.044,179.625L380.645,175.97C380.633,175.863 380.484,175.776 380.314,175.776L379.462,175.776C379.292,175.776 379.163,175.863 379.175,175.97L379.574,179.625C379.586,179.732 379.734,179.82 379.904,179.82Z" style="fill:rgb(40,107,180);fill-rule:nonzero;"/>
                <path d="M380.757,179.82L379.904,179.82C379.734,179.82 379.586,179.732 379.574,179.625L379.175,175.97C379.174,175.966 379.174,175.962 379.174,175.958C379.173,175.857 379.299,175.776 379.462,175.776L380.314,175.776C380.484,175.776 380.633,175.863 380.645,175.97L381.044,179.625C381.044,179.63 381.045,179.634 381.045,179.638C381.046,179.739 380.92,179.82 380.757,179.82Z" style="fill:rgb(149,178,221);fill-rule:nonzero;"/>
                <path d="M279.602,361.677L345.749,361.677C352.349,361.677 357.371,356.276 356.91,349.677L341.089,123.425C340.627,116.825 334.85,111.425 328.25,111.425L262.101,111.425C255.503,111.425 250.48,116.825 250.942,123.425L266.763,349.677C267.225,356.276 273.002,361.677 279.602,361.677Z" style="fill:rgb(40,107,180);fill-rule:nonzero;"/>
                <path d="M345.749,361.677L337.082,361.677C343.399,361.677 348.271,356.73 348.273,350.52C348.273,350.242 348.263,349.96 348.243,349.677L332.422,123.425C331.961,116.825 326.183,111.425 319.583,111.425L262.101,111.425L328.25,111.425C334.85,111.425 340.627,116.825 341.089,123.425L356.91,349.677C356.93,349.96 356.94,350.242 356.94,350.52C356.937,356.73 352.065,361.677 345.749,361.677Z" style="fill:rgb(34,95,172);fill-rule:nonzero;"/>
                <path d="M244.753,209.035L243.651,193.271L244.649,193.202L245.75,208.965L244.753,209.035Z" style="fill:rgb(40,107,180);fill-rule:nonzero;"/>
                <path d="M244.753,209.035L243.651,193.271L244.649,193.202L245.75,208.965L244.753,209.035Z" style="fill:rgb(48,65,130);fill-rule:nonzero;"/>
                <path d="M270.936,361.677L337.082,361.677C343.683,361.677 348.705,356.276 348.243,349.677L332.422,123.425C331.961,116.825 326.183,111.425 319.583,111.425L253.436,111.425C246.836,111.425 241.813,116.825 242.275,123.425L258.096,349.677C258.558,356.276 264.335,361.677 270.936,361.677Z" style="fill:rgb(40,107,180);fill-rule:nonzero;"/>
                <g transform="matrix(1,0,0,1,6.367,0.0492545)">
                    <path d="M337.082,361.677L270.936,361.677C264.335,361.677 258.558,356.276 258.096,349.677L242.721,129.793L242.471,126.219L242.275,123.425C242.255,123.141 242.246,122.86 242.246,122.581C242.248,116.371 247.12,111.425 253.436,111.425L319.583,111.425C326.183,111.425 331.961,116.825 332.422,123.425L348.243,349.677C348.263,349.96 348.273,350.242 348.273,350.52C348.271,356.73 343.399,361.677 337.082,361.677ZM277.903,139.224C277.903,139.275 277.904,139.327 277.908,139.38L280.838,181.277C280.923,182.499 281.993,183.499 283.215,183.499L295.465,183.499C296.634,183.499 297.536,182.583 297.537,181.433C297.537,181.382 297.535,181.33 297.531,181.277L294.602,139.38C294.516,138.158 293.446,137.158 292.224,137.158L279.975,137.158C278.805,137.158 277.903,138.074 277.903,139.224Z" style="fill:rgb(76,163,255);fill-rule:nonzero;"/>
                </g>
                <path d="M283.215,183.499L295.465,183.499C296.687,183.499 297.616,182.499 297.531,181.277L294.602,139.38C294.516,138.158 293.446,137.158 292.224,137.158L279.975,137.158C278.753,137.158 277.822,138.158 277.908,139.38L280.838,181.277C280.923,182.499 281.993,183.499 283.215,183.499Z" style="fill:rgb(40,107,180);fill-rule:nonzero;"/>
                <path d="M295.465,183.499L283.215,183.499C281.993,183.499 280.923,182.499 280.838,181.277L277.908,139.38C277.904,139.327 277.903,139.275 277.903,139.224C277.903,138.074 278.805,137.158 279.975,137.158L292.224,137.158C293.446,137.158 294.516,138.158 294.602,139.38L297.531,181.277C297.535,181.33 297.537,181.382 297.537,181.433C297.536,182.583 296.634,183.499 295.465,183.499Z" style="fill:rgb(34,95,172);fill-rule:nonzero;"/>
                <path d="M208.251,361.677L142.104,361.677C135.504,361.677 130.481,356.276 130.942,349.677L146.764,123.425C147.226,116.825 153.003,111.425 159.603,111.425L225.75,111.425C232.351,111.425 237.373,116.825 236.911,123.425L221.09,349.677C220.629,356.276 214.851,361.677 208.251,361.677Z" style="fill:rgb(40,107,180);fill-rule:nonzero;"/>
                <path d="M208.251,361.677L199.584,361.677C206.185,361.677 211.962,356.276 212.423,349.677L228.245,123.425C228.264,123.141 228.274,122.86 228.274,122.581C228.272,116.371 223.4,111.425 217.083,111.425L159.603,111.425L225.75,111.425C232.067,111.425 236.938,116.371 236.94,122.581C236.941,122.86 236.931,123.141 236.911,123.425L229.05,235.849L227.494,258.103L223.028,321.962L222.609,327.962L222.6,328.087L222.185,334.021L222.168,334.271L221.09,349.677C220.629,356.276 214.851,361.677 208.251,361.677Z" style="fill:rgb(48,65,130);fill-rule:nonzero;"/>
                <rect x="176.7" y="107.925" width="3.728" height="1" style="fill:rgb(40,107,180);fill-rule:nonzero;"/>
                <rect x="176.7" y="107.925" width="3.728" height="1" style="fill:rgb(32,87,167);fill-rule:nonzero;"/>
                <rect x="158.281" y="107.925" width="11.731" height="1" style="fill:rgb(40,107,180);fill-rule:nonzero;"/>
                <rect x="158.281" y="107.925" width="11.731" height="1" style="fill:rgb(32,87,167);fill-rule:nonzero;"/>
                <path d="M199.584,361.677L133.437,361.677C126.837,361.677 121.815,356.276 122.276,349.677L138.098,123.425C138.559,116.825 144.337,111.425 150.936,111.425L217.083,111.425C223.684,111.425 228.706,116.825 228.245,123.425L212.423,349.677C211.962,356.276 206.185,361.677 199.584,361.677Z" style="fill:rgb(40,107,180);fill-rule:nonzero;"/>
                <path d="M199.584,361.677L133.437,361.677C127.121,361.677 122.249,356.73 122.247,350.52C122.247,350.242 122.257,349.96 122.276,349.677L122.347,348.659C122.37,348.66 122.392,348.661 122.415,348.661L143.893,348.661L143.805,349.36L143.811,349.361L143.088,355.082L150.434,355.082L151.246,348.661L154.283,348.661L155.41,348.852L155.435,348.661L209.501,348.661C210.303,348.661 210.968,348.04 211.024,347.24L226.435,126.85C226.438,126.812 226.439,126.774 226.439,126.736C226.437,125.903 225.759,125.216 224.913,125.216L137.972,125.216L138.098,123.425C138.559,116.825 144.337,111.425 150.936,111.425L217.083,111.425C223.4,111.425 228.272,116.371 228.274,122.581C228.274,122.86 228.264,123.141 228.245,123.425L212.423,349.677C211.962,356.276 206.185,361.677 199.584,361.677ZM190.268,117.905C190.268,118.886 191.031,119.661 192.03,119.661C193.073,119.661 193.978,118.815 194.051,117.772C194.054,117.727 194.055,117.683 194.055,117.639C194.055,116.657 193.292,115.883 192.293,115.883C191.251,115.883 190.346,116.728 190.273,117.772C190.27,117.817 190.268,117.861 190.268,117.905ZM169.355,117.905C169.355,118.882 170.122,119.661 171.116,119.661L184.308,119.661C185.346,119.661 186.256,118.81 186.328,117.772C186.331,117.727 186.333,117.683 186.333,117.639C186.332,116.661 185.566,115.883 184.571,115.883L171.38,115.883C170.341,115.883 169.432,116.733 169.359,117.772C169.356,117.817 169.355,117.861 169.355,117.905Z" style="fill:rgb(32,87,167);fill-rule:nonzero;"/>
                <path d="M209.501,348.661L122.415,348.661C121.53,348.661 120.83,347.91 120.892,347.027L136.303,126.637C136.359,125.836 137.024,125.216 137.826,125.216L224.913,125.216C225.797,125.216 226.497,125.966 226.435,126.85L211.024,347.24C210.968,348.04 210.303,348.661 209.501,348.661Z" style="fill:rgb(40,107,180);fill-rule:nonzero;"/>
                <path d="M209.501,348.661L155.435,348.661L156.048,343.97L154.35,343.748C155.411,338.135 158.37,322.971 162.132,307.821L182.404,307.821C186.69,313.771 193.361,313.99 193.361,313.99L192.264,307.821L196.19,307.821C199.315,307.821 202.05,305.265 202.269,302.141L204.798,265.967C204.808,265.832 204.812,265.699 204.812,265.567C204.811,262.627 202.505,260.286 199.514,260.286L163.034,260.286C160.862,254.518 158.902,249.099 157.175,244.189C157.437,243.92 157.697,243.637 157.952,243.341L200.699,243.341C203.824,243.341 206.559,240.784 206.778,237.66L212.666,153.463C212.675,153.329 212.68,153.195 212.679,153.063C212.678,150.123 210.372,147.782 207.381,147.782L150.848,147.782C147.723,147.782 144.988,150.338 144.769,153.463L144.733,153.985C142.884,153.594 140.466,153.15 137.923,152.868C137.632,151.983 136.942,151.063 135.439,150.486C135.206,150.396 134.943,150.312 134.653,150.234L136.303,126.637C136.359,125.836 137.024,125.216 137.826,125.216L224.913,125.216C225.759,125.216 226.437,125.903 226.439,126.736C226.439,126.774 226.438,126.812 226.435,126.85L211.024,347.24C210.968,348.04 210.303,348.661 209.501,348.661ZM154.283,348.661L151.246,348.661L151.31,348.156L154.283,348.661ZM143.893,348.661L122.415,348.661C121.568,348.661 120.891,347.973 120.888,347.14C120.888,347.103 120.889,347.065 120.892,347.027L123.264,313.113C127.045,308.135 130.761,303.103 134.041,298.426C134.27,298.1 134.49,297.77 134.702,297.435L134.373,302.141C134.364,302.275 134.359,302.408 134.359,302.54C134.36,305.48 136.666,307.821 139.657,307.821L143.12,307.821C141.819,321.011 141.664,335.508 141.664,341.661C141.664,341.808 141.665,341.951 141.665,342.088L140.519,341.938L140.954,346.396L144.112,346.933L143.893,348.661ZM136.855,266.647C136.755,266.086 136.658,265.523 136.562,264.962C136.688,265.157 136.818,265.355 136.946,265.552C136.927,265.689 136.912,265.827 136.902,265.967L136.855,266.647Z" style="fill:rgb(215,225,242);fill-rule:nonzero;"/>
                <path d="M207.381,147.782L150.848,147.782C147.723,147.782 144.988,150.338 144.769,153.463L138.882,237.66C138.663,240.784 141.041,243.341 144.166,243.341L148.092,243.341L146.132,249.51C146.132,249.51 152.834,249.291 157.952,243.341L200.699,243.341C203.824,243.341 206.559,240.784 206.778,237.66L212.666,153.463C212.884,150.338 210.506,147.782 207.381,147.782Z" style="fill:rgb(40,107,180);fill-rule:nonzero;"/>
                <path d="M157.175,244.189C151.726,228.691 148.619,218.3 148.619,218.3L140.236,218.3L148.619,218.3C149.425,212.327 150.051,206.902 150.525,201.976C150.789,201.969 151.055,201.961 151.32,201.952C152.456,202.591 153.697,202.785 154.786,202.785C156.468,202.785 157.787,202.322 157.787,202.322L155.439,193.237L151.475,196.037C151.334,196.005 151.192,195.973 151.05,195.941C151.294,192.806 151.47,189.908 151.589,187.22C151.59,187.213 151.59,187.206 151.59,187.199L151.59,187.198C151.648,185.899 151.693,184.65 151.725,183.45C152.905,185.454 154.105,187.45 155.332,189.438L157.212,192.416C157.688,193.205 158.83,194.953 159.961,196.016C162.288,198.265 164.813,199.621 167.297,200.606C168.096,200.925 168.894,201.203 169.691,201.449L171.1,211.515L173.685,211.277L173.685,211.276C174.257,211.299 176.391,211.306 178.799,211.306C180.573,211.306 182.495,211.302 184.051,211.298C186.061,211.293 188.006,210.254 189.551,208.361C191.302,206.216 192.404,203.139 192.617,199.802L193.281,189.364C193.293,189.182 193.299,189.002 193.299,188.823C193.299,185.952 191.841,183.481 189.865,183.129L188.648,182.912C188.178,182.828 187.706,182.786 187.234,182.786C186.439,182.786 185.645,182.904 184.864,183.14L181.371,184.198C182.229,182.435 183.474,179.174 183.473,175.072C183.472,174.198 183.416,173.285 183.286,172.34C182.998,170.238 181.822,169.91 181.114,169.91C180.791,169.91 180.566,169.978 180.566,169.978C180.566,169.978 177.202,182.694 170.205,187.579L167.963,189.104L168.156,190.482C167.769,190.114 167.434,189.742 167.165,189.369C166.697,188.752 166.628,188.508 165.965,187.288L164.369,184.263L161.353,178.496L163.524,177.402C163.524,177.402 160.022,167.776 154.897,160.272C152.576,156.875 149.654,154.946 146.884,154.472C146.317,154.335 145.586,154.166 144.733,153.985L144.769,153.463C144.988,150.338 147.723,147.782 150.848,147.782L207.381,147.782C210.372,147.782 212.678,150.123 212.679,153.063C212.68,153.195 212.675,153.329 212.666,153.463L206.778,237.66C206.559,240.784 203.824,243.341 200.699,243.341L157.952,243.341C157.697,243.637 157.437,243.92 157.175,244.189Z" style="fill:rgb(149,178,221);fill-rule:nonzero;"/>
                <path d="M142.981,260.286L199.514,260.286C202.639,260.286 205.017,262.842 204.798,265.967L202.269,302.141C202.05,305.265 199.315,307.821 196.19,307.821L192.264,307.821L193.361,313.99C193.361,313.99 186.69,313.771 182.404,307.821L139.657,307.821C136.532,307.821 134.154,305.265 134.373,302.141L136.902,265.967C137.121,262.842 139.856,260.286 142.981,260.286Z" style="fill:rgb(40,107,180);fill-rule:nonzero;"/>
                <path d="M193.361,313.99C193.361,313.99 186.69,313.771 182.404,307.821L162.132,307.821C163.714,301.45 165.438,295.082 167.223,289.426C168.022,286.894 168.388,284.242 168.387,281.499C168.385,276.35 167.09,270.878 164.932,265.271C164.283,263.585 163.649,261.92 163.034,260.286L199.514,260.286C202.505,260.286 204.811,262.627 204.812,265.567C204.812,265.699 204.808,265.832 204.798,265.967L202.269,302.141C202.05,305.265 199.315,307.821 196.19,307.821L192.264,307.821L193.361,313.99ZM143.12,307.821L139.657,307.821C136.666,307.821 134.36,305.48 134.359,302.54C134.359,302.408 134.364,302.275 134.373,302.141L134.702,297.435C137.703,292.706 139.073,287.165 139.072,281.562C139.072,279.123 138.812,276.672 138.314,274.271C137.792,271.753 137.306,269.201 136.855,266.647L136.902,265.967C136.912,265.827 136.927,265.689 136.946,265.552C139.22,269.023 141.802,272.704 144.735,276.605C146.069,278.38 146.884,280.26 146.884,283.35C146.885,285.543 146.475,288.344 145.55,292.149C144.469,296.596 143.686,302.086 143.12,307.821Z" style="fill:rgb(149,178,221);fill-rule:nonzero;"/>
                <path d="M194.051,117.772C193.978,118.815 193.073,119.661 192.03,119.661C190.986,119.661 190.2,118.815 190.273,117.772C190.346,116.728 191.251,115.883 192.293,115.883C193.337,115.883 194.124,116.728 194.051,117.772Z" style="fill:rgb(40,107,180);fill-rule:nonzero;"/>
                <path d="M192.03,119.661C191.031,119.661 190.268,118.886 190.268,117.905C190.268,117.861 190.27,117.817 190.273,117.772C190.346,116.728 191.251,115.883 192.293,115.883C193.292,115.883 194.055,116.657 194.055,117.639C194.055,117.683 194.054,117.727 194.051,117.772C193.978,118.815 193.073,119.661 192.03,119.661Z" style="fill:rgb(48,65,130);fill-rule:nonzero;"/>
                <path d="M184.308,119.661L171.116,119.661C170.077,119.661 169.287,118.81 169.359,117.772C169.432,116.733 170.341,115.883 171.38,115.883L184.571,115.883C185.61,115.883 186.401,116.733 186.328,117.772C186.256,118.81 185.346,119.661 184.308,119.661Z" style="fill:rgb(40,107,180);fill-rule:nonzero;"/>
                <path d="M184.308,119.661L171.116,119.661C170.122,119.661 169.355,118.882 169.355,117.905C169.355,117.861 169.356,117.817 169.359,117.772C169.432,116.733 170.341,115.883 171.38,115.883L184.571,115.883C185.566,115.883 186.332,116.661 186.333,117.639C186.333,117.683 186.331,117.727 186.328,117.772C186.256,118.81 185.346,119.661 184.308,119.661Z" style="fill:rgb(48,65,130);fill-rule:nonzero;"/>
                <path d="M113.886,163.113L115.463,166.183C116.009,167.229 116.573,168.272 117.154,169.302C118.313,171.365 119.486,173.419 120.734,175.405C123.19,179.402 125.888,183.198 128.832,186.464C129.58,187.216 130.392,188.116 130.906,188.528C131.543,189.051 132.342,189.593 133.23,190.089C135.023,191.073 137.118,191.934 139.288,192.687C143.637,194.18 148.397,195.376 153.037,196.382L152.72,201.89C147.484,202.17 142.404,201.919 137.148,200.979C134.529,200.482 131.883,199.837 129.183,198.726C127.832,198.166 126.454,197.504 125.082,196.578C124.421,196.148 123.628,195.519 123.176,195.106L121.6,193.72C117.592,189.923 114.323,185.741 111.425,181.413C109.977,179.243 108.609,177.041 107.357,174.778C106.725,173.649 106.113,172.512 105.516,171.361C104.902,170.195 104.366,169.086 103.777,167.784L113.886,163.113Z" style="fill:rgb(244,127,118);fill-rule:nonzero;"/>
                <path d="M150.987,196.382L155.439,193.237L157.787,202.322C157.787,202.322 153.866,203.698 150.919,201.704L150.987,196.382Z" style="fill:rgb(244,127,118);fill-rule:nonzero;"/>
                <path d="M161.585,191.175L163.173,198.775L157.787,202.322L155.439,193.237L161.585,191.175Z" style="fill:rgb(244,127,118);fill-rule:nonzero;"/>
                <path d="M189.865,183.129L188.648,182.912C187.387,182.686 186.109,182.764 184.864,183.14L181.371,184.198C182.413,182.06 184.022,177.715 183.286,172.34C182.867,169.281 180.566,169.978 180.566,169.978C180.566,169.978 177.202,182.694 170.205,187.579L167.963,189.104L171.1,211.515L173.685,211.277L173.685,211.276C174.678,211.315 180.384,211.308 184.051,211.298C186.061,211.293 188.006,210.254 189.551,208.361C191.302,206.216 192.404,203.139 192.617,199.802L193.281,189.364C193.479,186.267 191.964,183.503 189.865,183.129Z" style="fill:rgb(40,107,180);fill-rule:nonzero;"/>
                <path d="M171.1,211.515L169.691,201.449C171.376,201.967 173.059,202.336 174.734,202.611C175.966,202.82 177.201,202.955 178.436,203.042C179.432,203.117 180.383,203.166 181.406,203.166C181.665,203.166 181.929,203.163 182.199,203.156L182.819,197.676C178.737,196.376 174.477,194.744 171.121,192.702C169.997,192.003 168.964,191.251 168.156,190.482L167.963,189.104L170.205,187.579C177.202,182.694 180.566,169.978 180.566,169.978C180.566,169.978 180.791,169.91 181.114,169.91C181.822,169.91 182.998,170.238 183.286,172.34C183.416,173.285 183.472,174.198 183.473,175.072C183.474,179.174 182.229,182.435 181.371,184.198L184.864,183.14C185.645,182.904 186.439,182.786 187.234,182.786C187.706,182.786 188.178,182.828 188.648,182.912L189.865,183.129C191.841,183.481 193.299,185.952 193.299,188.823C193.299,189.002 193.293,189.182 193.281,189.364L192.617,199.802C192.404,203.139 191.302,206.216 189.551,208.361C188.006,210.254 186.061,211.293 184.051,211.298C182.495,211.302 180.573,211.306 178.799,211.306C176.391,211.306 174.257,211.299 173.685,211.276L173.685,211.277L171.1,211.515Z" style="fill:rgb(215,225,242);fill-rule:nonzero;"/>
                <path d="M161.416,216.716L171.283,214.572C172.05,214.405 172.585,213.346 172.472,212.218L169.896,186.549C169.782,185.421 169.062,184.634 168.294,184.8L158.427,186.943C157.66,187.11 157.125,188.17 157.238,189.298L159.814,214.967C159.928,216.095 160.648,216.882 161.416,216.716Z" style="fill:rgb(40,107,180);fill-rule:nonzero;"/>
                <path d="M142.423,132.098C142.302,132.678 142.511,133.212 142.891,133.291C143.27,133.371 143.675,132.964 143.796,132.384C143.917,131.804 143.708,131.27 143.328,131.191C142.949,131.112 142.543,131.518 142.423,132.098Z" style="fill:rgb(36,48,59);fill-rule:nonzero;"/>
                <path d="M142.458,133.201C142.458,133.201 143.08,136.823 144.195,138.74C142.969,139.484 141.315,138.683 141.315,138.683L142.458,133.201Z" style="fill:rgb(240,77,85);fill-rule:nonzero;"/>
                <path d="M143.951,128.548L143.764,128.493C143.713,128.46 142.649,127.809 141.25,128.433C141.074,128.51 140.868,128.432 140.79,128.256C140.712,128.08 140.791,127.875 140.966,127.797C142.727,127.015 144.084,127.872 144.141,127.908C144.302,128.013 144.348,128.228 144.244,128.389C144.177,128.492 144.065,128.548 143.951,128.548Z" style="fill:rgb(36,48,59);fill-rule:nonzero;"/>
                <path d="M121.835,133.955C122.889,139.329 123.941,149.176 120.181,152.763C120.181,152.763 121.65,158.214 131.636,158.214C142.617,158.214 136.884,152.763 136.884,152.763C130.891,151.332 131.045,146.885 132.089,142.709L121.835,133.955Z" style="fill:rgb(244,127,118);fill-rule:nonzero;"/>
                <path d="M118.662,154.297C117.937,152.543 118.062,149.288 118.593,149.251C120.674,149.107 131.766,149.074 135.439,150.486C139.113,151.897 137.931,155.357 137.931,155.357L118.662,154.297Z" style="fill:rgb(40,107,180);fill-rule:nonzero;"/>
                <path d="M92.704,354.996C93.8,355.182 95.3,355.175 95.615,354.763C95.646,354.723 95.738,354.601 95.581,354.315C95.514,354.193 95.409,354.116 95.26,354.081C94.624,353.929 93.409,354.561 92.704,354.996ZM94.128,355.459C93.37,355.459 92.587,355.342 92.21,355.251L92.081,355.114L92.153,354.938C92.238,354.88 94.266,353.499 95.34,353.742C95.586,353.801 95.77,353.937 95.886,354.147C96.106,354.549 96.011,354.818 95.892,354.974C95.609,355.344 94.88,355.459 94.128,355.459Z" style="fill:rgb(40,107,180);fill-rule:nonzero;"/>
                <path d="M93.734,352.278C93.591,352.278 93.46,352.328 93.335,352.431C92.823,352.849 92.564,354.023 92.465,354.733C93.221,354.161 94.159,352.944 94.067,352.459C94.059,352.415 94.039,352.31 93.813,352.283L93.734,352.278ZM92.252,355.256L92.157,355.227L92.078,355.068C92.085,354.978 92.261,352.858 93.114,352.161C93.336,351.98 93.587,351.907 93.855,351.937C94.272,351.989 94.381,352.246 94.409,352.394C94.564,353.214 93.094,354.823 92.335,355.235L92.252,355.256Z" style="fill:rgb(40,107,180);fill-rule:nonzero;"/>
                <path d="M83.774,355.082L91.12,355.082L97.893,338.07L90.547,338.07L83.774,355.082Z" style="fill:rgb(244,127,118);fill-rule:nonzero;"/>
                <path d="M91.703,354.231L83.45,354.231C83.149,354.231 82.89,354.44 82.824,354.733L81.374,361.264C81.223,361.94 81.755,362.582 82.449,362.57C85.33,362.52 86.73,362.351 90.359,362.351C92.592,362.351 97.193,362.583 100.277,362.583C103.293,362.583 103.763,359.534 102.501,359.258C96.84,358.02 94.708,356.312 92.896,354.684C92.569,354.39 92.143,354.231 91.703,354.231Z" style="fill:rgb(36,48,59);fill-rule:nonzero;"/>
                <path d="M151.513,159.906C153.696,163.923 155.857,168.005 157.993,172.069L164.369,184.263L165.965,187.288C166.628,188.508 166.697,188.752 167.165,189.369C167.996,190.52 169.459,191.668 171.121,192.702C174.477,194.744 178.737,196.376 182.819,197.676L182.199,203.156C180.861,203.189 179.685,203.136 178.436,203.042C177.201,202.955 175.966,202.82 174.734,202.611C172.267,202.206 169.783,201.598 167.297,200.606C164.813,199.621 162.288,198.265 159.961,196.016C158.83,194.953 157.688,193.205 157.212,192.416L155.332,189.438C152.871,185.449 150.515,181.43 148.222,177.376C145.946,173.31 143.747,169.232 141.639,165.055L151.513,159.906Z" style="fill:rgb(244,127,118);fill-rule:nonzero;"/>
                <path d="M101.537,158.851C98.559,165.257 108.131,185.498 108.131,185.498L124.508,177.902C124.508,177.902 121.935,169.269 117.848,161.163C113.567,152.669 104.581,152.301 101.537,158.851Z" style="fill:rgb(40,107,180);fill-rule:nonzero;"/>
                <path d="M108.131,185.498L110.216,184.53L110.216,184.531L108.131,185.498ZM107.937,185.082C106.794,182.591 100.965,169.537 100.962,162.111C100.962,160.829 101.135,159.714 101.537,158.851C102.699,156.35 104.728,154.857 107.031,154.441C107.927,158.823 108.594,163.224 109.084,167.564L106.63,182.108C107.217,183.49 107.689,184.538 107.937,185.082Z" style="fill:rgb(192,210,236);fill-rule:nonzero;"/>
                <path d="M110.334,160.161L106.63,182.108C107.51,184.179 108.13,185.498 108.13,185.498L124.51,177.898C124.51,177.898 117.111,165.105 110.334,160.161Z" style="fill:rgb(40,107,180);fill-rule:nonzero;"/>
                <path d="M108.13,185.498C108.13,185.498 107.51,184.179 106.63,182.108L109.084,167.564C109.744,173.41 110.081,179.141 110.216,184.53L108.131,185.498L108.13,185.498Z" style="fill:rgb(168,193,229);fill-rule:nonzero;"/>
                <path d="M148.184,154.802C148.184,154.802 156.003,163.634 148.619,218.3L109.325,218.3C109.055,212.267 112.845,182.844 107.027,154.423C107.027,154.423 113.762,153.072 120.181,152.763C125.201,152.52 132.47,152.36 136.884,152.763C142.703,153.294 148.184,154.802 148.184,154.802Z" style="fill:rgb(40,107,180);fill-rule:nonzero;"/>
                <path d="M148.619,218.3L109.325,218.3C109.316,218.085 109.311,217.84 109.311,217.567C109.312,213.556 110.29,203.387 110.29,190.547C110.291,188.598 110.268,186.589 110.216,184.53C110.081,179.141 109.744,173.41 109.084,167.564C108.594,163.219 107.925,158.81 107.027,154.423C107.027,154.423 113.762,153.072 120.181,152.763C122.989,152.627 126.5,152.517 129.822,152.517C132.439,152.517 134.939,152.586 136.884,152.763C140.986,153.137 144.92,153.997 146.884,154.472C146.433,154.395 145.985,154.356 145.545,154.356C142.563,154.356 139.917,156.128 138.622,159.652C138.352,160.386 138.233,161.286 138.234,162.307C138.242,170.455 145.917,186.272 145.917,186.272L147.201,185.625L151.35,191.659C151.447,190.117 151.526,188.639 151.589,187.22C151.465,190.027 151.278,193.066 151.018,196.36C151.006,196.512 150.994,196.662 150.981,196.816C150.48,203.042 149.717,210.165 148.619,218.3ZM151.59,187.199L151.59,187.198L151.59,187.199Z" style="fill:rgb(192,210,236);fill-rule:nonzero;"/>
                <path d="M151.35,167.809L145.278,182.827L151.35,191.659C152.02,180.988 151.85,173.309 151.35,167.809Z" style="fill:rgb(40,107,180);fill-rule:nonzero;"/>
                <path d="M151.35,191.659L147.201,185.625L151.727,183.345C151.727,183.38 151.726,183.414 151.725,183.45C151.657,185.967 151.536,188.698 151.35,191.659Z" style="fill:rgb(168,193,229);fill-rule:nonzero;"/>
                <path d="M138.622,159.652C136.199,166.244 145.917,186.272 145.917,186.272L163.524,177.402C163.524,177.402 160.022,167.776 154.897,160.272C149.635,152.568 141.281,152.417 138.622,159.652Z" style="fill:rgb(40,107,180);fill-rule:nonzero;"/>
                <path d="M145.917,186.272C145.917,186.272 138.242,170.455 138.234,162.307C138.233,161.286 138.352,160.386 138.622,159.652C139.917,156.128 142.563,154.356 145.545,154.356C148.685,154.356 152.198,156.321 154.897,160.272C160.022,167.776 163.524,177.402 163.524,177.402L151.727,183.345L147.201,185.625L145.917,186.272Z" style="fill:rgb(192,210,236);fill-rule:nonzero;"/>
                <path d="M181.414,197.928L188.61,195.051L190.6,203.727C190.6,203.727 184.881,205.798 180.721,202.79L181.414,197.928Z" style="fill:rgb(244,127,118);fill-rule:nonzero;"/>
                <path d="M196.549,195.135L195.437,202.899L190.6,203.727L188.61,195.051L196.549,195.135Z" style="fill:rgb(244,127,118);fill-rule:nonzero;"/>
                <path d="M90.543,338.074L97.893,338.074L93.02,350.302L86.223,348.914L90.543,338.074Z" style="fill:rgb(225,100,97);fill-rule:nonzero;"/>
                <path d="M123.332,126.835C122.284,134.051 121.304,138.22 124.14,142.627C128.406,149.255 137.879,147.826 141.062,141.069C143.926,134.987 145.158,124.209 138.775,119.921C132.488,115.695 124.379,119.62 123.332,126.835Z" style="fill:rgb(244,127,118);fill-rule:nonzero;"/>
                <path d="M151.047,114.714C144.833,108.972 149.753,107.512 149.753,107.512C149.753,107.512 142.927,104.692 145.629,110.726C149.403,119.153 138.839,116.555 133.781,110.722C130.656,107.119 122.446,110.811 122.85,114.322C123.264,117.928 110.346,115.105 116.187,122.772C116.298,130.772 119.409,138.55 123.543,140.659C130.623,144.269 135.929,134.172 137.907,126.082C148.585,131.218 157.494,120.67 151.047,114.714Z" style="fill:rgb(36,48,59);fill-rule:nonzero;"/>
                <path d="M132.514,130.911C132.527,132.82 133.317,134.658 134.319,135.885C135.827,137.73 137.553,136.721 137.949,134.59C138.305,132.671 137.95,129.399 136.046,128.326C134.169,127.267 132.498,128.727 132.514,130.911Z" style="fill:rgb(244,127,118);fill-rule:nonzero;"/>
                <path d="M116.262,115.293C119.284,114.98 122.992,116.438 125.138,118.182C125.138,118.182 123.325,110.397 116.262,115.293Z" style="fill:rgb(36,48,59);fill-rule:nonzero;"/>
                <path d="M131.409,218.3C131.409,218.3 132.876,248.06 138.314,274.271C140.037,282.576 138.91,291.481 134.041,298.426C119.727,318.843 97.075,346.02 97.075,346.02L85.19,344.689C85.19,344.689 104.439,309.001 114.298,291.271C116.542,287.234 118.52,283.605 116.826,279.304C100.502,237.856 109.325,218.3 109.325,218.3L131.409,218.3Z" style="fill:rgb(40,107,180);fill-rule:nonzero;"/>
                <path d="M98.825,343.905L86.987,341.36C91.995,332.091 106.264,305.719 114.298,291.271C115.951,288.299 117.459,285.547 117.462,282.586C117.464,281.525 117.272,280.438 116.826,279.304C110.346,262.85 107.828,249.845 107.149,240.145C107.006,238.105 106.944,236.212 106.944,234.463C106.944,223.578 109.325,218.3 109.325,218.3L131.409,218.3L121.909,218.3C121.909,218.3 120.888,220.348 120.887,224.78C120.886,227.484 121.265,231.077 122.487,235.633C123.563,244.978 127.925,262.006 138.114,273.309C137.554,270.549 137.038,267.754 136.562,264.962C137.094,268.077 137.677,271.2 138.314,274.271C138.812,276.672 139.072,279.123 139.072,281.562C139.073,287.165 137.703,292.706 134.702,297.435C134.49,297.77 134.27,298.1 134.041,298.426C130.761,303.103 127.045,308.135 123.264,313.113C120.756,316.415 118.22,319.692 115.764,322.828C114.418,324.547 113.095,326.223 111.815,327.837C111.748,327.921 111.683,328.003 111.616,328.087C107.938,332.72 104.615,336.828 102.077,339.938C102.008,340.023 101.941,340.105 101.873,340.188C100.649,341.689 99.615,342.947 98.825,343.905Z" style="fill:rgb(0,100,205);fill-rule:nonzero;"/>
                <path d="M133.624,244.018L122.244,230.438C121.813,236.528 125.494,259.309 138.114,273.309C136.103,263.398 134.654,253.028 133.624,244.018Z" style="fill:rgb(40,107,180);fill-rule:nonzero;"/>
                <path d="M138.114,273.309C127.925,262.006 123.563,244.978 122.487,235.633C124.429,242.873 128.498,252.545 136.562,264.962C137.038,267.754 137.554,270.549 138.114,273.309Z" style="fill:rgb(37,76,152);fill-rule:nonzero;"/>
                <path d="M100.385,344.24L98.055,349.057L83.732,345.382L84.865,340.904L100.385,344.24Z" style="fill:rgb(40,107,180);fill-rule:nonzero;"/>
                <path d="M98.055,349.057L93.937,348L87.269,346.289L83.732,345.382L84.865,340.904L100.385,344.24L98.055,349.057Z" style="fill:rgb(38,101,176);fill-rule:nonzero;"/>
                <path d="M143.088,355.082L150.434,355.082L152.584,338.07L145.238,338.07L143.088,355.082Z" style="fill:rgb(244,127,118);fill-rule:nonzero;"/>
                <path d="M151.953,354.994C153.329,355.188 155.188,355.161 155.52,354.702C155.564,354.641 155.609,354.534 155.486,354.317C155.417,354.197 155.306,354.118 155.145,354.074C154.393,353.868 152.851,354.534 151.953,354.994ZM153.645,355.46C152.766,355.46 151.859,355.347 151.39,355.253L151.252,355.11L151.337,354.932C151.446,354.868 154.011,353.412 155.236,353.738C155.487,353.807 155.673,353.943 155.788,354.145C155.993,354.505 155.909,354.758 155.802,354.906C155.497,355.33 154.587,355.46 153.645,355.46Z" style="fill:rgb(40,107,180);fill-rule:nonzero;"/>
                <path d="M153.217,352.278C152.996,352.278 152.797,352.352 152.612,352.505C151.998,353.009 151.737,354.192 151.643,354.769C152.547,354.226 153.741,352.978 153.661,352.479C153.654,352.438 153.634,352.315 153.321,352.283L153.217,352.278ZM151.424,355.256L151.323,355.224L151.251,355.065C151.259,354.981 151.457,353.003 152.392,352.235C152.676,352.001 153.002,351.899 153.356,351.937C153.835,351.986 153.973,352.228 154.004,352.424C154.138,353.256 152.382,354.844 151.496,355.241L151.424,355.256Z" style="fill:rgb(40,107,180);fill-rule:nonzero;"/>
                <path d="M150.644,354.231L142.622,354.231C142.321,354.231 142.061,354.44 141.996,354.733L140.545,361.264C140.395,361.94 140.908,362.582 141.602,362.57C144.496,362.521 148.678,362.351 152.315,362.351C156.568,362.351 160.241,362.583 165.229,362.583C168.245,362.583 169.082,359.534 167.82,359.258C162.073,358.001 157.38,357.866 152.414,354.805C151.874,354.472 151.278,354.231 150.644,354.231Z" style="fill:rgb(36,48,59);fill-rule:nonzero;"/>
                <path d="M145.236,338.074L152.585,338.074L151.014,350.469L143.805,349.36L145.236,338.074Z" style="fill:rgb(225,100,97);fill-rule:nonzero;"/>
                <path d="M148.619,218.3C148.619,218.3 154.766,238.855 164.932,265.271C168.24,273.866 169.521,282.144 167.223,289.426C160.09,312.029 153.927,346.02 153.927,346.02L141.68,344.689C141.68,344.689 141.206,310.016 145.55,292.149C147.779,282.981 147.016,279.64 144.735,276.605C113.533,235.101 121.909,218.3 121.909,218.3L148.619,218.3Z" style="fill:rgb(40,107,180);fill-rule:nonzero;"/>
                <path d="M154.35,343.748L141.665,342.088C141.665,341.951 141.664,341.808 141.664,341.661C141.664,332.833 141.982,306.823 145.55,292.149C146.475,288.344 146.885,285.543 146.884,283.35C146.884,280.26 146.069,278.38 144.735,276.605C141.636,272.484 138.927,268.604 136.562,264.962C128.498,252.545 124.429,242.873 122.487,235.633C121.265,231.077 120.886,227.484 120.887,224.78C120.888,220.348 121.909,218.3 121.909,218.3L148.619,218.3C148.619,218.3 154.766,238.855 164.932,265.271C167.09,270.878 168.385,276.35 168.387,281.499C168.388,284.242 168.022,286.894 167.223,289.426C165.438,295.082 163.714,301.45 162.132,307.821C158.37,322.971 155.411,338.135 154.35,343.748Z" style="fill:rgb(0,100,205);fill-rule:nonzero;"/>
                <path d="M156.048,343.97L155.41,348.852L140.954,346.396L140.519,341.938L156.048,343.97Z" style="fill:rgb(40,107,180);fill-rule:nonzero;"/>
                <path d="M155.41,348.852L151.307,348.155L144.112,346.933L140.954,346.396L140.519,341.938L156.048,343.97L155.435,348.661L155.41,348.852Z" style="fill:rgb(38,101,176);fill-rule:nonzero;"/>
                <rect x="249.833" y="94.179" width="12.5" height="1" style="fill:rgb(40,107,180);fill-rule:nonzero;"/>
                <path d="M262.333,95.179L249.833,95.179L249.833,94.179L262.333,94.179L262.333,95.179Z" style="fill:rgb(34,95,172);fill-rule:nonzero;"/>
                <path d="M225.84,52.919L293.572,52.919C297.316,52.919 300.379,55.982 300.379,59.726L300.379,84.872C300.379,88.616 297.316,91.679 293.572,91.679L288.869,91.679L290.699,99.069C290.699,99.069 282.688,98.808 277.055,91.679L225.84,91.679C222.096,91.679 219.033,88.616 219.033,84.872L219.033,59.726C219.033,55.982 222.096,52.919 225.84,52.919Z" style="fill:rgb(40,107,180);fill-rule:nonzero;"/>
                <path d="M290.699,99.069C290.699,99.069 282.688,98.808 277.055,91.679L225.84,91.679C222.096,91.679 219.033,88.616 219.033,84.872L219.033,59.726C219.033,55.982 222.096,52.919 225.84,52.919L293.572,52.919C297.316,52.919 300.379,55.982 300.379,59.726L300.379,84.872C300.379,87.767 298.548,90.254 295.987,91.234C295.236,91.522 294.422,91.679 293.572,91.679L288.869,91.679L290.699,99.069Z" style="fill:rgb(0,100,205);fill-rule:nonzero;"/>
                <rect x="262.206" y="17.605" width="1" height="8.334" style="fill:rgb(40,107,180);fill-rule:nonzero;"/>
                <rect x="262.206" y="17.605" width="1" height="8.334" style="fill:rgb(53,117,187);fill-rule:nonzero;"/>
                <path d="M252.899,6.647L185.167,6.647C181.422,6.647 178.359,9.71 178.359,13.454L178.359,38.601C178.359,42.344 181.422,45.407 185.167,45.407L189.87,45.407L188.04,52.798C188.04,52.798 196.05,52.536 201.684,45.407L252.899,45.407C256.643,45.407 259.706,42.344 259.706,38.601L259.706,13.454C259.706,9.71 256.643,6.647 252.899,6.647Z" style="fill:rgb(40,107,180);fill-rule:nonzero;"/>
                <path d="M188.04,52.798L189.87,45.407L185.167,45.407C181.422,45.407 178.359,42.344 178.359,38.601L178.359,13.454C178.359,9.71 181.422,6.647 185.167,6.647L252.899,6.647C256.643,6.647 259.706,9.71 259.706,13.454L259.706,38.601C259.706,41.702 257.604,44.336 254.755,45.148C254.672,45.172 254.589,45.194 254.505,45.215C253.99,45.34 253.452,45.407 252.899,45.407L201.684,45.407C196.05,52.536 188.04,52.798 188.04,52.798Z" style="fill:rgb(0,124,255);fill-rule:nonzero;"/>
            </g>
        </g>
    </g>
</svg>
