<?xml version="1.0" encoding="UTF-8" standalone="no"?>
<!DOCTYPE svg PUBLIC "-//W3C//DTD SVG 1.1//EN" "http://www.w3.org/Graphics/SVG/1.1/DTD/svg11.dtd">
<svg width="100%" height="100%" viewBox="0 0 177 145" version="1.1" xmlns="http://www.w3.org/2000/svg" xmlns:xlink="http://www.w3.org/1999/xlink" xml:space="preserve" xmlns:serif="http://www.serif.com/" style="fill-rule:evenodd;clip-rule:evenodd;stroke-linecap:round;stroke-linejoin:round;stroke-miterlimit:1.5;">
    <g transform="matrix(1,0,0,1,-5243.92,-704.109)">
        <g transform="matrix(1,0,0,1,4792,2)">
            <g transform="matrix(2.68966,0,0,3,-3093.46,-12078.8)">
                <path d="M1326.54,4298L1335,4298L1330.95,4307.77L1347.93,4298L1369.32,4298C1373.52,4298 1376.93,4294.59 1376.93,4290.39L1376.93,4268.61C1376.93,4264.41 1373.52,4261 1369.32,4261L1326.54,4261C1322.34,4261 1318.93,4264.41 1318.93,4268.61L1318.93,4290.39C1318.93,4294.59 1322.34,4298 1326.54,4298Z" style="fill:white;stroke:rgb(2,3,129);stroke-width:1.46px;"/>
            </g>
            <g transform="matrix(-1.12069,0,0,1.21861,2104.11,-4405)">
                <path d="M1326.54,4298L1335,4298L1330.95,4307.77L1347.93,4298L1369.32,4298C1373.52,4298 1376.93,4294.59 1376.93,4290.39L1376.93,4268.61C1376.93,4264.41 1373.52,4261 1369.32,4261L1326.54,4261C1322.34,4261 1318.93,4264.41 1318.93,4268.61L1318.93,4290.39C1318.93,4294.59 1322.34,4298 1326.54,4298Z" style="fill:rgb(2,3,129);stroke:rgb(2,3,129);stroke-width:3.56px;"/>
            </g>
            <g transform="matrix(0.126667,0,0,0.126667,294.067,414.015)">
                <g transform="matrix(1,0,0,1,1199,2131.58)">
                    <path d="M649.703,661.847C593.998,710.776 509.05,705.563 459.896,649.573C411.018,593.645 416.441,508.799 472.318,459.908C527.961,410.738 612.961,416.197 661.938,471.977C711.177,527.87 705.531,612.89 649.703,661.847ZM860.839,551.367C860.514,539.836 859.411,528.44 857.733,517.283L798.349,507.444L778.223,451.262L817.79,405.901C805.789,385.933 791.508,367.555 775.368,351.021L721.528,378.049L672.168,344.485L677.504,284.441C657.034,275.807 635.384,269.318 612.91,265.421L584.938,318.85L525.239,320.25L494.577,268.298C471.63,273.526 449.696,281.312 429.117,291.429L437.912,351.06L390.467,387.354L335.182,363.487C320.007,380.855 306.771,399.997 295.896,420.637L337.969,463.651L321.021,520.859L262.262,534.096C261.206,545.933 260.755,558.032 261.131,570.324C261.548,581.543 262.555,592.542 264.076,603.392L323.482,613.401L343.427,669.647L303.594,714.902C315.634,734.883 329.849,753.462 345.997,770.043L399.942,743.185L449.205,776.892L443.621,836.95C464.747,845.889 487.027,852.62 510.193,856.579L538.007,803.023L597.699,801.373L628.463,853.251C651.395,847.92 673.293,840.019 693.86,829.858L684.892,770.261L732.174,733.762L787.518,757.478C802.698,739.987 815.897,720.815 826.685,700.196L784.366,657.352L801.104,599.973L859.905,586.642C860.853,575.01 861.25,563.228 860.839,551.367Z" style="fill:rgb(2,3,129);fill-rule:nonzero;"/>
                </g>
                <g transform="matrix(1,0,0,1,1199,2131.58)">
                    <path d="M678.142,694.221C604.554,758.88 492.332,751.637 427.676,678.023C362.836,604.274 370.13,492.162 443.709,427.426C517.37,362.758 629.671,370.094 694.34,443.732C759.024,517.327 751.803,629.552 678.142,694.221ZM708.834,431.012C637.138,349.372 512.636,341.239 430.971,412.934C349.396,484.704 341.311,608.997 413.195,690.759C484.877,772.372 609.291,780.401 690.875,708.717C772.54,637.022 780.546,512.602 708.834,431.012Z" style="fill:white;fill-rule:nonzero;"/>
                </g>
            </g>
            <g transform="matrix(0.05,0,0,0.05,489,605.665)">
                <g transform="matrix(1,0,0,1,1199,2131.58)">
                    <path d="M649.703,661.847C593.998,710.776 509.05,705.563 459.896,649.573C411.018,593.645 416.441,508.799 472.318,459.908C527.961,410.738 612.961,416.197 661.938,471.977C711.177,527.87 705.531,612.89 649.703,661.847ZM860.839,551.367C860.514,539.836 859.411,528.44 857.733,517.283L798.349,507.444L778.223,451.262L817.79,405.901C805.789,385.933 791.508,367.555 775.368,351.021L721.528,378.049L672.168,344.485L677.504,284.441C657.034,275.807 635.384,269.318 612.91,265.421L584.938,318.85L525.239,320.25L494.577,268.298C471.63,273.526 449.696,281.312 429.117,291.429L437.912,351.06L390.467,387.354L335.182,363.487C320.007,380.855 306.771,399.997 295.896,420.637L337.969,463.651L321.021,520.859L262.262,534.096C261.206,545.933 260.755,558.032 261.131,570.324C261.548,581.543 262.555,592.542 264.076,603.392L323.482,613.401L343.427,669.647L303.594,714.902C315.634,734.883 329.849,753.462 345.997,770.043L399.942,743.185L449.205,776.892L443.621,836.95C464.747,845.889 487.027,852.62 510.193,856.579L538.007,803.023L597.699,801.373L628.463,853.251C651.395,847.92 673.293,840.019 693.86,829.858L684.892,770.261L732.174,733.762L787.518,757.478C802.698,739.987 815.897,720.815 826.685,700.196L784.366,657.352L801.104,599.973L859.905,586.642C860.853,575.01 861.25,563.228 860.839,551.367Z" style="fill:rgb(2,3,129);fill-rule:nonzero;"/>
                </g>
                <g transform="matrix(1,0,0,1,1199,2131.58)">
                    <path d="M678.142,694.221C604.554,758.88 492.332,751.637 427.676,678.023C362.836,604.274 370.13,492.162 443.709,427.426C517.37,362.758 629.671,370.094 694.34,443.732C759.024,517.327 751.803,629.552 678.142,694.221ZM708.834,431.012C637.138,349.372 512.636,341.239 430.971,412.934C349.396,484.704 341.311,608.997 413.195,690.759C484.877,772.372 609.291,780.401 690.875,708.717C772.54,637.022 780.546,512.602 708.834,431.012Z" style="fill:white;fill-rule:nonzero;"/>
                </g>
            </g>
        </g>
    </g>
</svg>
