<?xml version="1.0" encoding="UTF-8" standalone="no"?>
<!DOCTYPE svg PUBLIC "-//W3C//DTD SVG 1.1//EN" "http://www.w3.org/Graphics/SVG/1.1/DTD/svg11.dtd">
<svg width="100%" height="100%" viewBox="0 0 1080 805" version="1.1" xmlns="http://www.w3.org/2000/svg" xmlns:xlink="http://www.w3.org/1999/xlink" xml:space="preserve" xmlns:serif="http://www.serif.com/" style="fill-rule:evenodd;clip-rule:evenodd;stroke-linejoin:round;stroke-miterlimit:2;">
    <g transform="matrix(1,0,0,1,-4792,-95.5436)">
        <g transform="matrix(1,0,0,1,4792,2)">
            <g transform="matrix(2.16,0,0,2.16,0,-25.153)">
                <g transform="matrix(1,0,0,1,0,265.047)">
                    <rect x="0" y="117.352" width="500" height="0.249" style="fill:rgb(236,236,236);"/>
                </g>
                <g transform="matrix(1,0,0,1,43.915,337.55)">
                    <path d="M0,-282.348C-3.01,-282.348 -5.458,-279.899 -5.458,-276.89L-5.458,-5.458C-5.458,-2.449 -3.01,0 0,0L193.099,0C196.107,0 198.556,-2.449 198.556,-5.458L198.556,-276.89C198.556,-279.899 196.107,-282.348 193.099,-282.348L0,-282.348ZM193.099,0.25L0,0.25C-3.147,0.25 -5.708,-2.311 -5.708,-5.458L-5.708,-276.89C-5.708,-280.036 -3.147,-282.598 0,-282.598L193.099,-282.598C196.245,-282.598 198.806,-280.036 198.806,-276.89L198.806,-5.458C198.806,-2.311 196.245,0.25 193.099,0.25" style="fill:rgb(236,236,236);fill-rule:nonzero;"/>
                </g>
                <g transform="matrix(1,0,0,1,260.212,337.55)">
                    <path d="M0,-282.348C-3.009,-282.348 -5.457,-279.899 -5.457,-276.89L-5.457,-5.458C-5.457,-2.449 -3.009,0 0,0L193.099,0C196.108,0 198.557,-2.449 198.557,-5.458L198.557,-276.89C198.557,-279.899 196.108,-282.348 193.099,-282.348L0,-282.348ZM193.099,0.25L0,0.25C-3.146,0.25 -5.707,-2.311 -5.707,-5.458L-5.707,-276.89C-5.707,-280.036 -3.146,-282.598 0,-282.598L193.099,-282.598C196.246,-282.598 198.807,-280.036 198.807,-276.89L198.807,-5.458C198.807,-2.311 196.246,0.25 193.099,0.25" style="fill:rgb(236,236,236);fill-rule:nonzero;"/>
                </g>
                <g transform="matrix(1,0,0,1,0,284.094)">
                    <rect x="174.437" y="107.828" width="25.997" height="0.25" style="fill:rgb(236,236,236);"/>
                </g>
                <g transform="matrix(1,0,0,1,0,278.666)">
                    <rect x="52.459" y="110.542" width="54.102" height="0.25" style="fill:rgb(236,236,236);"/>
                </g>
                <g transform="matrix(1,0,0,1,0,302.666)">
                    <rect x="147.12" y="98.542" width="26.317" height="0.25" style="fill:rgb(236,236,236);"/>
                </g>
                <g transform="matrix(1,0,0,1,0,299.304)">
                    <rect x="258.227" y="100.223" width="38.832" height="0.25" style="fill:rgb(236,236,236);"/>
                </g>
                <g transform="matrix(1,0,0,1,0,299.304)">
                    <rect x="305.962" y="100.223" width="10.694" height="0.25" style="fill:rgb(236,236,236);"/>
                </g>
                <g transform="matrix(1,0,0,1,0,290.862)">
                    <rect x="395.346" y="104.444" width="54.556" height="0.25" style="fill:rgb(236,236,236);"/>
                </g>
                <g transform="matrix(1,0,0,1,0,121.576)">
                    <rect x="381.06" y="126.475" width="45.652" height="125.474" style="fill:rgb(240,240,240);"/>
                </g>
                <g transform="matrix(1,0,0,1,0,255.923)">
                    <rect x="181.739" y="117.602" width="236.207" height="8.873" style="fill:rgb(240,240,240);"/>
                </g>
                <g transform="matrix(-1,0,0,1,554.034,121.576)">
                    <rect x="172.974" y="126.475" width="208.086" height="125.474" style="fill:rgb(245,245,245);"/>
                </g>
                <g transform="matrix(-1,0,0,1,554.832,59.018)">
                    <rect x="172.973" y="197.528" width="208.886" height="45.926" style="fill:rgb(240,240,240);"/>
                </g>
                <g transform="matrix(-1,0,0,1,554.832,167.62)">
                    <rect x="172.973" y="143.227" width="208.886" height="45.926" style="fill:rgb(240,240,240);"/>
                </g>
                <g transform="matrix(1,0,0,1,0,59.018)">
                    <rect x="381.06" y="197.528" width="7.897" height="45.926" style="fill:rgb(231,231,231);"/>
                </g>
                <g transform="matrix(1,0,0,1,0,167.62)">
                    <rect x="381.06" y="143.227" width="7.897" height="45.926" style="fill:rgb(231,231,231);"/>
                </g>
                <g transform="matrix(1,0,0,1,0,-11.616)">
                    <rect x="166.89" y="251.948" width="214.169" height="7.72" style="fill:rgb(240,240,240);"/>
                </g>
                <g transform="matrix(-1,0,0,1,814.15,-11.616)">
                    <rect x="381.059" y="251.948" width="52.032" height="7.72" style="fill:rgb(231,231,231);"/>
                </g>
                <g transform="matrix(1,0,0,1,0,-201.588)">
                    <rect x="328.143" y="283.272" width="107.433" height="135.044" style="fill:rgb(240,240,240);"/>
                </g>
                <g transform="matrix(1,0,0,1,0,-201.588)">
                    <rect x="304.427" y="283.272" width="127.032" height="135.044" style="fill:rgb(245,245,245);"/>
                </g>
                <g transform="matrix(-1,0,0,1,735.886,-201.588)">
                    <rect x="315.069" y="293.914" width="105.748" height="113.76" style="fill:white;"/>
                </g>
                <g transform="matrix(1,0,0,1,379.652,136.872)">
                    <path d="M0,24.649L20.209,15.281L20.209,9.384L0,0L0,7.054L12.282,12.344L0,17.637L0,24.649Z" style="fill:rgb(231,231,231);fill-rule:nonzero;"/>
                </g>
                <g transform="matrix(-1,0,0,1,369.29,164.261)">
                    <path d="M2.815,-30.112L6.509,-30.112L-0.035,0L-3.694,0L2.815,-30.112Z" style="fill:rgb(231,231,231);fill-rule:nonzero;"/>
                </g>
                <g transform="matrix(1,0,0,1,356.234,143.883)">
                    <path d="M0,10.626L-12.282,5.333L0,0.043L0,-7.012L-20.21,2.373L-20.21,8.27L0,17.638L0,10.626Z" style="fill:rgb(231,231,231);fill-rule:nonzero;"/>
                </g>
                <g transform="matrix(1,0,0,1,0,35.62)">
                    <rect x="117.214" y="117.602" width="7.042" height="229.176" style="fill:rgb(240,240,240);"/>
                </g>
                <g transform="matrix(1,0,0,1,115.754,164.365)">
                    <path d="M0,216.437L-0.191,215.455C-0.116,215.439 1.73,215.031 3.135,212.544C4.966,209.302 6.079,202.397 0.988,187.913C-6.855,165.599 -2.174,147.591 7.153,111.715C8.777,105.466 10.619,98.383 12.53,90.737C19.697,62.069 13.067,44.288 7.74,30C3.604,18.909 0.339,10.148 4.52,0L5.443,0.381C1.413,10.166 4.618,18.764 8.678,29.651C14.053,44.068 20.742,62.01 13.501,90.979C11.588,98.63 9.746,105.715 8.121,111.966C-1.155,147.646 -5.811,165.555 1.932,187.581C7.167,202.475 5.934,209.672 3.977,213.087C2.334,215.954 0.095,216.418 0,216.437" style="fill:rgb(240,240,240);fill-rule:nonzero;"/>
                </g>
                <g transform="matrix(1,0,0,1,107.992,378.222)">
                    <path d="M0,4.176L25.487,4.176L18.4,0L7.086,0L0,4.176Z" style="fill:rgb(240,240,240);fill-rule:nonzero;"/>
                </g>
                <g transform="matrix(1,0,0,1,70.3154,97.6672)">
                    <path d="M0,84.74L100.839,84.74L89.742,0L11.097,0L0,84.74Z" style="fill:rgb(245,245,245);fill-rule:nonzero;"/>
                </g>
                <g transform="matrix(1,0,0,1,219.879,240.332)">
                    <path d="M0,-43.956L53.84,-43.956L46.753,0L7.087,0L0,-43.956Z" style="fill:rgb(240,240,240);fill-rule:nonzero;"/>
                </g>
                <g transform="matrix(0.769257,-0.638939,-0.638939,-0.769257,251.755,198.788)">
                    <path d="M-15.48,-2.601C-0.792,-7.893 12.957,-8.941 13.593,11.516C14.23,31.971 -0.81,44.374 -15.48,47.27C-34.179,50.961 -48.429,28.551 -48.429,28.551C-48.429,28.551 -30.166,2.691 -15.48,-2.601" style="fill:rgb(225,225,225);fill-rule:nonzero;"/>
                </g>
                <g transform="matrix(0.554453,0.832215,0.832215,-0.554453,250.516,179.385)">
                    <path d="M16.723,-4.812C4.133,-9.921 -7.653,-11.637 -8.199,4.386C-8.744,20.41 4.147,31.127 16.723,34.354C32.753,38.468 44.967,21.792 44.967,21.792C44.967,21.792 29.312,0.298 16.723,-4.812" style="fill:rgb(231,231,231);fill-rule:nonzero;"/>
                </g>
                <g transform="matrix(0.902117,-0.431491,-0.431491,-0.902117,243.181,172.324)">
                    <path d="M-8.309,-0.758C3.889,-5.709 15.307,-7.371 15.836,8.153C16.364,23.677 3.874,34.061 -8.309,37.187C-23.838,41.173 -35.673,25.019 -35.673,25.019C-35.673,25.019 -20.507,4.193 -8.309,-0.758" style="fill:rgb(240,240,240);fill-rule:nonzero;"/>
                </g>
                <g transform="matrix(0.767021,0.641622,0.641622,-0.767021,245.624,160.489)">
                    <path d="M10.218,-1.502C-0.42,-5.819 -10.38,-7.27 -10.84,6.27C-11.301,19.809 -0.408,28.866 10.218,31.593C23.763,35.068 34.083,20.98 34.083,20.98C34.083,20.98 20.856,2.816 10.218,-1.502" style="fill:rgb(236,236,236);fill-rule:nonzero;"/>
                </g>
                <g transform="matrix(0.997754,-0.0669883,-0.0669883,-0.997754,233.053,149.782)">
                    <path d="M-1.05,-0.112C9.587,-4.43 19.547,-5.879 20.008,7.66C20.469,21.2 9.576,30.257 -1.05,32.984C-14.594,36.459 -24.916,22.37 -24.916,22.37C-24.916,22.37 -11.689,4.207 -1.05,-0.112" style="fill:rgb(245,245,245);fill-rule:nonzero;"/>
                </g>
                <g transform="matrix(0.950023,0.312181,0.312181,-0.950023,256.49,142.735)">
                    <path d="M3.48,-0.351C-3.769,-3.293 -10.556,-4.281 -10.869,4.945C-11.183,14.171 -3.76,20.342 3.48,22.2C12.709,24.569 19.742,14.969 19.742,14.969C19.742,14.969 10.729,2.591 3.48,-0.351" style="fill:rgb(250,250,250);fill-rule:nonzero;"/>
                </g>
                <g transform="matrix(0,-1,-1,0,250,222.349)">
                    <path d="M-193.889,-193.889C-200.143,-193.889 -205.212,-107.082 -205.212,0C-205.212,107.082 -200.143,193.889 -193.889,193.889C-187.635,193.889 -182.566,107.082 -182.566,0C-182.566,-107.082 -187.635,-193.889 -193.889,-193.889" style="fill:rgb(245,245,245);fill-rule:nonzero;"/>
                </g>
                <g transform="matrix(-1,0,0,1,498.774,14.363)">
                    <rect x="79.51" y="236.722" width="339.754" height="12.193" style="fill:rgb(0,124,255);"/>
                </g>
                <g opacity="0.3">
                    <g transform="matrix(1,0,0,-1,-0.0003,500)">
                        <rect x="79.51" y="236.722" width="90.927" height="12.193" style="fill:white;"/>
                    </g>
                </g>
                <g transform="matrix(1,0,0,1,171.893,416.054)">
                    <path d="M7.914,-152.776L-7.914,-152.776L-3.769,0L3.769,0L7.914,-152.776Z" style="fill:rgb(0,124,255);fill-rule:nonzero;"/>
                </g>
                <g opacity="0.3">
                    <g transform="matrix(1,0,0,1,168.124,266.561)">
                        <path d="M0,149.494L3.769,149.494L3.769,0L-4.017,1.423L0,149.494Z" style="fill:white;fill-rule:nonzero;"/>
                    </g>
                </g>
                <g transform="matrix(1,0,0,1,96.9189,416.054)">
                    <path d="M7.914,-152.776L-7.914,-152.776L-3.769,0L3.769,0L7.914,-152.776Z" style="fill:rgb(0,124,255);fill-rule:nonzero;"/>
                </g>
                <g opacity="0.3">
                    <g transform="matrix(1,0,0,1,93.1499,266.561)">
                        <path d="M0,149.494L3.769,149.494L3.769,0L-4.017,1.423L0,149.494Z" style="fill:white;fill-rule:nonzero;"/>
                    </g>
                </g>
                <g transform="matrix(1,0,0,1,401.855,416.054)">
                    <path d="M7.914,-152.776L-7.914,-152.776L-3.769,0L3.769,0L7.914,-152.776Z" style="fill:rgb(0,124,255);fill-rule:nonzero;"/>
                </g>
                <g opacity="0.3">
                    <g transform="matrix(1,0,0,1,398.085,266.561)">
                        <path d="M0,149.494L3.769,149.494L3.769,0L-4.017,1.423L0,149.494Z" style="fill:white;fill-rule:nonzero;"/>
                    </g>
                </g>
                <g transform="matrix(1,0,0,1,326.881,416.054)">
                    <path d="M7.914,-152.776L-7.914,-152.776L-3.769,0L3.769,0L7.914,-152.776Z" style="fill:rgb(0,124,255);fill-rule:nonzero;"/>
                </g>
                <g opacity="0.3">
                    <g transform="matrix(1,0,0,1,323.112,266.561)">
                        <path d="M0,149.494L3.769,149.494L3.769,0L-4.017,1.423L0,149.494Z" style="fill:white;fill-rule:nonzero;"/>
                    </g>
                </g>
                <g transform="matrix(1,0,0,1,240.781,247.73)">
                    <path d="M0,-61.901L-80.835,-61.901C-83.736,-61.901 -85.613,-59.527 -85.004,-56.625L-74.239,-5.275C-73.63,-2.374 -70.758,0 -67.857,0L12.979,0C15.88,0 17.756,-2.374 17.148,-5.275L6.382,-56.625C5.774,-59.527 2.902,-61.901 0,-61.901" style="fill:rgb(26,46,53);fill-rule:nonzero;"/>
                </g>
                <g transform="matrix(1,0,0,1,173.671,187.119)">
                    <path d="M0,57.682C-1.898,57.682 -3.915,56 -4.316,54.083L-15.082,2.733C-15.248,1.942 -15.115,1.231 -14.708,0.73C-14.327,0.259 -13.712,0 -12.978,0L67.857,0C69.754,0 71.772,1.682 72.175,3.6L82.94,54.949C83.105,55.74 82.972,56.452 82.566,56.952C82.178,57.429 81.58,57.682 80.835,57.682L0,57.682Z" style="fill:white;fill-rule:nonzero;"/>
                </g>
                <g opacity="0.4">
                    <g transform="matrix(1,0,0,1,234.662,191.228)">
                        <path d="M0,49.464L-10.2,0.813C-10.458,-0.419 -9.518,-1.575 -8.261,-1.575L4.856,-1.575C5.793,-1.575 6.603,-0.918 6.795,-0.001L16.995,48.652C17.253,49.882 16.313,51.039 15.056,51.039L1.939,51.039C1.001,51.039 0.192,50.382 0,49.464" style="fill:rgb(0,124,255);fill-rule:nonzero;"/>
                    </g>
                </g>
                <g transform="matrix(-0.205029,-0.978756,-0.978756,0.205029,175.849,200.314)">
                    <path d="M8.461,8.982L10.617,8.982L7.296,-6.872L5.14,-6.872L8.461,8.982Z" style="fill:rgb(0,124,255);fill-rule:nonzero;"/>
                </g>
                <g transform="matrix(-0.205029,-0.978756,-0.978756,0.205029,190.676,211.516)">
                    <path d="M15.81,14.951L17.966,14.951L12.144,-12.84L9.988,-12.841L15.81,14.951Z" style="fill:rgb(236,236,236);fill-rule:nonzero;"/>
                </g>
                <g transform="matrix(-0.205029,-0.978756,-0.978756,0.205029,194.236,218.428)">
                    <path d="M17.876,16.629L20.031,16.629L13.506,-14.519L11.351,-14.519L17.876,16.629Z" style="fill:rgb(236,236,236);fill-rule:nonzero;"/>
                </g>
                <g transform="matrix(-0.205029,-0.978756,-0.978756,0.205029,191.997,220.629)">
                    <path d="M14.141,13.596L16.297,13.596L11.043,-11.486L8.887,-11.486L14.141,13.596Z" style="fill:rgb(236,236,236);fill-rule:nonzero;"/>
                </g>
                <g transform="matrix(-0.205029,-0.978756,-0.978756,0.205029,177.185,221.597)">
                    <path d="M4.875,6.07L7.031,6.07L4.93,-3.96L2.774,-3.96L4.875,6.07Z" style="fill:rgb(0,124,255);fill-rule:nonzero;"/>
                </g>
                <g transform="matrix(-0.205029,-0.978756,-0.978756,0.205029,186.011,227.926)">
                    <path d="M6.223,7.165L8.379,7.165L5.82,-5.054L3.664,-5.055L6.223,7.165Z" style="fill:rgb(236,236,236);fill-rule:nonzero;"/>
                </g>
                <g transform="matrix(-0.205029,-0.978756,-0.978756,0.205029,201.486,227.926)">
                    <path d="M6.223,7.165L8.379,7.165L5.82,-5.055L3.664,-5.055L6.223,7.165Z" style="fill:rgb(236,236,236);fill-rule:nonzero;"/>
                </g>
                <g transform="matrix(-0.205029,-0.978756,-0.978756,0.205029,205.411,247.703)">
                    <path d="M24.128,21.708L26.284,21.708L17.632,-19.597L15.476,-19.598L24.128,21.708Z" style="fill:rgb(236,236,236);fill-rule:nonzero;"/>
                </g>
                <g transform="matrix(-0.205029,-0.978756,-0.978756,0.205029,200.867,248.032)">
                    <path d="M18.088,16.802L20.244,16.802L13.647,-14.691L11.491,-14.692L18.088,16.802Z" style="fill:rgb(236,236,236);fill-rule:nonzero;"/>
                </g>
                <g transform="matrix(-1,0,0,1,173.76,251.085)">
                    <path d="M-104.761,-3.663L1.604,-3.663C4.506,-3.663 6.382,-2.015 5.774,0L-111.143,0C-110.534,-2.015 -107.663,-3.663 -104.761,-3.663" style="fill:rgb(26,46,53);fill-rule:nonzero;"/>
                </g>
                <g opacity="0.1">
                    <g transform="matrix(1,0,0,1,137.207,123.382)">
                        <path d="M0,49.464L-10.2,0.813C-10.458,-0.419 -9.518,-1.575 -8.26,-1.575L74.344,-1.575C75.282,-1.575 76.091,-0.918 76.283,-0.001L86.483,48.651C86.741,49.882 85.802,51.039 84.544,51.039L1.939,51.039C1.001,51.039 0.192,50.382 0,49.464" style="fill:rgb(0,124,255);fill-rule:nonzero;"/>
                    </g>
                </g>
                <g transform="matrix(-1,0,0,1,148.842,121.544)">
                    <path d="M-17.727,1.866L-0.389,1.866L0,0L-17.338,0L-17.727,1.866Z" style="fill:rgb(0,124,255);fill-rule:nonzero;"/>
                </g>
                <g opacity="0.4">
                    <g transform="matrix(-1,0,0,1,156.4,124.52)">
                        <path d="M-7.349,1.865L-0.39,1.865L0,0L-6.96,0L-7.349,1.865Z" style="fill:rgb(0,124,255);fill-rule:nonzero;"/>
                    </g>
                </g>
                <g opacity="0.4">
                    <g transform="matrix(-1,0,0,1,164.218,124.52)">
                        <path d="M-11.112,1.865L-0.389,1.865L0,0L-10.723,0L-11.112,1.865Z" style="fill:rgb(0,124,255);fill-rule:nonzero;"/>
                    </g>
                </g>
                <g opacity="0.4">
                    <g transform="matrix(-1,0,0,1,157.021,127.494)">
                        <path d="M-22.983,1.865L-0.389,1.865L0,0L-22.594,0L-22.983,1.865Z" style="fill:rgb(0,124,255);fill-rule:nonzero;"/>
                    </g>
                </g>
                <g opacity="0.4">
                    <g transform="matrix(-1,0,0,1,157.641,130.469)">
                        <path d="M-19.488,1.866L-0.389,1.866L0,0L-19.099,0L-19.488,1.866Z" style="fill:rgb(0,124,255);fill-rule:nonzero;"/>
                    </g>
                </g>
                <g opacity="0.4">
                    <g transform="matrix(-1,0,0,1,178.03,165.814)">
                        <path d="M-11.769,-1.866L0.389,-1.866L0,0L-12.158,0L-11.769,-1.866Z" style="fill:rgb(0,124,255);fill-rule:nonzero;"/>
                    </g>
                </g>
                <g transform="matrix(-1,0,0,1,156.442,157.999)">
                    <path d="M-18.196,1.865L-0.389,1.865L0,0L-17.807,0L-18.196,1.865Z" style="fill:rgb(0,124,255);fill-rule:nonzero;"/>
                </g>
                <g opacity="0.4">
                    <g transform="matrix(-1,0,0,1,165.631,168.789)">
                        <path d="M-16.173,-1.865L0.389,-1.865L0,0L-16.562,0L-16.173,-1.865Z" style="fill:rgb(0,124,255);fill-rule:nonzero;"/>
                    </g>
                </g>
                <g opacity="0.4">
                    <g transform="matrix(-1,0,0,1,165.01,165.814)">
                        <path d="M-11.769,-1.866L0.389,-1.866L0,0L-12.158,0L-11.769,-1.866Z" style="fill:rgb(0,124,255);fill-rule:nonzero;"/>
                    </g>
                </g>
                <g opacity="0.4">
                    <g transform="matrix(-1,0,0,1,164.39,162.84)">
                        <path d="M-23.926,-1.866L0.389,-1.866L-0,0L-24.315,0L-23.926,-1.866Z" style="fill:rgb(0,124,255);fill-rule:nonzero;"/>
                    </g>
                </g>
                <g transform="matrix(-1,0,0,1,145.949,107.667)">
                    <path d="M-20.013,1.865L-0.388,1.865L0,0L-19.624,0L-20.013,1.865Z" style="fill:rgb(0,124,255);fill-rule:nonzero;"/>
                </g>
                <g opacity="0.4">
                    <g transform="matrix(-1,0,0,1,154.4,118.457)">
                        <path d="M-21.246,-1.866L0.389,-1.866L-0,0L-21.635,0L-21.246,-1.866Z" style="fill:rgb(0,124,255);fill-rule:nonzero;"/>
                    </g>
                </g>
                <g opacity="0.4">
                    <g transform="matrix(-1,0,0,1,153.78,115.482)">
                        <path d="M-17.537,-1.866L0.389,-1.866L0,0L-17.926,0L-17.537,-1.866Z" style="fill:rgb(0,124,255);fill-rule:nonzero;"/>
                    </g>
                </g>
                <g opacity="0.4">
                    <g transform="matrix(-1,0,0,1,153.16,112.507)">
                        <path d="M-19.354,-1.865L0.389,-1.865L0,0L-19.743,0L-19.354,-1.865Z" style="fill:rgb(0,124,255);fill-rule:nonzero;"/>
                    </g>
                </g>
                <g transform="matrix(-1,0,0,1,151.712,135.31)">
                    <path d="M-14.023,1.865L-0.389,1.865L0,0L-13.634,0L-14.023,1.865Z" style="fill:rgb(0,124,255);fill-rule:nonzero;"/>
                </g>
                <g opacity="0.4">
                    <g transform="matrix(-1,0,0,1,160.9,146.099)">
                        <path d="M-26.256,-1.865L0.389,-1.865L0,0L-26.645,0L-26.256,-1.865Z" style="fill:rgb(0,124,255);fill-rule:nonzero;"/>
                    </g>
                </g>
                <g opacity="0.4">
                    <g transform="matrix(-1,0,0,1,160.28,143.125)">
                        <path d="M-10.65,-1.866L0.389,-1.866L0,0L-11.039,0L-10.65,-1.866Z" style="fill:rgb(0,124,255);fill-rule:nonzero;"/>
                    </g>
                </g>
                <g opacity="0.4">
                    <g transform="matrix(-1,0,0,1,172.26,143.125)">
                        <path d="M-10.65,-1.866L0.389,-1.866L0,0L-11.039,0L-10.65,-1.866Z" style="fill:rgb(0,124,255);fill-rule:nonzero;"/>
                    </g>
                </g>
                <g opacity="0.4">
                    <g transform="matrix(-1,0,0,1,159.66,140.149)">
                        <path d="M-23.926,-1.865L0.389,-1.865L-0,0L-24.315,0L-23.926,-1.865Z" style="fill:rgb(0,124,255);fill-rule:nonzero;"/>
                    </g>
                </g>
                <g opacity="0.4">
                    <g transform="matrix(-1,0,0,1,162.761,155.024)">
                        <path d="M-20.778,-1.866L0.389,-1.866L-0,0L-21.167,0L-20.778,-1.866Z" style="fill:rgb(0,124,255);fill-rule:nonzero;"/>
                    </g>
                </g>
                <g opacity="0.4">
                    <g transform="matrix(-1,0,0,1,162.14,152.049)">
                        <path d="M-5.766,-1.865L0.389,-1.865L0,0L-6.155,0L-5.766,-1.865Z" style="fill:rgb(0,124,255);fill-rule:nonzero;"/>
                    </g>
                </g>
                <g opacity="0.4">
                    <g transform="matrix(-1,0,0,1,169.143,152.049)">
                        <path d="M-8.397,-1.865L0.389,-1.865L0,0L-8.786,0L-8.397,-1.865Z" style="fill:rgb(0,124,255);fill-rule:nonzero;"/>
                    </g>
                </g>
                <g opacity="0.4">
                    <g transform="matrix(-1,0,0,1,161.52,149.074)">
                        <path d="M-23.926,-1.865L0.389,-1.865L-0,0L-24.315,0L-23.926,-1.865Z" style="fill:rgb(0,124,255);fill-rule:nonzero;"/>
                    </g>
                </g>
                <g opacity="0.4">
                    <g transform="matrix(-1,0,0,1,195.502,144.845)">
                        <path d="M-9.102,1.866L-0.389,1.866L0,0L-8.713,0L-9.102,1.866Z" style="fill:rgb(0,124,255);fill-rule:nonzero;"/>
                    </g>
                </g>
                <g opacity="0.4">
                    <g transform="matrix(-1,0,0,1,205.29,144.845)">
                        <path d="M-13.813,1.866L-0.389,1.866L0,0L-13.424,0L-13.813,1.866Z" style="fill:rgb(0,124,255);fill-rule:nonzero;"/>
                    </g>
                </g>
                <g opacity="0.4">
                    <g transform="matrix(-1,0,0,1,196.123,147.819)">
                        <path d="M-28.676,1.866L-0.389,1.866L0,0L-28.287,0L-28.676,1.866Z" style="fill:rgb(0,124,255);fill-rule:nonzero;"/>
                    </g>
                </g>
                <g opacity="0.4">
                    <g transform="matrix(-1,0,0,1,196.743,150.795)">
                        <path d="M-24.3,1.865L-0.388,1.865L0,0L-23.911,0L-24.3,1.865Z" style="fill:rgb(0,124,255);fill-rule:nonzero;"/>
                    </g>
                </g>
                <g opacity="0.4">
                    <g transform="matrix(-1,0,0,1,205.051,136.74)">
                        <path d="M-26.698,-1.865L0.389,-1.865L0,0L-27.087,0L-26.698,-1.865Z" style="fill:rgb(0,124,255);fill-rule:nonzero;"/>
                    </g>
                </g>
                <g opacity="0.4">
                    <g transform="matrix(-1,0,0,1,204.431,133.765)">
                        <path d="M-22.054,-1.866L0.389,-1.866L0,0L-22.443,0L-22.054,-1.866Z" style="fill:rgb(0,124,255);fill-rule:nonzero;"/>
                    </g>
                </g>
                <g transform="matrix(-1,0,0,1,198.098,130.791)">
                    <path d="M-24.329,-1.866L0.389,-1.866L0,0L-24.718,0L-24.329,-1.866Z" style="fill:rgb(0,124,255);fill-rule:nonzero;"/>
                </g>
                <g opacity="0.4">
                    <g transform="matrix(-1,0,0,1,200.002,166.425)">
                        <path d="M-32.97,-1.865L0.389,-1.865L0,0L-33.359,0L-32.97,-1.865Z" style="fill:rgb(0,124,255);fill-rule:nonzero;"/>
                    </g>
                </g>
                <g opacity="0.4">
                    <g transform="matrix(-1,0,0,1,199.381,163.45)">
                        <path d="M-13.431,-1.865L0.389,-1.865L-0,0L-13.82,0L-13.431,-1.865Z" style="fill:rgb(0,124,255);fill-rule:nonzero;"/>
                    </g>
                </g>
                <g opacity="0.4">
                    <g transform="matrix(-1,0,0,1,214.38,163.45)">
                        <path d="M-13.431,-1.865L0.389,-1.865L-0,0L-13.82,0L-13.431,-1.865Z" style="fill:rgb(0,124,255);fill-rule:nonzero;"/>
                    </g>
                </g>
                <g opacity="0.4">
                    <g transform="matrix(-1,0,0,1,198.761,160.475)">
                        <path d="M-30.053,-1.866L0.389,-1.866L0,0L-30.442,0L-30.053,-1.866Z" style="fill:rgb(0,124,255);fill-rule:nonzero;"/>
                    </g>
                </g>
                <g opacity="0.4">
                    <g transform="matrix(-1,0,0,1,201.862,175.349)">
                        <path d="M-26.112,-1.865L0.389,-1.865L0,0L-26.501,0L-26.112,-1.865Z" style="fill:rgb(0,124,255);fill-rule:nonzero;"/>
                    </g>
                </g>
                <g opacity="0.4">
                    <g transform="matrix(-1,0,0,1,201.242,172.375)">
                        <path d="M-7.317,-1.866L0.389,-1.866L-0.001,0L-7.706,0L-7.317,-1.866Z" style="fill:rgb(0,124,255);fill-rule:nonzero;"/>
                    </g>
                </g>
                <g opacity="0.4">
                    <g transform="matrix(-1,0,0,1,210.01,172.375)">
                        <path d="M-10.611,-1.866L0.389,-1.866L-0,0L-11,0L-10.611,-1.866Z" style="fill:rgb(0,124,255);fill-rule:nonzero;"/>
                    </g>
                </g>
                <g opacity="0.4">
                    <g transform="matrix(-1,0,0,1,200.622,169.4)">
                        <path d="M-30.053,-1.866L0.389,-1.866L0,0L-30.442,0L-30.053,-1.866Z" style="fill:rgb(0,124,255);fill-rule:nonzero;"/>
                    </g>
                </g>
                <g opacity="0.4">
                    <g transform="matrix(-1,0,0,1,129.253,177.657)">
                        <path d="M-20.347,-1.866L0.389,-1.866L0,0L-20.736,0L-20.347,-1.866Z" style="fill:rgb(0,124,255);fill-rule:nonzero;"/>
                    </g>
                </g>
                <g opacity="0.4">
                    <g transform="matrix(-1,0,0,1,128.633,174.682)">
                        <path d="M-14.832,-1.866L0.389,-1.866L0,0L-15.221,0L-14.832,-1.866Z" style="fill:rgb(0,124,255);fill-rule:nonzero;"/>
                    </g>
                </g>
                <g opacity="0.4">
                    <g transform="matrix(-1,0,0,1,144.934,174.682)">
                        <path d="M-14.832,-1.866L0.389,-1.866L0,0L-15.221,0L-14.832,-1.866Z" style="fill:rgb(0,124,255);fill-rule:nonzero;"/>
                    </g>
                </g>
                <g opacity="0.4">
                    <g transform="matrix(-1,0,0,1,128.012,171.707)">
                        <path d="M-30.053,-1.865L0.389,-1.865L0,0L-30.442,0L-30.053,-1.865Z" style="fill:rgb(0,124,255);fill-rule:nonzero;"/>
                    </g>
                </g>
                <g transform="matrix(-1,0,0,1,378.114,251.085)">
                    <path d="M-12.837,-19.423L0,-19.423L-1.495,0L-11.342,0L-12.837,-19.423Z" style="fill:rgb(0,124,255);fill-rule:nonzero;"/>
                </g>
                <g opacity="0.4">
                    <g transform="matrix(-1,0,0,1,378.114,251.085)">
                        <path d="M-12.837,-19.423L0,-19.423L-1.495,0L-11.342,0L-12.837,-19.423Z" style="fill:white;fill-rule:nonzero;"/>
                    </g>
                </g>
                <g transform="matrix(1,0,0,1,111.134,251.085)">
                    <path d="M0,-32.912L18.458,-32.912L12.157,0L-6.301,0L0,-32.912Z" style="fill:rgb(26,46,53);fill-rule:nonzero;"/>
                </g>
                <g transform="matrix(-1,0,0,1,115.868,251.085)">
                    <path d="M-18.775,-41.734L7.297,-41.734L0,0L-26.072,0L-18.775,-41.734Z" style="fill:rgb(0,124,255);fill-rule:nonzero;"/>
                </g>
                <g transform="matrix(1,0,0,1,107.029,251.085)">
                    <path d="M0,-41.734L1.542,-41.734L8.839,0L7.297,0L0,-41.734Z" style="fill:rgb(0,124,255);fill-rule:nonzero;"/>
                </g>
                <g opacity="0.3">
                    <g transform="matrix(1,0,0,1,107.029,251.085)">
                        <path d="M0,-41.734L1.542,-41.734L8.839,0L7.297,0L0,-41.734Z" style="fill-rule:nonzero;"/>
                    </g>
                </g>
                <g transform="matrix(-0.172227,-0.985057,-0.985057,0.172227,142.388,232.947)">
                    <path d="M-9.551,24.787L23.76,24.787L20.829,8.025L-12.482,8.026L-9.551,24.787Z" style="fill:white;fill-rule:nonzero;"/>
                </g>
                <g opacity="0.6">
                    <g transform="matrix(-0.172227,-0.985057,-0.985057,0.172227,149.097,224.964)">
                        <path d="M-19.05,16.804L14.26,16.804L14.121,16.009L-19.189,16.009L-19.05,16.804Z" style="fill:rgb(0,124,255);fill-rule:nonzero;"/>
                    </g>
                </g>
                <g transform="matrix(-0.419635,-0.907693,-0.907693,0.419635,262.025,155.725)">
                    <path d="M-0.949,-1.483C-1.831,-1.484 -2.547,-1.017 -2.548,-0.439C-2.548,0.138 -1.832,0.606 -0.949,0.606C-0.066,0.607 0.651,0.139 0.651,-0.438C0.651,-1.015 -0.065,-1.483 -0.949,-1.483" style="fill:rgb(26,46,53);fill-rule:nonzero;"/>
                </g>
                <g transform="matrix(1,0,0,1,264.09,166.869)">
                    <path d="M0,-9.292C0,-9.292 0.316,-3.826 -0.658,-0.667C1.372,0 3.503,-1.72 3.503,-1.72L0,-9.292Z" style="fill:rgb(255,85,81);fill-rule:nonzero;"/>
                </g>
                <g transform="matrix(1,0,0,1,263.867,150.693)">
                    <path d="M0,-1.299C-0.082,-1.234 -0.184,-1.192 -0.297,-1.186C-2.582,-1.058 -3.549,0.54 -3.589,0.608C-3.734,0.854 -4.051,0.937 -4.297,0.795C-4.544,0.65 -4.628,0.336 -4.487,0.089C-4.436,0.001 -3.219,-2.061 -0.354,-2.221C-0.069,-2.236 0.176,-2.018 0.192,-1.732C0.202,-1.559 0.125,-1.401 0,-1.299" style="fill:rgb(26,46,53);fill-rule:nonzero;"/>
                </g>
                <g transform="matrix(1,0,0,1,293.221,195.313)">
                    <path d="M0,-40.557C3.09,-29.853 6.536,-21.536 10.753,-16.815C10.753,-16.815 10.829,-8.401 -3.505,-4.4C-19.266,0 -13.221,-10.121 -13.221,-10.121C-5.192,-14.577 -5.983,-21.297 -12.002,-23.855L0,-40.557Z" style="fill:rgb(255,140,123);fill-rule:nonzero;"/>
                </g>
                <g transform="matrix(-0.1267,-0.991941,-0.991941,0.1267,289.672,165.026)">
                    <path d="M-13.569,-16.052C-9.648,-16.265 -5.179,-16.469 -4.761,-14.087C-4.301,-11.466 -9.174,4.678 -13.569,8.557C-17.965,12.436 -23.489,6.665 -23.489,6.665L-13.569,-16.052Z" style="fill:rgb(26,46,53);fill-rule:nonzero;"/>
                </g>
                <g transform="matrix(-0.999458,-0.0329194,-0.0329194,0.999458,262.324,247.048)">
                    <path d="M-13.125,-10.479L0.18,-10.479L-0.423,0.646C-0.423,0.646 -11.981,-0.929 -12.392,-3.994L-13.125,-10.479Z" style="fill:rgb(255,140,123);fill-rule:nonzero;"/>
                </g>
                <g transform="matrix(-0.237879,0.971295,0.971295,0.237879,259.204,239.325)">
                    <path d="M3.522,-2.994L9.386,-2.994L7.305,5.414L-3.459,2.534L3.522,-2.994Z" style="fill:rgb(255,140,123);fill-rule:nonzero;"/>
                </g>
                <g transform="matrix(1,0,0,1,329.172,246.567)">
                    <path d="M0,-55.857L-0.277,-53C-0.368,-52.081 -0.496,-51.175 -0.612,-50.267C-0.846,-48.452 -1.131,-46.649 -1.443,-44.846C-2.045,-41.238 -2.826,-37.65 -3.717,-34.038C-4.654,-30.439 -5.686,-26.81 -7.042,-23.165C-7.733,-21.336 -8.45,-19.506 -9.315,-17.643C-10.173,-15.779 -11.105,-13.908 -12.318,-11.994C-12.594,-11.524 -12.933,-11.034 -13.259,-10.552C-13.579,-10.072 -13.914,-9.59 -14.303,-9.095C-14.688,-8.602 -15.025,-8.128 -15.48,-7.625L-16.132,-6.885C-16.343,-6.645 -16.561,-6.401 -16.873,-6.109C-19.191,-3.826 -21.568,-2.449 -23.798,-1.453C-28.258,0.507 -32.305,1.255 -36.228,1.695C-38.182,1.927 -40.108,2.017 -42.006,2.059C-43.903,2.113 -45.779,2.071 -47.638,1.965C-49.496,1.881 -51.34,1.701 -53.172,1.487C-55.029,1.258 -56.778,0.976 -58.726,0.584L-58.405,-9.864C-51.985,-11.139 -45.264,-12.45 -39.504,-14.37C-38.06,-14.835 -36.688,-15.372 -35.442,-15.931C-34.194,-16.473 -33.066,-17.074 -32.221,-17.673C-31.38,-18.273 -30.833,-18.851 -30.767,-19.093L-30.471,-19.553C-30.353,-19.702 -30.226,-19.963 -30.098,-20.169C-29.969,-20.372 -29.838,-20.621 -29.708,-20.881C-29.577,-21.136 -29.441,-21.374 -29.313,-21.67C-28.265,-23.892 -27.243,-26.684 -26.424,-29.603C-25.606,-32.545 -24.829,-35.619 -24.209,-38.779C-23.53,-41.922 -22.992,-45.147 -22.441,-48.378L-21.68,-53.239L-20.997,-57.97L0,-55.857Z" style="fill:rgb(0,124,255);fill-rule:nonzero;"/>
                </g>
                <g opacity="0.2">
                    <g transform="matrix(1,0,0,1,329.172,246.567)">
                        <path d="M0,-55.857L-0.277,-53C-0.368,-52.081 -0.496,-51.175 -0.612,-50.267C-0.846,-48.452 -1.131,-46.649 -1.443,-44.846C-2.045,-41.238 -2.826,-37.65 -3.717,-34.038C-4.654,-30.439 -5.686,-26.81 -7.042,-23.165C-7.733,-21.336 -8.45,-19.506 -9.315,-17.643C-10.173,-15.779 -11.105,-13.908 -12.318,-11.994C-12.594,-11.524 -12.933,-11.034 -13.259,-10.552C-13.579,-10.072 -13.914,-9.59 -14.303,-9.095C-14.688,-8.602 -15.025,-8.128 -15.48,-7.625L-16.132,-6.885C-16.343,-6.645 -16.561,-6.401 -16.873,-6.109C-19.191,-3.826 -21.568,-2.449 -23.798,-1.453C-28.258,0.507 -32.305,1.255 -36.228,1.695C-38.182,1.927 -40.108,2.017 -42.006,2.059C-43.903,2.113 -45.779,2.071 -47.638,1.965C-49.496,1.881 -51.34,1.701 -53.172,1.487C-55.029,1.258 -56.778,0.976 -58.726,0.584L-58.405,-9.864C-51.985,-11.139 -45.264,-12.45 -39.504,-14.37C-38.06,-14.835 -36.688,-15.372 -35.442,-15.931C-34.194,-16.473 -33.066,-17.074 -32.221,-17.673C-31.38,-18.273 -30.833,-18.851 -30.767,-19.093L-30.471,-19.553C-30.353,-19.702 -30.226,-19.963 -30.098,-20.169C-29.969,-20.372 -29.838,-20.621 -29.708,-20.881C-29.577,-21.136 -29.441,-21.374 -29.313,-21.67C-28.265,-23.892 -27.243,-26.684 -26.424,-29.603C-25.606,-32.545 -24.829,-35.619 -24.209,-38.779C-23.53,-41.922 -22.992,-45.147 -22.441,-48.378L-21.68,-53.239L-20.997,-57.97L0,-55.857Z" style="fill-rule:nonzero;"/>
                    </g>
                </g>
                <g transform="matrix(1,0,0,1,270.123,238.324)">
                    <path d="M0,-34.367C3.22,-20.985 7.379,1.449 8.331,30.78L66.885,30.78C67.209,23.542 65.986,-17.182 60.092,-46.679C57.852,-57.893 46.851,-65.147 35.692,-62.641C35.599,-62.621 35.505,-62.599 35.412,-62.578C28.109,-60.914 17.612,-58.231 11.438,-55.885C11.354,-55.852 11.271,-55.821 11.187,-55.789C2.608,-52.493 -2.15,-43.302 0,-34.367" style="fill:rgb(0,124,255);fill-rule:nonzero;"/>
                </g>
                <g opacity="0.2">
                    <g transform="matrix(1,0,0,1,273.929,220.192)">
                        <path d="M0,2.511C0.464,5.318 0.929,8.293 1.361,11.416C6.151,6.415 7.671,-8.905 7.671,-8.905L0,2.511Z" style="fill-rule:nonzero;"/>
                    </g>
                </g>
                <g transform="matrix(-0.995634,-0.0933407,-0.0933407,0.995634,211.125,247.957)">
                    <path d="M-13.148,-11.507L0.158,-11.507L-0.445,-0.382C-0.445,-0.382 -7.448,1.215 -12.414,-5.023L-13.148,-11.507Z" style="fill:rgb(255,140,123);fill-rule:nonzero;"/>
                </g>
                <g transform="matrix(-0.487087,0.873354,0.873354,0.487087,209.229,242.249)">
                    <path d="M-0.435,-4.303L8.323,-4.303L3.533,4.689L-6.403,-0.352L-0.435,-4.303Z" style="fill:rgb(255,140,123);fill-rule:nonzero;"/>
                </g>
                <g transform="matrix(1,0,0,1,292.095,240.427)">
                    <path d="M0,-41.561C-0.924,-39.804 -1.741,-38.26 -2.66,-36.658C-3.562,-35.075 -4.467,-33.498 -5.415,-31.947C-7.292,-28.832 -9.249,-25.764 -11.303,-22.737C-15.416,-16.682 -19.832,-10.768 -25.013,-5.094C-27.59,-2.244 -30.415,0.519 -33.705,3.168C-34.099,3.502 -34.557,3.828 -34.983,4.154C-35.427,4.484 -35.791,4.784 -36.439,5.188C-37.024,5.577 -37.611,5.928 -38.199,6.238C-38.791,6.572 -39.372,6.85 -39.964,7.113C-42.329,8.148 -44.633,8.784 -46.846,9.203C-51.291,9.985 -55.418,9.922 -59.369,9.484C-61.343,9.22 -63.273,8.919 -65.167,8.452C-66.114,8.234 -67.053,7.986 -67.987,7.7C-68.947,7.425 -69.793,7.109 -70.868,6.735L-69.212,-3.586C-62.935,-4.439 -56.146,-5.531 -51.466,-7.645C-50.298,-8.144 -49.292,-8.726 -48.553,-9.321C-48.182,-9.611 -47.841,-9.878 -47.609,-10.155C-47.532,-10.244 -47.229,-10.514 -46.991,-10.734C-46.742,-10.967 -46.496,-11.165 -46.245,-11.425C-44.238,-13.371 -42.215,-15.7 -40.236,-18.174C-36.295,-23.155 -32.562,-28.688 -28.967,-34.338C-27.167,-37.166 -25.412,-40.047 -23.666,-42.934L-21.081,-47.282L-18.59,-51.546L0,-41.561Z" style="fill:rgb(0,124,255);fill-rule:nonzero;"/>
                </g>
                <g transform="matrix(-1,0,0,1,259.574,382.252)">
                    <path d="M-16.45,25.352L-5.502,25.352L0,0L-10.947,0L-16.45,25.352Z" style="fill:rgb(255,140,123);fill-rule:nonzero;"/>
                </g>
                <g transform="matrix(1,0,0,1,264.468,417.702)">
                    <path d="M0,-12.445L12.299,-12.445C12.747,-12.445 13.134,-12.134 13.231,-11.697L15.394,-1.966C15.618,-0.957 14.825,-0.002 13.791,-0.019C9.497,-0.093 7.411,-0.345 2.002,-0.345C-1.325,-0.345 -5.595,0 -10.19,0C-14.685,0 -15.386,-4.543 -13.504,-4.955C-5.069,-6.799 -4.477,-9.344 -1.777,-11.772C-1.29,-12.21 -0.655,-12.445 0,-12.445" style="fill:rgb(26,46,53);fill-rule:nonzero;"/>
                </g>
                <g opacity="0.2">
                    <g transform="matrix(-1,0,0,1,262.415,396.297)">
                        <path d="M-8.111,-14.038L2.841,-14.038L-0.212,0L-10.952,-0.971L-8.111,-14.038Z" style="fill-rule:nonzero;"/>
                    </g>
                </g>
                <g transform="matrix(-0.785928,-0.618318,-0.618318,0.785928,259.792,153.817)">
                    <path d="M-16.148,-27.867C-25.51,-22.353 -31.269,-19.601 -33.744,-12.196C-37.468,-1.054 -26.968,8.621 -16.148,6.016C-6.409,3.67 7.266,-4.954 6.295,-16.371C5.339,-27.619 -6.787,-33.381 -16.148,-27.867" style="fill:rgb(255,140,123);fill-rule:nonzero;"/>
                </g>
                <g transform="matrix(1,0,0,1,270.489,138.993)">
                    <path d="M0,18.068C-1.644,20.272 -2.896,21.937 -2.896,21.937C-2.896,21.937 -6.267,13.567 -4.977,9.73C-6.619,6.479 -9.928,11.269 -11.178,4.938C-12.427,-1.393 -7.023,-8.193 -4.977,-9.6C-4.689,-9.13 -4.704,-7.328 -4.704,-7.328C-4.704,-7.328 3.385,-14.538 14.904,-13.527C14.113,-12.736 13.805,-10.581 13.805,-10.581C13.805,-10.581 25.675,-8.544 28.372,-1.862C26.672,-2.683 25.382,-2.917 25.382,-2.917C25.382,-2.917 28.782,1.303 27.786,7.81C26.789,14.317 26.32,21.504 26.437,24.34C26.554,27.178 18.758,32.606 14.01,26.802C9.262,21 0,18.068 0,18.068" style="fill:rgb(26,46,53);fill-rule:nonzero;"/>
                </g>
                <g transform="matrix(-0.765859,-0.643009,-0.643009,0.765859,267.435,157.905)">
                    <path d="M-4.189,-7.466C-6.307,-6.01 -7.758,-3.743 -8.37,-1.702C-9.289,1.369 -6.862,2.532 -4.189,1.365C-1.782,0.315 1.596,-2.548 1.356,-5.481C1.119,-8.369 -1.769,-9.132 -4.189,-7.466" style="fill:rgb(255,140,123);fill-rule:nonzero;"/>
                </g>
                <g transform="matrix(1,0,0,1,296.003,392.433)">
                    <path d="M0,-123.328C0,-123.328 -50.839,-104.896 -52.337,-80.501C-55.098,-35.572 -36.72,0 -36.72,0L-19.88,-1.801C-19.88,-1.801 -22.874,-16.261 -25.111,-56.965C-27.923,-108.11 58.882,-55.766 41.005,-123.328L0,-123.328Z" style="fill:rgb(0,124,255);fill-rule:nonzero;"/>
                </g>
                <g opacity="0.5">
                    <g transform="matrix(1,0,0,1,296.003,392.433)">
                        <path d="M0,-123.328C0,-123.328 -50.839,-104.896 -52.337,-80.501C-55.098,-35.572 -36.72,0 -36.72,0L-19.88,-1.801C-19.88,-1.801 -22.874,-16.261 -25.111,-56.965C-27.923,-108.11 58.882,-55.766 41.005,-123.328L0,-123.328Z" style="fill:white;fill-rule:nonzero;"/>
                    </g>
                </g>
                <g transform="matrix(-0.222757,0.974874,0.974874,0.222757,272.032,378.439)">
                    <path d="M11.477,-15.24C11.502,-15.316 18.167,-10.962 18.167,-10.962L11.477,9.078L5.081,6.533L11.477,-15.24Z" style="fill:rgb(0,124,255);fill-rule:nonzero;"/>
                </g>
                <g transform="matrix(-1,0,0,1,214.584,383.493)">
                    <path d="M-14.146,25.352L-3.199,25.352L0,0L-10.947,0L-14.146,25.352Z" style="fill:rgb(255,140,123);fill-rule:nonzero;"/>
                </g>
                <g transform="matrix(1,0,0,1,217.696,417.712)">
                    <path d="M0,-12.459L11.955,-12.476C12.403,-12.476 12.791,-12.165 12.889,-11.729L15.064,-2.001C15.29,-0.993 14.525,-0.035 13.492,-0.052C9.179,-0.119 2.947,-0.363 -2.473,-0.355C-8.811,-0.347 -10.026,0 -17.458,0.011C-21.953,0.017 -23.207,-4.525 -21.326,-4.939C-12.764,-6.824 -10.03,-7.029 -2.636,-11.603C-1.832,-12.1 -0.945,-12.457 0,-12.459" style="fill:rgb(26,46,53);fill-rule:nonzero;"/>
                </g>
                <g opacity="0.2">
                    <g transform="matrix(0.125025,0.992154,0.992154,-0.125025,226.949,383.291)">
                        <path d="M-1.338,-12.291L12.579,-12.291L13.202,-1.424L0.031,-1.425L-1.338,-12.291Z" style="fill-rule:nonzero;"/>
                    </g>
                </g>
                <g transform="matrix(1,0,0,1,278.455,391.2)">
                    <path d="M0,-122.095C0,-122.095 -83.308,-114.706 -82.409,-72.869C-81.474,-29.352 -65.217,0 -65.217,0L-48.951,0C-48.951,0 -52.034,-22.574 -51.488,-65.418C-51.324,-78.253 -25.389,-82.494 -0.06,-83.991C21.82,-85.285 42.3,-97.756 50.8,-117.959L52.54,-122.095L0,-122.095Z" style="fill:rgb(0,124,255);fill-rule:nonzero;"/>
                </g>
                <g opacity="0.5">
                    <g transform="matrix(1,0,0,1,278.455,391.2)">
                        <path d="M0,-122.095C0,-122.095 -83.308,-114.706 -82.409,-72.869C-81.474,-29.352 -65.217,0 -65.217,0L-48.951,0C-48.951,0 -52.034,-22.574 -51.488,-65.418C-51.324,-78.253 -25.389,-82.494 -0.06,-83.991C21.82,-85.285 42.3,-97.756 50.8,-117.959L52.54,-122.095L0,-122.095Z" style="fill:white;fill-rule:nonzero;"/>
                    </g>
                </g>
                <g transform="matrix(-0.263194,0.964743,0.964743,0.263194,226.843,380.36)">
                    <path d="M10.82,-15.094C10.845,-15.164 17.341,-10.425 17.341,-10.425L10.82,8.147L4.555,5.252L10.82,-15.094Z" style="fill:rgb(0,124,255);fill-rule:nonzero;"/>
                </g>
                <g transform="matrix(1,0,0,1,300.316,316.066)">
                    <path d="M0,-93.985L-10.567,-53.254C-13.262,-42.864 -14.629,-32.113 -14.629,-21.309L-14.629,-2.376C-14.629,2.406 -11.105,6.281 -6.758,6.281L47.428,6.281C51.775,6.281 55.298,2.406 55.298,-2.376L55.298,-21.309C55.298,-32.113 56.666,-42.864 59.361,-53.254L68.695,-89.236C70.129,-94.764 66.354,-100.266 61.126,-100.266L7.568,-100.266C4.053,-100.266 0.964,-97.703 0,-93.985" style="fill:rgb(26,46,53);fill-rule:nonzero;"/>
                </g>
                <g transform="matrix(1,0,0,1,232.928,311.4)">
                    <path d="M0,-8.774L1.774,1.326C2.707,6.639 7.38,10.947 12.212,10.947L72.443,10.947C77.274,10.947 80.435,6.639 79.502,1.326L77.728,-8.774C76.667,-14.82 71.349,-19.721 65.851,-19.721L8.032,-19.721C2.534,-19.721 -1.062,-14.82 0,-8.774" style="fill:rgb(26,46,53);fill-rule:nonzero;"/>
                </g>
                <g transform="matrix(-1,0,0,1,279.618,322.346)">
                    <path d="M-31.551,10.144L0,10.144L3.081,0L-34.632,0L-31.551,10.144Z" style="fill:rgb(0,124,255);fill-rule:nonzero;"/>
                </g>
                <g transform="matrix(-1,0,0,1,590.787,240.392)">
                    <rect x="289.757" y="92.098" width="11.273" height="75.412" style="fill:rgb(0,124,255);"/>
                </g>
                <g opacity="0.7">
                    <g transform="matrix(-1,0,0,1,289.757,334.301)">
                        <path d="M-11.273,73.601L0,73.601L0,0L-11.273,1.147L-11.273,73.601Z" style="fill:white;fill-rule:nonzero;"/>
                    </g>
                </g>
                <g opacity="0.7">
                    <g transform="matrix(-1,0,0,1,295.587,334.894)">
                        <path d="M-2.693,73.008L0,73.008L0,0L-2.693,0.275L-2.693,73.008Z" style="fill:white;fill-rule:nonzero;"/>
                    </g>
                </g>
                <g transform="matrix(1,0,0,1,321.313,406.475)">
                    <path d="M0,13.081L-51.84,13.081C-53.227,13.081 -53.807,11.31 -52.688,10.489L-44.459,4.457C-40.51,1.561 -35.74,0 -30.843,0L-20.997,0C-16.1,0 -11.33,1.561 -7.38,4.457L0.848,10.489C1.966,11.31 1.387,13.081 0,13.081" style="fill:rgb(0,124,255);fill-rule:nonzero;"/>
                </g>
            </g>
        </g>
    </g>
</svg>
