<?xml version="1.0" encoding="UTF-8" standalone="no"?>
<!DOCTYPE svg PUBLIC "-//W3C//DTD SVG 1.1//EN" "http://www.w3.org/Graphics/SVG/1.1/DTD/svg11.dtd">
<svg width="100%" height="100%" viewBox="0 0 155 127" version="1.1" xmlns="http://www.w3.org/2000/svg" xmlns:xlink="http://www.w3.org/1999/xlink" xml:space="preserve" xmlns:serif="http://www.serif.com/" style="fill-rule:evenodd;clip-rule:evenodd;stroke-linejoin:round;stroke-miterlimit:2;">
    <g transform="matrix(1,0,0,1,-2847.5,-1915)">
        <g transform="matrix(1,0,0,1,2385,1216)">
            <g transform="matrix(1.83113,0,0,1.82083,-198.823,267.734)">
                <path d="M371.359,274.048C369.513,274.048 368.01,275.55 368.01,277.398L368.01,301.283C368.01,303.13 369.513,304.631 371.359,304.631L435.261,304.631C437.108,304.631 438.611,303.13 438.611,301.283L438.611,277.398C438.611,275.55 437.108,274.048 435.261,274.048L371.359,274.048ZM435.261,306.103L371.359,306.103C368.701,306.103 366.538,303.941 366.538,301.283L366.538,277.398C366.538,274.739 368.701,272.576 371.359,272.576L435.261,272.576C437.92,272.576 440.083,274.739 440.083,277.398L440.083,301.283C440.083,303.941 437.92,306.103 435.261,306.103Z" style="fill:rgb(2,3,129);fill-rule:nonzero;"/>
            </g>
            <g transform="matrix(1.83113,0,0,1.82083,-198.607,267.734)">
                <path d="M365.205,278.133C363.719,278.133 362.51,279.342 362.51,280.829L362.51,297.852C362.51,299.338 363.719,300.547 365.205,300.547L366.538,300.547L366.538,278.133L365.205,278.133ZM367.273,302.018L365.205,302.018C362.907,302.018 361.038,300.149 361.038,297.852L361.038,280.829C361.038,278.531 362.907,276.662 365.205,276.662L367.273,276.662C367.681,276.662 368.01,276.991 368.01,277.398L368.01,301.283C368.01,301.689 367.681,302.018 367.273,302.018Z" style="fill:rgb(2,3,129);fill-rule:nonzero;"/>
            </g>
            <g transform="matrix(1.83113,0,0,1.82083,-198.418,267.734)">
                <path d="M440.083,300.547L441.416,300.547C442.901,300.547 444.11,299.338 444.11,297.852L444.11,280.829C444.11,279.342 442.901,278.133 441.416,278.133L440.083,278.133L440.083,300.547ZM441.416,302.018L439.347,302.018C438.94,302.018 438.611,301.689 438.611,301.283L438.611,277.398C438.611,276.991 438.94,276.662 439.347,276.662L441.416,276.662C443.713,276.662 445.582,278.531 445.582,280.829L445.582,297.852C445.582,300.149 443.713,302.018 441.416,302.018Z" style="fill:rgb(2,3,129);fill-rule:nonzero;"/>
            </g>
            <g transform="matrix(1.83113,0,0,2.86017,-198.823,-17.0947)">
                <path d="M385.391,272.226L421.229,272.226L421.229,272.467L385.391,272.467L385.391,272.226ZM421.966,274.048L384.654,274.048C384.248,274.048 383.919,273.718 383.919,273.312L383.919,251.104C383.919,250.697 384.248,250.368 384.654,250.368L421.966,250.368C422.373,250.368 422.702,250.697 422.702,251.104L422.702,273.312C422.702,273.718 422.373,274.048 421.966,274.048Z" style="fill:rgb(2,3,129);fill-rule:nonzero;"/>
            </g>
            <g transform="matrix(1.83113,0,0,1.82083,-198.823,267.734)">
                <path d="M378.982,272.576L383.919,272.576L383.919,265.353L382.037,265.353C380.352,265.353 378.982,266.723 378.982,268.407L378.982,272.576ZM384.654,274.048L378.246,274.048C377.84,274.048 377.511,273.718 377.511,273.312L377.511,268.407C377.511,265.911 379.541,263.881 382.037,263.881L384.654,263.881C385.061,263.881 385.391,264.211 385.391,264.617L385.391,273.312C385.391,273.718 385.061,274.048 384.654,274.048Z" style="fill:rgb(2,3,129);fill-rule:nonzero;"/>
            </g>
            <g transform="matrix(1.83113,0,0,1.82083,-198.823,267.734)">
                <path d="M422.702,272.576L427.637,272.576L427.637,268.407C427.637,266.723 426.267,265.353 424.583,265.353L422.702,265.353L422.702,272.576ZM428.373,274.048L421.966,274.048C421.559,274.048 421.229,273.718 421.229,273.312L421.229,264.617C421.229,264.211 421.559,263.881 421.966,263.881L424.583,263.881C427.078,263.881 429.108,265.911 429.108,268.407L429.108,273.312C429.108,273.718 428.779,274.048 428.373,274.048Z" style="fill:rgb(2,3,129);fill-rule:nonzero;"/>
            </g>
            <g transform="matrix(1.83113,0,0,1.82083,-198.823,267.734)">
                <path d="M429.822,278.71C428.538,278.71 427.494,279.755 427.494,281.038C427.494,282.322 428.538,283.366 429.822,283.366C431.106,283.366 432.15,282.322 432.15,281.038C432.15,279.755 431.106,278.71 429.822,278.71ZM429.822,284.839C427.726,284.839 426.021,283.133 426.021,281.038C426.021,278.943 427.726,277.238 429.822,277.238C431.918,277.238 433.623,278.943 433.623,281.038C433.623,283.133 431.918,284.839 429.822,284.839Z" style="fill:rgb(2,3,129);fill-rule:nonzero;"/>
            </g>
            <g transform="matrix(1.83113,0,0,1.82083,-198.823,267.734)">
                <path d="M431.629,288.923L428.016,288.923C427.608,288.923 427.279,288.594 427.279,288.188C427.279,287.781 427.608,287.452 428.016,287.452L431.629,287.452C432.036,287.452 432.365,287.781 432.365,288.188C432.365,288.594 432.036,288.923 431.629,288.923Z" style="fill:rgb(2,3,129);fill-rule:nonzero;"/>
            </g>
            <g transform="matrix(1.83113,0,0,1.82083,-198.823,267.734)">
                <path d="M430.607,302.018L376.012,302.018C375.605,302.018 375.276,301.689 375.276,301.283C375.276,300.876 375.605,300.547 376.012,300.547L430.607,300.547C431.015,300.547 431.344,300.876 431.344,301.283C431.344,301.689 431.015,302.018 430.607,302.018Z" style="fill:rgb(2,3,129);fill-rule:nonzero;"/>
            </g>
            <g transform="matrix(1,0,0,4,-2383.81,-7031)">
                <path d="M2950,1935.5C2950,1935.22 2949.1,1935 2948,1935L2899,1935C2897.9,1935 2897,1935.22 2897,1935.5C2897,1935.78 2897.9,1936 2899,1936L2948,1936C2949.1,1936 2950,1935.78 2950,1935.5Z" style="fill:white;"/>
            </g>
            <g transform="matrix(1,0,0,4,-2383.81,-6988)">
                <path d="M2950,1935.5C2950,1935.22 2949.1,1935 2948,1935L2899,1935C2897.9,1935 2897,1935.22 2897,1935.5C2897,1935.78 2897.9,1936 2899,1936L2948,1936C2949.1,1936 2950,1935.78 2950,1935.5Z" style="fill:white;"/>
            </g>
        </g>
    </g>
</svg>
