<?xml version="1.0" encoding="UTF-8" standalone="no"?>
<!DOCTYPE svg PUBLIC "-//W3C//DTD SVG 1.1//EN" "http://www.w3.org/Graphics/SVG/1.1/DTD/svg11.dtd">
<svg width="100%" height="100%" viewBox="0 0 1080 805" version="1.1" xmlns="http://www.w3.org/2000/svg" xmlns:xlink="http://www.w3.org/1999/xlink" xml:space="preserve" xmlns:serif="http://www.serif.com/" style="fill-rule:evenodd;clip-rule:evenodd;stroke-linejoin:round;stroke-miterlimit:2;">
    <g transform="matrix(1,0,0,1,-2385,-1309.5)">
        <g transform="matrix(1,0,0,1,2385,1216)">
            <g transform="matrix(2.16,0,0,2.16,0,-25.1976)">
                <g transform="matrix(1,0,0,1,0,265.047)">
                    <rect x="0" y="117.352" width="500" height="0.249" style="fill:rgb(236,236,236);"/>
                </g>
                <g transform="matrix(1,0,0,1,0,297.239)">
                    <rect x="416.779" y="101.256" width="33.122" height="0.249" style="fill:rgb(236,236,236);"/>
                </g>
                <g transform="matrix(1,0,0,1,0,297.239)">
                    <rect x="333.381" y="101.256" width="70.807" height="0.249" style="fill:rgb(236,236,236);"/>
                </g>
                <g transform="matrix(1,0,0,1,0,278.666)">
                    <rect x="275.141" y="110.542" width="19.193" height="0.25" style="fill:rgb(236,236,236);"/>
                </g>
                <g transform="matrix(1,0,0,1,0,282.028)">
                    <rect x="52.459" y="108.861" width="34.29" height="0.25" style="fill:rgb(236,236,236);"/>
                </g>
                <g transform="matrix(1,0,0,1,0,282.028)">
                    <rect x="95.652" y="108.861" width="62.348" height="0.25" style="fill:rgb(236,236,236);"/>
                </g>
                <g transform="matrix(1,0,0,1,0,290.472)">
                    <rect x="188.333" y="104.639" width="36.814" height="0.25" style="fill:rgb(236,236,236);"/>
                </g>
                <g transform="matrix(1,0,0,1,43.915,337.55)">
                    <path d="M0,-282.347C-3.01,-282.347 -5.458,-279.899 -5.458,-276.889L-5.458,-5.458C-5.458,-2.448 -3.01,0 0,0L193.099,0C196.107,0 198.556,-2.448 198.556,-5.458L198.556,-276.889C198.556,-279.899 196.107,-282.347 193.099,-282.347L0,-282.347ZM193.099,0.25L0,0.25C-3.147,0.25 -5.708,-2.31 -5.708,-5.458L-5.708,-276.889C-5.708,-280.036 -3.147,-282.597 0,-282.597L193.099,-282.597C196.245,-282.597 198.806,-280.036 198.806,-276.889L198.806,-5.458C198.806,-2.31 196.245,0.25 193.099,0.25" style="fill:rgb(236,236,236);fill-rule:nonzero;"/>
                </g>
                <g transform="matrix(1,0,0,1,260.212,337.55)">
                    <path d="M0,-282.347C-3.009,-282.347 -5.457,-279.899 -5.457,-276.889L-5.457,-5.458C-5.457,-2.448 -3.009,0 0,0L193.099,0C196.108,0 198.557,-2.448 198.557,-5.458L198.557,-276.889C198.557,-279.899 196.108,-282.347 193.099,-282.347L0,-282.347ZM193.099,0.25L0,0.25C-3.146,0.25 -5.707,-2.31 -5.707,-5.458L-5.707,-276.889C-5.707,-280.036 -3.146,-282.597 0,-282.597L193.099,-282.597C196.246,-282.597 198.807,-280.036 198.807,-276.889L198.807,-5.458C198.807,-2.31 196.246,0.25 193.099,0.25" style="fill:rgb(236,236,236);fill-rule:nonzero;"/>
                </g>
                <g transform="matrix(1,0,0,1,0,119.004)">
                    <rect x="336.999" y="123.215" width="18.507" height="134.566" style="fill:rgb(240,240,240);"/>
                </g>
                <g transform="matrix(1,0,0,1,0,259.183)">
                    <rect x="148.047" y="117.602" width="203.905" height="5.613" style="fill:rgb(240,240,240);"/>
                </g>
                <g transform="matrix(-1,0,0,1,481.494,119.004)">
                    <rect x="144.495" y="123.215" width="192.504" height="134.566" style="fill:rgb(245,245,245);"/>
                </g>
                <g transform="matrix(1,0,0,1,0,-20.462)">
                    <rect x="336.999" y="257.782" width="18.507" height="4.898" style="fill:rgb(231,231,231);"/>
                </g>
                <g transform="matrix(-1,0,0,1,481.494,-20.462)">
                    <rect x="144.495" y="257.782" width="192.504" height="4.898" style="fill:rgb(240,240,240);"/>
                </g>
                <g transform="matrix(1,0,0,1,0,35.3)">
                    <path d="M152.393,246.255L329.101,246.255L329.101,218.445L152.393,218.445L152.393,246.255ZM330.345,247.499L151.149,247.499L151.149,217.201L330.345,217.201L330.345,247.499Z" style="fill:rgb(225,225,225);fill-rule:nonzero;"/>
                </g>
                <g transform="matrix(1,0,0,1,0,156.731)">
                    <path d="M152.393,208.528L329.101,208.528L329.101,134.741L152.393,134.741L152.393,208.528ZM330.345,209.772L151.149,209.772L151.149,133.497L330.345,133.497L330.345,209.772Z" style="fill:rgb(225,225,225);fill-rule:nonzero;"/>
                </g>
                <g transform="matrix(1,0,0,1,0,10.23)">
                    <rect x="175.292" y="242.893" width="130.91" height="3.984" style="fill:rgb(225,225,225);"/>
                </g>
                <g transform="matrix(1,0,0,1,0,85.684)">
                    <rect x="175.292" y="205.166" width="130.91" height="3.984" style="fill:rgb(225,225,225);"/>
                </g>
                <g transform="matrix(1,0,0,1,420.902,144.778)">
                    <path d="M0,234.049C-0.815,234.049 -1.482,233.382 -1.482,232.567L-1.482,1.481C-1.482,0.667 -0.815,0 0,0C0.815,0 1.481,0.667 1.481,1.481L1.481,232.567C1.481,233.382 0.815,234.049 0,234.049" style="fill:rgb(245,245,245);fill-rule:nonzero;"/>
                </g>
                <g transform="matrix(1,0,0,1,427.942,375.254)">
                    <path d="M0,7.144L-14.08,7.144L-14.08,4.064C-14.08,1.82 -12.261,0 -10.017,0L-4.063,0C-1.819,0 0,1.82 0,4.064L0,7.144Z" style="fill:rgb(240,240,240);fill-rule:nonzero;"/>
                </g>
                <g transform="matrix(1,0,0,1,392.138,148.674)">
                    <path d="M0,28.277C0,28.277 0.731,0 28.765,0C56.798,0 57.529,28.277 57.529,28.277L0,28.277Z" style="fill:rgb(225,225,225);fill-rule:nonzero;"/>
                </g>
                <g transform="matrix(1,0,0,1,79.0962,144.778)">
                    <path d="M0,234.049C-0.815,234.049 -1.481,233.382 -1.481,232.567L-1.481,1.481C-1.481,0.667 -0.815,0 0,0C0.815,0 1.482,0.667 1.482,1.481L1.482,232.567C1.482,233.382 0.815,234.049 0,234.049" style="fill:rgb(245,245,245);fill-rule:nonzero;"/>
                </g>
                <g transform="matrix(1,0,0,1,86.1362,375.254)">
                    <path d="M0,7.144L-14.08,7.144L-14.08,4.064C-14.08,1.82 -12.261,0 -10.017,0L-4.063,0C-1.819,0 0,1.82 0,4.064L0,7.144Z" style="fill:rgb(240,240,240);fill-rule:nonzero;"/>
                </g>
                <g transform="matrix(1,0,0,1,50.333,148.674)">
                    <path d="M0,28.277C0,28.277 0.731,0 28.764,0C56.797,0 57.529,28.277 57.529,28.277L0,28.277Z" style="fill:rgb(225,225,225);fill-rule:nonzero;"/>
                </g>
                <g transform="matrix(-1,0,0,1,500.951,-27.48)">
                    <rect x="214.905" y="262.68" width="71.141" height="2.12" style="fill:rgb(225,225,225);"/>
                </g>
                <g transform="matrix(-1,0,0,1,221.752,194.472)">
                    <path d="M-64.294,40.728L6.847,40.728L-0.001,0L-71.141,0L-64.294,40.728Z" style="fill:rgb(225,225,225);fill-rule:nonzero;"/>
                </g>
                <g transform="matrix(-1,0,0,1,220.433,194.472)">
                    <path d="M-64.293,40.728L6.848,40.728L0,0L-71.141,0L-64.293,40.728Z" style="fill:rgb(236,236,236);fill-rule:nonzero;"/>
                </g>
                <g transform="matrix(1,0,0,1,216.287,197.672)">
                    <path d="M0,34.327L5.822,-0.303C5.896,-0.743 6.277,-1.066 6.724,-1.066L71.682,-1.066C72.248,-1.066 72.678,-0.558 72.584,0L66.762,34.631C66.688,35.071 66.307,35.393 65.86,35.393L0.902,35.393C0.336,35.393 -0.094,34.885 0,34.327" style="fill:rgb(250,250,250);fill-rule:nonzero;"/>
                </g>
                <g transform="matrix(-1,0,0,1,468.762,-27.48)">
                    <rect x="198.811" y="262.68" width="71.14" height="2.12" style="fill:rgb(240,240,240);"/>
                </g>
                <g transform="matrix(-1,0,0,1,497.298,-263.569)">
                    <rect x="154.411" y="351.326" width="188.476" height="60.917" style="fill:rgb(236,236,236);"/>
                </g>
                <g transform="matrix(1,0,0,1,0,-263.569)">
                    <rect x="342.887" y="351.326" width="2.702" height="60.917" style="fill:rgb(225,225,225);"/>
                </g>
                <g transform="matrix(-1,0,0,1,497.299,-263.57)">
                    <rect x="162.664" y="359.579" width="171.971" height="44.412" style="fill:white;"/>
                </g>
                <g transform="matrix(-0.707107,-0.707107,-0.707107,0.707107,255.969,110.896)">
                    <rect x="-7.319" y="3.032" width="14.639" height="14.639" style="fill:rgb(245,245,245);"/>
                </g>
                <g transform="matrix(-0.707107,-0.707107,-0.707107,0.707107,228.181,110.896)">
                    <rect x="-7.319" y="3.032" width="14.639" height="14.639" style="fill:rgb(245,245,245);"/>
                </g>
                <g transform="matrix(-0.707107,-0.707107,-0.707107,0.707107,200.393,110.896)">
                    <rect x="-7.319" y="3.032" width="14.639" height="14.639" style="fill:rgb(245,245,245);"/>
                </g>
                <g transform="matrix(-0.707107,-0.707107,-0.707107,0.707107,283.757,110.896)">
                    <rect x="-7.319" y="3.032" width="14.639" height="14.639" style="fill:rgb(245,245,245);"/>
                </g>
                <g transform="matrix(-0.707107,-0.707107,-0.707107,0.707107,311.544,110.896)">
                    <rect x="-7.319" y="3.032" width="14.639" height="14.639" style="fill:rgb(245,245,245);"/>
                </g>
                <g transform="matrix(0,-1,-1,0,250,222.349)">
                    <path d="M-193.889,-193.889C-200.143,-193.889 -205.212,-107.082 -205.212,0C-205.212,107.082 -200.143,193.889 -193.889,193.889C-187.635,193.889 -182.566,107.082 -182.566,0C-182.566,-107.082 -187.635,-193.889 -193.889,-193.889" style="fill:rgb(245,245,245);fill-rule:nonzero;"/>
                </g>
                <g transform="matrix(1,0,0,1,362.939,318.409)">
                    <path d="M0,-195.362C0.33,-200.34 -3.438,-204.376 -8.416,-204.376L-146.852,-204.376C-151.83,-204.376 -156.133,-200.34 -156.463,-195.362L-159.64,-147.448L-179.572,0.001C-180.245,4.979 -176.754,9.014 -171.777,9.014L-33.341,9.014C-28.363,9.014 -23.782,4.979 -23.109,0.001L-3.177,-147.448L0,-195.362Z" style="fill:rgb(0,124,255);fill-rule:nonzero;"/>
                </g>
                <g opacity="0.2">
                    <g transform="matrix(1,0,0,1,362.939,318.409)">
                        <path d="M0,-195.362C0.33,-200.34 -3.438,-204.376 -8.416,-204.376L-146.852,-204.376C-151.83,-204.376 -156.133,-200.34 -156.463,-195.362L-159.64,-147.448L-179.572,0.001C-180.245,4.979 -176.754,9.014 -171.777,9.014L-33.341,9.014C-28.363,9.014 -23.782,4.979 -23.109,0.001L-3.177,-147.448L0,-195.362Z" style="fill-rule:nonzero;"/>
                    </g>
                </g>
                <g transform="matrix(1,0,0,1,324.671,170.961)">
                    <path d="M0,156.463L-138.436,156.463C-143.414,156.463 -146.904,152.427 -146.231,147.449L-126.299,0L30.164,0L10.231,147.449C9.559,152.427 4.978,156.463 0,156.463" style="fill:rgb(0,124,255);fill-rule:nonzero;"/>
                </g>
                <g transform="matrix(-1,0,0,1,452.717,-277.934)">
                    <rect x="216.05" y="388.467" width="20.617" height="1" style="fill:rgb(0,124,255);"/>
                </g>
                <g transform="matrix(-0.414104,-0.910229,-0.910229,0.414104,210.381,113.163)">
                    <path d="M2.207,3.484L3.207,3.484C3.205,1.632 2.823,-0.145 2.071,-1.798L1.161,-1.384C1.854,0.139 2.206,1.776 2.207,3.484" style="fill:rgb(0,124,255);fill-rule:nonzero;"/>
                </g>
                <g transform="matrix(1,0,0,1,349.596,170.961)">
                    <path d="M0,-56.928L-138.436,-56.928C-143.414,-56.928 -147.717,-52.892 -148.047,-47.914L-151.224,0L5.239,0L8.416,-47.914C8.746,-52.892 4.978,-56.928 0,-56.928" style="fill:rgb(0,124,255);fill-rule:nonzero;"/>
                </g>
                <g opacity="0.9">
                    <g transform="matrix(1,0,0,1,206.102,125.733)">
                        <path d="M0,33.528L2.223,0C2.396,-2.621 4.662,-4.746 7.283,-4.746L140.347,-4.746C142.968,-4.746 144.952,-2.621 144.778,0L142.555,33.528C142.381,36.149 140.115,38.274 137.495,38.274L4.431,38.274C1.81,38.274 -0.174,36.149 0,33.528" style="fill:white;fill-rule:nonzero;"/>
                    </g>
                </g>
                <g opacity="0.4">
                    <g transform="matrix(1,0,0,1,336.863,127.295)">
                        <path d="M0,-0.811L-1.511,0.597C-1.586,0.667 -1.686,0.707 -1.789,0.707L-9.81,0.708C-9.924,0.708 -10.033,0.661 -10.11,0.577L-11.411,-0.83C-11.653,-1.092 -11.467,-1.517 -11.111,-1.517L-0.279,-1.519C0.092,-1.519 0.271,-1.064 0,-0.811" style="fill:rgb(0,124,255);fill-rule:nonzero;"/>
                    </g>
                    <g transform="matrix(1,0,0,1,334.74,150.246)">
                        <path d="M0,2.223L-10.832,2.225C-11.203,2.225 -11.382,1.771 -11.111,1.518L-9.605,0.11C-9.53,0.039 -9.43,-0 -9.326,-0L-1.305,-0.002C-1.191,-0.002 -1.083,0.046 -1.005,0.129L0.3,1.536C0.542,1.798 0.357,2.223 0,2.223" style="fill:rgb(0,124,255);fill-rule:nonzero;"/>
                    </g>
                    <g transform="matrix(1,0,0,1,335.794,138.843)">
                        <path d="M0,0.561L-0.777,1.283C-0.853,1.353 -0.953,1.393 -1.056,1.393L-10.441,1.394C-10.678,1.394 -10.866,1.193 -10.849,0.956L-10.746,-0.451C-10.73,-0.665 -10.553,-0.831 -10.338,-0.831L-0.912,-0.833C-0.798,-0.833 -0.689,-0.785 -0.611,-0.701L0.022,-0.016C0.175,0.149 0.165,0.408 0,0.561" style="fill:rgb(0,124,255);fill-rule:nonzero;"/>
                    </g>
                    <g transform="matrix(1,0,0,1,337.073,150.954)">
                        <path d="M0,-10.786L-0.792,0.072C-0.817,0.429 -1.257,0.583 -1.5,0.32L-2.796,-1.087C-2.873,-1.17 -2.911,-1.281 -2.903,-1.394L-2.316,-9.442C-2.309,-9.545 -2.263,-9.641 -2.188,-9.711L-0.687,-11.115C-0.415,-11.369 0.027,-11.157 0,-10.786" style="fill:rgb(0,124,255);fill-rule:nonzero;"/>
                    </g>
                    <g transform="matrix(1,0,0,1,338.009,138.109)">
                        <path d="M0,-10.786L-0.791,0.072C-0.817,0.429 -1.257,0.583 -1.5,0.319L-2.796,-1.087C-2.872,-1.17 -2.911,-1.282 -2.903,-1.394L-2.316,-9.443C-2.309,-9.545 -2.263,-9.641 -2.188,-9.712L-0.687,-11.115C-0.415,-11.369 0.027,-11.157 0,-10.786" style="fill:rgb(0,124,255);fill-rule:nonzero;"/>
                    </g>
                </g>
                <g opacity="0.4">
                    <g transform="matrix(1,0,0,1,319.519,157.104)">
                        <path d="M0,-0.151C0.051,-0.915 0.719,-1.54 1.484,-1.54L18.465,-1.54C19.314,-1.54 19.962,-0.847 19.906,-0.001L19.906,0.001C19.855,0.765 19.187,1.389 18.422,1.389L1.441,1.389C0.592,1.389 -0.056,0.696 0,-0.151" style="fill:rgb(0,124,255);fill-rule:nonzero;"/>
                    </g>
                </g>
                <g opacity="0.4">
                    <g transform="matrix(1,0,0,1,298.26,157.104)">
                        <path d="M0,-0.151C0.05,-0.915 0.719,-1.54 1.484,-1.54L18.465,-1.54C19.314,-1.54 19.962,-0.847 19.906,-0.001L19.906,0.001C19.855,0.765 19.187,1.389 18.422,1.389L1.441,1.389C0.592,1.389 -0.056,0.696 0,-0.151" style="fill:rgb(0,124,255);fill-rule:nonzero;"/>
                    </g>
                </g>
                <g opacity="0.4">
                    <g transform="matrix(1,0,0,1,277,157.104)">
                        <path d="M0,-0.151C0.05,-0.915 0.718,-1.54 1.484,-1.54L18.465,-1.54C19.313,-1.54 19.962,-0.847 19.906,-0.001L19.906,0.001C19.855,0.765 19.187,1.389 18.422,1.389L1.441,1.389C0.592,1.389 -0.056,0.696 0,-0.151" style="fill:rgb(0,124,255);fill-rule:nonzero;"/>
                    </g>
                </g>
                <g opacity="0.4">
                    <g transform="matrix(1,0,0,1,255.74,157.104)">
                        <path d="M0,-0.151C0.05,-0.915 0.718,-1.54 1.484,-1.54L18.465,-1.54C19.313,-1.54 19.962,-0.847 19.906,-0.001L19.906,0.001C19.855,0.765 19.187,1.389 18.422,1.389L1.441,1.389C0.592,1.389 -0.056,0.696 0,-0.151" style="fill:rgb(0,124,255);fill-rule:nonzero;"/>
                    </g>
                </g>
                <g opacity="0.1">
                    <g transform="matrix(1,0,0,1,208.794,193.097)">
                        <path d="M0,46.278L6.256,0.001C6.67,-3.062 9.489,-5.546 12.552,-5.546L58.829,-5.546C61.892,-5.546 64.04,-3.062 63.625,0.001L57.37,46.278C56.956,49.341 54.137,51.824 51.074,51.824L4.797,51.824C1.733,51.824 -0.414,49.341 0,46.278" style="fill:rgb(26,46,53);fill-rule:nonzero;"/>
                    </g>
                </g>
                <g opacity="0.1">
                    <g transform="matrix(1,0,0,1,274.706,193.097)">
                        <path d="M0,46.278L6.256,0.001C6.669,-3.062 9.489,-5.546 12.552,-5.546L58.829,-5.546C61.892,-5.546 64.04,-3.062 63.625,0.001L57.37,46.278C56.956,49.341 54.137,51.824 51.073,51.824L4.796,51.824C1.733,51.824 -0.414,49.341 0,46.278" style="fill:rgb(26,46,53);fill-rule:nonzero;"/>
                    </g>
                </g>
                <g opacity="0.1">
                    <g transform="matrix(1,0,0,1,199.885,259.009)">
                        <path d="M0,46.277L6.256,0C6.669,-3.063 9.489,-5.546 12.552,-5.546L58.829,-5.546C61.892,-5.546 64.04,-3.063 63.625,0L57.37,46.277C56.956,49.34 54.137,51.823 51.073,51.823L4.796,51.823C1.733,51.823 -0.414,49.34 0,46.277" style="fill:rgb(26,46,53);fill-rule:nonzero;"/>
                    </g>
                </g>
                <g opacity="0.1">
                    <g transform="matrix(1,0,0,1,265.796,259.009)">
                        <path d="M0,46.277L6.256,0C6.67,-3.063 9.489,-5.546 12.552,-5.546L58.829,-5.546C61.892,-5.546 64.04,-3.063 63.625,0L57.37,46.277C56.956,49.34 54.137,51.823 51.074,51.823L4.797,51.823C1.733,51.823 -0.414,49.34 0,46.277" style="fill:rgb(26,46,53);fill-rule:nonzero;"/>
                    </g>
                </g>
                <g transform="matrix(1,0,0,1,205.715,193.097)">
                    <path d="M0,46.278L6.255,0.001C6.669,-3.062 9.488,-5.546 12.552,-5.546L58.829,-5.546C61.892,-5.546 64.039,-3.062 63.625,0.001L57.369,46.278C56.955,49.341 54.136,51.824 51.073,51.824L4.796,51.824C1.733,51.824 -0.415,49.341 0,46.278" style="fill:rgb(0,124,255);fill-rule:nonzero;"/>
                </g>
                <g opacity="0.2">
                    <g transform="matrix(1,0,0,1,205.715,193.097)">
                        <path d="M0,46.278L6.255,0.001C6.669,-3.062 9.488,-5.546 12.552,-5.546L58.829,-5.546C61.892,-5.546 64.039,-3.062 63.625,0.001L57.369,46.278C56.955,49.341 54.136,51.824 51.073,51.824L4.796,51.824C1.733,51.824 -0.415,49.341 0,46.278" style="fill:white;fill-rule:nonzero;"/>
                    </g>
                </g>
                <g transform="matrix(1,0,0,1,271.626,193.097)">
                    <path d="M0,46.278L6.256,0.001C6.67,-3.062 9.489,-5.546 12.552,-5.546L58.829,-5.546C61.892,-5.546 64.04,-3.062 63.625,0.001L57.37,46.278C56.956,49.341 54.137,51.824 51.074,51.824L4.796,51.824C1.733,51.824 -0.414,49.341 0,46.278" style="fill:rgb(0,124,255);fill-rule:nonzero;"/>
                </g>
                <g opacity="0.2">
                    <g transform="matrix(1,0,0,1,271.626,193.097)">
                        <path d="M0,46.278L6.256,0.001C6.67,-3.062 9.489,-5.546 12.552,-5.546L58.829,-5.546C61.892,-5.546 64.04,-3.062 63.625,0.001L57.37,46.278C56.956,49.341 54.137,51.824 51.074,51.824L4.796,51.824C1.733,51.824 -0.414,49.341 0,46.278" style="fill:white;fill-rule:nonzero;"/>
                    </g>
                </g>
                <g transform="matrix(1,0,0,1,196.805,259.009)">
                    <path d="M0,46.277L6.256,0C6.67,-3.063 9.489,-5.546 12.552,-5.546L58.829,-5.546C61.892,-5.546 64.04,-3.063 63.625,0L57.37,46.277C56.956,49.34 54.137,51.823 51.074,51.823L4.796,51.823C1.733,51.823 -0.414,49.34 0,46.277" style="fill:rgb(0,124,255);fill-rule:nonzero;"/>
                </g>
                <g opacity="0.2">
                    <g transform="matrix(1,0,0,1,196.805,259.009)">
                        <path d="M0,46.277L6.256,0C6.67,-3.063 9.489,-5.546 12.552,-5.546L58.829,-5.546C61.892,-5.546 64.04,-3.063 63.625,0L57.37,46.277C56.956,49.34 54.137,51.823 51.074,51.823L4.796,51.823C1.733,51.823 -0.414,49.34 0,46.277" style="fill:white;fill-rule:nonzero;"/>
                    </g>
                </g>
                <g transform="matrix(1,0,0,1,262.716,259.009)">
                    <path d="M0,46.277L6.255,0C6.669,-3.063 9.488,-5.546 12.552,-5.546L58.829,-5.546C61.892,-5.546 64.039,-3.063 63.625,0L57.37,46.277C56.956,49.34 54.137,51.823 51.073,51.823L4.796,51.823C1.733,51.823 -0.415,49.34 0,46.277" style="fill:rgb(0,124,255);fill-rule:nonzero;"/>
                </g>
                <g opacity="0.2">
                    <g transform="matrix(1,0,0,1,262.716,259.009)">
                        <path d="M0,46.277L6.255,0C6.669,-3.063 9.488,-5.546 12.552,-5.546L58.829,-5.546C61.892,-5.546 64.039,-3.063 63.625,0L57.37,46.277C56.956,49.34 54.137,51.823 51.073,51.823L4.796,51.823C1.733,51.823 -0.415,49.34 0,46.277" style="fill:white;fill-rule:nonzero;"/>
                    </g>
                </g>
                <g transform="matrix(1,0,0,1,234.924,196.982)">
                    <path d="M0,38.508C-3.055,38.508 -5.216,36.009 -4.803,32.954L-1.099,5.553C-0.686,2.499 2.151,0 5.206,0C8.26,0 10.422,2.499 10.009,5.553L6.305,32.954C5.892,36.009 3.055,38.508 0,38.508" style="fill:white;fill-rule:nonzero;"/>
                </g>
                <g transform="matrix(1,0,0,1,218.273,216.236)">
                    <path d="M0,0C0.413,-3.055 3.25,-5.554 6.305,-5.554L33.706,-5.554C36.76,-5.554 38.922,-3.055 38.509,0C38.096,3.055 35.259,5.554 32.204,5.554L4.803,5.554C1.749,5.554 -0.413,3.055 0,0" style="fill:white;fill-rule:nonzero;"/>
                </g>
                <g transform="matrix(1,0,0,1,213.162,268.533)">
                    <path d="M0,27.23C-1.868,25.07 -1.391,21.536 1.062,19.376L23.056,0C25.508,-2.16 29.042,-2.16 30.911,0C32.779,2.16 32.301,5.695 29.849,7.855L7.854,27.23C5.402,29.39 1.868,29.39 0,27.23" style="fill:white;fill-rule:nonzero;"/>
                </g>
                <g transform="matrix(1,0,0,1,216.843,295.764)">
                    <path d="M0,-27.232C2.452,-29.391 5.987,-29.391 7.854,-27.232L24.611,-7.856C26.479,-5.696 26.001,-2.162 23.549,-0.002C21.097,2.159 17.562,2.159 15.694,-0.002L-1.062,-19.377C-2.93,-21.537 -2.452,-25.072 0,-27.232" style="fill:white;fill-rule:nonzero;"/>
                </g>
                <g transform="matrix(1,0,0,1,284.184,216.236)">
                    <path d="M0,0C0.413,-3.055 3.25,-5.554 6.305,-5.554L33.706,-5.554C36.761,-5.554 38.922,-3.055 38.509,0C38.096,3.055 35.259,5.554 32.204,5.554L4.803,5.554C1.749,5.554 -0.413,3.055 0,0" style="fill:white;fill-rule:nonzero;"/>
                </g>
                <g transform="matrix(1,0,0,1,276.441,273.514)">
                    <path d="M0,0C0.413,-3.055 3.25,-5.554 6.305,-5.554L33.706,-5.554C36.76,-5.554 38.922,-3.055 38.509,0C38.096,3.055 35.259,5.554 32.204,5.554L4.803,5.554C1.749,5.554 -0.413,3.055 0,0" style="fill:white;fill-rule:nonzero;"/>
                </g>
                <g transform="matrix(1,0,0,1,274.107,290.782)">
                    <path d="M0,-0.001C0.413,-3.056 3.25,-5.555 6.305,-5.555L33.706,-5.555C36.761,-5.555 38.922,-3.056 38.509,-0.001C38.096,3.055 35.259,5.554 32.204,5.554L4.803,5.554C1.749,5.554 -0.413,3.055 0,-0.001" style="fill:white;fill-rule:nonzero;"/>
                </g>
                <g transform="matrix(1,0,0,1,133.356,217.198)">
                    <path d="M0,-37.494C-1.797,-34.16 -3.648,-30.559 -5.338,-27.039C-7.064,-23.503 -8.656,-19.925 -10.057,-16.333C-10.422,-15.436 -10.724,-14.536 -11.063,-13.637C-11.244,-13.215 -11.352,-12.744 -11.406,-12.18C-11.503,-11.056 -11.214,-9.577 -10.64,-8.036C-9.466,-4.958 -7.264,-1.613 -4.99,1.298L-8.395,5.335C-9.423,4.684 -10.26,4.062 -11.139,3.359C-12.003,2.668 -12.852,1.944 -13.649,1.152C-15.26,-0.417 -16.759,-2.181 -18.035,-4.267C-19.295,-6.353 -20.369,-8.821 -20.652,-11.785C-20.797,-13.256 -20.684,-14.839 -20.291,-16.376C-20.003,-17.417 -19.743,-18.479 -19.428,-19.506C-18.193,-23.633 -16.691,-27.615 -14.995,-31.483C-14.136,-33.414 -13.258,-35.33 -12.29,-37.202C-11.315,-39.095 -10.382,-40.912 -9.23,-42.829L0,-37.494Z" style="fill:rgb(255,140,123);fill-rule:nonzero;"/>
                </g>
                <g transform="matrix(0.967472,0.252978,0.252978,-0.967472,128.086,217.255)">
                    <path d="M-1.053,-0.353L4.145,-0.353L2.38,-8.287C2.38,-8.287 -1.575,-7.864 -3.302,-4.926L-1.053,-0.353Z" style="fill:rgb(255,140,123);fill-rule:nonzero;"/>
                </g>
                <g transform="matrix(-0.619343,0.78512,0.78512,0.619343,131.639,227.834)">
                    <path d="M-9.914,1.424L-2.693,1.424L0.535,-3.84L-7.441,-5.402L-9.914,1.424Z" style="fill:rgb(255,140,123);fill-rule:nonzero;"/>
                </g>
                <g transform="matrix(0.199552,0.979887,0.979887,-0.199552,157.333,140.813)">
                    <path d="M0.658,-0.538C1.225,-0.538 1.685,-0.237 1.685,0.134C1.685,0.504 1.226,0.805 0.658,0.805C0.091,0.805 -0.369,0.505 -0.369,0.134C-0.369,-0.237 0.09,-0.538 0.658,-0.538" style="fill:rgb(26,46,53);fill-rule:nonzero;"/>
                </g>
                <g transform="matrix(1,0,0,1,157.385,147.855)">
                    <path d="M0,-5.333C0,-5.333 1.916,-2.382 3.623,-1.118C2.826,0 1.068,-0.08 1.068,-0.08L0,-5.333Z" style="fill:rgb(255,85,81);fill-rule:nonzero;"/>
                </g>
                <g transform="matrix(1,0,0,1,157.059,145.973)">
                    <path d="M0,-9.165C-0.133,-9.165 -0.265,-9.152 -0.395,-9.125C-1.174,-8.967 -1.814,-8.348 -2.199,-7.381C-2.591,-6.396 -2.668,-5.175 -2.418,-3.941C-1.904,-1.415 -0.17,0.38 1.469,0.042C2.247,-0.116 2.888,-0.736 3.272,-1.702C3.664,-2.687 3.741,-3.909 3.491,-5.142C3.24,-6.376 2.691,-7.47 1.947,-8.224C1.338,-8.84 0.659,-9.165 0,-9.165M1.08,0.331C-0.546,0.331 -2.166,-1.449 -2.662,-3.892C-2.923,-5.172 -2.841,-6.444 -2.432,-7.474C-2.015,-8.521 -1.31,-9.195 -0.444,-9.371C0.422,-9.545 1.333,-9.201 2.125,-8.4C2.903,-7.612 3.476,-6.473 3.735,-5.192C3.996,-3.911 3.914,-2.639 3.505,-1.61C3.088,-0.562 2.383,0.111 1.518,0.287C1.373,0.316 1.227,0.331 1.08,0.331" style="fill:rgb(26,46,53);fill-rule:nonzero;"/>
                </g>
                <g transform="matrix(0.9783,-0.207194,-0.207194,-0.9783,208.976,199.926)">
                    <path d="M0.798,0.575L7.352,0.575L6.361,-8.112C6.361,-8.112 0.725,-8 -0.965,-3.163L0.798,0.575Z" style="fill:rgb(255,140,123);fill-rule:nonzero;"/>
                </g>
                <g transform="matrix(-0.0644732,0.997919,0.997919,0.0644732,221.28,205.37)">
                    <path d="M-5.621,0.47L0.738,0.47L1.454,-4.315L-7.179,-5.705L-5.621,0.47Z" style="fill:rgb(255,140,123);fill-rule:nonzero;"/>
                </g>
                <g transform="matrix(1,0,0,1,154.274,136.978)">
                    <path d="M0,1.913C-0.081,1.913 -0.162,1.884 -0.226,1.825C-0.361,1.7 -0.37,1.489 -0.245,1.353C1.007,0 2.525,0.24 2.59,0.251C2.771,0.282 2.894,0.454 2.863,0.635C2.832,0.816 2.657,0.937 2.48,0.908C2.43,0.9 1.243,0.726 0.245,1.806C0.179,1.877 0.09,1.913 0,1.913" style="fill:rgb(26,46,53);fill-rule:nonzero;"/>
                </g>
                <g transform="matrix(1,0,0,1,141.498,172.612)">
                    <path d="M0,-20.929C1.009,-15.783 1.618,-8.654 -1.982,-5.22C-1.982,-5.22 -0.576,0 8.986,0C19.5,0 14.043,-4.581 14.043,-4.581C9.674,-5.938 9.711,-10.916 10.711,-14.914L0,-20.929Z" style="fill:rgb(255,140,123);fill-rule:nonzero;"/>
                </g>
                <g transform="matrix(1,0,0,1,152.295,168.195)">
                    <path d="M0,-2.056C2.361,-3.75 5.858,-5.75 6.583,-3.667C7.021,-2.41 7.201,3.694 4.772,3.239C1.181,2.567 0,-2.056 0,-2.056" style="fill:rgb(26,46,53);fill-rule:nonzero;"/>
                </g>
                <g transform="matrix(0.297495,0.954723,0.954723,-0.297495,140.513,159.681)">
                    <path d="M9.765,-6.15C8.22,-6.65 4.231,-5.367 3.824,-4.193C3.164,-2.298 4.956,4.374 9.765,12.616C13.34,10.453 16.01,11.868 16.01,11.868L9.765,-6.15Z" style="fill:rgb(0,124,255);fill-rule:nonzero;"/>
                </g>
                <g transform="matrix(1,0,0,1,107.437,407.74)">
                    <path d="M0,-0.627C0.072,-0.611 0.138,-0.591 0.196,-0.563C0.328,-0.499 0.411,-0.406 0.449,-0.278C0.538,0.021 0.427,0.116 0.391,0.146C0.012,0.469 -1.392,0.172 -2.382,-0.224C-1.71,-0.46 -0.625,-0.763 0,-0.627M-1.145,0.497C-0.439,0.649 0.267,0.689 0.606,0.4C0.749,0.279 0.893,0.047 0.768,-0.373C0.702,-0.594 0.558,-0.759 0.339,-0.863C-0.611,-1.316 -2.793,-0.427 -2.886,-0.389C-2.946,-0.364 -2.987,-0.306 -2.989,-0.24C-2.991,-0.174 -2.954,-0.113 -2.895,-0.085C-2.561,0.076 -1.853,0.344 -1.145,0.497" style="fill:rgb(0,124,255);fill-rule:nonzero;"/>
                </g>
                <g transform="matrix(1,0,0,1,106.57,407.294)">
                    <path d="M0,-2.112C0.024,-2.107 0.048,-2.1 0.073,-2.091C0.279,-2.02 0.276,-1.919 0.275,-1.876C0.263,-1.404 -0.859,-0.456 -1.683,-0.072C-1.478,-0.634 -1.008,-1.743 -0.405,-2.05C-0.267,-2.121 -0.134,-2.141 0,-2.112M-1.991,0.374C-1.964,0.38 -1.936,0.379 -1.909,0.371C-1.114,0.139 0.588,-1.069 0.608,-1.867C0.612,-2.011 0.562,-2.274 0.182,-2.406C-0.064,-2.492 -0.312,-2.471 -0.557,-2.347C-1.497,-1.867 -2.09,0.081 -2.115,0.163C-2.132,0.222 -2.117,0.285 -2.074,0.329C-2.05,0.352 -2.022,0.367 -1.991,0.374" style="fill:rgb(0,124,255);fill-rule:nonzero;"/>
                </g>
                <g transform="matrix(1,0,0,1,159.339,408.815)">
                    <path d="M0,-0.762C0.118,-0.762 0.226,-0.749 0.322,-0.724C0.476,-0.682 0.583,-0.606 0.648,-0.491C0.767,-0.283 0.723,-0.181 0.681,-0.122C0.354,0.333 -1.424,0.343 -2.732,0.158C-2.08,-0.177 -0.822,-0.762 0,-0.762M-1.115,0.602C-0.212,0.602 0.659,0.478 0.952,0.073C1.054,-0.07 1.134,-0.311 0.937,-0.656C0.828,-0.849 0.649,-0.98 0.41,-1.045C-0.761,-1.364 -3.219,0.037 -3.323,0.097C-3.383,0.132 -3.416,0.2 -3.405,0.268C-3.394,0.337 -3.341,0.391 -3.273,0.405C-2.824,0.495 -1.957,0.602 -1.115,0.602" style="fill:rgb(0,124,255);fill-rule:nonzero;"/>
                </g>
                <g transform="matrix(1,0,0,1,157.815,408.863)">
                    <path d="M0,-2.492C0.033,-2.492 0.066,-2.49 0.1,-2.486C0.4,-2.456 0.419,-2.338 0.425,-2.3C0.502,-1.822 -0.641,-0.627 -1.507,-0.106C-1.417,-0.659 -1.166,-1.793 -0.578,-2.275C-0.401,-2.421 -0.211,-2.492 0,-2.492M-1.716,0.36C-1.693,0.36 -1.67,0.355 -1.648,0.345C-0.799,-0.036 0.883,-1.557 0.754,-2.352C0.724,-2.539 0.591,-2.771 0.134,-2.818C-0.208,-2.852 -0.517,-2.757 -0.79,-2.532C-1.685,-1.798 -1.874,0.097 -1.882,0.178C-1.888,0.237 -1.862,0.294 -1.813,0.328C-1.785,0.349 -1.75,0.36 -1.716,0.36" style="fill:rgb(0,124,255);fill-rule:nonzero;"/>
                </g>
                <g transform="matrix(1,0,0,1,148.364,392.768)">
                    <path d="M0,16.289L7.034,16.289L7.734,0L0.701,0L0,16.289Z" style="fill:rgb(255,140,123);fill-rule:nonzero;"/>
                </g>
                <g transform="matrix(0.97737,0.211538,0.211538,-0.97737,95.4473,404.188)">
                    <path d="M1.603,-1.302L8.637,-1.302L12.174,14.986L5.14,14.986L1.603,-1.302Z" style="fill:rgb(255,140,123);fill-rule:nonzero;"/>
                </g>
                <g transform="matrix(1,0,0,1,104.274,415.029)">
                    <path d="M0,-8.431L-7.724,-10.103C-8.004,-10.163 -8.29,-10.021 -8.411,-9.76L-11.091,-3.944C-11.369,-3.34 -11.001,-2.632 -10.35,-2.503C-7.643,-1.965 -6.299,-1.84 -2.903,-1.105C-0.813,-0.653 3.904,0.497 6.79,1.122C9.611,1.732 10.669,-1.026 9.544,-1.539C4.498,-3.845 2.39,-5.875 1.024,-7.766C0.778,-8.108 0.411,-8.341 0,-8.431" style="fill:rgb(26,46,53);fill-rule:nonzero;"/>
                </g>
                <g transform="matrix(1,0,0,1,155.352,416.238)">
                    <path d="M0,-7.996L-7.681,-7.996C-7.969,-7.996 -8.218,-7.797 -8.28,-7.516L-9.669,-1.264C-9.813,-0.616 -9.321,-0.002 -8.658,-0.013C-5.887,-0.059 -1.883,-0.223 1.6,-0.223C5.672,-0.223 9.189,0 13.964,0C16.852,0 17.653,-2.92 16.445,-3.184C10.942,-4.388 6.45,-4.517 1.694,-7.448C1.178,-7.767 0.607,-7.996 0,-7.996" style="fill:rgb(26,46,53);fill-rule:nonzero;"/>
                </g>
                <g transform="matrix(-0.999096,0.0425207,0.0425207,0.999096,125.964,195.889)">
                    <path d="M-2.101,-26.841C4.549,-25.612 10.696,-9.029 10.696,-9.029L-2.101,1.615C-2.101,1.615 -7.15,-2.755 -9.669,-11.074C-12.308,-19.79 -8.902,-28.098 -2.101,-26.841" style="fill:rgb(0,124,255);fill-rule:nonzero;"/>
                </g>
                <g opacity="0.4">
                    <g transform="matrix(-0.999096,0.0425207,0.0425207,0.999096,125.964,195.889)">
                        <path d="M-2.101,-26.841C4.549,-25.612 10.696,-9.029 10.696,-9.029L-2.101,1.615C-2.101,1.615 -7.15,-2.755 -9.669,-11.074C-12.308,-19.79 -8.902,-28.098 -2.101,-26.841" style="fill:white;fill-rule:nonzero;"/>
                    </g>
                </g>
                <g transform="matrix(1,0,0,1,166.452,207.635)">
                    <path d="M0,-30.624L11.107,-20.405C12.955,-18.702 14.811,-17.018 16.668,-15.36C18.509,-13.701 20.392,-12.036 22.176,-10.593L20.63,-11.422C21.49,-11.109 22.391,-10.798 23.337,-10.545C24.287,-10.3 25.272,-10.082 26.277,-9.881C28.298,-9.517 30.407,-9.249 32.558,-9.077C34.71,-8.893 36.905,-8.778 39.122,-8.716C41.323,-8.637 43.621,-8.606 45.785,-8.59L46.835,-3.415C44.479,-2.539 42.211,-1.905 39.835,-1.374C37.473,-0.863 35.07,-0.497 32.622,-0.27C30.172,-0.067 27.677,0 25.127,-0.168C22.575,-0.321 19.965,-0.729 17.302,-1.511L16.544,-1.733L15.755,-2.341C13.561,-4.032 11.612,-5.684 9.648,-7.366C7.704,-9.053 5.786,-10.749 3.886,-12.453C0.112,-15.897 -3.637,-19.316 -7.315,-22.868L0,-30.624Z" style="fill:rgb(255,140,123);fill-rule:nonzero;"/>
                </g>
                <g opacity="0.2">
                    <g transform="matrix(1,0,0,1,132.571,197.415)">
                        <path d="M0,-16.057C-3.581,-12.514 -4.749,-6.061 -5.026,-0.451L-4.442,0C-4.442,0 0.421,-4.587 2.585,-13.003C2.719,-13.529 2.834,-14.056 2.93,-14.573L0,-16.057Z" style="fill-rule:nonzero;"/>
                    </g>
                </g>
                <g transform="matrix(1,0,0,1,168.58,221.112)">
                    <path d="M0,-45.077C1.437,-37.478 2.337,-21.873 -1.837,9.028L-39.458,9.028C-39.717,3.254 -36.088,-24.918 -41.659,-52.129C-41.659,-52.129 -35.21,-53.424 -29.065,-53.72C-24.258,-53.952 -17.298,-54.105 -13.072,-53.719C-11.309,-53.558 -9.577,-53.304 -8.034,-53.031C-3.966,-52.311 -0.768,-49.136 0,-45.077" style="fill:rgb(0,124,255);fill-rule:nonzero;"/>
                </g>
                <g opacity="0.4">
                    <g transform="matrix(1,0,0,1,168.58,221.112)">
                        <path d="M0,-45.077C1.437,-37.478 2.337,-21.873 -1.837,9.028L-39.458,9.028C-39.717,3.254 -36.088,-24.918 -41.659,-52.129C-41.659,-52.129 -35.21,-53.424 -29.065,-53.72C-24.258,-53.952 -17.298,-54.105 -13.072,-53.719C-11.309,-53.558 -9.577,-53.304 -8.034,-53.031C-3.966,-52.311 -0.768,-49.136 0,-45.077" style="fill:white;fill-rule:nonzero;"/>
                    </g>
                </g>
                <g opacity="0.2">
                    <g transform="matrix(1,0,0,1,162.823,199.54)">
                        <path d="M0,-12.274L6.798,-13.902C7.009,-9.785 7.028,-4.682 6.722,1.628C3.59,-1.934 -0.402,-7.487 0,-12.274" style="fill-rule:nonzero;"/>
                    </g>
                </g>
                <g opacity="0.2">
                    <g transform="matrix(-0.0428382,0.999082,0.999082,0.0428382,156.435,400.845)">
                        <path d="M-8.051,-0.683L0.353,-0.683L0.655,-7.713L-7.749,-7.714L-8.051,-0.683Z" style="fill-rule:nonzero;"/>
                    </g>
                </g>
                <g opacity="0.2">
                    <g transform="matrix(0.977353,0.211615,0.211615,-0.977353,104.66,390.386)">
                        <path d="M-0.947,-0.456L6.089,-0.456L4.263,-8.853L-2.774,-8.852L-0.947,-0.456Z" style="fill-rule:nonzero;"/>
                    </g>
                </g>
                <g transform="matrix(-0.267123,0.963663,0.963663,0.267123,152.628,137.689)">
                    <path d="M10.097,-12.22C16.113,-8.678 19.813,-6.91 21.403,-2.151C23.795,5.007 17.05,11.223 10.097,9.549C3.839,8.042 -4.946,2.502 -4.322,-4.833C-3.708,-12.061 4.082,-15.763 10.097,-12.22" style="fill:rgb(255,140,123);fill-rule:nonzero;"/>
                </g>
                <g transform="matrix(1,0,0,1,153.45,136.018)">
                    <path d="M0,8.649C3.156,8.205 2.253,4.55 1.068,2.767C1.068,2.767 8.117,-5.684 0,-9.101C-8.117,-12.518 -6.117,-7.184 -6.117,-7.184C-6.117,-7.184 -12.448,-11.934 -17.949,-8.101C-23.45,-4.268 -18.7,-2.601 -18.7,-2.601C-18.7,-2.601 -28.718,0.344 -24.709,5.413C-20.7,10.482 -16.58,9.963 -16.58,9.963C-16.58,9.963 -24.867,13.232 -18.534,16.899C-12.2,20.566 -9.879,20.735 -9.879,20.735C-6.407,21.167 -3.128,19.032 -2.119,15.682L0,8.649Z" style="fill:rgb(26,46,53);fill-rule:nonzero;"/>
                </g>
                <g transform="matrix(-0.51653,0.856269,0.856269,0.51653,156.098,144.449)">
                    <path d="M2.977,-4.468C4.484,-3.432 5.516,-1.819 5.952,-0.366C6.605,1.819 4.879,2.646 2.977,1.816C1.265,1.069 -1.139,-0.968 -0.969,-3.055C-0.801,-5.111 1.255,-5.653 2.977,-4.468" style="fill:rgb(255,140,123);fill-rule:nonzero;"/>
                </g>
                <g transform="matrix(1,0,0,1,153.398,399.045)">
                    <path d="M0,-168.905C0,-168.905 -7.982,-115.152 -12.364,-95.014C-17.163,-72.961 -42.896,0 -42.896,0L-55.486,-2.726C-55.486,-2.726 -37.493,-62.184 -33.465,-93.015C-30.372,-116.697 -24.275,-168.905 -24.275,-168.905L0,-168.905Z" style="fill:rgb(26,46,53);fill-rule:nonzero;"/>
                </g>
                <g transform="matrix(-0.0896275,-0.995975,-0.995975,0.0896275,103.663,387.616)">
                    <path d="M-8.08,-9.167C-8.096,-9.22 -12.405,-6.422 -12.405,-6.422L-8.08,7.412L-3.946,5.842L-8.08,-9.167Z" style="fill:rgb(0,124,255);fill-rule:nonzero;"/>
                </g>
                <g opacity="0.3">
                    <g transform="matrix(1,0,0,1,148.353,303.074)">
                        <path d="M0,-53.782C-9.23,-51.972 -8.253,-17.552 -7.143,0.152C-4.481,-12.362 -0.584,-36.442 2.077,-53.533C1.465,-53.839 0.775,-53.934 0,-53.782" style="fill-rule:nonzero;"/>
                    </g>
                </g>
                <g transform="matrix(1,0,0,1,166.743,399.542)">
                    <path d="M0,-169.402C0,-169.402 0.969,-116.813 0.204,-95.362C-0.592,-73.052 -8.385,0 -8.385,0L-20.3,0C-20.3,0 -20.738,-71.748 -21.268,-93.659C-21.846,-117.547 -24.73,-169.402 -24.73,-169.402L0,-169.402Z" style="fill:rgb(26,46,53);fill-rule:nonzero;"/>
                </g>
                <g transform="matrix(-0.310091,-0.950707,-0.950707,0.310091,148.144,390.667)">
                    <path d="M-7.804,-10.61C-7.821,-10.663 -12.299,-8.437 -12.299,-8.437L-7.804,5.343L-3.485,4.347L-7.804,-10.61Z" style="fill:rgb(0,124,255);fill-rule:nonzero;"/>
                </g>
                <g transform="matrix(-0.330686,0.943741,0.943741,0.330686,170.926,171.916)">
                    <path d="M11.716,-14.003C21.409,-14.181 24.96,8.06 24.96,8.06L11.716,12.508C11.716,12.508 2.858,3.341 0.335,-4.985C-2.782,-15.27 4.337,-13.868 11.716,-14.003" style="fill:rgb(0,124,255);fill-rule:nonzero;"/>
                </g>
                <g opacity="0.4">
                    <g transform="matrix(-0.330686,0.943741,0.943741,0.330686,170.926,171.916)">
                        <path d="M11.716,-14.003C21.409,-14.181 24.96,8.06 24.96,8.06L11.716,12.508C11.716,12.508 2.858,3.341 0.335,-4.985C-2.782,-15.27 4.337,-13.868 11.716,-14.003" style="fill:white;fill-rule:nonzero;"/>
                    </g>
                </g>
                <g transform="matrix(0,-1,-1,0,210.764,197.639)">
                    <path d="M-2.459,-2.459C-3.479,-2.459 -4.306,-1.358 -4.306,-0.001C-4.306,1.357 -3.479,2.459 -2.459,2.459C-1.438,2.459 -0.611,1.357 -0.611,-0.001C-0.611,-1.358 -1.438,-2.459 -2.459,-2.459" style="fill:rgb(26,46,53);fill-rule:nonzero;"/>
                </g>
                <g transform="matrix(1,0,0,1,209.806,200.515)">
                    <path d="M0,5.457C-0.143,5.457 -0.283,5.396 -0.383,5.279C-0.56,5.069 -0.533,4.755 -0.325,4.577C-0.262,4.521 1.018,3.353 0.468,0.64C0.413,0.369 0.588,0.105 0.858,0.05C1.132,0 1.393,0.17 1.448,0.441C2.124,3.776 0.396,5.277 0.322,5.339C0.229,5.418 0.114,5.457 0,5.457" style="fill:rgb(26,46,53);fill-rule:nonzero;"/>
                </g>
                <g opacity="0.4">
                    <g transform="matrix(0,-1,-1,0,210.764,197.966)">
                        <path d="M-1.999,-1.999C-2.755,-1.999 -3.367,-1.104 -3.367,0C-3.367,1.104 -2.755,1.999 -1.999,1.999C-1.243,1.999 -0.629,1.104 -0.629,0C-0.629,-1.104 -1.243,-1.999 -1.999,-1.999" style="fill:white;fill-rule:nonzero;"/>
                    </g>
                </g>
                <g transform="matrix(1,0,0,1,156.942,230.698)">
                    <path d="M0,-63.225C-4.605,-59.937 -12.575,-47.223 -14.046,-39.717C-14.09,-39.494 -14.383,-39.441 -14.503,-39.633C-21.166,-50.256 -21.934,-61.132 -22.016,-62.9C-22.022,-63.041 -22.14,-63.141 -22.28,-63.13C-22.959,-63.074 -24.819,-62.908 -25.626,-62.718C-25.74,-62.691 -25.815,-62.58 -25.811,-62.463C-25.213,-48.28 -18.072,-37.432 -15.292,-34.1C-15.252,-34.053 -15.235,-33.999 -15.239,-33.938C-15.855,-22.684 -15.04,-2.578 -14.938,-0.183C-14.933,-0.05 -14.824,0.052 -14.691,0.052L-11.705,0.052C-11.563,0.052 -11.449,-0.061 -11.457,-0.204C-11.589,-2.51 -12.529,-19.98 -11.443,-34.307C-11.442,-34.317 -11.441,-34.326 -11.439,-34.335C-9.756,-44.997 0.356,-59.404 3.905,-62.261C4.066,-62.39 4.004,-62.644 3.803,-62.688C2.302,-63.019 0.575,-63.224 0.167,-63.269C0.104,-63.277 0.051,-63.262 0,-63.225" style="fill:rgb(0,124,255);fill-rule:nonzero;"/>
                </g>
            </g>
        </g>
    </g>
</svg>
