<?xml version="1.0" encoding="UTF-8" standalone="no"?>
<!DOCTYPE svg PUBLIC "-//W3C//DTD SVG 1.1//EN" "http://www.w3.org/Graphics/SVG/1.1/DTD/svg11.dtd">
<svg width="100%" height="100%" viewBox="0 0 151 113" version="1.1" xmlns="http://www.w3.org/2000/svg" xmlns:xlink="http://www.w3.org/1999/xlink" xml:space="preserve" xmlns:serif="http://www.serif.com/" style="fill-rule:evenodd;clip-rule:evenodd;stroke-linejoin:round;stroke-miterlimit:2;">
    <g transform="matrix(1,0,0,1,-4059.5,-1934.24)">
        <g transform="matrix(1,0,0,1,3595,1216)">
            <g transform="matrix(0.719291,0,0,0.719291,-923.013,-1221.33)">
                <g transform="matrix(1.66667,0,0,1.66667,-297.299,-3463.13)">
                    <path d="M1370.58,3701.3C1370.58,3700.41 1369.85,3699.68 1368.95,3699.68L1337.4,3699.68C1336.51,3699.68 1335.78,3700.41 1335.78,3701.3L1335.78,3787.4C1335.78,3788.29 1336.51,3789.02 1337.4,3789.02L1368.95,3789.02C1369.85,3789.02 1370.58,3788.29 1370.58,3787.4L1370.58,3701.3ZM1365.78,3744.72L1339.98,3744.72L1339.98,3784.88L1365.78,3784.88L1365.78,3744.72Z" style="fill:rgb(2,3,129);"/>
                </g>
                <g transform="matrix(1.66667,0,0,1.66667,-297.299,-3463.13)">
                    <path d="M1408.98,3701.67C1408.98,3700.78 1408.25,3700.05 1407.36,3700.05L1375.8,3700.05C1374.91,3700.05 1374.18,3700.78 1374.18,3701.67L1374.18,3787.76C1374.18,3788.66 1374.91,3789.39 1375.8,3789.39L1407.36,3789.39C1408.25,3789.39 1408.98,3788.66 1408.98,3787.76L1408.98,3701.67ZM1404.18,3745.09L1378.38,3745.09L1378.38,3785.25L1404.18,3785.25L1404.18,3745.09Z" style="fill:rgb(2,3,129);"/>
                </g>
                <g transform="matrix(1.66667,0,0,1.66667,-297.299,-3463.13)">
                    <path d="M1446.24,3697.11C1446.08,3696.23 1445.23,3695.64 1444.35,3695.81L1413.31,3701.47C1412.43,3701.64 1411.85,3702.48 1412.01,3703.36L1427.48,3788.06C1427.64,3788.94 1428.49,3789.52 1429.37,3789.36L1460.4,3783.69C1461.29,3783.53 1461.87,3782.69 1461.71,3781.8L1446.24,3697.11ZM1449.32,3740.68L1423.94,3745.32L1431.16,3784.83L1456.54,3780.19L1449.32,3740.68Z" style="fill:rgb(2,3,129);"/>
                </g>
            </g>
        </g>
    </g>
</svg>
