<?xml version="1.0" encoding="UTF-8" standalone="no"?>
<!DOCTYPE svg PUBLIC "-//W3C//DTD SVG 1.1//EN" "http://www.w3.org/Graphics/SVG/1.1/DTD/svg11.dtd">
<svg width="100%" height="100%" viewBox="0 0 937 830" version="1.1" xmlns="http://www.w3.org/2000/svg" xmlns:xlink="http://www.w3.org/1999/xlink" xml:space="preserve" xmlns:serif="http://www.serif.com/" style="fill-rule:evenodd;clip-rule:evenodd;stroke-linejoin:round;stroke-miterlimit:2;">
    <g transform="matrix(1,0,0,1,-3666.6,-1309.5)">
        <g transform="matrix(1,0,0,1,3595,1216)">
            <g transform="matrix(2.22616,0,0,2.22616,-13.4512,-28.8331)">
                <g transform="matrix(1,0,0,1,0,293.108)">
                    <rect x="413.5" y="103.321" width="10.612" height="0.25" style="fill:rgb(209,227,255);"/>
                </g>
                <g transform="matrix(1,0,0,1,0,293.357)">
                    <rect x="363.015" y="103.197" width="43.151" height="0.249" style="fill:rgb(209,227,255);"/>
                </g>
                <g transform="matrix(1,0,0,1,0,288.584)">
                    <rect x="236.849" y="105.583" width="72.817" height="0.25" style="fill:rgb(209,227,255);"/>
                </g>
                <g transform="matrix(1,0,0,1,0,297.278)">
                    <rect x="171.855" y="101.236" width="23.108" height="0.25" style="fill:rgb(209,227,255);"/>
                </g>
                <g transform="matrix(1,0,0,1,0,288.835)">
                    <rect x="86.127" y="105.458" width="31.82" height="0.249" style="fill:rgb(209,227,255);"/>
                </g>
                <g transform="matrix(1,0,0,1,0,288.835)">
                    <rect x="123.5" y="105.458" width="29.741" height="0.249" style="fill:rgb(209,227,255);"/>
                </g>
                <g transform="matrix(1,0,0,1,0,280.085)">
                    <rect x="65.294" y="109.833" width="30.372" height="0.249" style="fill:rgb(209,227,255);"/>
                </g>
                <g transform="matrix(1,0,0,1,43.915,337.55)">
                    <path d="M0,-282.347C-3.01,-282.347 -5.458,-279.899 -5.458,-276.889L-5.458,-5.458C-5.458,-2.448 -3.01,0 0,0L193.099,0C196.107,0 198.556,-2.448 198.556,-5.458L198.556,-276.889C198.556,-279.899 196.107,-282.347 193.099,-282.347L0,-282.347ZM193.099,0.25L0,0.25C-3.147,0.25 -5.708,-2.31 -5.708,-5.458L-5.708,-276.889C-5.708,-280.036 -3.147,-282.597 0,-282.597L193.099,-282.597C196.245,-282.597 198.806,-280.036 198.806,-276.889L198.806,-5.458C198.806,-2.31 196.245,0.25 193.099,0.25" style="fill:rgb(209,227,255);fill-rule:nonzero;"/>
                </g>
                <g transform="matrix(1,0,0,1,260.212,337.55)">
                    <path d="M0,-282.347C-3.009,-282.347 -5.457,-279.899 -5.457,-276.889L-5.457,-5.458C-5.457,-2.448 -3.009,0 0,0L193.099,0C196.108,0 198.557,-2.448 198.557,-5.458L198.557,-276.889C198.557,-279.899 196.108,-282.347 193.099,-282.347L0,-282.347ZM193.099,0.25L0,0.25C-3.146,0.25 -5.707,-2.31 -5.707,-5.458L-5.707,-276.889C-5.707,-280.036 -3.146,-282.597 0,-282.597L193.099,-282.597C196.246,-282.597 198.807,-280.036 198.807,-276.889L198.807,-5.458C198.807,-2.31 196.246,0.25 193.099,0.25" style="fill:rgb(209,227,255);fill-rule:nonzero;"/>
                </g>
                <g transform="matrix(1,0,0,1,430.478,75.4678)">
                    <path d="M0,287.541L-362.958,287.541C-367.094,287.541 -370.478,284.157 -370.478,280.021L-370.478,7.52C-370.478,3.384 -367.094,0 -362.958,0L0,0C4.137,0 7.521,3.384 7.521,7.52L7.521,280.021C7.521,284.157 4.137,287.541 0,287.541" style="fill:rgb(209,227,255);fill-rule:nonzero;"/>
                </g>
                <g transform="matrix(1,0,0,1,432.478,75.4678)">
                    <path d="M0,287.541L-362.958,287.541C-367.094,287.541 -370.478,284.157 -370.478,280.021L-370.478,7.52C-370.478,3.384 -367.094,0 -362.958,0L0,0C4.137,0 7.521,3.384 7.521,7.52L7.521,280.021C7.521,284.157 4.137,287.541 0,287.541" style="fill:rgb(243,248,255);fill-rule:nonzero;"/>
                </g>
                <g transform="matrix(1,0,0,1,62.001,363.009)">
                    <path d="M0,-268.096L0,-7.52C0,-3.384 3.384,0 7.52,0L370.478,0C374.614,0 377.998,-3.384 377.998,-7.52L377.998,-268.096L0,-268.096Z" style="fill:rgb(209,227,255);fill-rule:nonzero;"/>
                </g>
                <g transform="matrix(1,0,0,1,0,-42.076)">
                    <rect x="63.389" y="146.99" width="375.221" height="248.096" style="fill:white;"/>
                </g>
                <g transform="matrix(1,0,0,1,0,-48.816)">
                    <path d="M76.789,378.875L425.211,378.875L425.211,169.941L76.789,169.941L76.789,378.875ZM425.336,379.125L76.664,379.125C76.595,379.125 76.539,379.069 76.539,379L76.539,169.816C76.539,169.747 76.595,169.691 76.664,169.691L425.336,169.691C425.405,169.691 425.461,169.747 425.461,169.816L425.461,379C425.461,379.069 425.405,379.125 425.336,379.125" style="fill:rgb(218,230,255);fill-rule:nonzero;"/>
                </g>
                <g transform="matrix(1,0,0,1,78.501,88.7466)">
                    <path d="M0,-7C-1.93,-7 -3.5,-5.43 -3.5,-3.5C-3.5,-1.57 -1.93,0 0,0C1.93,0 3.5,-1.57 3.5,-3.5C3.5,-5.43 1.93,-7 0,-7M0,1C-2.481,1 -4.5,-1.019 -4.5,-3.5C-4.5,-5.981 -2.481,-8 0,-8C2.481,-8 4.5,-5.981 4.5,-3.5C4.5,-1.019 2.481,1 0,1" style="fill:white;fill-rule:nonzero;"/>
                </g>
                <g transform="matrix(1,0,0,1,92.6738,88.7466)">
                    <path d="M0,-7C-1.93,-7 -3.5,-5.43 -3.5,-3.5C-3.5,-1.57 -1.93,0 0,0C1.93,0 3.5,-1.57 3.5,-3.5C3.5,-5.43 1.93,-7 0,-7M0,1C-2.481,1 -4.5,-1.019 -4.5,-3.5C-4.5,-5.981 -2.481,-8 0,-8C2.481,-8 4.5,-5.981 4.5,-3.5C4.5,-1.019 2.481,1 0,1" style="fill:white;fill-rule:nonzero;"/>
                </g>
                <g transform="matrix(1,0,0,1,106.847,88.7466)">
                    <path d="M0,-7C-1.93,-7 -3.5,-5.43 -3.5,-3.5C-3.5,-1.57 -1.93,0 0,0C1.93,0 3.5,-1.57 3.5,-3.5C3.5,-5.43 1.93,-7 0,-7M0,1C-2.481,1 -4.5,-1.019 -4.5,-3.5C-4.5,-5.981 -2.481,-8 0,-8C2.481,-8 4.5,-5.981 4.5,-3.5C4.5,-1.019 2.481,1 0,1" style="fill:white;fill-rule:nonzero;"/>
                </g>
                <g transform="matrix(-1,0,0,1,502,-310.174)">
                    <rect x="62.001" y="404.587" width="377.998" height="1" style="fill:rgb(209,227,255);"/>
                </g>
                <g transform="matrix(1,0,0,1,0,-64.645)">
                    <rect x="95.667" y="194.201" width="172.918" height="176.243" style="fill:rgb(243,248,255);"/>
                </g>
                <g transform="matrix(1,0,0,1,0,-183.555)">
                    <rect x="302.613" y="313.111" width="114.167" height="57.333" style="fill:rgb(243,248,255);"/>
                </g>
                <g transform="matrix(0,-1,-1,0,324,138)">
                    <path d="M-13,-13C-20.18,-13 -26,-7.18 -26,0C-26,7.18 -20.18,13 -13,13C-5.82,13 0,7.18 0,0C0,-7.18 -5.82,-13 -13,-13" style="fill:white;fill-rule:nonzero;"/>
                </g>
                <g transform="matrix(-1,0,0,1,754.333,-218.667)">
                    <rect x="349" y="356.667" width="56.333" height="5.333" style="fill:white;"/>
                </g>
                <g transform="matrix(-1,0,0,1,734.556,-199.111)">
                    <rect x="349" y="346.889" width="36.556" height="5.333" style="fill:white;"/>
                </g>
                <g transform="matrix(1,0,0,1,0,61.342)">
                    <rect x="302.613" y="146.991" width="114.167" height="144.676" style="fill:rgb(243,248,255);"/>
                </g>
                <g transform="matrix(-1,0,0,1,664.061,-12.825)">
                    <rect x="307.682" y="232.064" width="48.697" height="48.697" style="fill:white;"/>
                </g>
                <g transform="matrix(-1,0,0,1,664.827,96.951)">
                    <rect x="308.065" y="177.176" width="48.697" height="48.697" style="fill:white;"/>
                </g>
                <g transform="matrix(-1,0,0,1,774.727,-35.688)">
                    <rect x="363.015" y="254.927" width="48.697" height="25.834" style="fill:white;"/>
                </g>
                <g transform="matrix(-1,0,0,1,774.727,51.227)">
                    <rect x="363.015" y="200.038" width="48.697" height="48.697" style="fill:white;"/>
                </g>
                <g transform="matrix(-1,0,0,1,664.827,181.671)">
                    <rect x="308.065" y="146.99" width="48.697" height="24.349" style="fill:white;"/>
                </g>
                <g transform="matrix(-1,0,0,1,774.727,158.809)">
                    <rect x="363.015" y="146.99" width="48.697" height="47.211" style="fill:white;"/>
                </g>
                <g transform="matrix(0,-1,-1,0,250,222.35)">
                    <path d="M-193.889,-193.889C-200.142,-193.889 -205.212,-107.081 -205.212,0.001C-205.212,107.082 -200.142,193.889 -193.889,193.889C-187.635,193.889 -182.565,107.082 -182.565,0.001C-182.565,-107.081 -187.635,-193.889 -193.889,-193.889" style="fill:rgb(240,246,255);fill-rule:nonzero;"/>
                </g>
                <g transform="matrix(1,0,0,1,271.258,359.189)">
                    <path d="M0,50.335L-181.89,50.335C-186.808,50.335 -190.833,46.311 -190.833,41.392L-190.833,8.943C-190.833,4.024 -186.808,0 -181.89,0L0,0C4.918,0 8.942,4.024 8.942,8.943L8.942,41.392C8.942,46.311 4.918,50.335 0,50.335" style="fill:rgb(64,123,255);fill-rule:nonzero;"/>
                </g>
                <g opacity="0.8">
                    <g transform="matrix(1,0,0,1,273.37,361.302)">
                        <path d="M0,50.335L-181.889,50.335C-186.808,50.335 -190.833,46.311 -190.833,41.393L-190.833,8.943C-190.833,4.024 -186.808,0 -181.889,0L0,0C4.919,0 8.943,4.024 8.943,8.943L8.943,41.393C8.943,46.311 4.919,50.335 0,50.335" style="fill:rgb(220,233,255);fill-rule:nonzero;"/>
                    </g>
                </g>
                <g opacity="0.8">
                    <g transform="matrix(1,0,0,1,275.482,363.415)">
                        <path d="M0,50.335L-181.889,50.335C-186.808,50.335 -190.832,46.311 -190.832,41.392L-190.832,8.942C-190.832,4.024 -186.808,0 -181.889,0L0,0C4.919,0 8.943,4.024 8.943,8.942L8.943,41.392C8.943,46.311 4.919,50.335 0,50.335" style="fill:rgb(220,233,255);fill-rule:nonzero;"/>
                    </g>
                </g>
                <g transform="matrix(1,0,0,1,235.587,371.924)">
                    <path d="M0,7.618L-97.102,7.618C-98.158,7.618 -99.015,6.762 -99.015,5.705L-99.015,1.913C-99.015,0.856 -98.158,0 -97.102,0L0,0C1.057,0 1.913,0.856 1.913,1.913L1.913,5.705C1.913,6.762 1.057,7.618 0,7.618" style="fill:rgb(64,123,255);fill-rule:nonzero;"/>
                </g>
                <g transform="matrix(1,0,0,1,181.976,384.774)">
                    <path d="M0,7.618L-43.49,7.618C-44.547,7.618 -45.403,6.762 -45.403,5.705L-45.403,1.913C-45.403,0.856 -44.547,0 -43.49,0L0,0C1.057,0 1.913,0.856 1.913,1.913L1.913,5.705C1.913,6.762 1.057,7.618 0,7.618" style="fill:rgb(64,123,255);fill-rule:nonzero;"/>
                </g>
                <g transform="matrix(1,0,0,1,223.976,384.774)">
                    <path d="M0,7.618L-33.379,7.618C-34.436,7.618 -35.292,6.762 -35.292,5.705L-35.292,1.913C-35.292,0.856 -34.436,0 -33.379,0L0,0C1.057,0 1.913,0.856 1.913,1.913L1.913,5.705C1.913,6.762 1.057,7.618 0,7.618" style="fill:rgb(64,123,255);fill-rule:nonzero;"/>
                </g>
                <g transform="matrix(1,0,0,1,255.004,397.622)">
                    <path d="M0,2.87L-117.39,2.87C-117.965,2.87 -118.432,2.404 -118.432,1.829L-118.432,1.042C-118.432,0.467 -117.965,0 -117.39,0L0,0C0.575,0 1.041,0.467 1.041,1.042L1.041,1.829C1.041,2.404 0.575,2.87 0,2.87" style="fill:rgb(159,198,255);fill-rule:nonzero;"/>
                </g>
                <g transform="matrix(0,-1,-1,0,108.919,370.649)">
                    <path d="M-17.934,-17.934C-27.837,-17.934 -35.868,-9.904 -35.868,0.001C-35.868,9.905 -27.837,17.934 -17.934,17.934C-8.029,17.934 0.001,9.905 0.001,0.001C0.001,-9.904 -8.029,-17.934 -17.934,-17.934" style="fill:rgb(64,123,255);fill-rule:nonzero;"/>
                </g>
                <g transform="matrix(1,0,0,1,123.719,388.58)">
                    <path d="M0,0C0,2.557 -0.648,4.956 -1.789,7.051C-4.285,11.664 -9.174,14.801 -14.801,14.801C-20.428,14.801 -25.316,11.664 -27.813,7.051C-28.954,4.956 -29.602,2.557 -29.602,0C-29.602,-8.176 -22.977,-14.801 -14.801,-14.801C-6.625,-14.801 0,-8.176 0,0" style="fill:white;fill-rule:nonzero;"/>
                </g>
                <g transform="matrix(0,-1,-1,0,107.015,384.523)">
                    <path d="M-11.108,-14.916C-15.721,-12.419 -18.858,-7.53 -18.858,-1.904C-18.858,3.723 -15.721,8.612 -11.108,11.108C-8.619,7.382 -7.166,2.911 -7.166,-1.904C-7.166,-6.718 -8.619,-11.19 -11.108,-14.916" style="fill:rgb(192,218,255);fill-rule:nonzero;"/>
                </g>
                <g transform="matrix(0,-1,-1,0,108.919,376.924)">
                    <path d="M-6.593,-6.593C-10.235,-6.593 -13.186,-3.641 -13.186,0C-13.186,3.641 -10.235,6.593 -6.593,6.593C-2.951,6.593 0,3.641 0,0C0,-3.641 -2.951,-6.593 -6.593,-6.593" style="fill:rgb(192,218,255);fill-rule:nonzero;"/>
                </g>
                <g transform="matrix(1,0,0,1,271.258,300.949)">
                    <path d="M0,50.335L-181.89,50.335C-186.808,50.335 -190.833,46.311 -190.833,41.392L-190.833,8.943C-190.833,4.024 -186.808,0 -181.89,0L0,0C4.918,0 8.942,4.024 8.942,8.943L8.942,41.392C8.942,46.311 4.918,50.335 0,50.335" style="fill:rgb(64,123,255);fill-rule:nonzero;"/>
                </g>
                <g opacity="0.8">
                    <g transform="matrix(1,0,0,1,273.37,303.062)">
                        <path d="M0,50.335L-181.889,50.335C-186.808,50.335 -190.833,46.311 -190.833,41.392L-190.833,8.943C-190.833,4.024 -186.808,0 -181.889,0L0,0C4.919,0 8.943,4.024 8.943,8.943L8.943,41.392C8.943,46.311 4.919,50.335 0,50.335" style="fill:rgb(220,233,255);fill-rule:nonzero;"/>
                    </g>
                </g>
                <g opacity="0.8">
                    <g transform="matrix(1,0,0,1,275.482,305.174)">
                        <path d="M0,50.335L-181.889,50.335C-186.808,50.335 -190.832,46.311 -190.832,41.392L-190.832,8.943C-190.832,4.024 -186.808,0 -181.889,0L0,0C4.919,0 8.943,4.024 8.943,8.943L8.943,41.392C8.943,46.311 4.919,50.335 0,50.335" style="fill:rgb(220,233,255);fill-rule:nonzero;"/>
                    </g>
                </g>
                <g transform="matrix(1,0,0,1,167.42,313.683)">
                    <path d="M0,7.619L-28.935,7.619C-29.991,7.619 -30.848,6.762 -30.848,5.705L-30.848,1.914C-30.848,0.857 -29.991,0 -28.935,0L0,0C1.057,0 1.914,0.857 1.914,1.914L1.914,5.705C1.914,6.762 1.057,7.619 0,7.619" style="fill:rgb(64,123,255);fill-rule:nonzero;"/>
                </g>
                <g transform="matrix(1,0,0,1,197.837,313.683)">
                    <path d="M0,7.619L-22.341,7.619C-23.398,7.619 -24.254,6.762 -24.254,5.705L-24.254,1.914C-24.254,0.857 -23.398,0 -22.341,0L0,0C1.057,0 1.913,0.857 1.913,1.914L1.913,5.705C1.913,6.762 1.057,7.619 0,7.619" style="fill:rgb(64,123,255);fill-rule:nonzero;"/>
                </g>
                <g transform="matrix(1,0,0,1,240.087,326.532)">
                    <path d="M0,7.618L-101.602,7.618C-102.658,7.618 -103.515,6.762 -103.515,5.705L-103.515,1.913C-103.515,0.856 -102.658,0 -101.602,0L0,0C1.057,0 1.913,0.856 1.913,1.913L1.913,5.705C1.913,6.762 1.057,7.618 0,7.618" style="fill:rgb(64,123,255);fill-rule:nonzero;"/>
                </g>
                <g transform="matrix(1,0,0,1,208.459,339.382)">
                    <path d="M0,2.87L-70.845,2.87C-71.42,2.87 -71.887,2.403 -71.887,1.828L-71.887,1.041C-71.887,0.466 -71.42,0 -70.845,0L0,0C0.575,0 1.041,0.466 1.041,1.041L1.041,1.828C1.041,2.403 0.575,2.87 0,2.87" style="fill:rgb(159,198,255);fill-rule:nonzero;"/>
                </g>
                <g transform="matrix(0,-1,-1,0,108.919,312.408)">
                    <path d="M-17.934,-17.934C-27.837,-17.934 -35.868,-9.904 -35.868,0.001C-35.868,9.905 -27.837,17.934 -17.934,17.934C-8.029,17.934 0.001,9.905 0.001,0.001C0.001,-9.904 -8.029,-17.934 -17.934,-17.934" style="fill:rgb(64,123,255);fill-rule:nonzero;"/>
                </g>
                <g transform="matrix(1,0,0,1,123.719,330.34)">
                    <path d="M0,0C0,2.556 -0.648,4.956 -1.789,7.05C-4.285,11.663 -9.174,14.801 -14.801,14.801C-20.428,14.801 -25.316,11.663 -27.813,7.05C-28.954,4.956 -29.602,2.556 -29.602,0C-29.602,-8.176 -22.977,-14.801 -14.801,-14.801C-6.625,-14.801 0,-8.176 0,0" style="fill:white;fill-rule:nonzero;"/>
                </g>
                <g transform="matrix(1,0,0,1,271.258,242.709)">
                    <path d="M0,50.334L-181.89,50.334C-186.808,50.334 -190.833,46.31 -190.833,41.392L-190.833,8.942C-190.833,4.024 -186.808,0 -181.89,0L0,0C4.918,0 8.942,4.024 8.942,8.942L8.942,41.392C8.942,46.31 4.918,50.334 0,50.334" style="fill:rgb(64,123,255);fill-rule:nonzero;"/>
                </g>
                <g opacity="0.8">
                    <g transform="matrix(1,0,0,1,273.37,244.821)">
                        <path d="M0,50.335L-181.889,50.335C-186.808,50.335 -190.833,46.311 -190.833,41.392L-190.833,8.942C-190.833,4.024 -186.808,0 -181.889,0L0,0C4.919,0 8.943,4.024 8.943,8.942L8.943,41.392C8.943,46.311 4.919,50.335 0,50.335" style="fill:rgb(220,233,255);fill-rule:nonzero;"/>
                    </g>
                </g>
                <g opacity="0.8">
                    <g transform="matrix(1,0,0,1,275.482,246.934)">
                        <path d="M0,50.335L-181.889,50.335C-186.808,50.335 -190.832,46.311 -190.832,41.392L-190.832,8.943C-190.832,4.024 -186.808,0 -181.889,0L0,0C4.919,0 8.943,4.024 8.943,8.943L8.943,41.392C8.943,46.311 4.919,50.335 0,50.335" style="fill:rgb(220,233,255);fill-rule:nonzero;"/>
                    </g>
                </g>
                <g transform="matrix(1,0,0,1,234.865,255.443)">
                    <path d="M0,7.618L-96.379,7.618C-97.436,7.618 -98.292,6.762 -98.292,5.705L-98.292,1.913C-98.292,0.856 -97.436,0 -96.379,0L0,0C1.057,0 1.913,0.856 1.913,1.913L1.913,5.705C1.913,6.762 1.057,7.618 0,7.618" style="fill:rgb(64,123,255);fill-rule:nonzero;"/>
                </g>
                <g transform="matrix(1,0,0,1,202.42,268.292)">
                    <path d="M0,7.618L-63.935,7.618C-64.991,7.618 -65.848,6.762 -65.848,5.705L-65.848,1.913C-65.848,0.856 -64.991,0 -63.935,0L0,0C1.057,0 1.914,0.856 1.914,1.913L1.914,5.705C1.914,6.762 1.057,7.618 0,7.618" style="fill:rgb(64,123,255);fill-rule:nonzero;"/>
                </g>
                <g transform="matrix(1,0,0,1,217.837,268.292)">
                    <path d="M0,7.618L-5.935,7.618C-6.991,7.618 -7.848,6.762 -7.848,5.705L-7.848,1.913C-7.848,0.856 -6.991,0 -5.935,0L0,0C1.057,0 1.913,0.856 1.913,1.913L1.913,5.705C1.913,6.762 1.057,7.618 0,7.618" style="fill:rgb(64,123,255);fill-rule:nonzero;"/>
                </g>
                <g transform="matrix(1,0,0,1,189.181,281.142)">
                    <path d="M0,2.869L-51.567,2.869C-52.143,2.869 -52.609,2.403 -52.609,1.828L-52.609,1.041C-52.609,0.466 -52.143,0 -51.567,0L0,0C0.575,0 1.041,0.466 1.041,1.041L1.041,1.828C1.041,2.403 0.575,2.869 0,2.869" style="fill:rgb(159,198,255);fill-rule:nonzero;"/>
                </g>
                <g transform="matrix(1,0,0,1,255.848,281.142)">
                    <path d="M0,2.869L-59.123,2.869C-59.698,2.869 -60.164,2.403 -60.164,1.828L-60.164,1.041C-60.164,0.466 -59.698,0 -59.123,0L0,0C0.575,0 1.041,0.466 1.041,1.041L1.041,1.828C1.041,2.403 0.575,2.869 0,2.869" style="fill:rgb(159,198,255);fill-rule:nonzero;"/>
                </g>
                <g transform="matrix(0,-1,-1,0,108.918,254.168)">
                    <path d="M-17.933,-17.934C-27.838,-17.934 -35.868,-9.905 -35.868,0C-35.868,9.904 -27.838,17.933 -17.933,17.933C-8.029,17.933 0.001,9.904 0.001,0C0.001,-9.905 -8.029,-17.934 -17.933,-17.934" style="fill:rgb(64,123,255);fill-rule:nonzero;"/>
                </g>
                <g transform="matrix(1,0,0,1,123.719,272.099)">
                    <path d="M0,0.001C0,2.557 -0.648,4.956 -1.789,7.051C-4.285,11.664 -9.174,14.802 -14.801,14.802C-20.428,14.802 -25.316,11.664 -27.813,7.051C-28.954,4.956 -29.602,2.557 -29.602,0.001C-29.602,-8.175 -22.977,-14.801 -14.801,-14.801C-6.625,-14.801 0,-8.175 0,0.001" style="fill:white;fill-rule:nonzero;"/>
                </g>
                <g transform="matrix(-1,0,0,1,256.11,-253.546)">
                    <rect x="125.777" y="376.273" width="4.556" height="1" style="fill:rgb(64,123,255);"/>
                </g>
                <g transform="matrix(-1,0,0,1,226.334,-253.546)">
                    <rect x="107.778" y="376.273" width="10.778" height="1" style="fill:rgb(64,123,255);"/>
                </g>
                <g transform="matrix(1,0,0,1,271.258,126.227)">
                    <path d="M0,50.335L-181.89,50.335C-186.808,50.335 -190.833,46.311 -190.833,41.392L-190.833,8.943C-190.833,4.024 -186.808,0 -181.89,0L0,0C4.918,0 8.942,4.024 8.942,8.943L8.942,41.392C8.942,46.311 4.918,50.335 0,50.335" style="fill:rgb(64,123,255);fill-rule:nonzero;"/>
                </g>
                <g opacity="0.8">
                    <g transform="matrix(1,0,0,1,273.37,128.34)">
                        <path d="M0,50.335L-181.889,50.335C-186.808,50.335 -190.833,46.311 -190.833,41.392L-190.833,8.943C-190.833,4.024 -186.808,0 -181.889,0L0,0C4.919,0 8.943,4.024 8.943,8.943L8.943,41.392C8.943,46.311 4.919,50.335 0,50.335" style="fill:rgb(220,233,255);fill-rule:nonzero;"/>
                    </g>
                </g>
                <g opacity="0.8">
                    <g transform="matrix(1,0,0,1,275.482,130.453)">
                        <path d="M0,50.335L-181.889,50.335C-186.808,50.335 -190.832,46.31 -190.832,41.392L-190.832,8.943C-190.832,4.024 -186.808,0 -181.889,0L0,0C4.919,0 8.943,4.024 8.943,8.943L8.943,41.392C8.943,46.31 4.919,50.335 0,50.335" style="fill:rgb(220,233,255);fill-rule:nonzero;"/>
                    </g>
                </g>
                <g transform="matrix(1,0,0,1,226.92,138.962)">
                    <path d="M0,7.618L-88.435,7.618C-89.491,7.618 -90.348,6.762 -90.348,5.705L-90.348,1.913C-90.348,0.856 -89.491,0 -88.435,0L0,0C1.057,0 1.914,0.856 1.914,1.913L1.914,5.705C1.914,6.762 1.057,7.618 0,7.618" style="fill:rgb(64,123,255);fill-rule:nonzero;"/>
                </g>
                <g transform="matrix(1,0,0,1,257.42,151.81)">
                    <path d="M0,7.619L-118.935,7.619C-119.991,7.619 -120.848,6.762 -120.848,5.705L-120.848,1.914C-120.848,0.857 -119.991,0 -118.935,0L0,0C1.057,0 1.913,0.857 1.913,1.914L1.913,5.705C1.913,6.762 1.057,7.619 0,7.619" style="fill:rgb(64,123,255);fill-rule:nonzero;"/>
                </g>
                <g transform="matrix(1,0,0,1,170.07,164.66)">
                    <path d="M0,2.87L-32.456,2.87C-33.031,2.87 -33.498,2.404 -33.498,1.829L-33.498,1.041C-33.498,0.467 -33.031,0 -32.456,0L0,0C0.575,0 1.042,0.467 1.042,1.041L1.042,1.829C1.042,2.404 0.575,2.87 0,2.87" style="fill:rgb(159,198,255);fill-rule:nonzero;"/>
                </g>
                <g transform="matrix(0,-1,-1,0,108.919,137.686)">
                    <path d="M-17.934,-17.934C-27.839,-17.934 -35.868,-9.904 -35.868,0.001C-35.868,9.905 -27.839,17.934 -17.934,17.934C-8.029,17.934 0.001,9.905 0.001,0.001C0.001,-9.904 -8.029,-17.934 -17.934,-17.934" style="fill:rgb(64,123,255);fill-rule:nonzero;"/>
                </g>
                <g transform="matrix(1,0,0,1,123.719,155.618)">
                    <path d="M0,0C0,2.556 -0.648,4.956 -1.789,7.05C-4.285,11.663 -9.174,14.801 -14.801,14.801C-20.428,14.801 -25.316,11.663 -27.813,7.05C-28.954,4.956 -29.602,2.556 -29.602,0C-29.602,-8.176 -22.977,-14.801 -14.801,-14.801C-6.625,-14.801 0,-8.176 0,0" style="fill:white;fill-rule:nonzero;"/>
                </g>
                <g transform="matrix(-0.887454,0.460897,0.460897,0.887454,400.445,269.913)">
                    <path d="M-2.896,-8.419L4.501,-8.419L0.618,0.04C0.618,0.04 -5.679,-1.359 -5.31,-4.779L-2.896,-8.419Z" style="fill:rgb(255,139,123);fill-rule:nonzero;"/>
                </g>
                <g transform="matrix(0.821201,0.570639,0.570639,-0.821201,389.069,268.071)">
                    <path d="M1.732,-2.935L9.371,-2.935L10.141,4.413L0.847,4.917L1.732,-2.935Z" style="fill:rgb(255,139,123);fill-rule:nonzero;"/>
                </g>
                <g transform="matrix(1,0,0,1,401.666,265.379)">
                    <path d="M0,-60.978C0.908,-59.797 1.679,-58.74 2.453,-57.594C3.228,-56.469 3.979,-55.333 4.718,-54.189C6.177,-51.887 7.562,-49.532 8.849,-47.104C10.154,-44.69 11.327,-42.174 12.408,-39.594L13.197,-37.64L13.907,-35.629C14.151,-34.967 14.349,-34.267 14.556,-33.576L14.862,-32.539L14.939,-32.279L15.053,-31.846C15.139,-31.513 15.187,-31.215 15.236,-30.909C15.54,-28.532 15.193,-26.837 14.833,-25.246C14.451,-23.673 13.957,-22.269 13.428,-20.914C12.353,-18.221 11.084,-15.766 9.748,-13.381C7.05,-8.621 4.029,-4.248 0.658,0L-3.941,-2.961C-1.735,-7.575 0.425,-12.32 2.309,-16.975C3.244,-19.306 4.092,-21.65 4.729,-23.906C5.045,-25.027 5.305,-26.136 5.437,-27.13C5.575,-28.099 5.561,-29.049 5.454,-29.268C5.442,-29.283 5.437,-29.309 5.43,-29.29C5.419,-29.308 5.447,-29.234 5.41,-29.328L5.329,-29.534L5.008,-30.357C4.794,-30.905 4.595,-31.453 4.337,-32L3.611,-33.644L2.825,-35.287C1.736,-37.469 0.567,-39.641 -0.695,-41.79C-1.966,-43.931 -3.277,-46.065 -4.647,-48.169C-5.979,-50.265 -7.473,-52.399 -8.816,-54.326L0,-60.978Z" style="fill:rgb(255,139,123);fill-rule:nonzero;"/>
                </g>
                <g transform="matrix(1,0,0,1,415.33,209.997)">
                    <path d="M0,9.75L-16.47,21.3C-16.47,21.3 -17.45,19.14 -18.86,15.99C-19.99,13.48 -21.4,10.35 -22.8,7.19C-23.37,5.91 -23.93,4.63 -24.48,3.38C-28.29,-5.3 -23.84,-11.55 -16.021,-10.39C-9.13,-9.36 0,9.75 0,9.75" style="fill:rgb(15,38,76);fill-rule:nonzero;"/>
                </g>
                <g transform="matrix(1,0,0,1,397.258,225.987)">
                    <path d="M0,-18.259C0.325,-15.153 0.354,-5.57 -0.788,0C-1.918,-2.51 -3.328,-5.64 -4.728,-8.8L0,-18.259Z" style="fill:rgb(10,27,53);fill-rule:nonzero;"/>
                </g>
                <g transform="matrix(1,0,0,1,421.896,190.967)">
                    <path d="M0,95.401L-175.777,48.643C-180.53,47.379 -183.385,42.455 -182.12,37.701L-173.779,6.343C-172.514,1.59 -167.591,-1.265 -162.837,-0L12.939,46.757C17.692,48.022 20.548,52.946 19.283,57.699L10.941,89.057C9.677,93.811 4.753,96.666 0,95.401" style="fill:rgb(192,218,255);fill-rule:nonzero;"/>
                </g>
                <g opacity="0.6">
                    <g transform="matrix(1,0,0,1,423.394,193.551)">
                        <path d="M0,95.402L-175.776,48.644C-180.53,47.379 -183.384,42.456 -182.12,37.702L-173.778,6.344C-172.514,1.59 -167.59,-1.264 -162.837,-0L12.939,46.758C17.693,48.023 20.548,52.946 19.283,57.7L10.941,89.058C9.678,93.811 4.754,96.666 0,95.402" style="fill:rgb(0,83,204);fill-rule:nonzero;"/>
                    </g>
                </g>
                <g opacity="0.6">
                    <g transform="matrix(1,0,0,1,424.894,196.136)">
                        <path d="M0,95.401L-175.777,48.643C-180.53,47.379 -183.385,42.455 -182.121,37.702L-173.779,6.343C-172.515,1.59 -167.591,-1.265 -162.837,-0L12.939,46.758C17.692,48.023 20.547,52.946 19.283,57.7L10.941,89.057C9.677,93.811 4.753,96.666 0,95.401" style="fill:rgb(0,83,204);fill-rule:nonzero;"/>
                    </g>
                </g>
                <g transform="matrix(1,0,0,1,413.054,215.899)">
                    <path d="M0,37.092L-111.76,7.363C-112.781,7.091 -113.389,6.043 -113.117,5.022L-112.142,1.357C-111.87,0.336 -110.822,-0.271 -109.801,-0L1.959,29.729C2.979,30.001 3.588,31.049 3.315,32.07L2.341,35.735C2.069,36.756 1.021,37.363 0,37.092" style="fill:rgb(192,218,255);fill-rule:nonzero;"/>
                </g>
                <g transform="matrix(1,0,0,1,368.578,228.316)">
                    <path d="M0,26.14L-70.587,7.363C-71.608,7.092 -72.216,6.044 -71.944,5.022L-70.97,1.358C-70.698,0.337 -69.65,-0.271 -68.629,0.001L1.959,18.778C2.979,19.05 3.587,20.098 3.315,21.119L2.341,24.783C2.069,25.804 1.021,26.411 0,26.14" style="fill:rgb(192,218,255);fill-rule:nonzero;"/>
                </g>
                <g transform="matrix(1,0,0,1,398.068,240.511)">
                    <path d="M0,30.172L-103.003,2.773C-103.559,2.625 -103.889,2.055 -103.741,1.499L-103.539,0.738C-103.391,0.183 -102.82,-0.148 -102.265,0L0.737,27.4C1.293,27.547 1.624,28.117 1.476,28.673L1.273,29.434C1.126,29.989 0.556,30.32 0,30.172" style="fill:white;fill-rule:nonzero;"/>
                </g>
                <g transform="matrix(0.257085,-0.966389,-0.966389,-0.257085,279.307,208.834)">
                    <path d="M-17.331,-13.324C-27.234,-13.324 -35.264,-5.295 -35.265,4.61C-35.264,14.515 -27.235,22.544 -17.331,22.544C-7.426,22.543 0.603,14.514 0.603,4.61C0.603,-5.294 -7.426,-13.323 -17.331,-13.324" style="fill:rgb(64,123,255);fill-rule:nonzero;"/>
                </g>
                <g transform="matrix(1,0,0,1,284.7,219.936)">
                    <path d="M0,8.265C-0.656,10.735 -1.9,12.888 -3.541,14.618C-7.139,18.434 -12.67,20.21 -18.108,18.764C-23.546,17.317 -27.464,13.028 -28.69,7.928C-29.254,5.611 -29.264,3.125 -28.606,0.655C-26.505,-7.246 -18.399,-11.945 -10.498,-9.844C-2.598,-7.742 2.103,0.364 0,8.265" style="fill:white;fill-rule:nonzero;"/>
                </g>
                <g transform="matrix(1,0,0,1,388.944,201.907)">
                    <path d="M0,-23.786C-1.876,-18.688 -4.453,-9.211 -1.334,-5.108C-1.334,-5.108 -3.629,0 -13.408,-1.569C-24.161,-3.294 -17.691,-7.731 -17.691,-7.731C-11.598,-8.191 -11.051,-12.57 -11.417,-16.823L0,-23.786Z" style="fill:rgb(255,139,123);fill-rule:nonzero;"/>
                </g>
                <g transform="matrix(0.160027,0.987113,0.987113,-0.160027,377.757,182.932)">
                    <path d="M11.382,-10.677C10.558,-9.981 6.893,-9.888 6.893,-9.888C6.893,-9.888 8.247,5.653 11.382,10.62C13.068,13.291 17.713,9.573 17.713,9.573L11.382,-10.677Z" style="fill:rgb(0,83,204);fill-rule:nonzero;"/>
                </g>
                <g transform="matrix(0.158103,-0.987423,-0.987423,-0.158103,370.497,168.384)">
                    <path d="M-0.687,-0.585C-1.276,-0.585 -1.751,-0.273 -1.752,0.11C-1.752,0.494 -1.275,0.806 -0.687,0.806C-0.1,0.805 0.377,0.494 0.377,0.111C0.377,-0.274 -0.1,-0.585 -0.687,-0.585" style="fill:rgb(15,38,76);fill-rule:nonzero;"/>
                </g>
                <g transform="matrix(1,0,0,1,370.932,175.088)">
                    <path d="M0,-5.641C0,-5.641 -1.856,-2.505 -3.568,-1.123C-2.695,0 -0.879,-0.158 -0.879,-0.158L0,-5.641Z" style="fill:rgb(255,86,82);fill-rule:nonzero;"/>
                </g>
                <g transform="matrix(1,0,0,1,373.336,164.98)">
                    <path d="M0,2.382C-0.123,2.382 -0.243,2.316 -0.305,2.199C-1.02,0.853 -2.255,0.715 -2.307,0.711C-2.496,0.692 -2.635,0.524 -2.617,0.335C-2.6,0.146 -2.434,0 -2.244,0.023C-2.177,0.029 -0.591,0.189 0.305,1.875C0.395,2.043 0.33,2.252 0.162,2.341C0.11,2.369 0.055,2.382 0,2.382" style="fill:rgb(15,38,76);fill-rule:nonzero;"/>
                </g>
                <g transform="matrix(-0.991007,-0.133809,-0.133809,0.991007,319.938,380.899)">
                    <path d="M-8.054,17.414L-0.768,17.414L1.17,0.541L-6.116,0.541L-8.054,17.414Z" style="fill:rgb(255,139,123);fill-rule:nonzero;"/>
                </g>
                <g transform="matrix(-1,0,0,1,366.528,390.333)">
                    <path d="M-12.963,16.873L-5.677,16.873L0,0L-7.286,0L-12.963,16.873Z" style="fill:rgb(255,139,123);fill-rule:nonzero;"/>
                </g>
                <g transform="matrix(1,0,0,1,371.233,414.645)">
                    <path d="M0,-8.283L8.883,-8.283C9.181,-8.283 9.438,-8.076 9.503,-7.786L10.942,-1.309C11.092,-0.637 10.563,-0.002 9.875,-0.013C7.018,-0.062 4.932,-0.23 1.332,-0.23C-0.883,-0.23 -5.445,0 -8.503,0C-11.494,0 -11.961,-3.024 -10.709,-3.298C-5.095,-4.526 -2.98,-6.22 -1.184,-7.836C-0.859,-8.127 -0.437,-8.283 0,-8.283" style="fill:rgb(20,54,91);fill-rule:nonzero;"/>
                </g>
                <g transform="matrix(1,0,0,1,318.12,406.025)">
                    <path d="M0,-9.416L7.885,-8.351C8.181,-8.311 8.408,-8.071 8.434,-7.774L8.993,-1.164C9.051,-0.478 8.46,0.084 7.78,-0.02C4.942,-0.452 0.854,-1.174 -2.72,-1.657C-6.9,-2.222 -9.686,-2.537 -14.588,-3.199C-17.553,-3.6 -17.971,-6.708 -16.693,-6.812C-10.878,-7.284 -7.104,-6.737 -1.815,-9.088C-1.241,-9.344 -0.623,-9.5 0,-9.416" style="fill:rgb(20,54,91);fill-rule:nonzero;"/>
                </g>
                <g transform="matrix(-0.0199892,0.9998,0.9998,0.0199892,327.165,382.72)">
                    <path d="M-1.269,-8.486L7.486,-8.486L8.318,-1.243L-0.437,-1.243L-1.269,-8.486Z" style="fill:rgb(234,112,99);fill-rule:nonzero;"/>
                </g>
                <g transform="matrix(-1,0,0,1,369.458,399.034)">
                    <path d="M-4.36,-8.696L2.929,-8.696L-0.001,0L-7.289,0L-4.36,-8.696Z" style="fill:rgb(234,112,99);fill-rule:nonzero;"/>
                </g>
                <g transform="matrix(1,0,0,1,360.001,261.719)">
                    <path d="M0,-66.813C0,-66.813 -11.467,-46.16 -8.855,-4.461C2.78,-2.89 24.102,-0.011 29.764,0.754C30.831,-5.139 31.011,-34.561 40.501,-61.722C40.501,-61.722 34.061,-63.945 27.794,-65.101C22.891,-66.005 15.769,-67.127 11.377,-67.317C5.587,-67.567 0,-66.813 0,-66.813" style="fill:rgb(15,38,76);fill-rule:nonzero;"/>
                </g>
                <g transform="matrix(1,0,0,1,364.441,254.53)">
                    <path d="M0,-49.099C-1.605,-46.329 -3.3,-43.646 -4.963,-40.928L-10.13,-32.888C-11.853,-30.206 -13.652,-27.567 -15.459,-24.924C-16.357,-23.6 -17.29,-22.291 -18.22,-20.98L-19.635,-19.016C-20.152,-18.308 -20.759,-17.501 -21.341,-16.827C-23.703,-14.044 -26.259,-11.818 -28.839,-9.694C-31.448,-7.615 -34.104,-5.688 -36.825,-3.893C-42.264,-0.279 -47.847,2.877 -53.707,5.728L-56.476,1.01C-51.461,-2.665 -46.464,-6.531 -41.708,-10.463C-39.338,-12.447 -37.02,-14.462 -34.852,-16.553C-32.681,-18.621 -30.637,-20.799 -29.027,-22.966C-28.607,-23.521 -28.294,-24.006 -27.91,-24.603L-26.68,-26.59L-24.232,-30.606L-19.332,-38.682L-14.431,-46.784C-12.759,-49.459 -11.133,-52.179 -9.442,-54.827L0,-49.099Z" style="fill:rgb(255,139,123);fill-rule:nonzero;"/>
                </g>
                <g transform="matrix(-0.292545,-0.956252,-0.956252,0.292545,343.96,197.336)">
                    <path d="M-13.195,-21.107C-19.522,-18.192 -31.69,-1.831 -31.69,-1.831L-13.195,10.095C-13.195,10.095 -6.371,-1.191 -3.122,-9.749C0.161,-18.4 -6.251,-24.305 -13.195,-21.107" style="fill:rgb(15,38,76);fill-rule:nonzero;"/>
                </g>
                <g transform="matrix(-0.946922,0.321463,0.321463,0.946922,310.648,262.328)">
                    <path d="M-3.772,-8.082L2.869,-8.082L-0.977,0.162C-0.977,0.162 -4.769,0.962 -6.138,-4.164L-3.772,-8.082Z" style="fill:rgb(255,139,123);fill-rule:nonzero;"/>
                </g>
                <g transform="matrix(0.897306,0.441409,0.441409,-0.897306,301.377,258.216)">
                    <path d="M0.862,-2.233L8.868,-2.233L10.94,0.979L2.394,4.097L0.862,-2.233Z" style="fill:rgb(255,139,123);fill-rule:nonzero;"/>
                </g>
                <g transform="matrix(-0.30682,-0.951768,-0.951768,0.30682,374.941,164.141)">
                    <path d="M-10.741,-13.243C-16.972,-9.573 -20.806,-7.742 -22.453,-2.812C-24.931,4.601 -17.944,11.041 -10.741,9.308C-4.259,7.747 4.841,2.009 4.195,-5.591C3.559,-13.078 -4.51,-16.912 -10.741,-13.243" style="fill:rgb(255,139,123);fill-rule:nonzero;"/>
                </g>
                <g transform="matrix(1,0,0,1,400.606,157.149)">
                    <path d="M0,12.908C-0.2,11.688 -1.008,10.708 -1.781,10.258C1.633,8.766 -0.078,7.021 -2.992,4.482C-6.761,1.107 -8.332,-5.707 -8.168,-7.171C-9.36,-5.357 -9.037,-2.69 -8.028,-0.29C-9.24,-1.679 -10.318,-3.232 -11.018,-4.989C-13.934,-12.319 -20.245,-5.913 -26.335,-5.703C-36.566,-5.35 -28.462,-10.701 -20.959,-10.539C-32.146,-13.965 -43.308,-9.721 -41.481,-2.244C-39.635,5.313 -27.148,-4.278 -27.218,2.661C-27.231,4.062 -25.687,5.439 -23.414,6.526C-26.562,13.01 -18.887,26.029 -14.379,26.451C-9.878,26.873 -2.079,19.088 -1.741,12.352C-1.185,12.406 -0.532,12.621 0,12.908" style="fill:rgb(15,38,76);fill-rule:nonzero;"/>
                </g>
                <g transform="matrix(-0.209735,-0.977758,-0.977758,0.209735,376.289,169.503)">
                    <path d="M-3.27,-3.789C-5.029,-2.947 -6.234,-1.371 -6.742,0.148C-7.505,2.434 -5.49,3.697 -3.27,3.162C-1.271,2.681 1.533,0.912 1.335,-1.432C1.138,-3.739 -1.261,-4.753 -3.27,-3.789" style="fill:rgb(255,139,123);fill-rule:nonzero;"/>
                </g>
                <g transform="matrix(1,0,0,1,379.38,259.107)">
                    <path d="M0,138.24L-13.35,138.24C-13.35,138.24 -30.97,93.31 -32.84,70C-33.24,64.969 -32.439,58.41 -30.96,51.32C-28.439,39.2 -23.99,25.53 -20.36,15.35C-17.13,6.3 -14.54,0 -14.54,0C-14.54,0 -4.399,1.37 10.39,3.37C7.94,21.46 -11.84,50.23 -12.07,74.969C-12.29,97.76 0,138.24 0,138.24" style="fill:rgb(0,83,204);fill-rule:nonzero;"/>
                </g>
                <g transform="matrix(1,0,0,1,365.333,304.511)">
                    <path d="M0,-24.4C-0.87,-12.31 -10.173,0.545 -16.913,5.915C-14.393,-6.205 -9.943,-19.875 -6.313,-30.054C-4.423,-30.315 -1.43,-26.58 0,-24.4" style="fill:rgb(0,77,170);fill-rule:nonzero;"/>
                </g>
                <g transform="matrix(1,0,0,1,351.146,389.653)">
                    <path d="M0,-132.395C0,-132.395 -34.278,-86.746 -36.467,-64.621C-38.743,-41.608 -35.098,-1.653 -35.098,-1.653L-22.865,0C-22.865,0 -19.172,-37.567 -15.59,-59.986C-11.686,-84.427 25.446,-109.697 28.001,-128.614C16.059,-130.226 0,-132.395 0,-132.395" style="fill:rgb(0,83,204);fill-rule:nonzero;"/>
                </g>
                <g transform="matrix(1,0,0,1,363.67,392.639)">
                    <path d="M0,5L17.444,5L17.444,0.306L-2.056,0L0,5Z" style="fill:rgb(119,179,252);fill-rule:nonzero;"/>
                </g>
                <g transform="matrix(0.99068,0.136209,0.136209,-0.99068,313.462,386.797)">
                    <path d="M0.273,-1.093L17.416,-1.093L17.405,3.656L-1.794,3.901L0.273,-1.093Z" style="fill:rgb(119,179,252);fill-rule:nonzero;"/>
                </g>
                <g transform="matrix(1,0,0,1,367.741,406.964)">
                    <path d="M0,-0.837C-0.091,-0.837 -0.166,-0.823 -0.225,-0.793C-0.271,-0.77 -0.325,-0.725 -0.334,-0.591C-0.351,-0.316 -0.274,-0.111 -0.1,0.035C0.301,0.371 1.252,0.416 2.488,0.167C1.666,-0.309 0.559,-0.837 0,-0.837M1.083,0.672C0.528,0.672 0.009,0.577 -0.321,0.3C-0.582,0.08 -0.702,-0.227 -0.678,-0.612C-0.66,-0.899 -0.507,-1.036 -0.382,-1.101C0.421,-1.509 2.774,-0.07 3.04,0.096C3.099,0.133 3.13,0.201 3.118,0.269C3.107,0.339 3.057,0.393 2.988,0.41C2.483,0.532 1.757,0.672 1.083,0.672" style="fill:rgb(64,123,255);fill-rule:nonzero;"/>
                </g>
                <g transform="matrix(1,0,0,1,369.22,407.004)">
                    <path d="M0,-2.579C-0.026,-2.579 -0.052,-2.577 -0.078,-2.574C-0.303,-2.546 -0.322,-2.443 -0.331,-2.399C-0.422,-1.92 0.507,-0.714 1.256,-0.144C1.171,-0.759 0.938,-1.984 0.396,-2.428C0.271,-2.529 0.142,-2.579 0,-2.579M1.47,0.375C1.441,0.375 1.413,0.368 1.388,0.354C0.634,-0.056 -0.824,-1.652 -0.67,-2.464C-0.642,-2.611 -0.533,-2.866 -0.121,-2.916C0.146,-2.954 0.395,-2.875 0.614,-2.695C1.461,-2.003 1.635,0.1 1.642,0.189C1.646,0.252 1.617,0.313 1.563,0.347C1.535,0.365 1.503,0.375 1.47,0.375" style="fill:rgb(64,123,255);fill-rule:nonzero;"/>
                </g>
                <g transform="matrix(1,0,0,1,313.701,396.887)">
                    <path d="M0,-1.102C-0.072,-1.102 -0.135,-1.092 -0.187,-1.072C-0.261,-1.042 -0.301,-0.993 -0.319,-0.904C-0.368,-0.675 -0.325,-0.486 -0.187,-0.327C0.202,0.127 1.389,0.363 3.012,0.307C2.01,-0.348 0.639,-1.102 0,-1.102M2.582,0.659C1.438,0.659 0.083,0.516 -0.449,-0.101C-0.659,-0.344 -0.729,-0.639 -0.657,-0.976C-0.614,-1.177 -0.495,-1.322 -0.313,-1.393C0.629,-1.761 3.333,0.1 3.638,0.314C3.698,0.356 3.725,0.432 3.705,0.502C3.686,0.573 3.623,0.624 3.55,0.627C3.268,0.645 2.935,0.659 2.582,0.659" style="fill:rgb(64,123,255);fill-rule:nonzero;"/>
                </g>
                <g transform="matrix(1,0,0,1,315.711,397.171)">
                    <path d="M0,-2.832C-0.278,-2.832 -0.312,-2.722 -0.323,-2.684C-0.469,-2.204 0.539,-0.818 1.355,-0.164C1.34,-0.745 1.239,-1.944 0.703,-2.52C0.517,-2.721 0.298,-2.822 0.036,-2.831C0.023,-2.832 0.012,-2.832 0,-2.832M1.529,0.345C1.498,0.345 1.466,0.336 1.438,0.318C0.62,-0.19 -0.896,-1.985 -0.653,-2.784C-0.599,-2.965 -0.44,-3.177 0.001,-3.177L0.048,-3.177C0.401,-3.165 0.707,-3.022 0.956,-2.755C1.772,-1.876 1.705,0.095 1.702,0.179C1.699,0.24 1.664,0.296 1.61,0.324C1.585,0.338 1.557,0.345 1.529,0.345" style="fill:rgb(64,123,255);fill-rule:nonzero;"/>
                </g>
            </g>
        </g>
    </g>
</svg>
