<?xml version="1.0" encoding="UTF-8" standalone="no"?>
<!DOCTYPE svg PUBLIC "-//W3C//DTD SVG 1.1//EN" "http://www.w3.org/Graphics/SVG/1.1/DTD/svg11.dtd">
<svg width="100%" height="100%" viewBox="0 0 1080 805" version="1.1" xmlns="http://www.w3.org/2000/svg" xmlns:xlink="http://www.w3.org/1999/xlink" xml:space="preserve" xmlns:serif="http://www.serif.com/" style="fill-rule:evenodd;clip-rule:evenodd;stroke-linejoin:round;stroke-miterlimit:2;">
    <g transform="matrix(1,0,0,1,-4792,-1309.5)">
        <g transform="matrix(1,0,0,1,4792,1216)">
            <g transform="matrix(2.16,0,0,2.16,0,-25.1976)">
                <g transform="matrix(1,0,0,1,0,265.047)">
                    <rect x="0" y="117.352" width="500" height="0.249" style="fill:rgb(236,236,236);"/>
                </g>
                <g transform="matrix(1,0,0,1,0,278.666)">
                    <rect x="333.334" y="110.542" width="73.788" height="0.25" style="fill:rgb(236,236,236);"/>
                </g>
                <g transform="matrix(1,0,0,1,0,282.028)">
                    <rect x="103.615" y="108.861" width="8.693" height="0.25" style="fill:rgb(236,236,236);"/>
                </g>
                <g transform="matrix(1,0,0,1,0,297.239)">
                    <rect x="408.123" y="101.256" width="19.193" height="0.249" style="fill:rgb(236,236,236);"/>
                </g>
                <g transform="matrix(1,0,0,1,0,290.472)">
                    <rect x="200" y="104.639" width="48.667" height="0.25" style="fill:rgb(236,236,236);"/>
                </g>
                <g transform="matrix(1,0,0,1,0,290.472)">
                    <rect x="166.717" y="104.639" width="24.38" height="0.25" style="fill:rgb(236,236,236);"/>
                </g>
                <g transform="matrix(1,0,0,1,0,282.028)">
                    <rect x="52.459" y="108.861" width="33.147" height="0.25" style="fill:rgb(236,236,236);"/>
                </g>
                <g transform="matrix(1,0,0,1,43.915,337.55)">
                    <path d="M0,-282.347C-3.01,-282.347 -5.458,-279.899 -5.458,-276.889L-5.458,-5.458C-5.458,-2.448 -3.01,0 0,0L193.099,0C196.107,0 198.556,-2.448 198.556,-5.458L198.556,-276.889C198.556,-279.899 196.107,-282.347 193.099,-282.347L0,-282.347ZM193.099,0.25L0,0.25C-3.147,0.25 -5.708,-2.31 -5.708,-5.458L-5.708,-276.889C-5.708,-280.036 -3.147,-282.597 0,-282.597L193.099,-282.597C196.245,-282.597 198.806,-280.036 198.806,-276.889L198.806,-5.458C198.806,-2.31 196.245,0.25 193.099,0.25" style="fill:rgb(236,236,236);fill-rule:nonzero;"/>
                </g>
                <g transform="matrix(1,0,0,1,260.212,337.55)">
                    <path d="M0,-282.347C-3.009,-282.347 -5.457,-279.899 -5.457,-276.889L-5.457,-5.458C-5.457,-2.448 -3.009,0 0,0L193.099,0C196.108,0 198.557,-2.448 198.557,-5.458L198.557,-276.889C198.557,-279.899 196.108,-282.347 193.099,-282.347L0,-282.347ZM193.099,0.25L0,0.25C-3.146,0.25 -5.707,-2.31 -5.707,-5.458L-5.707,-276.889C-5.707,-280.036 -3.146,-282.597 0,-282.597L193.099,-282.597C196.246,-282.597 198.807,-280.036 198.807,-276.889L198.807,-5.458C198.807,-2.31 196.246,0.25 193.099,0.25" style="fill:rgb(236,236,236);fill-rule:nonzero;"/>
                </g>
                <g transform="matrix(1,0,0,1,0,-130.185)">
                    <rect x="76.005" y="224.874" width="153.985" height="180.437" style="fill:rgb(231,231,231);"/>
                </g>
                <g transform="matrix(1,0,0,1,0,-130.185)">
                    <rect x="72.576" y="224.874" width="153.985" height="180.437" style="fill:rgb(245,245,245);"/>
                </g>
                <g transform="matrix(1,0,0,1,0,56.094)">
                    <rect x="76.005" y="219.032" width="153.985" height="5.842" style="fill:rgb(231,231,231);"/>
                </g>
                <g transform="matrix(1,0,0,1,0,56.094)">
                    <rect x="66.421" y="219.032" width="153.985" height="5.842" style="fill:rgb(245,245,245);"/>
                </g>
                <g transform="matrix(-1,0,0,1,299.138,-130.185)">
                    <rect x="78.731" y="230.62" width="141.676" height="168.945" style="fill:rgb(250,250,250);"/>
                </g>
                <g transform="matrix(-0.142357,-0.989815,-0.989815,0.142357,254.076,141.664)">
                    <path d="M-119.641,65.28L51.042,65.28L56.563,103.665L-114.12,103.665L-119.641,65.28Z" style="fill:white;fill-rule:nonzero;"/>
                </g>
                <g transform="matrix(-0.142357,-0.989815,-0.989815,0.142357,213.146,147.641)">
                    <path d="M-112.743,71.257L57.94,71.257L61.742,97.688L-108.941,97.688L-112.743,71.257Z" style="fill:white;fill-rule:nonzero;"/>
                </g>
                <g transform="matrix(-1,0,0,1,160.052,-130.185)">
                    <rect x="78.73" y="230.62" width="2.592" height="168.945" style="fill:rgb(231,231,231);"/>
                </g>
                <g transform="matrix(1,0,0,1,0,-0.757)">
                    <rect x="75.122" y="246.521" width="148.894" height="7.715" style="fill:rgb(245,245,245);"/>
                </g>
                <g transform="matrix(1,0,0,1,0,26.731)">
                    <rect x="287.721" y="117.602" width="23.76" height="238.065" style="fill:rgb(231,231,231);"/>
                </g>
                <g transform="matrix(-1,0,0,1,292.452,369.561)">
                    <path d="M0.219,12.837L4.732,12.837L4.732,0L-4.513,0L0.219,12.837Z" style="fill:rgb(240,240,240);fill-rule:nonzero;"/>
                </g>
                <g transform="matrix(1,0,0,1,0,26.731)">
                    <rect x="407.151" y="117.602" width="23.76" height="238.065" style="fill:rgb(231,231,231);"/>
                </g>
                <g transform="matrix(1,0,0,1,0,20.411)">
                    <rect x="287.721" y="123.922" width="123.37" height="231.745" style="fill:rgb(240,240,240);"/>
                </g>
                <g transform="matrix(1,0,0,1,295.399,357.95)">
                    <path d="M0,-209.349C-2.015,-209.349 -3.653,-207.709 -3.653,-205.695L-3.653,-3.654C-3.653,-1.64 -2.015,-0 0,-0L48.314,-0C50.329,-0 51.969,-1.64 51.969,-3.654L51.969,-205.695C51.969,-207.709 50.329,-209.349 48.314,-209.349L0,-209.349ZM48.314,1.047L0,1.047C-2.592,1.047 -4.7,-1.061 -4.7,-3.654L-4.7,-205.695C-4.7,-208.287 -2.592,-210.396 0,-210.396L48.314,-210.396C50.907,-210.396 53.016,-208.287 53.016,-205.695L53.016,-3.654C53.016,-1.061 50.907,1.047 48.314,1.047" style="fill:rgb(225,225,225);fill-rule:nonzero;"/>
                </g>
                <g transform="matrix(1,0,0,1,355.097,357.95)">
                    <path d="M0,-209.349C-2.015,-209.349 -3.653,-207.71 -3.653,-205.695L-3.653,-3.654C-3.653,-1.64 -2.015,-0 0,-0L48.314,-0C50.329,-0 51.969,-1.64 51.969,-3.654L51.969,-205.695C51.969,-207.71 50.329,-209.349 48.314,-209.349L0,-209.349ZM48.314,1.047L0,1.047C-2.592,1.047 -4.7,-1.061 -4.7,-3.654L-4.7,-205.695C-4.7,-208.287 -2.592,-210.396 0,-210.396L48.314,-210.396C50.907,-210.396 53.016,-208.287 53.016,-205.695L53.016,-3.654C53.016,-1.061 50.907,1.047 48.314,1.047" style="fill:rgb(225,225,225);fill-rule:nonzero;"/>
                </g>
                <g transform="matrix(0,-1,-1,0,359.584,250)">
                    <path d="M-4.011,-4.011C-6.227,-4.011 -8.023,-2.215 -8.023,0C-8.023,2.217 -6.227,4.011 -4.011,4.011C-1.796,4.011 0,2.217 0,0C0,-2.215 -1.796,-4.011 -4.011,-4.011" style="fill:rgb(250,250,250);fill-rule:nonzero;"/>
                </g>
                <g transform="matrix(0,-1,-1,0,339.227,250)">
                    <path d="M-4.012,-4.012C-6.228,-4.012 -8.024,-2.216 -8.024,0C-8.024,2.216 -6.228,4.012 -4.012,4.012C-1.796,4.012 0,2.216 0,0C0,-2.216 -1.796,-4.012 -4.012,-4.012" style="fill:rgb(250,250,250);fill-rule:nonzero;"/>
                </g>
                <g transform="matrix(1,0,0,1,406.577,369.561)">
                    <path d="M0,12.837L4.513,12.837L4.513,0L-4.731,0L0,12.837Z" style="fill:rgb(240,240,240);fill-rule:nonzero;"/>
                </g>
                <g transform="matrix(-1,0,0,1,342.436,104.749)">
                    <path d="M-22.073,5.361L15.778,5.361L0,0L-37.851,0L-22.073,5.361Z" style="fill:rgb(231,231,231);fill-rule:nonzero;"/>
                </g>
                <g transform="matrix(1,0,0,1,0,-245.556)">
                    <rect x="373.547" y="355.667" width="37.851" height="34.222" style="fill:rgb(236,236,236);"/>
                </g>
                <g transform="matrix(1,0,0,1,0,-227.787)">
                    <rect x="320.299" y="355.667" width="10.115" height="16.453" style="fill:rgb(236,236,236);"/>
                </g>
                <g transform="matrix(-1,0,0,1,628.068,-227.787)">
                    <rect x="307.769" y="355.667" width="12.53" height="16.453" style="fill:rgb(245,245,245);"/>
                </g>
                <g transform="matrix(1,0,0,1,373.547,106.555)">
                    <path d="M0,3.556L37.851,3.556L22.073,0L-15.777,0L0,3.556Z" style="fill:rgb(236,236,236);fill-rule:nonzero;"/>
                </g>
                <g transform="matrix(-1,0,0,1,700.205,-245.556)">
                    <rect x="326.658" y="355.667" width="46.889" height="34.222" style="fill:rgb(245,245,245);"/>
                </g>
                <g transform="matrix(1,0,0,1,177.891,304.289)">
                    <path d="M0,78.109L32.461,78.109L28.629,0L0,0L0,78.109Z" style="fill:rgb(245,245,245);fill-rule:nonzero;"/>
                </g>
                <g transform="matrix(1,0,0,1,75.2363,301.667)">
                    <path d="M0,80.731L124.647,80.731L133.263,0L8.615,0L0,80.731Z" style="fill:rgb(231,231,231);fill-rule:nonzero;"/>
                </g>
                <g transform="matrix(1,0,0,1,71.6274,301.667)">
                    <path d="M0,80.731L124.647,80.731L133.262,0L8.615,0L0,80.731Z" style="fill:rgb(240,240,240);fill-rule:nonzero;"/>
                </g>
                <g transform="matrix(0.12439,-0.992233,-0.992233,-0.12439,175.933,294.184)">
                    <path d="M-76.859,-24.239L-13.51,-24.239L-27.467,87.096L-90.816,87.096L-76.859,-24.239Z" style="fill:rgb(250,250,250);fill-rule:nonzero;"/>
                </g>
                <g transform="matrix(0,-1,-1,0,250,222.349)">
                    <path d="M-193.889,-193.889C-200.143,-193.889 -205.212,-107.082 -205.212,0C-205.212,107.082 -200.143,193.889 -193.889,193.889C-187.635,193.889 -182.566,107.082 -182.566,0C-182.566,-107.082 -187.635,-193.889 -193.889,-193.889" style="fill:rgb(245,245,245);fill-rule:nonzero;"/>
                </g>
                <g transform="matrix(-0.998734,-0.0503093,-0.0503093,0.998734,360.731,163.243)">
                    <rect x="-0.473" y="0.012" width="1.072" height="23.81" style="fill:rgb(0,124,255);"/>
                </g>
                <g transform="matrix(-0.998734,-0.0503093,-0.0503093,0.998734,358.901,191.926)">
                    <rect x="-0.856" y="0.022" width="1.073" height="8.583" style="fill:rgb(0,124,255);"/>
                </g>
                <g transform="matrix(1,0,0,1,334.221,102.285)">
                    <path d="M0,253.061L-102.227,253.061C-109.668,253.061 -115.449,246.973 -115.074,239.531L-103.675,13.531C-103.299,6.089 -96.904,0 -89.462,0L12.764,0C20.206,0 25.987,6.089 25.612,13.531L14.212,239.531C13.837,246.973 7.441,253.061 0,253.061" style="fill:rgb(0,124,255);fill-rule:nonzero;"/>
                </g>
                <g opacity="0.2">
                    <g transform="matrix(1,0,0,1,283.021,332.732)">
                        <path d="M0,-140.546C-8.85,-140.546 -16.413,-133.346 -16.858,-124.496L-22.331,-15.992C-22.546,-11.732 -21.078,-7.717 -18.197,-4.688C-15.322,-1.665 -11.397,0.001 -7.146,0.001L23.687,0.001C32.536,0.001 40.1,-7.199 40.545,-16.048L46.018,-124.553C46.232,-128.813 44.765,-132.828 41.884,-135.857C39.009,-138.881 35.084,-140.546 30.832,-140.546L0,-140.546ZM23.687,1.128L-7.146,1.128C-11.709,1.128 -15.925,-0.661 -19.015,-3.911C-22.11,-7.167 -23.688,-11.477 -23.458,-16.048L-17.985,-124.553C-17.509,-133.993 -9.44,-141.674 0,-141.674L30.832,-141.674C35.396,-141.674 39.611,-139.884 42.701,-136.634C45.797,-133.379 47.375,-129.068 47.145,-124.496L41.672,-15.992C41.195,-6.551 33.127,1.128 23.687,1.128" style="fill:white;fill-rule:nonzero;"/>
                    </g>
                </g>
                <g opacity="0.1">
                    <g transform="matrix(1,0,0,1,280.835,167.917)">
                        <path d="M0,53.118L-26.058,53.118C-33.499,53.118 -39.281,47.03 -38.905,39.588L-37.591,13.53C-37.216,6.089 -30.82,0 -23.378,0L2.679,0C10.121,0 15.902,6.089 15.527,13.53L14.212,39.588C13.837,47.03 7.441,53.118 0,53.118" style="fill-rule:nonzero;"/>
                    </g>
                </g>
                <g transform="matrix(1,0,0,1,273.248,159.926)">
                    <path d="M0,53.118L-26.058,53.118C-33.499,53.118 -39.28,47.03 -38.905,39.588L-37.591,13.531C-37.215,6.089 -30.82,0 -23.378,0L2.679,0C10.121,0 15.902,6.089 15.527,13.531L14.212,39.588C13.837,47.03 7.442,53.118 0,53.118" style="fill:white;fill-rule:nonzero;"/>
                </g>
                <g opacity="0.1">
                    <g transform="matrix(1,0,0,1,317.434,283.996)">
                        <path d="M0,37.846L-18.566,37.846C-23.868,37.846 -27.987,33.508 -27.72,28.205L-26.783,9.64C-26.516,4.338 -21.959,0 -16.657,0L1.909,0C7.211,0 11.33,4.338 11.063,9.64L10.126,28.205C9.859,33.508 5.302,37.846 0,37.846" style="fill-rule:nonzero;"/>
                    </g>
                </g>
                <g transform="matrix(1,0,0,1,312.028,278.302)">
                    <path d="M0,37.846L-18.566,37.846C-23.868,37.846 -27.987,33.508 -27.72,28.206L-26.783,9.64C-26.516,4.338 -21.959,0 -16.657,0L1.909,0C7.211,0 11.33,4.338 11.063,9.64L10.126,28.206C9.859,33.508 5.302,37.846 0,37.846" style="fill:white;fill-rule:nonzero;"/>
                </g>
                <g transform="matrix(1,0,0,1,250.146,232.61)">
                    <path d="M0,27.312L-13.398,27.312C-17.225,27.312 -20.197,24.181 -20.004,20.355L-19.329,6.957C-19.135,3.13 -15.847,0 -12.021,0L1.377,0C5.204,0 8.176,3.13 7.983,6.957L7.308,20.355C7.115,24.181 3.826,27.312 0,27.312" style="fill:white;fill-rule:nonzero;"/>
                </g>
                <g transform="matrix(1,0,0,1,336.085,232.61)">
                    <path d="M0,27.312L-13.398,27.312C-17.225,27.312 -20.197,24.181 -20.004,20.355L-19.329,6.957C-19.136,3.13 -15.847,0 -12.021,0L1.377,0C5.204,0 8.176,3.13 7.983,6.957L7.308,20.355C7.115,24.181 3.826,27.312 0,27.312" style="fill:white;fill-rule:nonzero;"/>
                </g>
                <g transform="matrix(1,0,0,1,293.116,232.61)">
                    <path d="M0,27.312L-13.398,27.312C-17.225,27.312 -20.197,24.181 -20.004,20.355L-19.329,6.957C-19.135,3.13 -15.847,0 -12.021,0L1.377,0C5.204,0 8.177,3.13 7.983,6.957L7.308,20.355C7.115,24.181 3.826,27.312 0,27.312" style="fill:white;fill-rule:nonzero;"/>
                </g>
                <g transform="matrix(1,0,0,1,342.958,126.401)">
                    <path d="M0,15.284L-98.147,15.284C-102.301,15.284 -105.528,11.886 -105.318,7.733L-105.309,7.552C-105.1,3.398 -101.53,0 -97.376,0L0.771,0C4.924,0 8.151,3.398 7.942,7.552L7.933,7.733C7.723,11.886 4.153,15.284 0,15.284" style="fill:white;fill-rule:nonzero;"/>
                </g>
                <g transform="matrix(1,0,0,1,338.553,138.333)">
                    <path d="M0,-8.579L1.251,-5.755L4.345,-5.302L1.979,-3.104L2.355,0L-0.358,-1.466L-3.22,0L-2.531,-3.104L-4.675,-5.302L-1.536,-5.755L0,-8.579Z" style="fill:rgb(0,124,255);fill-rule:nonzero;"/>
                </g>
                <g opacity="0.1">
                    <g transform="matrix(0,-1,-1,0,247.668,131.225)">
                        <path d="M-2.819,-2.818C-4.376,-2.739 -5.637,-1.414 -5.637,0.143C-5.637,1.7 -4.376,2.898 -2.819,2.82C-1.262,2.741 -0,1.415 -0,-0.141C-0,-1.698 -1.262,-2.897 -2.819,-2.818" style="fill:rgb(0,124,255);fill-rule:nonzero;"/>
                    </g>
                </g>
                <g opacity="0.1">
                    <g transform="matrix(0,-1,-1,0,254.903,131.225)">
                        <path d="M-2.819,-2.818C-4.376,-2.739 -5.637,-1.414 -5.637,0.143C-5.637,1.7 -4.376,2.898 -2.819,2.819C-1.262,2.741 -0,1.415 -0,-0.142C-0,-1.698 -1.262,-2.897 -2.819,-2.818" style="fill:rgb(0,124,255);fill-rule:nonzero;"/>
                    </g>
                </g>
                <g opacity="0.1">
                    <g transform="matrix(0,-1,-1,0,262.139,131.224)">
                        <path d="M-2.819,-2.819C-4.377,-2.74 -5.637,-1.415 -5.637,0.142C-5.637,1.699 -4.377,2.898 -2.819,2.819C-1.262,2.741 -0.001,1.415 -0.001,-0.142C-0.001,-1.699 -1.262,-2.897 -2.819,-2.819" style="fill:rgb(0,124,255);fill-rule:nonzero;"/>
                    </g>
                </g>
                <g opacity="0.2">
                    <g transform="matrix(1,0,0,1,286.239,114.454)">
                        <path d="M0,0L5.666,4.439L6.114,-4.439L0,0Z" style="fill:white;fill-rule:nonzero;"/>
                    </g>
                </g>
                <g opacity="0.2">
                    <g transform="matrix(1,0,0,1,304.278,114.454)">
                        <path d="M0,0L-6.113,4.439L-5.666,-4.439L0,0Z" style="fill:white;fill-rule:nonzero;"/>
                    </g>
                </g>
                <g opacity="0.2">
                    <g transform="matrix(1,0,0,1,303.914,175.061)">
                        <path d="M0,-4.699C-1.303,-4.699 -2.416,-3.639 -2.481,-2.336C-2.513,-1.713 -2.299,-1.127 -1.879,-0.685C-1.459,-0.244 -0.886,-0.001 -0.265,-0.001L35.439,-0.001C36.742,-0.001 37.855,-1.061 37.922,-2.364C37.953,-2.987 37.738,-3.573 37.317,-4.015C36.898,-4.456 36.325,-4.699 35.704,-4.699L0,-4.699ZM35.439,0.563L-0.265,0.563C-1.042,0.563 -1.761,0.258 -2.287,-0.297C-2.814,-0.851 -3.084,-1.586 -3.044,-2.364C-2.965,-3.962 -1.599,-5.262 0,-5.262L35.704,-5.262C36.481,-5.262 37.199,-4.958 37.727,-4.404C38.254,-3.848 38.523,-3.115 38.484,-2.336C38.403,-0.738 37.038,0.563 35.439,0.563" style="fill:white;fill-rule:nonzero;"/>
                    </g>
                </g>
                <g opacity="0.2">
                    <g transform="matrix(1,0,0,1,303.511,183.051)">
                        <path d="M0,-4.699C-1.303,-4.699 -2.416,-3.639 -2.482,-2.336C-2.514,-1.713 -2.3,-1.127 -1.88,-0.685C-1.46,-0.244 -0.887,-0.001 -0.266,-0.001L35.438,-0.001C36.741,-0.001 37.854,-1.061 37.921,-2.364C37.952,-2.987 37.738,-3.573 37.317,-4.014C36.898,-4.456 36.325,-4.699 35.704,-4.699L0,-4.699ZM35.438,0.563L-0.266,0.563C-1.043,0.563 -1.761,0.258 -2.288,-0.297C-2.815,-0.852 -3.085,-1.586 -3.045,-2.364C-2.964,-3.962 -1.599,-5.262 0,-5.262L35.704,-5.262C36.481,-5.262 37.199,-4.957 37.727,-4.403C38.254,-3.848 38.523,-3.114 38.483,-2.336C38.402,-0.738 37.037,0.563 35.438,0.563" style="fill:white;fill-rule:nonzero;"/>
                    </g>
                </g>
                <g opacity="0.2">
                    <g transform="matrix(1,0,0,1,239.46,280.934)">
                        <path d="M0,35.704L0.007,35.704L0,35.704ZM4.564,-2.349C3.262,-2.349 2.148,-1.289 2.082,0.015L0.281,35.719C0.25,36.341 0.464,36.927 0.884,37.369C1.304,37.81 1.877,38.053 2.498,38.053C3.801,38.053 4.914,36.993 4.98,35.689L6.781,-0.015C6.812,-0.637 6.599,-1.223 6.179,-1.665C5.759,-2.107 5.186,-2.349 4.564,-2.349M2.498,38.617C1.721,38.617 1.002,38.311 0.476,37.758C-0.052,37.202 -0.321,36.468 -0.281,35.689L1.52,-0.015C1.601,-1.612 2.966,-2.913 4.564,-2.913C5.342,-2.913 6.06,-2.608 6.587,-2.053C7.114,-1.498 7.384,-0.764 7.344,0.015L5.543,35.719C5.462,37.316 4.097,38.617 2.498,38.617" style="fill:white;fill-rule:nonzero;"/>
                    </g>
                </g>
                <g transform="matrix(1,0,0,1,148.379,216.085)">
                    <path d="M0,-8.143L4.772,-3.984L-4.04,0C-4.04,0 -4.468,-2.07 -4.708,-5.295C-4.809,-6.643 -3.818,-7.824 -2.472,-7.936L0,-8.143Z" style="fill:rgb(255,196,190);fill-rule:nonzero;"/>
                </g>
                <g transform="matrix(-1,-0.000128025,-0.000128025,1,144.339,212.101)">
                    <path d="M-10.581,8.461L-2.77,8.461L0,3.984L-8.811,-0L-10.581,8.461Z" style="fill:rgb(255,196,190);fill-rule:nonzero;"/>
                </g>
                <g transform="matrix(1,0,0,1,199.557,188.786)">
                    <path d="M0,-42.887C3.335,-38.666 6.789,-34.336 10.243,-30.14C13.694,-25.922 17.222,-21.784 20.843,-17.903L22.211,-16.477L22.73,-15.947C22.837,-15.817 23.034,-15.677 23.191,-15.534C23.892,-14.965 24.839,-14.345 25.874,-13.786C27.964,-12.667 30.365,-11.651 32.835,-10.743C37.779,-8.923 43.083,-7.341 48.291,-5.877L47.521,0C41.713,-0.116 36.071,-0.698 30.304,-1.911C27.427,-2.537 24.534,-3.296 21.566,-4.506C20.08,-5.118 18.56,-5.813 16.993,-6.86C16.596,-7.138 16.211,-7.383 15.804,-7.724L15.205,-8.213L14.776,-8.593L13.136,-10.062C8.848,-14.015 4.931,-18.169 1.177,-22.432C-2.582,-26.715 -6.112,-31.057 -9.545,-35.674L0,-42.887Z" style="fill:rgb(255,196,190);fill-rule:nonzero;"/>
                </g>
                <g transform="matrix(0.251259,0.96792,0.96792,-0.251259,258.985,186.47)">
                    <path d="M-4.844,-0.58L3.697,-0.58L1.133,-8.579L-7.314,-4.422L-4.844,-0.58Z" style="fill:rgb(255,196,190);fill-rule:nonzero;"/>
                </g>
                <g transform="matrix(0.949922,-0.312488,-0.312488,-0.949922,244.661,183.684)">
                    <path d="M1.083,0.46L8.789,0.46L4.102,-7.705C4.102,-7.705 -2.635,-7.481 -3.36,-2.264L1.083,0.46Z" style="fill:rgb(255,196,190);fill-rule:nonzero;"/>
                </g>
                <g transform="matrix(1,0,0,1,157.749,209.014)">
                    <path d="M0,-59.587C-1.515,-54.369 -3.111,-49.129 -4.73,-43.94L-7.133,-36.168L-8.286,-32.316L-8.836,-30.419L-9.3,-28.689C-9.483,-28.013 -9.578,-26.844 -9.622,-25.677C-9.662,-24.489 -9.64,-23.226 -9.585,-21.945C-9.462,-19.374 -9.259,-16.722 -8.983,-14.06C-8.437,-8.737 -7.78,-3.297 -7.122,2.08L-12.867,3.537C-14.836,-1.743 -16.492,-7.041 -17.832,-12.532C-18.486,-15.279 -19.095,-18.057 -19.531,-20.947C-19.744,-22.398 -19.926,-23.873 -20.036,-25.428C-20.139,-27.001 -20.188,-28.592 -19.902,-30.621C-19.821,-31.196 -19.762,-31.444 -19.694,-31.834L-19.494,-32.914L-19.07,-35.016C-18.784,-36.402 -18.464,-37.773 -18.143,-39.129C-17.506,-41.851 -16.832,-44.543 -16.112,-47.215C-14.692,-52.573 -13.142,-57.85 -11.429,-63.124L0,-59.587Z" style="fill:rgb(255,196,190);fill-rule:nonzero;"/>
                </g>
                <g transform="matrix(-0.244877,0.969554,0.969554,0.244877,188,113.931)">
                    <path d="M0.731,-0.938C1.368,-0.913 1.883,-0.556 1.883,-0.14C1.883,0.276 1.367,0.594 0.731,0.569C0.094,0.544 -0.422,0.187 -0.422,-0.229C-0.422,-0.645 0.094,-0.963 0.731,-0.938" style="fill:rgb(26,46,53);fill-rule:nonzero;"/>
                </g>
                <g transform="matrix(1,0,0,1,186.943,122.435)">
                    <path d="M0,-6.829C0,-6.829 0.642,-2.879 1.819,-0.753C0.509,0 -1.248,-0.939 -1.248,-0.939L0,-6.829Z" style="fill:rgb(255,133,127);fill-rule:nonzero;"/>
                </g>
                <g transform="matrix(1,0,0,1,188.562,108.916)">
                    <path d="M0,1.71C0.118,1.71 0.234,1.654 0.307,1.55C0.425,1.381 0.384,1.148 0.215,1.029C0.154,0.987 -1.288,0 -3.171,0.775C-3.362,0.854 -3.453,1.072 -3.375,1.263C-3.296,1.454 -3.077,1.546 -2.887,1.466C-1.377,0.845 -0.226,1.634 -0.214,1.642C-0.149,1.688 -0.074,1.71 0,1.71" style="fill:rgb(26,46,53);fill-rule:nonzero;"/>
                </g>
                <g transform="matrix(1,0,0,1,165.477,142.847)">
                    <path d="M0,-26.456C-0.698,-19.197 0.332,-12.169 -1.293,-5.857C-1.293,-5.857 0.512,0 11.241,0C23.039,0 16.653,-5.856 16.653,-5.856C10.155,-7.394 10.137,-12.172 11.085,-16.658L0,-26.456Z" style="fill:rgb(255,196,190);fill-rule:nonzero;"/>
                </g>
                <g transform="matrix(0.259168,0.965832,0.965832,-0.259168,166.617,127.119)">
                    <path d="M10.253,-7.637C8.225,-8.042 5.531,-7.95 5.382,-5.941C5.217,-3.733 7.876,7.113 10.253,10.672C12.629,14.23 16.004,12.3 16.004,12.3L10.253,-7.637Z" style="fill:rgb(0,124,255);fill-rule:nonzero;"/>
                </g>
                <g transform="matrix(1,0,0,1,138.974,401.502)">
                    <path d="M0,0.227C1.357,0.85 2.466,1.057 3.016,0.781C3.257,0.659 3.401,0.444 3.457,0.123C3.483,-0.034 3.433,-0.1 3.386,-0.14C2.962,-0.502 1.25,-0.149 0,0.227M1.482,1.192C0.707,1.008 -0.093,0.649 -0.643,0.371C-0.716,0.333 -0.76,0.256 -0.754,0.174C-0.748,0.092 -0.694,0.021 -0.616,-0.005C-0.265,-0.124 2.836,-1.147 3.651,-0.451C3.778,-0.342 3.917,-0.143 3.859,0.192C3.782,0.643 3.56,0.964 3.2,1.146C2.744,1.374 2.121,1.342 1.482,1.192" style="fill:rgb(0,124,255);fill-rule:nonzero;"/>
                </g>
                <g transform="matrix(1,0,0,1,140.875,401.429)">
                    <path d="M0,-2.541C-0.164,-2.58 -0.327,-2.559 -0.498,-2.476C-1.244,-2.112 -1.846,-0.765 -2.111,-0.08C-1.092,-0.531 0.306,-1.668 0.332,-2.245C0.333,-2.298 0.339,-2.422 0.088,-2.515C0.059,-2.525 0.029,-2.534 0,-2.541M-2.499,0.46C-2.536,0.451 -2.571,0.432 -2.599,0.402C-2.651,0.349 -2.669,0.271 -2.646,0.199C-2.614,0.098 -1.841,-2.276 -0.677,-2.843C-0.374,-2.99 -0.068,-3.009 0.23,-2.897C0.692,-2.727 0.748,-2.404 0.74,-2.228C0.696,-1.249 -1.418,0.192 -2.398,0.458C-2.432,0.468 -2.466,0.468 -2.499,0.46" style="fill:rgb(0,124,255);fill-rule:nonzero;"/>
                </g>
                <g transform="matrix(1,0,0,1,193.416,406.805)">
                    <path d="M0,1.393C1.464,1.687 2.59,1.633 3.062,1.237C3.269,1.063 3.36,0.821 3.339,0.497C3.33,0.337 3.265,0.285 3.21,0.256C2.715,0.001 1.13,0.739 0,1.393M1.665,1.99C0.867,1.99 0.006,1.825 -0.592,1.68C-0.672,1.661 -0.733,1.595 -0.746,1.514C-0.759,1.433 -0.723,1.352 -0.653,1.308C-0.339,1.112 2.443,-0.597 3.397,-0.107C3.545,-0.031 3.726,0.13 3.747,0.47C3.776,0.927 3.634,1.29 3.325,1.55C2.934,1.877 2.321,1.99 1.665,1.99" style="fill:rgb(0,124,255);fill-rule:nonzero;"/>
                </g>
                <g transform="matrix(1,0,0,1,194.612,408.053)">
                    <path d="M0,-3.058C-0.168,-3.058 -0.322,-2.999 -0.469,-2.879C-1.112,-2.354 -1.387,-0.904 -1.488,-0.177C-0.601,-0.851 0.499,-2.278 0.391,-2.846C0.381,-2.898 0.358,-3.02 0.092,-3.052C0.061,-3.056 0.03,-3.058 0,-3.058M-1.741,0.438C-1.78,0.438 -1.818,0.426 -1.852,0.405C-1.915,0.364 -1.95,0.293 -1.944,0.217C-1.936,0.112 -1.73,-2.376 -0.728,-3.195C-0.467,-3.409 -0.174,-3.496 0.142,-3.457C0.63,-3.398 0.759,-3.096 0.792,-2.922C0.975,-1.96 -0.751,-0.072 -1.644,0.413C-1.674,0.429 -1.708,0.438 -1.741,0.438" style="fill:rgb(0,124,255);fill-rule:nonzero;"/>
                </g>
                <g transform="matrix(1,0,0,1,183.588,389.901)">
                    <path d="M0,18.278L7.893,18.278L7.974,0L0.08,0L0,18.278Z" style="fill:rgb(255,196,190);fill-rule:nonzero;"/>
                </g>
                <g transform="matrix(0.98361,0.180309,0.180309,-0.98361,127.204,400.104)">
                    <path d="M1.603,-1.041L9.329,-1.041L11.447,17.635L3.721,17.634L1.603,-1.041Z" style="fill:rgb(255,196,190);fill-rule:nonzero;"/>
                </g>
                <g transform="matrix(1,0,0,1,137.638,410.349)">
                    <path d="M0,-9.562L-8.629,-11.603C-8.943,-11.677 -9.259,-11.521 -9.387,-11.228L-12.255,-4.697C-12.553,-4.019 -12.129,-3.211 -11.401,-3.052C-8.378,-2.392 -6.879,-2.225 -3.084,-1.328C-0.75,-0.775 4.012,0.607 7.236,1.37C10.39,2.115 11.512,-0.986 10.25,-1.589C4.587,-4.295 2.711,-6.624 1.153,-8.791C0.873,-9.182 0.459,-9.454 0,-9.562" style="fill:rgb(26,46,53);fill-rule:nonzero;"/>
                </g>
                <g transform="matrix(1,0,0,1,191.394,416.239)">
                    <path d="M0,-8.974L-8.62,-8.974C-8.942,-8.974 -9.213,-8.749 -9.271,-8.435L-10.559,-1.418C-10.693,-0.692 -10.114,-0.002 -9.37,-0.015C-6.262,-0.068 -1.776,-0.25 2.132,-0.25C6.702,-0.25 8.33,0 13.689,0C16.929,0 17.702,-3.277 16.334,-3.574C10.107,-4.924 7.388,-5.069 1.925,-8.359C1.332,-8.716 0.681,-8.974 0,-8.974" style="fill:rgb(26,46,53);fill-rule:nonzero;"/>
                </g>
                <g transform="matrix(-0.991903,0.126997,0.126997,0.991903,154.834,164.87)">
                    <path d="M1.955,-25.469C10.526,-19.157 14.891,-3.094 14.891,-3.094L1.955,5.438C1.955,5.438 -3.324,-2.466 -7.12,-11.297C-11.095,-20.552 -4.241,-30.031 1.955,-25.469" style="fill:rgb(26,46,53);fill-rule:nonzero;"/>
                </g>
                <g opacity="0.2">
                    <g transform="matrix(-0.370948,0.928654,0.928654,0.370948,161.969,166.859)">
                        <path d="M-12.956,-10.983L6.138,-10.983L6.503,-6.433C6.503,-6.433 1.376,-6.021 -5.146,-6.176L-12.956,-10.983Z" style="fill-rule:nonzero;"/>
                    </g>
                </g>
                <g transform="matrix(1,0,0,1,198.366,169.929)">
                    <path d="M0,4.104C-0.057,12.914 -0.59,23.873 -1.902,37.476L-44.127,37.476C-44.645,31.275 -42.055,2.045 -48.337,-27.223C-48.806,-29.404 -47.35,-31.528 -45.146,-31.871C-42.455,-32.289 -38.777,-32.768 -35.178,-32.942C-29.794,-33.2 -21.99,-33.372 -17.235,-32.942C-10.96,-32.373 -5.01,-30.75 -5.01,-30.75C-5.01,-30.75 -1.398,-26.839 -0.304,-8.499C-0.089,-4.878 0.029,-0.709 0,4.104" style="fill:rgb(26,46,53);fill-rule:nonzero;"/>
                </g>
                <g transform="matrix(1,0,0,1,158.284,196.89)">
                    <path d="M0,-60.094L-1.848,-59.875C-2.158,-59.839 -2.375,-59.558 -2.329,-59.249C-1.755,-55.485 3.039,-33.044 38.634,-0.275C38.974,0.038 39.534,-0.178 39.565,-0.639L39.708,-2.714C39.719,-2.881 39.651,-3.045 39.528,-3.157C3.678,-35.938 0.829,-55.976 0.615,-59.578C0.596,-59.896 0.317,-60.132 0,-60.094" style="fill:rgb(0,124,255);fill-rule:nonzero;"/>
                </g>
                <g transform="matrix(1,0,0,1,181.132,198.135)">
                    <path d="M0,-18.394L16.206,-2.812L14.332,-1.634C11.847,-0.071 8.704,0 6.151,-1.45L1.874,-3.879C-1.469,-5.777 -2.981,-9.79 -1.723,-13.422L0,-18.394Z" style="fill:rgb(0,124,255);fill-rule:nonzero;"/>
                </g>
                <g transform="matrix(0.494318,0.869281,0.869281,-0.494318,186.503,192.314)">
                    <path d="M1.209,-0.703C1.55,-0.738 1.826,-0.145 1.826,0.624C1.825,1.391 1.549,2.043 1.209,2.079C0.869,2.115 0.593,1.52 0.593,0.752C0.594,-0.016 0.87,-0.667 1.209,-0.703" style="fill:rgb(26,46,53);fill-rule:nonzero;"/>
                </g>
                <g opacity="0.2">
                    <g transform="matrix(1,0,0,1,198.366,154.683)">
                        <path d="M0,19.35C-2.554,14.687 -7.192,5.329 -6.538,0L-0.304,6.747C-0.089,10.368 0.029,14.537 0,19.35" style="fill-rule:nonzero;"/>
                    </g>
                </g>
                <g transform="matrix(-0.434048,0.90089,0.90089,0.434048,213.222,144.345)">
                    <path d="M13.996,-24.5C21.029,-21.852 29.957,1.379 29.957,1.379L13.996,8.861C13.996,8.861 7.662,-0.429 4.534,-9.878C1.041,-20.43 6.074,-27.483 13.996,-24.5" style="fill:rgb(26,46,53);fill-rule:nonzero;"/>
                </g>
                <g opacity="0.2">
                    <g transform="matrix(-0.00393814,0.999992,0.999992,0.00393814,192.655,398.972)">
                        <rect x="-9.062" y="-9.026" width="10.188" height="7.896"/>
                    </g>
                    <g transform="matrix(0.983604,0.180342,0.180342,-0.983604,135.041,383.089)">
                        <path d="M-0.922,-0.519L6.807,-0.519L5.711,-10.145L-2.017,-10.146L-0.922,-0.519Z" style="fill-rule:nonzero;"/>
                    </g>
                </g>
                <g transform="matrix(-0.652204,0.758043,0.758043,0.652204,188.85,110.513)">
                    <path d="M12.52,-18.575C19.165,-14.382 23.255,-12.273 25.011,-6.808C27.654,1.412 20.201,8.323 12.52,6.236C5.605,4.357 -4.102,-2.184 -3.413,-10.528C-2.734,-18.75 5.874,-22.768 12.52,-18.575" style="fill:rgb(255,196,190);fill-rule:nonzero;"/>
                </g>
                <g transform="matrix(1,0,0,1,180.61,99.9415)">
                    <path d="M0,15.143C-0.06,17.351 -5.73,24.574 -10.565,25.469C-15.795,26.438 -17.136,24.962 -17.966,17.829C-18.921,9.63 -21.667,9.63 -22.861,4.399C-24.365,-2.193 -17.907,-8.196 -10.267,-4.555C-3.651,-1.402 2.474,-7.604 7.032,-9.449C11.59,-11.295 12.296,-6.017 9.252,-2.466C6.243,1.045 11.018,-1.099 12.416,0.399C14.923,3.085 10.819,9.109 0.586,11.502C2.343,13.393 0,15.143 0,15.143" style="fill:rgb(26,46,53);fill-rule:nonzero;"/>
                </g>
                <g transform="matrix(-0.594344,0.804211,0.804211,0.594344,184.583,113.151)">
                    <path d="M3.417,-5.405C5.084,-4.18 6.228,-2.313 6.71,-0.647C7.435,1.859 5.523,2.746 3.417,1.743C1.521,0.84 -1.14,-1.552 -0.951,-3.919C-0.765,-6.252 1.51,-6.805 3.417,-5.405" style="fill:rgb(255,196,190);fill-rule:nonzero;"/>
                </g>
                <g transform="matrix(1,0,0,1,181.484,392.748)">
                    <path d="M0,-185.344C0,-185.344 -6.628,-125.024 -10.673,-102.425C-15.103,-77.679 -38.043,0 -38.043,0L-52.183,-3.012C-52.183,-3.012 -36.393,-75.68 -34.266,-100.182C-31.958,-126.775 -27.241,-185.344 -27.241,-185.344L0,-185.344Z" style="fill:rgb(0,124,255);fill-rule:nonzero;"/>
                </g>
                <g opacity="0.15">
                    <g transform="matrix(1,0,0,1,181.484,392.748)">
                        <path d="M0,-185.344C0,-185.344 -6.628,-125.024 -10.673,-102.425C-15.103,-77.679 -38.043,0 -38.043,0L-52.183,-3.012C-52.183,-3.012 -36.393,-75.68 -34.266,-100.182C-31.958,-126.775 -27.241,-185.344 -27.241,-185.344L0,-185.344Z" style="fill:white;fill-rule:nonzero;"/>
                    </g>
                </g>
                <g transform="matrix(-0.0964631,-0.995337,-0.995337,0.0964631,135.547,380.051)">
                    <path d="M-8.955,-10.244C-8.974,-10.303 -13.862,-7.351 -13.862,-7.351L-8.955,8.156L-4.265,6.559L-8.955,-10.244Z" style="fill:rgb(26,46,53);fill-rule:nonzero;"/>
                </g>
                <g opacity="0.2">
                    <g transform="matrix(1,0,0,1,176.653,289.247)">
                        <path d="M0,-60.35C-10.279,-58.32 -7.692,-19.694 -5.679,0.172C-3.234,-13.871 0.096,-40.892 2.342,-60.071C1.642,-60.414 0.864,-60.522 0,-60.35" style="fill-rule:nonzero;"/>
                    </g>
                </g>
                <g transform="matrix(1,0,0,1,196.461,397.502)">
                    <path d="M0,-190.098C0,-190.098 3.365,-131.083 3.436,-107.013C3.51,-81.977 -2.07,0 -2.07,0L-15.441,0C-15.441,0 -19.041,-80.514 -20.585,-105.102C-22.268,-131.908 -27.751,-190.098 -27.751,-190.098L0,-190.098Z" style="fill:rgb(0,124,255);fill-rule:nonzero;"/>
                </g>
                <g opacity="0.15">
                    <g transform="matrix(1,0,0,1,196.461,397.502)">
                        <path d="M0,-190.098C0,-190.098 3.365,-131.083 3.436,-107.013C3.51,-81.977 -2.07,0 -2.07,0L-15.441,0C-15.441,0 -19.041,-80.514 -20.585,-105.102C-22.268,-131.908 -27.751,-190.098 -27.751,-190.098L0,-190.098Z" style="fill:white;fill-rule:nonzero;"/>
                    </g>
                </g>
                <g transform="matrix(-0.31365,-0.949539,-0.949539,0.31365,182.711,387.574)">
                    <path d="M-8.776,-11.895C-8.796,-11.954 -13.878,-9.641 -13.878,-9.641L-8.776,5.803L-3.874,4.849L-8.776,-11.895Z" style="fill:rgb(26,46,53);fill-rule:nonzero;"/>
                </g>
            </g>
        </g>
    </g>
</svg>
