<?xml version="1.0" encoding="UTF-8" standalone="no"?>
<!DOCTYPE svg PUBLIC "-//W3C//DTD SVG 1.1//EN" "http://www.w3.org/Graphics/SVG/1.1/DTD/svg11.dtd">
<svg width="100%" height="100%" viewBox="0 0 170 124" version="1.1" xmlns="http://www.w3.org/2000/svg" xmlns:xlink="http://www.w3.org/1999/xlink" xml:space="preserve" xmlns:serif="http://www.serif.com/" style="fill-rule:evenodd;clip-rule:evenodd;stroke-miterlimit:2;">
    <g transform="matrix(1,0,0,1,-1643.33,-3155.69)">
        <g transform="matrix(1,0,0,1,1188,2443)">
            <g transform="matrix(0.263213,0,0,0.263213,434.223,495.128)">
                <path d="M202.511,1091.93C173.688,1091.93 150.323,1115.3 150.323,1144.12C150.323,1172.94 173.688,1196.31 202.511,1196.31C231.333,1196.31 254.698,1172.94 254.698,1144.12C254.698,1115.3 231.333,1091.93 202.511,1091.93ZM202.511,1106.93C223.016,1106.93 239.698,1123.61 239.698,1144.12C239.698,1164.62 223.016,1181.31 202.511,1181.31C182.005,1181.31 165.323,1164.62 165.323,1144.12C165.323,1123.61 182.005,1106.93 202.511,1106.93Z" style="fill:rgb(2,3,129);fill-rule:nonzero;"/>
            </g>
            <g transform="matrix(0.263213,0,0,0.263213,434.223,494.128)">
                <path d="M332.631,910.318C303.809,910.318 280.444,933.683 280.444,962.506C280.444,991.328 303.809,1014.69 332.631,1014.69C361.454,1014.69 384.819,991.328 384.819,962.506C384.819,933.683 361.454,910.318 332.631,910.318ZM332.631,925.318C353.137,925.318 369.819,942 369.819,962.506C369.819,983.011 353.137,999.693 332.631,999.693C312.126,999.693 295.444,983.011 295.444,962.506C295.444,942 312.126,925.318 332.631,925.318Z" style="fill:rgb(2,3,129);fill-rule:nonzero;"/>
            </g>
            <g transform="matrix(0.263213,0,0,0.263213,434.223,495.128)">
                <path d="M601.223,858.131C572.4,858.131 549.035,881.496 549.035,910.318C549.035,939.141 572.4,962.506 601.223,962.506C630.045,962.506 653.41,939.141 653.41,910.318C653.41,881.496 630.045,858.131 601.223,858.131ZM601.223,873.131C621.728,873.131 638.41,889.813 638.41,910.318C638.41,930.823 621.728,947.506 601.223,947.506C580.718,947.506 564.035,930.823 564.035,910.318C564.035,889.813 580.718,873.131 601.223,873.131Z" style="fill:rgb(2,3,129);fill-rule:nonzero;"/>
            </g>
            <g transform="matrix(0.263213,0,0,0.263213,434.223,495.128)">
                <path d="M462.056,1091.93C433.234,1091.93 409.869,1115.3 409.869,1144.12C409.869,1172.94 433.234,1196.31 462.056,1196.31C490.878,1196.31 514.244,1172.94 514.244,1144.12C514.244,1115.3 490.878,1091.93 462.056,1091.93ZM462.056,1106.93C482.562,1106.93 499.244,1123.61 499.244,1144.12C499.244,1164.62 482.562,1181.31 462.056,1181.31C441.551,1181.31 424.869,1164.62 424.869,1144.12C424.869,1123.61 441.551,1106.93 462.056,1106.93Z" style="fill:rgb(2,3,129);fill-rule:nonzero;"/>
            </g>
            <g transform="matrix(0.278918,-0.0202148,-0.0202148,0.289233,451.226,473.243)">
                <path d="M233.129,1104.54L312.109,1002.88" style="fill:none;stroke:rgb(2,3,129);stroke-width:31.58px;"/>
            </g>
            <g transform="matrix(0.285752,0.0283626,0.0283626,0.298904,394.162,446.974)">
                <path d="M357.518,1006.63L434.156,1103.07" style="fill:none;stroke:rgb(2,3,129);stroke-width:25.98px;"/>
            </g>
            <g transform="matrix(0.269515,-0.00999645,-0.00999645,0.279071,441.324,483.864)">
                <path d="M579.419,952.904L486.641,1100.08" style="fill:none;stroke:rgb(2,3,129);stroke-width:31.53px;"/>
            </g>
            <g transform="matrix(1,0,0,1,-1182.5,-2454.15)">
                <path d="M1642,3171L1642,3286L1803,3286" style="fill:none;stroke:rgb(2,3,129);stroke-width:8.33px;stroke-linecap:round;stroke-linejoin:round;stroke-miterlimit:1.5;"/>
            </g>
        </g>
    </g>
</svg>
