<?xml version="1.0" encoding="UTF-8" standalone="no"?>
<!DOCTYPE svg PUBLIC "-//W3C//DTD SVG 1.1//EN" "http://www.w3.org/Graphics/SVG/1.1/DTD/svg11.dtd">
<svg width="100%" height="100%" viewBox="0 0 1043 777" version="1.1" xmlns="http://www.w3.org/2000/svg" xmlns:xlink="http://www.w3.org/1999/xlink" xml:space="preserve" xmlns:serif="http://www.serif.com/" style="fill-rule:evenodd;clip-rule:evenodd;stroke-linejoin:round;stroke-miterlimit:2;">
    <g transform="matrix(1,0,0,1,-1206.87,-2536.5)">
        <g transform="matrix(1,0,0,1,1188,2443)">
            <g transform="matrix(2.08454,0,0,2.08454,18.865,92.685)">
                <rect x="0" y="327.837" width="500" height="0.25" style="fill:rgb(229,229,228);fill-rule:nonzero;"/>
                <rect x="52.459" y="337.36" width="33.122" height="0.25" style="fill:rgb(229,229,228);fill-rule:nonzero;"/>
                <rect x="171.14" y="337.485" width="53.86" height="0.25" style="fill:rgb(229,229,228);fill-rule:nonzero;"/>
                <rect x="105.774" y="342.522" width="19.193" height="0.25" style="fill:rgb(229,229,228);fill-rule:nonzero;"/>
                <rect x="426.766" y="342.397" width="19.234" height="0.25" style="fill:rgb(229,229,228);fill-rule:nonzero;"/>
                <rect x="387.57" y="342.397" width="30.292" height="0.25" style="fill:rgb(229,229,228);fill-rule:nonzero;"/>
                <rect x="328.333" y="340.744" width="42.556" height="0.25" style="fill:rgb(229,229,228);fill-rule:nonzero;"/>
                <path d="M43.915,0.642C40.905,0.642 38.457,3.09 38.457,6.099L38.457,277.53C38.457,280.54 40.905,282.988 43.915,282.988L237.014,282.988C240.022,282.988 242.471,280.54 242.471,277.53L242.471,6.099C242.471,3.09 240.022,0.642 237.014,0.642L43.915,0.642ZM237.014,283.238L43.915,283.238C40.767,283.238 38.207,280.678 38.207,277.53L38.207,6.099C38.207,2.952 40.767,0.391 43.915,0.391L237.014,0.391C240.16,0.391 242.721,2.952 242.721,6.099L242.721,277.53C242.721,280.678 240.16,283.238 237.014,283.238Z" style="fill:rgb(229,229,228);fill-rule:nonzero;"/>
                <path d="M260.212,0.642C257.203,0.642 254.755,3.09 254.755,6.099L254.755,277.53C254.755,280.54 257.203,282.988 260.212,282.988L453.311,282.988C456.32,282.988 458.769,280.54 458.769,277.53L458.769,6.099C458.769,3.09 456.32,0.642 453.311,0.642L260.212,0.642ZM453.311,283.238L260.212,283.238C257.065,283.238 254.505,280.678 254.505,277.53L254.505,6.099C254.505,2.952 257.065,0.391 260.212,0.391L453.311,0.391C456.458,0.391 459.019,2.952 459.019,6.099L459.019,277.53C459.019,280.678 456.458,283.238 453.311,283.238Z" style="fill:rgb(229,229,228);fill-rule:nonzero;"/>
                <rect x="303.782" y="36.459" width="116.098" height="138.621" style="fill:rgb(224,224,223);fill-rule:nonzero;"/>
                <rect x="306.68" y="36.459" width="116.098" height="138.621" style="fill:rgb(240,240,240);fill-rule:nonzero;"/>
                <rect x="311.883" y="42.303" width="105.693" height="126.934" style="fill:white;fill-rule:nonzero;"/>
                <rect x="415.384" y="42.303" width="2.192" height="126.934" style="fill:rgb(224,224,223);fill-rule:nonzero;"/>
                <rect x="308.832" y="139.161" width="111.794" height="7.845" style="fill:rgb(240,240,240);fill-rule:nonzero;"/>
                <path d="M428.45,26.787L298.111,26.787C297.67,26.787 297.31,27.147 297.31,27.587C297.31,28.028 297.67,28.388 298.111,28.388L428.45,28.388C428.891,28.388 429.251,28.028 429.251,27.587C429.251,27.147 428.891,26.787 428.45,26.787Z" style="fill:rgb(224,224,223);fill-rule:nonzero;"/>
                <path d="M433.256,27.587C433.256,29.799 431.463,31.592 429.251,31.592C427.039,31.592 425.246,29.799 425.246,27.587C425.246,25.376 427.039,23.583 429.251,23.583C431.463,23.583 433.256,25.376 433.256,27.587Z" style="fill:rgb(224,224,223);fill-rule:nonzero;"/>
                <path d="M304.863,32.073C304.269,32.073 303.782,31.586 303.782,30.991L303.782,28.669C303.782,28.074 304.269,27.587 304.863,27.587C305.458,27.587 305.944,28.074 305.944,28.669L305.944,30.991C305.944,31.586 305.458,32.073 304.863,32.073Z" style="fill:rgb(224,224,223);fill-rule:nonzero;"/>
                <path d="M416.371,32.073C415.776,32.073 415.289,31.586 415.289,30.991L415.289,28.669C415.289,28.074 415.776,27.587 416.371,27.587C416.966,27.587 417.452,28.074 417.452,28.669L417.452,30.991C417.452,31.586 416.966,32.073 416.371,32.073Z" style="fill:rgb(224,224,223);fill-rule:nonzero;"/>
                <path d="M428.194,85.802L422.778,85.802L422.778,36.459L308.832,36.459L308.832,28.388L415.327,28.388C415.302,28.478 415.289,28.572 415.289,28.669L415.289,30.991C415.289,31.586 415.776,32.073 416.371,32.073C416.966,32.073 417.452,31.586 417.452,30.991L417.452,28.669C417.452,28.572 417.439,28.478 417.415,28.388L425.326,28.388C425.627,29.871 426.748,31.057 428.194,31.451L428.194,85.802Z" style="fill:rgb(234,234,233);fill-rule:nonzero;"/>
                <path d="M422.778,85.802L417.576,85.802L417.576,42.303L311.883,42.303L311.883,85.802L308.832,85.802L308.832,36.459L422.778,36.459L422.778,85.802Z" style="fill:rgb(228,228,228);fill-rule:nonzero;"/>
                <path d="M415.384,85.802L311.883,85.802L311.883,42.303L417.576,42.303L415.384,42.303L415.384,85.802Z" style="fill:rgb(233,234,233);fill-rule:nonzero;"/>
                <rect x="415.384" y="42.303" width="2.192" height="43.499" style="fill:rgb(219,220,220);fill-rule:nonzero;"/>
                <path d="M425.326,28.388L417.415,28.388C417.291,27.928 416.869,27.587 416.371,27.587L425.246,27.587C425.246,27.862 425.274,28.129 425.326,28.388ZM415.327,28.388L308.832,28.388L308.832,27.587L416.371,27.587C415.873,27.587 415.451,27.928 415.327,28.388Z" style="fill:rgb(219,220,220);fill-rule:nonzero;"/>
                <path d="M428.194,31.451C426.748,31.057 425.627,29.871 425.326,28.388C425.274,28.129 425.246,27.862 425.246,27.587L428.194,27.587L428.194,31.451Z" style="fill:rgb(219,220,220);fill-rule:nonzero;"/>
                <path d="M416.371,32.073C415.776,32.073 415.289,31.586 415.289,30.991L415.289,28.669C415.289,28.572 415.302,28.478 415.327,28.388C415.451,27.928 415.873,27.587 416.371,27.587C416.869,27.587 417.291,27.928 417.415,28.388C417.439,28.478 417.452,28.572 417.452,28.669L417.452,30.991C417.452,31.586 416.966,32.073 416.371,32.073Z" style="fill:rgb(219,220,220);fill-rule:nonzero;"/>
                <path d="M321.748,27.587C321.748,29.799 319.955,31.592 317.743,31.592C315.531,31.592 313.738,29.799 313.738,27.587C313.738,25.376 315.531,23.583 317.743,23.583C319.955,23.583 321.748,25.376 321.748,27.587Z" style="fill:rgb(224,224,223);fill-rule:nonzero;"/>
                <path d="M89.713,189.967L47.358,189.967L51.11,140.4L85.962,140.4L89.713,189.967Z" style="fill:rgb(229,229,228);fill-rule:nonzero;"/>
                <path d="M80.419,189.967L73.137,189.967L71.595,140.4L78.314,140.4L80.419,189.967Z" style="fill:rgb(240,240,240);fill-rule:nonzero;"/>
                <rect x="66.418" y="189.967" width="4.236" height="137.87" style="fill:rgb(234,235,234);fill-rule:nonzero;"/>
                <path d="M70.133,226.328L66.939,226.328C65.386,226.328 64.116,225.058 64.116,223.505L64.116,213.098C64.116,211.545 65.386,210.275 66.939,210.275L70.133,210.275C71.686,210.275 72.957,211.545 72.957,213.098L72.957,223.505C72.957,225.058 71.686,226.328 70.133,226.328Z" style="fill:rgb(234,235,234);fill-rule:nonzero;"/>
                <path d="M70.133,252.049L66.939,252.049C65.386,252.049 64.116,250.778 64.116,249.226L64.116,238.819C64.116,237.266 65.386,235.996 66.939,235.996L70.133,235.996C71.686,235.996 72.957,237.266 72.957,238.819L72.957,249.226C72.957,250.778 71.686,252.049 70.133,252.049Z" style="fill:rgb(234,235,234);fill-rule:nonzero;"/>
                <path d="M75.242,327.837L61.83,327.837C61.83,326.258 63.109,324.979 64.688,324.979L72.384,324.979C73.962,324.979 75.242,326.258 75.242,327.837Z" style="fill:rgb(234,235,234);fill-rule:nonzero;"/>
                <rect x="66.418" y="189.967" width="4.236" height="2.588" style="fill:rgb(215,217,217);fill-rule:nonzero;"/>
                <rect x="96.315" y="31.483" width="117.04" height="117.355" style="fill:rgb(234,235,234);fill-rule:nonzero;"/>
                <rect x="94.294" y="31.483" width="2.021" height="117.355" style="fill:rgb(215,217,217);fill-rule:nonzero;"/>
                <rect x="106.648" y="38.895" width="96.374" height="102.531" style="fill:rgb(249,249,249);fill-rule:nonzero;"/>
                <path d="M149.28,118.706L160.391,118.706C172.141,118.706 181.667,109.18 181.667,97.43L181.667,82.891C181.667,71.141 172.141,61.615 160.391,61.615L149.28,61.615C137.53,61.615 128.004,71.141 128.004,82.891L128.004,97.43C128.004,109.18 137.53,118.706 149.28,118.706Z" style="fill:rgb(240,240,240);fill-rule:nonzero;"/>
                <rect x="362.968" y="192.883" width="44.55" height="134.954" style="fill:rgb(224,224,223);fill-rule:nonzero;"/>
                <path d="M385.771,327.837L407.518,327.837L407.518,309.207L362.968,309.207L385.771,327.837Z" style="fill:rgb(249,249,249);fill-rule:nonzero;"/>
                <rect x="185.305" y="192.883" width="44.549" height="134.954" style="fill:rgb(224,224,223);fill-rule:nonzero;"/>
                <rect x="210.875" y="192.883" width="196.643" height="128.541" style="fill:rgb(249,249,249);fill-rule:nonzero;"/>
                <path d="M232.623,327.837L210.875,327.837L210.875,309.207L255.424,309.207L232.623,327.837Z" style="fill:rgb(249,249,249);fill-rule:nonzero;"/>
                <rect x="227.746" y="240.781" width="162.901" height="32.169" style="fill:rgb(234,235,234);fill-rule:nonzero;"/>
                <rect x="227.746" y="279.825" width="162.901" height="32.168" style="fill:rgb(234,235,234);fill-rule:nonzero;"/>
                <path d="M351.85,244.221L266.544,244.221C263.105,244.221 260.318,241.434 260.318,237.996L358.075,237.996C358.075,241.434 355.288,244.221 351.85,244.221Z" style="fill:rgb(249,249,249);fill-rule:nonzero;"/>
                <rect x="227.746" y="201.738" width="162.901" height="32.168" style="fill:rgb(234,235,234);fill-rule:nonzero;"/>
                <path d="M351.85,205.177L266.544,205.177C263.105,205.177 260.318,202.39 260.318,198.952L358.075,198.952C358.075,202.39 355.288,205.177 351.85,205.177Z" style="fill:rgb(249,249,249);fill-rule:nonzero;"/>
                <path d="M351.85,283.264L266.544,283.264C263.105,283.264 260.318,280.477 260.318,277.039L358.075,277.039C358.075,280.477 355.288,283.264 351.85,283.264Z" style="fill:rgb(249,249,249);fill-rule:nonzero;"/>
                <path d="M443.889,361.676C443.889,367.93 357.083,373 250,373C142.918,373 56.11,367.93 56.11,361.676C56.11,355.423 142.918,350.353 250,350.353C357.083,350.353 443.889,355.423 443.889,361.676Z" style="fill:rgb(240,240,240);fill-rule:nonzero;"/>
                <path d="M75.553,162.932L208.379,162.932L208.379,162.935L224.792,162.935C215.727,162.935 207.944,155.586 207.408,146.522L204.775,102.037L55.539,102.037L58.172,146.522C58.709,155.588 66.487,162.932 75.553,162.932Z" style="fill:rgb(48,115,186);fill-rule:nonzero;"/>
                <rect x="91.965" y="162.929" width="32.822" height="0.003" style="fill:rgb(158,193,230);fill-rule:nonzero;"/>
                <path d="M75.553,162.932C66.487,162.932 58.709,155.588 58.172,146.522L55.539,102.037L88.361,102.037L90.994,146.519C91.53,155.584 84.617,162.932 75.553,162.932Z" style="fill:rgb(158,193,230);fill-rule:nonzero;"/>
                <path d="M235.847,72.474L235.847,72.477L103.021,72.477C93.956,72.477 87.046,79.821 87.583,88.886L90.994,146.519C91.53,155.584 84.617,162.932 75.553,162.932L91.965,162.932L91.965,162.929L224.792,162.929C233.856,162.929 240.766,155.585 240.229,146.52L240.599,152.758L236.818,88.887C236.282,79.823 243.195,72.474 252.259,72.474L235.847,72.474Z" style="fill:rgb(0,124,255);fill-rule:nonzero;"/>
                <path d="M252.26,72.477L119.434,72.477L119.434,72.474L103.021,72.474C112.085,72.474 119.869,79.823 120.405,88.887L133.228,305.543L282.463,305.543L269.64,88.886C269.103,79.821 261.325,72.477 252.26,72.477Z" style="fill:rgb(48,115,186);fill-rule:nonzero;"/>
                <path d="M282.463,305.543L133.228,305.543L120.405,88.887C119.869,79.823 112.085,72.474 103.021,72.474L119.434,72.474L119.434,72.477L252.26,72.477C261.325,72.477 269.103,79.821 269.64,88.886L282.463,305.543Z" style="fill:rgb(202,221,242);fill-rule:nonzero;"/>
                <path d="M146.041,130.858L167.21,130.858L165.956,109.684L144.787,109.684L146.041,130.858ZM170.663,134.114L142.973,134.114L141.334,106.429L169.024,106.429L170.663,134.114Z" style="fill:white;fill-rule:nonzero;"/>
                <path d="M149.895,195.969L171.063,195.969L169.81,174.794L148.641,174.794L149.895,195.969ZM174.517,199.224L146.826,199.224L145.188,171.539L172.878,171.539L174.517,199.224Z" style="fill:white;fill-rule:nonzero;"/>
                <path d="M153.748,261.079L174.917,261.079L173.663,239.905L152.494,239.905L153.748,261.079ZM178.37,264.334L150.68,264.334L149.041,236.65L176.731,236.65L178.37,264.334Z" style="fill:white;fill-rule:nonzero;"/>
                <rect x="184.177" y="106.429" width="63.663" height="3.255" style="fill:white;fill-rule:nonzero;"/>
                <rect x="184.899" y="118.643" width="56.185" height="3.256" style="fill:white;fill-rule:nonzero;"/>
                <rect x="185.623" y="130.858" width="63.663" height="3.256" style="fill:white;fill-rule:nonzero;"/>
                <rect x="188.03" y="171.539" width="63.663" height="3.255" style="fill:white;fill-rule:nonzero;"/>
                <rect x="188.753" y="183.754" width="37.367" height="3.255" style="fill:white;fill-rule:nonzero;"/>
                <rect x="189.477" y="195.969" width="19.292" height="3.255" style="fill:white;fill-rule:nonzero;"/>
                <rect x="221.308" y="195.969" width="31.832" height="3.255" style="fill:white;fill-rule:nonzero;"/>
                <rect x="191.884" y="236.65" width="63.664" height="3.255" style="fill:white;fill-rule:nonzero;"/>
                <rect x="192.606" y="248.864" width="63.665" height="3.256" style="fill:white;fill-rule:nonzero;"/>
                <rect x="193.33" y="261.079" width="35.208" height="3.255" style="fill:white;fill-rule:nonzero;"/>
                <path d="M158.635,127.603C157.943,127.603 157.276,127.339 156.772,126.862L149.972,120.442C148.882,119.413 148.833,117.696 149.861,116.607C150.891,115.516 152.608,115.469 153.696,116.496L158.521,121.051L169.37,109.521C170.395,108.43 172.112,108.376 173.205,109.404C174.296,110.43 174.349,112.147 173.321,113.238L160.61,126.749C160.117,127.273 159.436,127.58 158.715,127.601L158.635,127.603Z" style="fill:rgb(0,124,255);fill-rule:nonzero;"/>
                <path d="M162.488,192.713C161.797,192.713 161.13,192.449 160.626,191.973L153.825,185.552C152.735,184.524 152.687,182.807 153.715,181.717C154.743,180.626 156.461,180.58 157.55,181.607L162.375,186.162L173.224,174.631C174.248,173.54 175.966,173.486 177.059,174.514C178.149,175.541 178.202,177.258 177.175,178.349L164.464,191.859C163.971,192.384 163.289,192.691 162.568,192.712L162.488,192.713Z" style="fill:rgb(0,124,255);fill-rule:nonzero;"/>
                <path d="M166.342,257.823C165.65,257.823 164.983,257.559 164.479,257.083L157.679,250.663C156.589,249.634 156.54,247.917 157.568,246.828C158.597,245.737 160.314,245.69 161.403,246.717L166.229,251.272L177.077,239.741C178.102,238.651 179.819,238.597 180.912,239.624C182.003,240.651 182.056,242.368 181.028,243.459L168.317,256.969C167.824,257.494 167.143,257.801 166.422,257.822L166.342,257.823Z" style="fill:rgb(0,124,255);fill-rule:nonzero;"/>
                <path d="M309.758,104.534L290.336,109.309L348.314,345.098L367.736,340.322L309.758,104.534Z" style="fill:rgb(0,124,255);fill-rule:nonzero;"/>
                <path d="M361.822,341.777L365.004,340.994L361.822,341.777ZM366.021,340.744L367.736,340.322L366.021,340.744Z" style="fill:rgb(195,197,197);fill-rule:nonzero;"/>
                <path d="M365.004,340.994L366.021,340.744L365.004,340.994Z" style="fill:rgb(178,181,182);fill-rule:nonzero;"/>
                <path d="M361.822,341.777L345.812,276.667C345.955,275.172 346.081,273.694 346.189,272.231C347.776,272.057 349.331,271.868 350.854,271.668L367.736,340.322L366.021,340.744L365.004,340.994L361.822,341.776M327.086,200.511L303.844,105.988L309.758,104.534L328.83,182.099C328.292,186.994 327.677,193.2 327.086,200.511Z" style="fill:rgb(76,163,255);fill-rule:nonzero;"/>
                <path d="M369.877,358.446L354.822,362.148C353.622,362.444 352.397,361.703 352.102,360.502L349.581,350.248C349.286,349.047 350.027,347.823 351.227,347.528L366.282,343.826C367.483,343.531 368.707,344.272 369.002,345.473L371.524,355.726C371.819,356.927 371.078,358.151 369.877,358.446Z" style="fill:rgb(48,115,186);fill-rule:nonzero;"/>
                <path d="M354.289,362.213C353.278,362.213 352.354,361.524 352.102,360.502L349.581,350.248C349.537,350.07 349.516,349.891 349.516,349.715C349.516,348.705 350.205,347.78 351.227,347.528L366.282,343.826C366.461,343.782 366.64,343.761 366.816,343.761C367.827,343.761 368.751,344.45 369.002,345.473L371.524,355.726C371.568,355.904 371.589,356.083 371.589,356.259C371.589,357.27 370.9,358.195 369.877,358.446L354.822,362.148C354.644,362.192 354.465,362.213 354.289,362.213Z" style="fill:rgb(179,207,236);fill-rule:nonzero;"/>
                <path d="M369.041,347.688L350.575,352.229C349.466,352.501 348.336,351.818 348.064,350.709L346.41,343.985C346.138,342.876 346.822,341.746 347.93,341.474L366.396,336.933C367.504,336.661 368.634,337.345 368.907,338.453L370.561,345.177C370.833,346.286 370.149,347.416 369.041,347.688Z" style="fill:rgb(215,217,217);fill-rule:nonzero;"/>
                <path d="M309.759,104.538L290.337,109.313L292.615,93.071L294.079,82.649L300.208,91.203L309.759,104.538Z" style="fill:rgb(215,217,217);fill-rule:nonzero;"/>
                <path d="M300.208,91.203L292.615,93.071L294.079,82.649L300.208,91.203Z" style="fill:rgb(48,115,186);fill-rule:nonzero;"/>
                <path d="M359.917,89.121C359.821,95.08 358.66,106.429 361.823,110.133C361.823,110.133 350.97,113.205 342.931,122.417C338.604,115.335 344.246,111.529 344.246,111.529C350.481,109.518 350.096,104.841 348.789,100.522L359.917,89.121Z" style="fill:rgb(250,171,118);fill-rule:nonzero;"/>
                <path d="M341.085,116.327C342.74,110.2 338.105,109.349 345.843,106.282C351.902,103.881 363.351,103.539 366.036,105.47C367.534,106.548 365.477,110.332 365.477,110.332L341.085,116.327Z" style="fill:rgb(12,43,52);fill-rule:nonzero;"/>
                <path d="M374.681,115.006C375.128,115.73 375.451,116.281 375.807,116.904C376.157,117.507 376.472,118.121 376.792,118.729C377.428,119.948 378.028,121.173 378.61,122.407C379.771,124.875 380.779,127.408 381.713,129.971C383.514,135.12 384.954,140.433 385.696,145.927L385.964,147.987C386.009,148.277 386.051,148.796 386.084,149.249C386.106,149.686 386.116,150.104 386.117,150.511C386.114,152.106 385.956,153.522 385.786,154.914C385.443,157.683 384.905,160.293 384.327,162.885C383.137,168.056 381.656,173.045 379.856,178.014C379.305,179.537 377.624,180.324 376.101,179.772C374.833,179.313 374.075,178.071 374.176,176.788L374.181,176.737C374.58,171.655 375.05,166.534 375.417,161.535C375.6,159.039 375.741,156.545 375.778,154.182C375.791,153.009 375.75,151.852 375.667,150.875L375.583,150.211L375.451,149.562L375.078,147.817C374.065,143.166 372.547,138.577 370.78,134.082C369.882,131.837 368.907,129.62 367.89,127.427C367.376,126.333 366.848,125.247 366.296,124.184L365.464,122.605L364.673,121.154L364.534,120.896C362.984,118.05 364.036,114.486 366.883,112.936C369.629,111.441 373.053,112.382 374.681,115.006Z" style="fill:rgb(250,171,118);fill-rule:nonzero;"/>
                <path d="M371.959,180.111L372.788,178.732L375.126,174.793L379.425,177.222C380.308,181.211 377.591,184.755 377.591,184.755L376.38,185.755C375.481,186.497 374.31,186.454 373.437,185.645L372.511,184.789C371.327,183.693 371.077,181.579 371.959,180.111Z" style="fill:rgb(250,171,118);fill-rule:nonzero;"/>
                <path d="M315.031,178.073L314.343,175.573C314.006,174.349 312.752,173.619 311.521,173.929L308.474,174.698L306.624,175.154C304.654,175.64 303.086,177.616 303.156,179.527L303.21,181.02C303.261,182.43 304.203,183.45 305.578,183.584L307.43,183.765C307.43,183.765 311.907,183.185 314.648,179.886C315.065,179.384 315.205,178.702 315.031,178.073Z" style="fill:rgb(250,171,118);fill-rule:nonzero;"/>
                <path d="M369.677,110.612C374.933,112.938 379.742,118.493 383.668,128.755C382.406,132.985 369.403,139.919 369.403,139.919C369.403,139.919 353.179,105.513 369.677,110.612Z" style="fill:rgb(48,115,186);fill-rule:nonzero;"/>
                <path d="M326.254,123.754C326.299,127.572 319.99,136.4 327.266,141.517C327.895,149.231 328.748,156.822 330.401,169.468L369.232,169.468C365.539,155.493 368.729,146.063 374.653,121.451C376.027,115.745 372.188,110.264 366.406,109.68C364.861,109.524 363.224,109.394 361.546,109.313C355.021,108.998 349.674,108.789 343.914,109.314C342.004,109.487 340.028,109.728 338.141,109.992C331.328,110.944 326.174,116.912 326.254,123.754Z" style="fill:rgb(0,124,255);fill-rule:nonzero;"/>
                <path d="M339.113,120.045C339.195,122.912 339.153,125.652 339.099,128.451C339.051,131.238 338.919,134.023 338.744,136.818C338.379,142.408 337.797,148.005 336.699,153.741C336.575,154.449 336.388,155.184 336.223,155.909C336.047,156.638 335.904,157.35 335.67,158.105L335.346,159.222L335.183,159.779C335.114,159.994 335.117,160.054 334.94,160.518C334.341,162.053 333.772,162.787 333.242,163.531C332.159,164.972 331.111,166.032 330.054,167.095C329.004,168.146 327.935,169.113 326.854,170.045C322.539,173.771 318.075,177.028 313.327,180.042C311.958,180.911 310.145,180.506 309.276,179.137C308.563,178.013 308.709,176.587 309.544,175.633L309.583,175.589C313.151,171.516 316.834,167.474 320.255,163.479C321.102,162.475 321.924,161.47 322.701,160.489C323.464,159.517 324.199,158.497 324.66,157.682C324.904,157.305 325.053,156.859 324.917,157.108C324.875,157.256 324.94,156.979 324.962,156.865L325.055,156.43L325.242,155.562C325.382,155.003 325.461,154.364 325.564,153.756C325.66,153.14 325.775,152.541 325.841,151.897C326.519,146.847 326.83,141.533 327.028,136.212C327.236,130.905 327.337,125.472 327.369,120.212L327.37,120.178C327.39,116.934 330.035,114.321 333.278,114.341C336.45,114.36 339.019,116.901 339.113,120.045Z" style="fill:rgb(250,171,118);fill-rule:nonzero;"/>
                <path d="M334.834,110.893C330.04,113.269 325.292,117.853 323.319,128.473C324.567,132.659 341.686,140.731 341.686,140.731C341.686,140.731 351.217,104.771 334.834,110.893Z" style="fill:rgb(76,163,255);fill-rule:nonzero;"/>
                <path d="M335.884,85.296C336.01,86.052 335.709,86.745 335.211,86.843C334.714,86.941 334.208,86.408 334.082,85.651C333.956,84.895 334.257,84.202 334.754,84.104C335.252,84.006 335.757,84.539 335.884,85.296Z" style="fill:rgb(12,43,52);fill-rule:nonzero;"/>
                <path d="M334.981,84.102L333.065,83.94C333.065,83.94 334.24,85.174 334.981,84.102Z" style="fill:rgb(12,43,52);fill-rule:nonzero;"/>
                <path d="M335.702,86.137C335.702,86.137 334.954,89.649 333.794,91.501C334.954,92.234 336.592,91.471 336.592,91.471L335.702,86.137Z" style="fill:rgb(246,137,73);fill-rule:nonzero;"/>
                <path d="M333.9,80.139C333.788,80.14 333.676,80.1 333.59,80.017C333.413,79.846 333.412,79.56 333.588,79.377C335.355,77.546 337.408,77.881 337.495,77.897C337.74,77.94 337.898,78.174 337.847,78.421C337.796,78.667 337.557,78.831 337.312,78.789C337.232,78.775 335.636,78.538 334.231,79.995C334.14,80.089 334.02,80.137 333.9,80.139Z" style="fill:rgb(12,43,52);fill-rule:nonzero;"/>
                <path d="M360.627,77.851C361.615,87.252 362.23,91.204 358.396,96.887C352.627,105.434 341.035,104.901 337.3,96.061C333.938,88.104 332.889,74.068 341.246,68.598C349.479,63.21 359.641,68.45 360.627,77.851Z" style="fill:rgb(250,171,118);fill-rule:nonzero;"/>
                <path d="M343.526,84.717C337.526,83.661 336.082,76.772 338.304,73.772C328.192,74.217 321.381,62.907 332.304,56.462C343.226,50.018 352.859,59.995 352.082,63.772C365.526,62.55 373.415,73.619 366.082,81.853C375.748,83.421 390.233,94.322 379.602,105.769C393.97,107.883 395.526,152.883 356.415,144.883C315.167,136.446 350.97,100.549 350.97,100.549C350.97,100.549 340.549,97.605 343.526,84.717Z" style="fill:rgb(12,43,52);fill-rule:nonzero;"/>
                <path d="M381.841,108.7L380.989,108.176C384.617,102.277 385.218,96.912 382.772,92.229C379.62,86.192 371.976,82.691 366.053,82.353L366.109,81.354C372.314,81.709 380.335,85.399 383.659,91.766C386.241,96.712 385.612,102.568 381.841,108.7Z" style="fill:rgb(12,43,52);fill-rule:nonzero;"/>
                <path d="M370.466,82.861C373.924,82.29 372.286,76.663 369.748,75.164C367.211,73.665 355.04,76.104 356.382,79.975C357.724,83.848 365.836,83.625 370.466,82.861Z" style="fill:white;fill-rule:nonzero;"/>
                <path d="M371.093,81.453C374.534,80.787 373.148,76.225 370.57,74.797C367.993,73.368 357.358,74.427 358.807,78.26C360.255,82.094 366.486,82.345 371.093,81.453Z" style="fill:rgb(76,163,255);fill-rule:nonzero;"/>
                <path d="M335.055,74.911C332.867,74.911 330.646,74.136 328.72,72.639C325.853,70.412 324.269,67.074 324.684,64.133C324.947,62.262 326.119,59.689 330.201,58.058L330.572,58.986C327.693,60.137 325.999,61.965 325.674,64.273C325.308,66.865 326.744,69.839 329.333,71.849C332.006,73.926 335.29,74.471 338.113,73.31L338.494,74.235C337.391,74.688 336.228,74.911 335.055,74.911Z" style="fill:rgb(12,43,52);fill-rule:nonzero;"/>
                <path d="M345.901,85.823C345.451,88.279 345.307,89.326 344.028,90.483C342.105,92.223 339.509,91.23 339.295,88.713C339.102,86.447 339.871,82.812 342.161,82.044C344.418,81.288 346.351,83.368 345.901,85.823Z" style="fill:rgb(250,171,118);fill-rule:nonzero;"/>
                <path d="M340.377,93.646L339.57,92.203C339.502,92.081 339.502,91.932 339.57,91.81L340.377,90.367C340.531,90.092 340.927,90.092 341.081,90.367L341.888,91.81C341.956,91.932 341.956,92.081 341.888,92.203L341.081,93.646C340.927,93.921 340.531,93.921 340.377,93.646Z" style="fill:white;fill-rule:nonzero;"/>
                <path d="M330.401,169.468C330.401,169.468 329.029,219.605 327.203,252.588C325.264,282.856 322.773,353.645 322.773,353.645L330.416,354.044C330.416,354.044 347.345,294.482 346.626,258.488C366.493,208.148 359.348,170.977 359.348,170.977L330.401,169.468Z" style="fill:rgb(250,171,118);fill-rule:nonzero;"/>
                <path d="M323.343,350.478C323,350.236 322.538,350.223 322.173,350.454C319.582,352.088 316.73,354.358 309.478,354.678C304.397,354.903 305.654,357.698 312.922,358.606C321.467,359.672 323.3,361.424 326.061,362.121C328.721,362.792 331.009,360.707 330.962,354.913C330.958,354.51 330.695,354.15 330.318,354.002C326.414,352.47 324.26,351.126 323.343,350.478Z" style="fill:rgb(12,43,52);fill-rule:nonzero;"/>
                <path d="M340.549,169.468C340.549,169.468 354.54,228.804 362.663,256.416C371.194,285.415 377.946,351.597 377.898,353.793L384.517,353.793C384.517,353.793 393.065,300.15 382.471,256.389C381.498,185.413 369.232,169.468 369.232,169.468L340.549,169.468Z" style="fill:rgb(250,171,118);fill-rule:nonzero;"/>
                <path d="M377.725,351.395C377.352,351.244 376.951,351.344 376.71,351.657C375.002,353.876 373.763,356.334 368.708,358.494C364.532,360.278 366.838,362.722 373.38,361.824C381.072,360.768 381.176,362.019 383.773,362.019C386.276,362.019 387.581,359.439 385.693,353.832C385.562,353.442 385.22,353.157 384.849,353.106C381.002,352.575 378.72,351.799 377.725,351.395Z" style="fill:rgb(12,43,52);fill-rule:nonzero;"/>
                <path d="M330.401,169.468C330.401,169.468 323.795,213.407 324.726,273.438C358.485,273.438 386.304,263.938 386.304,263.938C386.304,263.938 386.601,186.122 369.232,169.468C359.203,166.768 330.629,168.563 330.401,169.468Z" style="fill:rgb(12,43,52);fill-rule:nonzero;"/>
                <path d="M331.17,264.911C331.037,264.911 330.927,264.806 330.92,264.673C329.052,226.322 333.586,172.182 333.632,171.639C333.643,171.511 333.736,171.41 333.873,171.41C333.883,171.41 333.892,171.411 333.902,171.412C334.04,171.423 334.142,171.544 334.13,171.682C334.084,172.224 329.553,226.331 331.42,264.648C331.427,264.786 331.32,264.904 331.182,264.91L331.17,264.911Z" style="fill:rgb(69,87,93);fill-rule:nonzero;"/>
                <path d="M357.304,226.556L362.987,196.415L365.283,203.628L357.304,226.556Z" style="fill:rgb(2,30,39);fill-rule:nonzero;"/>
            </g>
        </g>
    </g>
</svg>
