<?xml version="1.0" encoding="UTF-8" standalone="no"?><!DOCTYPE svg PUBLIC "-//W3C//DTD SVG 1.1//EN" "http://www.w3.org/Graphics/SVG/1.1/DTD/svg11.dtd"><svg width="100%" height="100%" viewBox="0 0 2250 521" version="1.1" xmlns="http://www.w3.org/2000/svg" xmlns:xlink="http://www.w3.org/1999/xlink" xml:space="preserve" xmlns:serif="http://www.serif.com/" style="fill-rule:evenodd;clip-rule:evenodd;stroke-linejoin:round;stroke-miterlimit:2;"><g><path d="M111.889,242.552c30.071,25.857 68.361,49.697 112.449,14.249c44.088,-35.449 73.41,-103.973 80.03,-157.762l37.484,-22.391c-0,-0 3.039,112.977 -35.458,206.616c-38.495,93.639 -88.134,106.871 -88.134,106.871c-50.533,-37.607 -90.467,-94.508 -106.371,-147.583Z" style="fill:#004182;"/><path d="M377.409,55.086c-0.821,19.813 -6.737,118.114 -45.157,201.961c-12.471,27.213 -25.559,47.725 -37.854,63.151c6.924,-11.809 13.818,-25.546 20.397,-41.549c34.222,-83.245 36.974,-181.126 37.042,-208.247l25.572,-15.316Z" style="fill:#00a650;"/><path d="M399.815,41.667c-1.831,26.594 -10.834,121.251 -49.561,202.59c-13.228,27.784 -26.965,48.727 -39.801,64.478c1.352,-2.236 2.704,-4.542 4.054,-6.916c12.126,-16.269 24.764,-37.802 36.451,-66.228c27.629,-67.207 35.36,-143.662 37.446,-187.09l11.411,-6.834Z" style="fill:#004182;"/><path d="M27.873,439.998l2.854,-0c2.434,-0 4.245,-0.42 5.448,-1.274c1.188,-0.838 1.782,-2.125 1.782,-3.848c-0,-2.021 -0.551,-3.473 -1.667,-4.342c-1.1,-0.883 -2.955,-1.317 -5.563,-1.317l-2.854,0l-0,10.781Zm-0,24.435l3.317,0c2.334,0 4.072,-0.449 5.216,-1.362c1.145,-0.899 1.725,-2.276 1.725,-4.133c-0,-2.096 -0.594,-3.654 -1.782,-4.672c-1.203,-1.003 -3.043,-1.512 -5.535,-1.512l-2.941,-0l-0,11.679Zm-16.082,14.734l0,-64.234l20.761,-0c7.027,-0 12.359,1.511 16.01,4.521c3.651,3.01 5.476,7.397 5.476,13.161c0,3.399 -0.666,6.244 -2.013,8.535c-1.348,2.306 -3.449,4.193 -6.303,5.69c2.797,1.018 4.912,2.74 6.346,5.151c1.435,2.41 2.144,5.48 2.144,9.193c0,5.96 -1.825,10.451 -5.476,13.46c-3.651,3.01 -9.099,4.523 -16.358,4.523l-20.587,-0Z" style="fill:#004182;"/><path d="M82.291,455.898l12.778,0l-6.418,-21.666l-6.36,21.666Zm-23.631,23.269l21.719,-64.234l18.168,-0l20.529,64.234l-17.052,-0l-2.246,-7.187l-21.979,-0l-2.375,7.187l-16.764,-0Z" style="fill:#004182;"/><path d="M140.649,462.007c4.173,-0.434 7.505,-2.036 9.997,-4.776c2.493,-2.754 3.738,-6.199 3.738,-10.316c0,-4.447 -1.275,-8.101 -3.81,-10.946c-2.536,-2.859 -5.839,-4.327 -9.925,-4.416l0,30.454Zm-6.708,-47.074c5.912,-0 10.635,0.389 14.156,1.168c3.52,0.763 6.678,2.051 9.489,3.832c4.434,2.86 7.81,6.634 10.113,11.305c2.304,4.657 3.463,10.062 3.463,16.201c-0,5.54 -1.275,10.6 -3.826,15.212c-2.534,4.597 -6.128,8.37 -10.778,11.29c-2.884,1.811 -6.129,3.144 -9.751,3.968c-3.622,0.838 -7.911,1.258 -12.866,1.258l-9.374,-0l0,-64.234l9.374,-0Z" style="fill:#004182;"/><path d="M195.574,455.898l12.779,0l-6.419,-21.666l-6.36,21.666Zm-23.63,23.269l21.718,-64.234l18.168,-0l20.53,64.234l-17.053,-0l-2.245,-7.187l-21.979,-0l-2.376,7.187l-16.763,-0Z" style="fill:#004182;"/><path d="M237.938,479.167l-0,-64.234l7.041,-0l23.124,28.119l-0,-28.119l16.081,-0l0,64.234l-7.302,-0l-22.862,-27.865l0,27.865l-16.082,-0Z" style="fill:#004182;"/><path d="M335.646,445.837l1.914,-0c2.636,-0 4.694,-0.674 6.157,-2.022c1.463,-1.347 2.187,-3.219 2.187,-5.615c0,-2.545 -0.724,-4.506 -2.173,-5.869c-1.449,-1.362 -3.535,-2.036 -6.259,-2.036l-1.826,-0l0,15.542Zm-16.081,33.33l-0,-64.234l16.168,-0c8.868,-0 15.46,1.886 19.777,5.674c4.317,3.789 6.476,9.598 6.476,17.399c-0,7.546 -2.101,13.415 -6.288,17.623c-4.187,4.193 -10.069,6.288 -17.632,6.288l-2.42,0l0,17.25l-16.081,-0Z" style="fill:#00a650;"/><path d="M399.106,431.958c-3.972,-0 -7.297,1.448 -9.991,4.345c-2.68,2.898 -4.027,6.49 -4.027,10.751c0,4.275 1.334,7.855 4.013,10.738c2.666,2.883 6.006,4.332 10.005,4.332c3.972,-0 7.298,-1.449 9.991,-4.347c2.68,-2.897 4.026,-6.475 4.026,-10.723c0,-4.231 -1.346,-7.811 -4.026,-10.722c-2.693,-2.912 -6.019,-4.374 -9.991,-4.374Zm-0.055,-16.958c3.724,0 7.27,0.653 10.623,1.96c3.353,1.306 6.295,3.167 8.809,5.61c3.381,3.195 5.978,6.902 7.778,11.12c1.801,4.204 2.694,8.663 2.694,13.351c-0,4.686 -0.907,9.16 -2.722,13.393c-1.813,4.246 -4.383,7.967 -7.75,11.162c-2.57,2.444 -5.525,4.304 -8.864,5.611c-3.353,1.306 -6.872,1.96 -10.568,1.96c-3.71,-0 -7.215,-0.654 -10.527,-1.96c-3.326,-1.307 -6.28,-3.167 -8.877,-5.611c-3.326,-3.167 -5.896,-6.874 -7.696,-11.12c-1.801,-4.233 -2.694,-8.721 -2.694,-13.435c-0,-4.716 0.893,-9.175 2.68,-13.393c1.786,-4.218 4.356,-7.911 7.71,-11.078c2.597,-2.471 5.551,-4.346 8.877,-5.638c3.312,-1.293 6.817,-1.932 10.527,-1.932Z" style="fill:#00a650;"/><path d="M435.238,478.762l7.852,-64.233l13.112,-0l10.953,28.568l11.112,-28.568l12.779,-0l8.867,64.233l-16.59,0l-3.477,-29.481l-12.01,29.751l-13.04,-29.751l-2.97,29.481l-16.588,0Z" style="fill:#00a650;"/></g><path d="M551.996,45.313c-0,-2.013 -2.334,-3.646 -5.208,-3.646l-10.417,-0c-2.875,-0 -5.208,1.633 -5.208,3.646l-0,430.208c-0,2.012 2.333,3.646 5.208,3.646l10.417,-0c2.874,-0 5.208,-1.634 5.208,-3.646l-0,-430.208Z" style="fill:#004182;"/><path d="M634.353,196.317c-0,8.562 -3.004,15.882 -9.011,21.958c-6.008,6.076 -13.258,9.115 -21.751,9.115l-30.762,-0l0,-129.883l30.762,-0c8.562,-0 15.83,3.038 21.803,9.114c5.972,6.077 8.959,13.362 8.959,21.855l-0,67.841Zm-41.948,11.704l11.807,0c3.108,0 5.732,-1.122 7.872,-3.366c2.141,-2.244 3.211,-4.885 3.211,-7.924l-0,-67.945c-0,-3.107 -1.088,-5.765 -3.263,-7.975c-2.175,-2.209 -4.781,-3.314 -7.82,-3.314l-11.807,-0l-0,90.524Z" style="fill:#004182;fill-rule:nonzero;"/><rect x="651.546" y="97.61" width="19.576" height="129.779" style="fill:#004182;fill-rule:nonzero;"/><path d="M719.491,97.61c10.91,0 18.92,3.004 24.03,9.011c4.488,5.248 6.732,12.567 6.732,21.958l-0,18.851c-0,9.183 -3.487,16.952 -10.461,23.304l14.499,56.656l-21.17,-0l-11.869,-48.888l-13.05,0l-0,48.888l-19.576,-0l-0,-129.78l30.865,0Zm11.704,31.28c0,-7.526 -3.728,-11.29 -11.186,-11.29l-11.807,0l-0,41.534l11.807,-0c3.107,-0 5.749,-1.105 7.924,-3.315c2.175,-2.209 3.262,-4.868 3.262,-7.975l0,-18.954Z" style="fill:#004182;fill-rule:nonzero;"/><path d="M771.072,227.39l-0,-129.883l55.723,-0l-0,19.679l-36.148,0l0,35.423l26.412,-0l-0,19.679l-26.412,-0l0,35.422l36.148,0l-0,19.68l-55.723,-0Z" style="fill:#004182;fill-rule:nonzero;"/><path d="M859.835,186.219l0,41.171l-19.576,-0l0,-129.883l19.576,-0l0,46.298l23.926,-46.298l20.87,-0l-26.795,52.977l31.422,76.906l-23.011,-0l-20.553,-52.733l-5.859,11.562Z" style="fill:#004182;fill-rule:nonzero;"/><path d="M940.106,117.29l-20.819,-0l0,-19.68l61.109,0l0,19.68l-20.715,-0l0,110.1l-19.575,-0l-0,-110.1Z" style="fill:#004182;fill-rule:nonzero;"/><path d="M1024.83,95.953c8.631,0 15.968,3.038 22.009,9.115c6.042,6.076 9.063,13.395 9.063,21.958l0,70.845c0,8.631 -3.038,15.968 -9.114,22.009c-6.077,6.042 -13.396,9.063 -21.958,9.063c-8.631,0 -15.951,-3.038 -21.958,-9.114c-6.007,-6.077 -9.011,-13.396 -9.011,-21.958l-0,-70.845c-0,-8.632 3.038,-15.968 9.115,-22.01c6.076,-6.042 13.361,-9.063 21.854,-9.063Zm10.668,30.658c0,-3.107 -1.088,-5.748 -3.263,-7.923c-2.175,-2.175 -4.816,-3.263 -7.923,-3.263c-3.107,0 -5.766,1.088 -7.975,3.263c-2.21,2.175 -3.315,4.816 -3.315,7.923l0,71.053c0,3.107 1.105,5.748 3.315,7.923c2.209,2.175 4.868,3.263 7.975,3.263c3.107,-0 5.748,-1.088 7.923,-3.263c2.175,-2.175 3.263,-4.816 3.263,-7.923l0,-71.053Z" style="fill:#004182;fill-rule:nonzero;"/><path d="M1104.07,97.61c10.909,0 18.919,3.004 24.029,9.011c4.488,5.248 6.732,12.567 6.732,21.958l0,18.851c0,9.183 -3.487,16.952 -10.461,23.304l14.499,56.656l-21.17,-0l-11.869,-48.888l-13.05,0l-0,48.888l-19.576,-0l0,-129.78l30.866,0Zm11.703,31.28c0,-7.526 -3.728,-11.29 -11.186,-11.29l-11.807,0l-0,41.534l11.807,-0c3.108,-0 5.749,-1.105 7.924,-3.315c2.175,-2.209 3.262,-4.868 3.262,-7.975l0,-18.954Z" style="fill:#004182;fill-rule:nonzero;"/><path d="M1179.75,197.56l-4.757,29.83l-20.383,-0l22.063,-129.78l26.928,0l21.749,129.78l-20.582,-0l-4.58,-29.83l-20.438,0Zm10.283,-70.224l-7.251,51.166l14.501,0l-7.25,-51.166Z" style="fill:#004182;fill-rule:nonzero;"/><path d="M1244.31,117.29l-20.819,-0l0,-19.68l61.109,0l0,19.68l-20.715,-0l0,110.1l-19.575,-0l-0,-110.1Z" style="fill:#004182;fill-rule:nonzero;"/><path d="M1376.26,195.074c0.138,9.046 -2.209,16.779 -7.043,23.201c-3.176,4.35 -7.664,7.423 -13.465,9.218c-3.107,0.967 -6.732,1.45 -10.875,1.45c-7.665,0 -14.017,-1.899 -19.058,-5.696c-4.212,-3.108 -7.543,-7.337 -9.995,-12.688c-2.451,-5.352 -3.884,-11.48 -4.298,-18.385l18.643,-1.346c0.829,7.565 2.831,13.048 6.008,16.449c2.347,2.567 5.04,3.782 8.079,3.644c4.281,-0.138 7.699,-2.246 10.253,-6.324c1.312,-2.004 1.968,-4.872 1.968,-8.603c0,-5.392 -2.451,-10.748 -7.353,-16.069c-3.867,-3.663 -9.667,-9.157 -17.401,-16.483c-6.491,-6.29 -11.083,-11.923 -13.775,-16.899c-2.901,-5.598 -4.351,-11.68 -4.351,-18.245c0,-11.819 3.971,-20.769 11.911,-26.85c4.903,-3.663 10.979,-5.495 18.23,-5.495c6.974,0 12.946,1.554 17.918,4.661c3.867,2.417 6.991,5.8 9.374,10.15c2.382,4.351 3.815,9.357 4.298,15.019l-18.747,3.418c-0.552,-5.317 -2.072,-9.46 -4.557,-12.429c-1.796,-2.141 -4.385,-3.211 -7.768,-3.211c-3.591,-0 -6.319,1.588 -8.183,4.764c-1.519,2.555 -2.279,5.731 -2.279,9.529c0,5.939 2.555,11.98 7.665,18.126c1.933,2.348 4.833,5.11 8.7,8.286c4.558,3.798 7.561,6.456 9.011,7.975c4.834,4.834 8.562,9.598 11.186,14.293c1.243,2.21 2.244,4.247 3.004,6.111c1.864,4.627 2.831,8.77 2.9,12.429Z" style="fill:#004182;fill-rule:nonzero;"/><path d="M1410.54,117.29l-20.818,-0l-0,-19.68l61.109,0l-0,19.68l-20.715,-0l0,110.1l-19.576,-0l0,-110.1Z" style="fill:#004182;fill-rule:nonzero;"/><path d="M1473.9,197.56l-4.756,29.83l-20.384,-0l22.064,-129.78l26.927,0l21.749,129.78l-20.582,-0l-4.58,-29.83l-20.438,0Zm10.283,-70.224l-7.25,51.166l14.5,0l-7.25,-51.166Z" style="fill:#004182;fill-rule:nonzero;"/><path d="M1557.95,97.507l25.978,87.289l-0,-87.289l19.575,-0l0,129.883l-21.025,-0l-26.93,-83.171l0,83.171l-19.576,-0l0,-129.883l21.978,-0Z" style="fill:#004182;fill-rule:nonzero;"/><path d="M1682.53,196.317c-0,8.562 -3.004,15.882 -9.011,21.958c-6.008,6.076 -13.258,9.115 -21.751,9.115l-30.762,-0l0,-129.883l30.762,-0c8.562,-0 15.83,3.038 21.803,9.114c5.972,6.077 8.959,13.362 8.959,21.855l-0,67.841Zm-41.948,11.704l11.808,0c3.107,0 5.731,-1.122 7.871,-3.366c2.141,-2.244 3.211,-4.885 3.211,-7.924l0,-67.945c0,-3.107 -1.087,-5.765 -3.263,-7.975c-2.175,-2.209 -4.781,-3.314 -7.819,-3.314l-11.808,-0l0,90.524Z" style="fill:#004182;fill-rule:nonzero;"/><path d="M1721.13,197.56l-4.756,29.83l-20.383,-0l22.063,-129.78l26.927,0l21.75,129.78l-20.583,-0l-4.58,-29.83l-20.438,0Zm10.283,-70.224l-7.25,51.166l14.5,0l-7.25,-51.166Z" style="fill:#004182;fill-rule:nonzero;"/><path d="M1814.07,97.61c10.91,0 18.92,3.004 24.029,9.011c4.488,5.248 6.733,12.567 6.733,21.958l-0,18.851c-0,9.183 -3.487,16.952 -10.461,23.304l14.498,56.656l-21.169,-0l-11.869,-48.888l-13.051,0l0,48.888l-19.575,-0l-0,-129.78l30.865,0Zm11.704,31.28c-0,-7.526 -3.729,-11.29 -11.186,-11.29l-11.808,0l0,41.534l11.808,-0c3.107,-0 5.748,-1.105 7.923,-3.315c2.175,-2.209 3.263,-4.868 3.263,-7.975l-0,-18.954Z" style="fill:#004182;fill-rule:nonzero;"/><path d="M1927.17,196.317c-0,8.562 -3.004,15.882 -9.011,21.958c-6.008,6.076 -13.258,9.115 -21.751,9.115l-30.762,-0l0,-129.883l30.762,-0c8.562,-0 15.83,3.038 21.802,9.114c5.973,6.077 8.96,13.362 8.96,21.855l-0,67.841Zm-41.948,11.704l11.807,0c3.108,0 5.731,-1.122 7.872,-3.366c2.141,-2.244 3.211,-4.885 3.211,-7.924l-0,-67.945c-0,-3.107 -1.088,-5.765 -3.263,-7.975c-2.175,-2.209 -4.782,-3.314 -7.82,-3.314l-11.807,-0l-0,90.524Z" style="fill:#004182;fill-rule:nonzero;"/><rect x="1944.37" y="97.61" width="19.576" height="129.779" style="fill:#004182;fill-rule:nonzero;"/><path d="M2045.04,195.074c0.138,9.046 -2.21,16.779 -7.043,23.201c-3.177,4.35 -7.665,7.423 -13.465,9.218c-3.107,0.967 -6.732,1.45 -10.875,1.45c-7.665,0 -14.018,-1.899 -19.058,-5.696c-4.212,-3.108 -7.544,-7.337 -9.995,-12.688c-2.451,-5.352 -3.884,-11.48 -4.299,-18.385l18.644,-1.346c0.828,7.565 2.831,13.048 6.007,16.449c2.348,2.567 5.041,3.782 8.079,3.644c4.281,-0.138 7.699,-2.246 10.254,-6.324c1.312,-2.004 1.968,-4.872 1.968,-8.603c-0,-5.392 -2.451,-10.748 -7.354,-16.069c-3.867,-3.663 -9.667,-9.157 -17.4,-16.483c-6.491,-6.29 -11.083,-11.923 -13.776,-16.899c-2.9,-5.598 -4.35,-11.68 -4.35,-18.245c-0,-11.819 3.97,-20.769 11.911,-26.85c4.903,-3.663 10.979,-5.495 18.229,-5.495c6.974,0 12.947,1.554 17.919,4.661c3.866,2.417 6.991,5.8 9.373,10.15c2.382,4.351 3.815,9.357 4.299,15.019l-18.748,3.418c-0.552,-5.317 -2.071,-9.46 -4.557,-12.429c-1.795,-2.141 -4.384,-3.211 -7.768,-3.211c-3.591,-0 -6.318,1.588 -8.182,4.764c-1.519,2.555 -2.279,5.731 -2.279,9.529c0,5.939 2.555,11.98 7.665,18.126c1.933,2.348 4.833,5.11 8.7,8.286c4.557,3.798 7.561,6.456 9.011,7.975c4.833,4.834 8.562,9.598 11.186,14.293c1.243,2.21 2.244,4.247 3.004,6.111c1.864,4.627 2.831,8.77 2.9,12.429Z" style="fill:#004182;fill-rule:nonzero;"/><path d="M2081.47,197.56l-4.756,29.83l-20.384,-0l22.063,-129.78l26.928,0l21.749,129.78l-20.582,-0l-4.58,-29.83l-20.438,0Zm10.283,-70.224l-7.25,51.166l14.5,0l-7.25,-51.166Z" style="fill:#004182;fill-rule:nonzero;"/><path d="M2202.37,195.074c0.138,9.046 -2.21,16.779 -7.043,23.201c-3.177,4.35 -7.665,7.423 -13.465,9.218c-3.107,0.967 -6.732,1.45 -10.875,1.45c-7.665,0 -14.017,-1.899 -19.058,-5.696c-4.212,-3.108 -7.544,-7.337 -9.995,-12.688c-2.451,-5.352 -3.884,-11.48 -4.298,-18.385l18.643,-1.346c0.829,7.565 2.831,13.048 6.007,16.449c2.348,2.567 5.041,3.782 8.079,3.644c4.281,-0.138 7.699,-2.246 10.254,-6.324c1.312,-2.004 1.968,-4.872 1.968,-8.603c0,-5.392 -2.451,-10.748 -7.354,-16.069c-3.867,-3.663 -9.667,-9.157 -17.4,-16.483c-6.491,-6.29 -11.083,-11.923 -13.776,-16.899c-2.9,-5.598 -4.35,-11.68 -4.35,-18.245c0,-11.819 3.97,-20.769 11.911,-26.85c4.903,-3.663 10.979,-5.495 18.229,-5.495c6.974,0 12.947,1.554 17.919,4.661c3.867,2.417 6.991,5.8 9.373,10.15c2.383,4.351 3.815,9.357 4.299,15.019l-18.747,3.418c-0.553,-5.317 -2.072,-9.46 -4.558,-12.429c-1.795,-2.141 -4.384,-3.211 -7.768,-3.211c-3.59,-0 -6.318,1.588 -8.182,4.764c-1.519,2.555 -2.279,5.731 -2.279,9.529c0,5.939 2.555,11.98 7.665,18.126c1.933,2.348 4.833,5.11 8.7,8.286c4.557,3.798 7.561,6.456 9.011,7.975c4.833,4.834 8.562,9.598 11.186,14.293c1.243,2.21 2.244,4.247 3.004,6.111c1.864,4.627 2.831,8.77 2.9,12.429Z" style="fill:#004182;fill-rule:nonzero;"/><rect x="2218.63" y="97.61" width="19.576" height="129.779" style="fill:#004182;fill-rule:nonzero;"/><path d="M955.901,293.444c9.529,-0 17.124,3.003 22.786,9.011c5.248,5.731 7.872,13.05 7.872,21.958l-0,18.85c-0,8.562 -2.986,15.882 -8.959,21.958c-5.973,6.076 -13.206,9.115 -21.699,9.115l-11.29,-0l0,48.887l-19.576,-0l0,-129.779l30.866,-0Zm11.704,31.279c-0,-3.383 -1.019,-6.111 -3.056,-8.182c-2.037,-2.072 -4.747,-3.107 -8.13,-3.107l-11.808,-0l0,41.533l11.808,0c3.107,0 5.748,-1.105 7.923,-3.314c2.175,-2.21 3.263,-4.868 3.263,-7.976l-0,-18.954Z" style="fill:#00a650;fill-rule:nonzero;"/><path d="M1014.81,393.393l-4.757,29.83l-20.383,-0l22.063,-129.779l26.928,-0l21.749,129.779l-20.582,-0l-4.58,-29.83l-20.438,0Zm10.283,-70.223l-7.25,51.166l14.5,-0l-7.25,-51.166Z" style="fill:#00a650;fill-rule:nonzero;"/><path d="M1098.85,293.34l25.978,87.289l0,-87.289l19.576,0l-0,129.883l-21.026,-0l-26.929,-83.171l-0,83.171l-19.576,-0l0,-129.883l21.977,0Z" style="fill:#00a650;fill-rule:nonzero;"/><path d="M1192.67,424.88c-8.631,0 -15.968,-3.038 -22.01,-9.114c-6.042,-6.077 -9.063,-13.362 -9.063,-21.855l0,-70.845c0,-8.631 3.039,-15.968 9.115,-22.01c6.076,-6.041 13.396,-9.062 21.958,-9.062c8.631,-0 15.95,3.038 21.958,9.114c6.007,6.077 9.011,13.396 9.011,21.958l-0,14.811l-20.301,0l-0,-15.225c-0,-3.107 -1.105,-5.766 -3.314,-7.975c-2.21,-2.21 -4.868,-3.315 -7.976,-3.315c-3.107,0 -5.748,1.105 -7.923,3.315c-2.175,2.209 -3.263,4.868 -3.263,7.975l0,71.052c0,3.107 1.088,5.749 3.263,7.924c2.175,2.175 4.816,3.262 7.923,3.262c3.108,0 5.766,-1.084 7.976,-3.253c2.209,-2.17 3.314,-4.804 3.314,-7.902l-0,-25.51l-10.875,-0l-0,-19.679l31.176,-0l-0,45.365c-0,8.632 -3.039,15.951 -9.115,21.958c-6.076,6.007 -13.361,9.011 -21.854,9.011Z" style="fill:#00a650;fill-rule:nonzero;"/><path d="M1262.25,393.393l-4.756,29.83l-20.384,-0l22.063,-129.779l26.928,-0l21.749,129.779l-20.582,-0l-4.58,-29.83l-20.438,0Zm10.283,-70.223l-7.25,51.166l14.5,-0l-7.25,-51.166Z" style="fill:#00a650;fill-rule:nonzero;"/><path d="M1346.29,293.34l25.978,87.289l-0,-87.289l19.575,0l0,129.883l-21.026,-0l-26.929,-83.171l0,83.171l-19.576,-0l0,-129.883l21.978,0Z" style="fill:#00a650;fill-rule:nonzero;"/><path d="M1449.75,291.787c8.632,-0 15.968,3.038 22.01,9.114c6.042,6.076 9.063,13.396 9.063,21.958l-0,70.845c-0,8.631 -3.038,15.968 -9.115,22.01c-6.076,6.042 -13.395,9.063 -21.958,9.063c-8.631,-0 -15.95,-3.039 -21.957,-9.115c-6.008,-6.076 -9.011,-13.396 -9.011,-21.958l-0,-70.845c-0,-8.631 3.038,-15.968 9.114,-22.01c6.077,-6.042 13.361,-9.062 21.854,-9.062Zm10.669,30.658c-0,-3.108 -1.088,-5.749 -3.263,-7.924c-2.175,-2.175 -4.816,-3.262 -7.923,-3.262c-3.108,-0 -5.766,1.087 -7.976,3.262c-2.209,2.175 -3.314,4.816 -3.314,7.924l-0,71.052c-0,3.107 1.105,5.748 3.314,7.923c2.21,2.176 4.868,3.263 7.976,3.263c3.107,0 5.748,-1.087 7.923,-3.263c2.175,-2.175 3.263,-4.816 3.263,-7.923l-0,-71.052Z" style="fill:#00a650;fill-rule:nonzero;"/><path d="M1551.46,423.223l-53.341,-0l-0,-129.779l19.576,-0l-0,110.307l33.765,-0l-0,19.472Z" style="fill:#00a650;fill-rule:nonzero;"/><path d="M1590.06,393.393l-4.756,29.83l-20.383,-0l22.063,-129.779l26.928,-0l21.749,129.779l-20.583,-0l-4.58,-29.83l-20.438,0Zm10.283,-70.223l-7.25,51.166l14.5,-0l-7.25,-51.166Z" style="fill:#00a650;fill-rule:nonzero;"/><path d="M1671.71,368.225l0,54.998l-19.575,-0l-0,-129.779l19.575,-0l0,55.102l23.615,-0l0,-55.102l19.576,-0l-0,129.779l-19.576,-0l0,-54.998l-23.615,-0Z" style="fill:#00a650;fill-rule:nonzero;"/><path d="M1756.4,393.393l-4.756,29.83l-20.383,-0l22.063,-129.779l26.928,-0l21.749,129.779l-20.582,-0l-4.58,-29.83l-20.439,0Zm10.283,-70.223l-7.25,51.166l14.501,-0l-7.251,-51.166Z" style="fill:#00a650;fill-rule:nonzero;"/><path d="M1840.45,293.34l25.978,87.289l-0,-87.289l19.576,0l-0,129.883l-21.026,-0l-26.93,-83.171l0,83.171l-19.575,-0l-0,-129.883l21.977,0Z" style="fill:#00a650;fill-rule:nonzero;"/></svg>