<?xml version="1.0" encoding="UTF-8" standalone="no"?><!DOCTYPE svg PUBLIC "-//W3C//DTD SVG 1.1//EN" "http://www.w3.org/Graphics/SVG/1.1/DTD/svg11.dtd"><svg width="100%" height="100%" viewBox="0 0 1975 1975" version="1.1" xmlns="http://www.w3.org/2000/svg" xmlns:xlink="http://www.w3.org/1999/xlink" xml:space="preserve" xmlns:serif="http://www.serif.com/" style="fill-rule:evenodd;clip-rule:evenodd;stroke-linejoin:round;stroke-miterlimit:2;"><path d="M987.494,0.024c-545.366,-0 -987.494,442.116 -987.494,987.482c0,545.39 442.128,987.47 987.494,987.47c545.425,0 987.506,-442.08 987.506,-987.47c0,-545.331 -442.081,-987.435 -987.518,-987.435l0.012,-0.047Zm452.859,1424.23c-11.159,18.284 -31.093,29.471 -52.513,29.471c-11.348,0 -22.479,-3.14 -32.154,-9.071c-231.853,-141.622 -523.728,-173.696 -867.463,-95.162c-32.922,7.487 -66.176,-13.427 -73.688,-46.342c-1.036,-4.512 -1.559,-9.126 -1.559,-13.755c-0,-28.603 19.962,-53.609 47.854,-59.945c376.163,-85.939 698.827,-48.936 959.122,110.137c29.009,17.806 38.206,55.658 20.401,84.667Zm120.867,-268.881c-22.287,36.225 -69.69,47.663 -105.892,25.377c-265.437,-163.154 -670.054,-210.404 -984.015,-115.102c-40.718,12.299 -83.723,-10.648 -96.081,-51.295c-12.196,-40.417 10.958,-83.719 51.342,-96.022c358.629,-108.816 804.471,-56.106 1109.29,131.209c36.202,22.287 47.64,69.691 25.353,105.845l0,-0.012Zm10.377,-279.988c-318.265,-189.037 -843.361,-206.418 -1147.23,-114.193c-48.795,14.799 -100.397,-12.748 -115.184,-61.543c-14.707,-48.49 13.081,-100.495 61.566,-115.219c348.818,-105.892 928.688,-85.433 1295.11,132.094c28.032,16.582 45.28,46.827 45.28,79.396c0,16.601 -4.482,32.899 -12.97,47.167c-25.942,43.889 -82.78,58.358 -126.528,32.298l-0.047,-0Z" style="fill:#1ed760;fill-rule:nonzero;"/></svg>